<svg xmlns="http://www.w3.org/2000/svg" width="52" height="52" viewBox="0 0 52 52" fill="none">
  <g clip-path="url(#clip0_3846_17438)">
    <path d="M10.1649 10.8555C9.99595 11.0267 9.77426 11.1445 9.53146 11.1766L1.01222 12.4398C0.104344 12.5789 -0.26514 13.7029 0.378817 14.3666L12.0228 26.1737L18.6419 19.462L10.1543 10.8555H10.1649Z" fill="#7E43FF"/>
    <path d="M10.1562 10.869C10.3252 10.6977 10.4413 10.473 10.473 10.2267L11.7186 1.58814C11.8559 0.66754 12.9643 0.292879 13.6188 0.945859L25.2629 12.753L18.6438 19.4648L10.1562 10.8583V10.869Z" fill="#DB01EB"/>
    <path d="M40.38 10.9198C40.2111 10.7485 40.095 10.5237 40.0633 10.2775L38.8177 1.63892C38.6804 0.718321 37.572 0.34366 36.9175 0.996641L25.2734 12.8038L31.8925 19.5156L40.38 10.9091V10.9198Z" fill="#DB01EB"/>
    <path d="M40.3676 10.9102C40.5365 11.0814 40.7582 11.1992 41.001 11.2313L49.5203 12.4944C50.4282 12.6336 50.7976 13.7576 50.1537 14.4213L38.5097 26.2284L31.8906 19.5167L40.3782 10.9102H40.3676Z" fill="#3157FF"/>
    <path d="M40.3051 41.5566C40.474 41.3853 40.6957 41.2675 40.9385 41.2354L49.4578 39.9723C50.3656 39.8331 50.7351 38.7091 50.0912 38.0455L38.4472 26.2383L31.8281 32.9501L40.3157 41.5566H40.3051Z" fill="#3157FF"/>
    <path d="M40.3175 41.5489C40.1486 41.7202 40.0325 41.945 40.0008 42.1912L38.7552 50.8298C38.6179 51.7504 37.5095 52.1251 36.855 51.4721L25.2109 39.6649L31.83 32.9531L40.3175 41.5596V41.5489Z" fill="#FF6601"/>
    <path d="M10.1016 41.4825C10.2705 41.6538 10.3866 41.8786 10.4183 42.1248L11.664 50.7634C11.8012 51.684 12.9096 52.0587 13.5642 51.4057L25.2082 39.5985L18.5891 32.8867L10.1016 41.4932V41.4825Z" fill="#FF6601"/>
    <path d="M10.1102 41.4941C9.94126 41.3228 9.71957 41.205 9.47677 41.1729L0.957531 39.9098C0.0496564 39.7706 -0.319827 38.6466 0.32413 37.983L11.9681 26.1758L18.5872 32.8876L10.0996 41.4941H10.1102Z" fill="#7E43FF"/>
  </g>
  <defs>
    <clipPath id="clip0_3846_17438">
      <rect width="51.1894" height="51.1894" fill="white" transform="translate(0 0.613281)"/>
    </clipPath>
  </defs>
</svg>