<svg xmlns="http://www.w3.org/2000/svg" width="33" height="32" viewBox="0 0 33 32" fill="none">
  <path fill-rule="evenodd" clip-rule="evenodd" d="M19.6812 6.91011L28.0794 15.3083C28.1102 15.33 28.1396 15.3547 28.1672 15.3823C28.309 15.5241 28.3736 15.714 28.3609 15.8995C28.3531 16.0591 28.2883 16.2163 28.1665 16.3382C28.1404 16.3642 28.1128 16.3876 28.0838 16.4085L19.6819 24.8104C19.4216 25.0707 18.9995 25.0707 18.7391 24.8104C18.4788 24.55 18.4788 24.1279 18.7391 23.8676L26.0801 16.5266L5.02604 16.5266C4.65785 16.5266 4.35937 16.2281 4.35938 15.86C4.35938 15.4918 4.65785 15.1933 5.02604 15.1933L26.0787 15.1933L18.7384 7.85292C18.478 7.59257 18.478 7.17046 18.7384 6.91011C18.9987 6.64976 19.4208 6.64976 19.6812 6.91011Z" fill="black"/>
</svg>