<svg xmlns="http://www.w3.org/2000/svg" width="48" height="48" viewBox="0 0 48 48" fill="none">
<path d="M36.7209 35.3209L25.4009 24.0009L36.7209 12.6809C37.1209 12.2809 37.1209 11.6609 36.7209 11.2609C36.3209 10.8609 35.7009 10.8609 35.3009 11.2609L23.9809 22.5809L12.6809 11.2809C12.2809 10.8809 11.6609 10.8809 11.2609 11.2809C10.8609 11.6809 10.8609 12.3009 11.2609 12.7009L22.5809 24.0209L11.2609 35.3409C10.8609 35.7409 10.8609 36.3609 11.2609 36.7609C11.6609 37.1609 12.2809 37.1609 12.6809 36.7609L24.0009 25.4409L35.3209 36.7609C35.7209 37.1609 36.3409 37.1609 36.7409 36.7609C37.1409 36.3609 37.1409 35.7409 36.7409 35.3409L36.7209 35.3209Z" fill="white"/>
</svg>