<svg xmlns="http://www.w3.org/2000/svg" width="24" height="24" viewBox="0 0 24 24" fill="none">
  <path d="M18.3566 17.6605L12.6966 12.0005L18.3566 6.34047C18.5566 6.14047 18.5566 5.83047 18.3566 5.63047C18.1566 5.43047 17.8466 5.43047 17.6466 5.63047L11.9866 11.2905L6.33656 5.64047C6.13656 5.44047 5.82656 5.44047 5.62656 5.64047C5.42656 5.84047 5.42656 6.15047 5.62656 6.35047L11.2866 12.0105L5.62656 17.6705C5.42656 17.8705 5.42656 18.1805 5.62656 18.3805C5.82656 18.5805 6.13656 18.5805 6.33656 18.3805L11.9966 12.7205L17.6566 18.3805C17.8566 18.5805 18.1666 18.5805 18.3666 18.3805C18.5666 18.1805 18.5666 17.8705 18.3666 17.6705L18.3566 17.6605Z" fill="white"/>
</svg>