<svg width="98" height="98" viewBox="0 0 98 98" fill="none" xmlns="http://www.w3.org/2000/svg">
<g id="Group 2087325365">
<rect id="Rectangle 4252733" width="98" height="98" rx="24" fill="url(#paint0_radial_3640_1220)"/>
<g id="Group 2087325339">
<g id="1">
<path id="Polygon 58" d="M78 26.8339L63.5 18.7783V34.8894L78 26.8339Z" fill="url(#paint1_linear_3640_1220)"/>
<path id="Polygon 61" d="M63.5 26.8339L49 18.7783V34.8894L63.5 26.8339Z" fill="url(#paint2_linear_3640_1220)"/>
<path id="Polygon 59" d="M49 26.8339L34.5 18.7783V34.8894L49 26.8339Z" fill="url(#paint3_linear_3640_1220)"/>
<path id="Polygon 60" d="M34.5 26.8339L20 18.7783V34.8894L34.5 26.8339Z" fill="url(#paint4_linear_3640_1220)"/>
</g>
<g id="2">
<path id="Polygon 58_2" d="M20 42.9444L34.5 34.8889V51L20 42.9444Z" fill="url(#paint5_linear_3640_1220)"/>
<path id="Polygon 59_2" d="M34.5 42.9444L49 34.8889V51L34.5 42.9444Z" fill="url(#paint6_linear_3640_1220)"/>
<path id="Polygon 60_2" d="M49 42.9444L63.5 34.8889V51L49 42.9444Z" fill="url(#paint7_linear_3640_1220)"/>
<path id="Polygon 61_2" d="M63.5 42.9444L78 34.8889V51L63.5 42.9444Z" fill="url(#paint8_linear_3640_1220)"/>
</g>
<g id="3">
<path id="Polygon 58_3" d="M78 59.0557L63.5 51.0001V67.1112L78 59.0557Z" fill="url(#paint9_linear_3640_1220)"/>
<path id="Polygon 61_3" d="M63.5 59.0557L49 51.0001V67.1112L63.5 59.0557Z" fill="url(#paint10_linear_3640_1220)"/>
<path id="Polygon 59_3" d="M49 59.0557L34.5 51.0001V67.1112L49 59.0557Z" fill="url(#paint11_linear_3640_1220)"/>
<path id="Polygon 60_3" d="M34.5 59.0557L20 51.0001V67.1112L34.5 59.0557Z" fill="url(#paint12_linear_3640_1220)"/>
</g>
<g id="4">
<path id="Polygon 58_4" d="M20 75.167L34.5 67.1114V83.2225L20 75.167Z" fill="url(#paint13_linear_3640_1220)"/>
<path id="Polygon 61_4" d="M34.5 75.167L49 67.1114V83.2225L34.5 75.167Z" fill="url(#paint14_linear_3640_1220)"/>
<path id="Polygon 59_4" d="M49 75.167L63.5 67.1114V83.2225L49 75.167Z" fill="url(#paint15_linear_3640_1220)"/>
<path id="Polygon 60_4" d="M63.5 75.167L78 67.1114V83.2225L63.5 75.167Z" fill="url(#paint16_linear_3640_1220)"/>
</g>
</g>
</g>
<defs>
<radialGradient id="paint0_radial_3640_1220" cx="0" cy="0" r="1" gradientUnits="userSpaceOnUse" gradientTransform="translate(49 42.2823) rotate(90) scale(132.379)">
<stop/>
<stop offset="1"/>
</radialGradient>
<linearGradient id="paint1_linear_3640_1220" x1="78" y1="26.8339" x2="63.5" y2="26.8339" gradientUnits="userSpaceOnUse">
<stop stop-color="#FC79DF"/>
<stop offset="1" stop-color="#342D32" stop-opacity="0"/>
</linearGradient>
<linearGradient id="paint2_linear_3640_1220" x1="63.5" y1="26.8339" x2="49" y2="26.8339" gradientUnits="userSpaceOnUse">
<stop stop-color="#FC79DF"/>
<stop offset="1" stop-color="#342D32" stop-opacity="0"/>
</linearGradient>
<linearGradient id="paint3_linear_3640_1220" x1="49" y1="26.8339" x2="34.5" y2="26.8339" gradientUnits="userSpaceOnUse">
<stop stop-color="#FC79DF"/>
<stop offset="1" stop-color="#342D32" stop-opacity="0"/>
</linearGradient>
<linearGradient id="paint4_linear_3640_1220" x1="34.5" y1="26.8339" x2="20" y2="26.8339" gradientUnits="userSpaceOnUse">
<stop stop-color="#FC79DF"/>
<stop offset="1" stop-color="#342D32" stop-opacity="0"/>
</linearGradient>
<linearGradient id="paint5_linear_3640_1220" x1="20" y1="42.9444" x2="34.5" y2="42.9444" gradientUnits="userSpaceOnUse">
<stop stop-color="#FC79DF"/>
<stop offset="1" stop-color="#342D32" stop-opacity="0"/>
</linearGradient>
<linearGradient id="paint6_linear_3640_1220" x1="34.5" y1="42.9444" x2="49" y2="42.9444" gradientUnits="userSpaceOnUse">
<stop stop-color="#FC79DF"/>
<stop offset="1" stop-color="#342D32" stop-opacity="0"/>
</linearGradient>
<linearGradient id="paint7_linear_3640_1220" x1="49" y1="42.9444" x2="63.5" y2="42.9444" gradientUnits="userSpaceOnUse">
<stop stop-color="#FC79DF"/>
<stop offset="1" stop-color="#342D32" stop-opacity="0"/>
</linearGradient>
<linearGradient id="paint8_linear_3640_1220" x1="63.5" y1="42.9444" x2="78" y2="42.9444" gradientUnits="userSpaceOnUse">
<stop stop-color="#FC79DF"/>
<stop offset="1" stop-color="#342D32" stop-opacity="0"/>
</linearGradient>
<linearGradient id="paint9_linear_3640_1220" x1="78" y1="59.0557" x2="63.5" y2="59.0557" gradientUnits="userSpaceOnUse">
<stop stop-color="#FC79DF"/>
<stop offset="1" stop-color="#342D32" stop-opacity="0"/>
</linearGradient>
<linearGradient id="paint10_linear_3640_1220" x1="63.5" y1="59.0557" x2="49" y2="59.0557" gradientUnits="userSpaceOnUse">
<stop stop-color="#FC79DF"/>
<stop offset="1" stop-color="#342D32" stop-opacity="0"/>
</linearGradient>
<linearGradient id="paint11_linear_3640_1220" x1="49" y1="59.0557" x2="34.5" y2="59.0557" gradientUnits="userSpaceOnUse">
<stop stop-color="#FC79DF"/>
<stop offset="1" stop-color="#342D32" stop-opacity="0"/>
</linearGradient>
<linearGradient id="paint12_linear_3640_1220" x1="34.5" y1="59.0557" x2="20" y2="59.0557" gradientUnits="userSpaceOnUse">
<stop stop-color="#FC79DF"/>
<stop offset="1" stop-color="#342D32" stop-opacity="0"/>
</linearGradient>
<linearGradient id="paint13_linear_3640_1220" x1="20" y1="75.167" x2="34.5" y2="75.167" gradientUnits="userSpaceOnUse">
<stop stop-color="#FC79DF"/>
<stop offset="1" stop-color="#342D32" stop-opacity="0"/>
</linearGradient>
<linearGradient id="paint14_linear_3640_1220" x1="34.5" y1="75.167" x2="49" y2="75.167" gradientUnits="userSpaceOnUse">
<stop stop-color="#FC79DF"/>
<stop offset="1" stop-color="#342D32" stop-opacity="0"/>
</linearGradient>
<linearGradient id="paint15_linear_3640_1220" x1="49" y1="75.167" x2="63.5" y2="75.167" gradientUnits="userSpaceOnUse">
<stop stop-color="#FC79DF"/>
<stop offset="1" stop-color="#342D32" stop-opacity="0"/>
</linearGradient>
<linearGradient id="paint16_linear_3640_1220" x1="63.5" y1="75.167" x2="78" y2="75.167" gradientUnits="userSpaceOnUse">
<stop stop-color="#FC79DF"/>
<stop offset="1" stop-color="#342D32" stop-opacity="0"/>
</linearGradient>
</defs>
</svg>
