<svg width="48" height="48" viewBox="0 0 48 48" fill="none" xmlns="http://www.w3.org/2000/svg">
<path d="M38.1401 9.86C34.2401 5.96 29.1201 4 24.0001 4C18.8801 4 13.7601 5.96 9.86012 9.86C2.04012 17.66 2.04012 30.34 9.86012 38.14C13.7601 42.04 18.8801 44 24.0001 44C29.1201 44 34.2401 42.04 38.1401 38.14C45.9601 30.34 45.9601 17.66 38.1401 9.86ZM33.2001 31.78C33.5801 32.16 33.5801 32.8 33.2001 33.2C32.8001 33.58 32.1601 33.58 31.7801 33.2L24.0001 25.42L16.2201 33.2C15.8401 33.58 15.2001 33.58 14.8001 33.2C14.4201 32.8 14.4201 32.16 14.8001 31.78L22.5801 24L14.8001 16.22C14.4201 15.84 14.4201 15.2 14.8001 14.8C15.2001 14.42 15.8401 14.42 16.2201 14.8L24.0001 22.58L31.7801 14.8C32.1601 14.42 32.8001 14.42 33.2001 14.8C33.5801 15.2 33.5801 15.84 33.2001 16.22L25.4201 24L33.2001 31.78Z" fill="white"/>
</svg>
