<svg width="32" height="32" viewBox="0 0 32 32" fill="none" xmlns="http://www.w3.org/2000/svg">
<g clip-path="url(#clip0_2519_15)">
<path d="M9.63828 22.5894C10.9534 22.4327 12.2109 22.6404 13.4694 22.7792C13.9131 22.8283 14.3568 22.8831 14.7968 22.8141C15.2235 22.7471 15.5492 22.5177 15.6285 22.0768C15.7097 21.6274 15.4832 21.3347 15.0706 21.1214C14.1718 20.6578 13.2693 20.5493 12.3044 20.8391C10.69 21.3244 9.23326 22.1618 7.68684 22.7981C5.39081 23.7431 3.18541 23.8045 1.08197 22.1976C1.06403 22.1844 1.04515 22.1722 1.02722 22.158C-0.299234 21.1384 -0.316228 20.9184 0.832732 19.7751C1.86085 18.7517 2.88424 17.7245 3.9133 16.703C4.09551 16.5218 4.24846 16.2876 4.58739 16.2744C4.86873 16.6237 4.82341 17.1043 5.03772 17.4885C5.69197 18.6611 6.6946 19.2917 8.00783 19.3739C9.23232 19.4503 10.4417 19.2813 11.6492 19.1256C13.3674 18.9037 14.996 19.085 16.5084 20.0952C17.4799 20.7437 18.2021 21.5604 18.6138 22.6348C19.3133 24.4597 18.0832 26.0439 16.1468 25.8381C15.773 25.7984 15.4001 25.7219 15.0262 25.704C14.5542 25.6813 14.1916 25.8768 14.1133 26.3753C14.0415 26.835 14.2322 27.1928 14.6627 27.4213C15.4709 27.849 15.4699 27.8528 14.8317 28.4929C13.9471 29.3803 13.054 30.2583 12.1836 31.159C11.8871 31.4658 11.6067 31.563 11.1866 31.3827C9.21627 30.5387 7.83412 29.0565 6.90891 27.1947C5.83642 25.0375 7.19497 22.799 9.63733 22.5913L9.63828 22.5894Z" fill="url(#paint0_linear_2519_15)"/>
<path d="M22.3619 9.40998C21.0468 9.5667 19.7893 9.359 18.5308 9.22022C18.0871 9.17113 17.6434 9.11637 17.2034 9.18529C16.7767 9.25232 16.451 9.48173 16.3717 9.92262C16.2905 10.372 16.5171 10.6647 16.9296 10.878C17.8284 11.3416 18.7309 11.4502 19.6958 11.1603C21.3102 10.6751 22.7669 9.83766 24.3134 9.20134C26.6094 8.2563 28.8148 8.19494 30.9182 9.80178C30.9362 9.815 30.9551 9.82727 30.973 9.84143C32.2994 10.8611 32.3164 11.081 31.1675 12.2243C30.1394 13.2477 29.116 14.2749 28.0869 15.2964C27.9047 15.4777 27.7517 15.7118 27.4128 15.725C27.1315 15.3757 27.1768 14.8952 26.9625 14.5109C26.3082 13.3383 25.3056 12.7077 23.9924 12.6256C22.7679 12.5491 21.5585 12.7181 20.351 12.8739C18.6328 13.0957 17.0042 12.9145 15.4918 11.9043C14.5203 11.2557 13.7981 10.439 13.3864 9.36467C12.6869 7.53974 13.917 5.95555 15.8534 6.16136C16.2272 6.20101 16.6001 6.27748 16.974 6.29542C17.446 6.31808 17.8086 6.12265 17.8869 5.62417C17.9587 5.1644 17.768 4.80659 17.3375 4.57812C16.5293 4.15045 16.5303 4.14667 17.1685 3.50657C18.0531 2.61913 18.9462 1.74112 19.8167 0.840459C20.1131 0.533629 20.3935 0.436387 20.8136 0.616709C22.7839 1.46073 24.1661 2.94295 25.0913 4.8047C26.1638 6.96195 24.8052 9.20039 22.3629 9.40809L22.3619 9.40998Z" fill="url(#paint1_linear_2519_15)"/>
<path d="M9.40974 9.63828C9.56646 10.9534 9.35876 12.2109 9.21998 13.4694C9.17088 13.9131 9.11613 14.3568 9.18504 14.7968C9.25208 15.2235 9.48149 15.5492 9.92238 15.6285C10.3718 15.7097 10.6644 15.4832 10.8778 15.0706C11.3414 14.1718 11.4499 13.2693 11.1601 12.3044C10.6748 10.69 9.83741 9.23326 9.20109 7.68684C8.25606 5.39081 8.19469 3.18541 9.80154 1.08197C9.81475 1.06403 9.82703 1.04515 9.84119 1.02722C10.8608 -0.299234 11.0808 -0.316228 12.2241 0.832732C13.2475 1.86085 14.2746 2.88424 15.2962 3.9133C15.4774 4.09551 15.7116 4.24846 15.7248 4.58739C15.3755 4.86873 14.8949 4.82341 14.5107 5.03772C13.3381 5.69197 12.7075 6.6946 12.6253 8.00783C12.5488 9.23232 12.7178 10.4417 12.8736 11.6492C13.0955 13.3674 12.9142 14.996 11.904 16.5084C11.2554 17.4799 10.4388 18.2021 9.36442 18.6138C7.53949 19.3133 5.95531 18.0832 6.16112 16.1468C6.20077 15.773 6.27724 15.4001 6.29518 15.0262C6.31784 14.5542 6.12241 14.1916 5.62393 14.1133C5.16416 14.0415 4.80635 14.2322 4.57788 14.6627C4.1502 15.4709 4.14642 15.4699 3.50633 14.8317C2.61888 13.9471 1.74088 13.054 0.840215 12.1836C0.533385 11.8871 0.436143 11.6067 0.616465 11.1866C1.46048 9.21627 2.94271 7.83412 4.80446 6.90891C6.96171 5.83642 9.20015 7.19497 9.40785 9.63733L9.40974 9.63828Z" fill="url(#paint2_linear_2519_15)"/>
<path d="M22.5892 22.3622C22.4325 21.047 22.6402 19.7895 22.779 18.531C22.8281 18.0873 22.8828 17.6436 22.8139 17.2036C22.7469 16.7769 22.5174 16.4512 22.0766 16.3719C21.6272 16.2907 21.3345 16.5173 21.1211 16.9299C20.6576 17.8286 20.549 18.7312 20.8389 19.6961C21.3241 21.3104 22.1615 22.7672 22.7978 24.3136C23.7429 26.6096 23.8042 28.815 22.1974 30.9185C22.1842 30.9364 22.1719 30.9553 22.1578 30.9732C21.1381 32.2997 20.9182 32.3167 19.7749 31.1677C18.7515 30.1396 17.7243 29.1162 16.7028 28.0871C16.5215 27.9049 16.2874 27.752 16.2742 27.4131C16.6235 27.1317 17.104 27.177 17.4883 26.9627C18.6608 26.3085 19.2915 25.3058 19.3736 23.9926C19.4501 22.7681 19.2811 21.5587 19.1253 20.3513C18.9035 18.633 19.0847 17.0044 20.0949 15.492C20.7435 14.5205 21.5601 13.7983 22.6345 13.3867C24.4594 12.6871 26.0436 13.9173 25.8378 15.8536C25.7982 16.2275 25.7217 16.6004 25.7038 16.9742C25.6811 17.4463 25.8765 17.8088 26.375 17.8872C26.8348 17.9589 27.1926 17.7682 27.4211 17.3377C27.8487 16.5296 27.8525 16.5305 28.4926 17.1687C29.3801 18.0533 30.2581 18.9464 31.1587 19.8169C31.4656 20.1133 31.5628 20.3937 31.3825 20.8139C30.5385 22.7842 29.0562 24.1663 27.1945 25.0915C25.0372 26.164 22.7988 24.8055 22.5911 22.3631L22.5892 22.3622Z" fill="url(#paint3_linear_2519_15)"/>
</g>
<defs>
<linearGradient id="paint0_linear_2519_15" x1="5.3253" y1="26.6744" x2="14.194" y2="17.8056" gradientUnits="userSpaceOnUse">
<stop stop-color="#7357FF"/>
<stop offset="0.54" stop-color="#48D64E"/>
<stop offset="1" stop-color="#000E00"/>
</linearGradient>
<linearGradient id="paint1_linear_2519_15" x1="26.6743" y1="5.32566" x2="17.8056" y2="14.1944" gradientUnits="userSpaceOnUse">
<stop stop-color="#7357FF"/>
<stop offset="0.54" stop-color="#48D64E"/>
<stop offset="1" stop-color="#000E00"/>
</linearGradient>
<linearGradient id="paint2_linear_2519_15" x1="5.32521" y1="5.32502" x2="14.1939" y2="14.1937" gradientUnits="userSpaceOnUse">
<stop stop-color="#7357FF"/>
<stop offset="0.54" stop-color="#48D64E"/>
<stop offset="1" stop-color="#000E00"/>
</linearGradient>
<linearGradient id="paint3_linear_2519_15" x1="26.6739" y1="26.6752" x2="17.8052" y2="17.8065" gradientUnits="userSpaceOnUse">
<stop stop-color="#7357FF"/>
<stop offset="0.54" stop-color="#48D64E"/>
<stop offset="1" stop-color="#000E00"/>
</linearGradient>
<clipPath id="clip0_2519_15">
<rect width="32" height="32" fill="white"/>
</clipPath>
</defs>
</svg>
