<svg xmlns="http://www.w3.org/2000/svg" width="61" height="61" viewBox="0 0 61 61" fill="none">
  <path d="M47.8188 5.59126C48.3802 6.50276 48.793 7.50092 49.1144 8.5524C49.7596 10.6643 49.799 12.8245 49.6938 15.0005C49.6239 16.4211 49.5383 17.8411 49.5048 19.2628C49.4791 20.346 49.4932 21.4342 49.8015 22.4904C49.8953 22.8136 50.0435 23.0935 50.3781 23.2393C50.8077 23.4257 51.2408 23.3565 51.5658 23.0183C51.9777 22.5872 52.2315 22.0639 52.3714 21.4967C52.4976 20.986 52.7325 20.5446 53.0358 20.1522C53.0358 20.1522 53.0357 20.1518 53.0355 20.1511C53.4984 19.4757 54.1913 18.9501 55.0389 18.7061C56.9304 18.1621 58.9006 19.2114 59.5163 21.061C59.7595 21.6505 59.8191 22.3301 59.6182 23.0866C59.4352 23.7844 59.2035 25.8381 55.81 26.8471C54.3814 27.272 52.9745 27.2177 51.593 26.7109C50.3248 26.2459 49.2675 25.5141 48.4878 24.4785C48.3591 24.3076 48.2376 24.1275 48.1239 23.9406C47.973 23.6735 47.7759 23.283 47.5304 22.7121C47.302 22.1823 47.0298 21.4984 46.7136 20.6186C46.1817 19.1358 45.5733 18.2729 44.9775 17.7754C44.3455 17.2457 43.727 17.1255 43.226 17.1072C43.2238 17.1078 43.2209 17.1061 43.2184 17.1056C43.1208 17.0957 43.0234 17.0954 42.9259 17.1035C42.9248 17.1038 42.9237 17.1041 42.9225 17.1044C42.1659 17.1678 41.4361 17.7573 41.6186 18.649C41.6649 18.8757 41.8026 19.4971 42.478 19.8567C42.7646 19.9985 43.1348 20.1336 43.5729 20.1952C44.702 20.3515 45.7607 21.3664 45.9652 22.6763C45.9664 22.6807 45.9673 22.6841 45.9679 22.6863C45.9871 22.8073 45.9979 22.933 46.0014 23.0582C46.0017 23.0593 46.0023 23.0615 46.0026 23.0626C46.0028 23.0722 46.0032 23.0829 46.0012 23.0931C46.0184 24.5696 44.5882 25.5174 43.7008 25.9222C42.8513 26.3696 41.8845 26.5722 40.8346 26.6037C38.635 26.6705 36.5934 26.0631 34.6322 25.1099C32.2541 23.9548 30.277 22.3415 28.8812 20.0823C28.0601 18.7527 27.4518 17.312 27.406 15.729C27.3683 14.3552 28.0637 13.3328 29.2378 12.635C29.3011 12.5976 29.3727 12.5736 29.4366 12.5385C31.1221 11.6244 32.8481 11.9463 34.1108 13.4039C35.3487 14.832 35.7937 16.5015 35.6299 18.3605C35.5907 18.7927 35.5675 19.2217 35.7938 19.6224C36.059 20.0967 36.5623 20.1997 36.9947 19.8676C37.5165 19.4659 37.7302 18.9137 37.7053 18.2873C37.6734 17.4826 37.4532 16.7187 37.1713 15.9582C36.7615 14.8547 36.0759 13.9188 35.4652 12.9401C35.2228 12.5509 35.0264 12.1543 34.8784 11.7543C34.8778 11.752 34.8772 11.7498 34.8752 11.7467C34.734 11.417 31.9447 4.70571 36.9301 2.14216C42.9819 -0.970168 47.0975 3.55378 47.818 5.59268L47.8188 5.59126Z" fill="white"/>
  <path d="M13.1782 55.4066C12.6168 54.4951 12.204 53.497 11.8826 52.4455C11.2374 50.3336 11.198 48.1734 11.3033 45.9974C11.3731 44.5768 11.4587 43.1568 11.4922 41.7351C11.5179 40.6519 11.5038 39.5637 11.1955 38.5075C11.1017 38.1843 10.9535 37.9045 10.6189 37.7587C10.1894 37.5722 9.75622 37.6414 9.43119 37.9796C9.01934 38.4107 8.76554 38.934 8.62563 39.5012C8.4994 40.012 8.26448 40.4533 7.96119 40.8457C7.96119 40.8457 7.96129 40.8461 7.96149 40.8468C7.49859 41.5222 6.80575 42.0478 5.95814 42.2918C4.06658 42.8358 2.09642 41.7865 1.48071 39.9369C1.23746 39.3474 1.1779 38.6679 1.3788 37.9113C1.56184 37.2135 1.79355 35.1598 5.18706 34.1508C6.61565 33.7259 8.02247 33.7802 9.40397 34.287C10.6722 34.752 11.7296 35.4838 12.5092 36.5194C12.6379 36.6903 12.7594 36.8704 12.8732 37.0573C13.024 37.3244 13.2211 37.7149 13.4666 38.2858C13.6951 38.8156 13.9672 39.4995 14.2834 40.3793C14.8153 41.8621 15.4237 42.725 16.0195 43.2225C16.6515 43.7522 17.27 43.8724 17.771 43.8907C17.7732 43.8901 17.7761 43.8918 17.7786 43.8923C17.8762 43.9022 17.9736 43.9025 18.0711 43.8944C18.0722 43.8941 18.0733 43.8938 18.0745 43.8935C18.8311 43.8301 19.5609 43.2406 19.3784 42.3489C19.3321 42.1222 19.1944 41.5008 18.519 41.1412C18.2324 40.9994 17.8622 40.8643 17.4241 40.8027C16.295 40.6464 15.2363 39.6315 15.0319 38.3216C15.0307 38.3172 15.0298 38.3138 15.0292 38.3116C15.0099 38.1906 14.9991 38.0649 14.9956 37.9397C14.9953 37.9386 14.9947 37.9364 14.9944 37.9353C14.9942 37.9257 14.9938 37.915 14.9959 37.9048C14.9786 36.4283 16.4088 35.4805 17.2962 35.0757C18.1457 34.6283 19.1125 34.4257 20.1624 34.3942C22.3621 34.3274 24.4036 34.9348 26.3648 35.888C28.7429 37.0431 30.72 38.6564 32.1158 40.9156C32.937 42.2452 33.5452 43.6859 33.591 45.2689C33.6287 46.6427 32.9333 47.6651 31.7592 48.3629C31.6959 48.4003 31.6243 48.4243 31.5604 48.4594C29.8749 49.3735 28.1489 49.0516 26.8863 47.594C25.6483 46.1659 25.2034 44.4964 25.3671 42.6374C25.4063 42.2053 25.4295 41.7762 25.2032 41.3755C24.938 40.9012 24.4347 40.7982 24.0023 41.1303C23.4805 41.532 23.2668 42.0842 23.2917 42.7106C23.3236 43.5153 23.5439 44.2792 23.8257 45.0397C24.2355 46.1432 24.9212 47.0791 25.5318 48.0578C25.7742 48.447 25.9706 48.8436 26.1186 49.2436C26.1192 49.2459 26.1198 49.2481 26.1218 49.2512C26.263 49.5809 29.0524 56.2922 24.0669 58.8557C18.0152 61.9681 13.8995 57.4441 13.179 55.4052L13.1782 55.4066Z" fill="white"/>
  <path d="M55.4049 47.823C54.4934 48.3844 53.4952 48.7972 52.4437 49.1186C50.3318 49.7638 48.1717 49.8032 45.9956 49.6979C44.575 49.6281 43.155 49.5425 41.7333 49.509C40.6501 49.4833 39.5619 49.4974 38.5057 49.8056C38.1825 49.8995 37.9027 50.0477 37.7569 50.3823C37.5705 50.8118 37.6397 51.245 37.9778 51.57C38.4089 51.9819 38.9322 52.2357 39.4995 52.3756C40.0102 52.5018 40.4515 52.7367 40.8439 53.04C40.8439 53.04 40.8443 53.0399 40.845 53.0397C41.5205 53.5026 42.0461 54.1954 42.29 55.043C42.8341 56.9346 41.7847 58.9048 39.9352 59.5205C39.3457 59.7637 38.6661 59.8233 37.9095 59.6224C37.2118 59.4394 35.158 59.2076 34.149 55.8141C33.7242 54.3855 33.7785 52.9787 34.2852 51.5972C34.7502 50.329 35.482 49.2716 36.5176 48.492C36.6885 48.3633 36.8686 48.2418 37.0556 48.128C37.3227 47.9772 37.7131 47.7801 38.284 47.5346C38.8138 47.3061 39.4977 47.034 40.3776 46.7178C41.8604 46.1859 42.7232 45.5775 43.2207 44.9817L43.2218 44.9814C43.7505 44.3496 43.8707 43.7312 43.889 43.2302C43.8884 43.2279 43.89 43.2251 43.8905 43.2226C43.9004 43.125 43.9008 43.0276 43.8927 42.9301C43.8924 42.929 43.8921 42.9278 43.8918 42.9267C43.8284 42.1701 43.2388 41.4403 42.3471 41.6228C42.1205 41.6691 41.4991 41.8068 41.1394 42.4822C40.9976 42.7688 40.8626 43.139 40.801 43.5771C40.6446 44.7062 39.6297 45.7649 38.3199 45.9693C38.3154 45.9705 38.312 45.9714 38.3098 45.972C38.1888 45.9912 38.0632 46.0021 37.938 46.0056C37.9369 46.0059 37.9346 46.0065 37.9335 46.0068C37.9239 46.007 37.9132 46.0074 37.9031 46.0053C36.4265 46.0226 35.4787 44.5924 35.074 43.705C34.6265 42.8554 34.4239 41.8887 34.3924 40.8388C34.3256 38.6391 34.933 36.5976 35.8863 34.6364C37.0413 32.2583 38.6546 30.2812 40.9138 28.8854C42.2434 28.0642 43.6841 27.456 45.2672 27.4102C46.6409 27.3725 47.6633 28.0679 48.3611 29.242C48.3985 29.3052 48.4225 29.3769 48.4576 29.4408C49.3717 31.1263 49.0498 32.8523 47.5922 34.1149C46.1641 35.3529 44.4946 35.7978 42.6356 35.6341C42.2035 35.5949 41.7744 35.5717 41.3738 35.798C40.8995 36.0632 40.7965 36.5665 41.1285 36.9989C41.5302 37.5207 42.0824 37.7343 42.7088 37.7095C43.5135 37.6776 44.2774 37.4573 45.0379 37.1755C46.1414 36.7657 47.0773 36.08 48.0561 35.4694C48.4452 35.227 48.8419 35.0306 49.2419 34.8826C49.2441 34.882 49.2463 34.8814 49.2494 34.8794C49.5791 34.7382 56.2904 31.9488 58.854 36.9343C61.9663 42.986 57.4423 47.1017 55.4035 47.8222L55.4049 47.823Z" fill="white"/>
  <path d="M5.58949 13.1784C6.50099 12.6171 7.49915 12.2043 8.55063 11.8829C10.6626 11.2377 12.8227 11.1983 14.9988 11.3035C16.4194 11.3734 17.8394 11.459 19.261 11.4925C20.3443 11.5181 21.4324 11.5041 22.4886 11.1958C22.8119 11.102 23.0917 10.9538 23.2375 10.6192C23.4239 10.1896 23.3547 9.75649 23.0165 9.43146C22.5854 9.01961 22.0622 8.76581 21.4949 8.6259C20.9842 8.49967 20.5428 8.26475 20.1504 7.96146C20.1504 7.96146 20.1501 7.96157 20.1493 7.96177C19.4739 7.49886 18.9483 6.80602 18.7044 5.95842C18.1603 4.06685 19.2096 2.09669 21.0592 1.48098C21.6487 1.23773 22.3283 1.17817 23.0849 1.37907C23.7826 1.56211 25.8364 1.79382 26.8454 5.18733C27.2702 6.61593 27.2159 8.02274 26.7091 9.40424C26.2441 10.6725 25.5124 11.7298 24.4768 12.5095C24.3058 12.6381 24.1258 12.7597 23.9388 12.8734C23.6717 13.0243 23.2813 13.2214 22.7104 13.4669C22.1805 13.6953 21.4967 13.9675 20.6168 14.2837C19.134 14.8156 18.2711 15.424 17.7737 16.0198L17.7725 16.0201C17.2439 16.6518 17.1237 17.2702 17.1054 17.7713C17.106 17.7735 17.1043 17.7764 17.1038 17.7789C17.0939 17.8765 17.0936 17.9738 17.1017 18.0714C17.102 18.0725 17.1023 18.0736 17.1026 18.0747C17.166 18.8314 17.7556 19.5611 18.6473 19.3787C18.8739 19.3324 19.4953 19.1947 19.8549 18.5193C19.9967 18.2326 20.1318 17.8625 20.1934 17.4244C20.3497 16.2953 21.3646 15.2365 22.6745 15.0321C22.679 15.0309 22.6823 15.03 22.6846 15.0294C22.8056 15.0102 22.9312 14.9994 23.0564 14.9959C23.0575 14.9956 23.0597 14.995 23.0609 14.9947C23.0704 14.9945 23.0811 14.994 23.0913 14.9961C24.5678 14.9789 25.5157 16.4091 25.9204 17.2965C26.3679 18.146 26.5705 19.1128 26.6019 20.1627C26.6688 22.3623 26.0614 24.4039 25.1081 26.3651C23.953 28.7432 22.3397 30.7203 20.0805 32.1161C18.7509 32.9372 17.3102 33.5455 15.7272 33.5913C14.3535 33.629 13.331 32.9335 12.6332 31.7595C12.5959 31.6962 12.5719 31.6246 12.5367 31.5607C11.6226 29.8752 11.9446 28.1492 13.4021 26.8865C14.8303 25.6486 16.4997 25.2036 18.3587 25.3674C18.7909 25.4066 19.2199 25.4298 19.6206 25.2035C20.0949 24.9382 20.1979 24.435 19.8658 24.0026C19.4641 23.4808 18.9119 23.2671 18.2856 23.292C17.4808 23.3238 16.717 23.5441 15.9564 23.826C14.8529 24.2358 13.9171 24.9214 12.9383 25.5321C12.5492 25.7745 12.1525 25.9709 11.7525 26.1189C11.7503 26.1195 11.748 26.1201 11.745 26.1221C11.4152 26.2633 4.70394 29.0526 2.14039 24.0671C-0.971939 18.0154 3.55201 13.8998 5.59091 13.1793L5.58949 13.1784Z" fill="white"/>
</svg>