<svg xmlns="http://www.w3.org/2000/svg" width="24" height="24" viewBox="0 0 24 24" fill="none">
<path d="M3.69219 13.57L10.9322 13.57L10.9322 19.03C10.9322 19.63 11.4422 20 11.9622 20C12.2722 20 12.5922 19.86 12.8022 19.56C13.7622 18.16 13.9922 17.89 16.6922 14L19.9922 14C20.5422 14 20.9922 13.55 20.9922 13L20.9922 4C20.9922 3.45 20.5422 3 19.9922 3L5.46219 3C5.12219 3 4.83219 3.23 4.77219 3.55C4.18219 6.63 3.59219 9.71 3.01219 12.78C2.93219 13.19 3.26219 13.57 3.70219 13.57L3.69219 13.57ZM16.9922 4L19.9922 4L19.9922 13L16.9922 13L16.9922 4ZM4.56219 9.98L5.70219 4L15.9922 4L15.9922 13.25C14.3822 15.56 13.6222 16.64 13.0922 17.4C12.6822 17.98 12.4022 18.38 11.9822 19C11.9822 19 11.9822 19 11.9622 19C11.9422 19 11.9422 19 11.9322 19L11.9322 13.57L11.9322 12.57L4.06219 12.57L4.56219 9.98Z" fill="#BCBCBC"/>
</svg>