<svg xmlns="http://www.w3.org/2000/svg" width="82" height="108" viewBox="0 0 82 108" fill="none">
  <path d="M0.000271321 58.1625L0.204571 27.7595C0.241554 22.256 4.13277 17.5413 9.50744 16.4879L39.1986 10.6688C46.3336 9.2704 52.9546 14.7905 52.9056 22.0965L52.7011 52.4993C52.6642 58.0028 48.7731 62.7176 43.3985 63.7711L13.7072 69.5901C6.5722 70.9884 -0.0488231 65.4685 0.000271321 58.1625Z" fill="black" fill-opacity="0.2"/>
  <path d="M14.5471 70.2874L14.7514 39.8845C14.7884 34.381 18.6796 29.6663 24.0543 28.6129L53.7456 22.7938C60.8806 21.3954 67.5016 26.9155 67.4524 34.2216L67.2481 64.6245C67.2112 70.128 63.3198 74.8428 57.9452 75.896L28.2541 81.7153C21.1191 83.1136 14.498 77.5934 14.5471 70.2874Z" fill="black" fill-opacity="0.5"/>
  <path d="M29.094 82.4223L29.2985 52.0194C29.3354 46.5156 33.2266 41.8011 38.6012 40.7476L68.2923 34.9285C75.4273 33.5302 82.0486 39.0502 81.9994 46.3562L81.7952 76.7591C81.758 82.2626 77.8668 86.9774 72.4923 88.0309L42.8011 93.8499C35.6661 95.2482 29.0451 89.7283 29.094 82.4223Z" fill="black"/>
</svg>