<svg xmlns="http://www.w3.org/2000/svg" width="160" height="160" viewBox="0 0 160 160" fill="none">
  <g clip-path="url(#clip0_3846_16261)">
    <path d="M21.444 35.7985L20.8851 35.7325L21.444 35.7985L22.801 24.2946C22.8935 23.5109 23.5114 22.8929 24.2951 22.8005L35.799 21.4435L35.7331 20.8846L35.799 21.4435C36.7781 21.328 37.6265 20.7116 38.0389 19.8161L42.8844 9.29457C43.2145 8.57782 43.9931 8.18108 44.767 8.33533L56.1272 10.5997C57.0941 10.7924 58.0915 10.4683 58.7604 9.74408L66.6201 1.23483C67.1555 0.655158 68.0187 0.518453 68.707 0.904295L78.8115 6.5683C79.6714 7.05035 80.7202 7.05034 81.5802 6.56829L91.6847 0.904303C92.373 0.518457 93.2361 0.655164 93.7716 1.23485L101.631 9.74409C102.3 10.4683 103.298 10.7924 104.264 10.5997L115.625 8.33532C116.399 8.18107 117.177 8.57781 117.507 9.29456L122.353 19.8161C122.765 20.7116 123.614 21.328 124.593 21.4435L136.097 22.8005C136.88 22.8929 137.498 23.5109 137.591 24.2946L138.948 35.7985C139.063 36.7775 139.68 37.626 140.575 38.0384L151.097 42.8839C151.813 43.214 152.21 43.9926 152.056 44.7665L149.791 56.1267C149.599 57.0935 149.923 58.091 150.647 58.7599L159.156 66.6196C159.736 67.155 159.873 68.0181 159.487 68.7065L153.823 78.811C153.341 79.6709 153.341 80.7197 153.823 81.5797L159.487 91.6841C159.873 92.3725 159.736 93.2356 159.156 93.771L150.647 101.631C149.923 102.3 149.599 103.297 149.791 104.264L152.056 115.624C152.21 116.398 151.813 117.177 151.097 117.507L140.575 122.352C139.68 122.765 139.063 123.613 138.948 124.592L137.591 136.096C137.498 136.88 136.88 137.498 136.097 137.59L124.593 138.947C123.614 139.063 122.765 139.679 122.353 140.575L117.507 151.096C117.177 151.813 116.399 152.21 115.625 152.055L104.264 149.791C103.298 149.598 102.3 149.922 101.631 150.647L93.7716 159.156C93.2361 159.735 92.373 159.872 91.6847 159.486L81.5802 153.822C80.7202 153.34 79.6714 153.34 78.8115 153.822L68.707 159.486C68.0187 159.872 67.1555 159.735 66.6201 159.156L58.7604 150.647C58.0915 149.922 57.0941 149.598 56.1272 149.791L44.767 152.055C43.9931 152.21 43.2145 151.813 42.8844 151.096L38.0389 140.575C37.6265 139.679 36.7781 139.063 35.799 138.947L35.7331 139.506L35.799 138.947L24.2951 137.59C23.5114 137.498 22.8935 136.88 22.801 136.096L21.444 124.592L20.8851 124.658L21.444 124.592C21.3285 123.613 20.7121 122.765 19.8166 122.352L9.29508 117.507C8.57833 117.177 8.18158 116.398 8.33583 115.624L10.6002 104.264C10.7929 103.297 10.4688 102.3 9.74459 101.631L1.23535 93.7711C0.655677 93.2356 0.518966 92.3725 0.904813 91.6841L6.56881 81.5797C7.05086 80.7197 7.05086 79.6709 6.56881 78.811L0.904811 68.7065C0.518966 68.0181 0.655677 67.155 1.23535 66.6196L9.74459 58.7599C10.4688 58.091 10.7929 57.0935 10.6002 56.1267L8.33583 44.7665C8.18158 43.9926 8.57833 43.214 9.29508 42.8839L19.8166 38.0384C20.7121 37.626 21.3285 36.7775 21.444 35.7985Z" stroke="url(#paint0_linear_3846_16261)" stroke-width="1.12558"/>
    <path d="M29.2325 30.5131C29.3112 29.8452 29.8379 29.3186 30.5057 29.2398L40.7314 28.0336C41.6233 27.9284 42.3963 27.3668 42.772 26.5511L47.079 17.1986C47.3604 16.5877 48.0239 16.2496 48.6835 16.3811L58.7814 18.3938C59.6622 18.5694 60.5708 18.2741 61.1802 17.6144L68.1666 10.0506C68.6229 9.55663 69.3585 9.44012 69.9451 9.76895L78.9268 14.8036C79.7102 15.2428 80.6657 15.2428 81.4491 14.8036L90.4308 9.76896C91.0175 9.44013 91.7531 9.55663 92.2094 10.0506L99.1957 17.6144C99.8051 18.2741 100.714 18.5694 101.594 18.3938L111.692 16.3811C112.352 16.2496 113.016 16.5877 113.297 17.1986L117.604 26.5511C117.98 27.3668 118.753 27.9284 119.644 28.0336L129.87 29.2398C130.538 29.3186 131.065 29.8452 131.143 30.5131L132.35 40.7388C132.455 41.6307 133.016 42.4036 133.832 42.7793L143.185 47.0864C143.796 47.3677 144.134 48.0313 144.002 48.6908L141.989 58.7888C141.814 59.6695 142.109 60.5782 142.769 61.1876L150.333 68.1739C150.827 68.6302 150.943 69.3658 150.614 69.9524L145.58 78.9342C145.141 79.7176 145.141 80.673 145.58 81.4564L150.614 90.4382C150.943 91.0248 150.827 91.7604 150.333 92.2167L142.769 99.2031C142.109 99.8124 141.814 100.721 141.989 101.602L144.002 111.7C144.134 112.359 143.796 113.023 143.185 113.304L133.832 117.611C133.016 117.987 132.455 118.76 132.35 119.652L131.143 129.878C131.065 130.545 130.538 131.072 129.87 131.151L119.644 132.357C118.753 132.462 117.98 133.024 117.604 133.84L113.297 143.192C113.016 143.803 112.352 144.141 111.692 144.01L101.594 141.997C100.714 141.821 99.8051 142.116 99.1957 142.776L92.2094 150.34C91.7531 150.834 91.0175 150.95 90.4308 150.622L81.4491 145.587C80.6657 145.148 79.7102 145.148 78.9268 145.587L69.9451 150.622C69.3585 150.951 68.6229 150.834 68.1666 150.34L61.1802 142.776C60.5709 142.116 59.6622 141.821 58.7814 141.997L48.6835 144.01C48.0239 144.141 47.3604 143.803 47.079 143.192L42.772 133.84C42.3963 133.024 41.6233 132.462 40.7314 132.357L30.5057 131.151C29.8379 131.072 29.3112 130.545 29.2325 129.878L28.0262 119.652C27.921 118.76 27.3594 117.987 26.5437 117.611L17.1912 113.304C16.5804 113.023 16.2423 112.359 16.3737 111.7L18.3865 101.602C18.562 100.721 18.2668 99.8124 17.6071 99.2031L10.0433 92.2167C9.54928 91.7604 9.43278 91.0248 9.7616 90.4382L14.7963 81.4564C15.2354 80.673 15.2354 79.7176 14.7963 78.9342L9.7616 69.9524C9.43278 69.3658 9.54928 68.6302 10.0433 68.1739L17.6071 61.1876C18.2668 60.5782 18.562 59.6695 18.3865 58.7888L16.3737 48.6908C16.2423 48.0313 16.5804 47.3677 17.1912 47.0864L26.5437 42.7793C27.3594 42.4036 27.921 41.6307 28.0262 40.7388L29.2325 30.5131Z" stroke="url(#paint1_linear_3846_16261)" stroke-width="1.12558"/>
    <path d="M35.6639 36.7316C35.729 36.1795 36.1643 35.7442 36.7164 35.6791L45.6639 34.6237C46.4686 34.5287 47.166 34.022 47.505 33.286L51.2737 25.1026C51.5062 24.5977 52.0547 24.3182 52.5999 24.4269L61.4356 26.188C62.2303 26.3464 63.0502 26.08 63.6 25.4848L69.7131 18.8665C70.0902 18.4581 70.6983 18.3618 71.1832 18.6336L79.0422 23.0389C79.7491 23.4352 80.6111 23.4352 81.318 23.0389L89.177 18.6336C89.6619 18.3618 90.27 18.4581 90.6471 18.8665L96.7602 25.4848C97.31 26.08 98.1299 26.3464 98.9245 26.188L107.76 24.4269C108.305 24.3182 108.854 24.5977 109.087 25.1026L112.855 33.286C113.194 34.022 113.892 34.5287 114.696 34.6237L123.644 35.6791C124.196 35.7442 124.631 36.1795 124.696 36.7316L125.752 45.6791C125.847 46.4838 126.353 47.1812 127.089 47.5202L135.273 51.2889C135.778 51.5214 136.057 52.07 135.949 52.6151L134.187 61.4508C134.029 62.2455 134.295 63.0654 134.891 63.6152L141.509 69.7283C141.917 70.1055 142.014 70.7135 141.742 71.1984L137.336 79.0574C136.94 79.7643 136.94 80.6263 137.336 81.3332L141.742 89.1922C142.014 89.6771 141.917 90.2852 141.509 90.6623L134.891 96.7754C134.295 97.3252 134.029 98.1451 134.187 98.9398L135.949 107.775C136.057 108.321 135.778 108.869 135.273 109.102L127.089 112.87C126.353 113.209 125.847 113.907 125.752 114.712L124.696 123.659C124.631 124.211 124.196 124.646 123.644 124.712L114.696 125.767C113.892 125.862 113.194 126.369 112.855 127.105L109.087 135.288C108.854 135.793 108.305 136.072 107.76 135.964L98.9246 134.203C98.1299 134.044 97.31 134.311 96.7602 134.906L90.6471 141.524C90.27 141.933 89.6619 142.029 89.177 141.757L81.318 137.352C80.6111 136.955 79.7491 136.955 79.0422 137.352L71.1832 141.757C70.6983 142.029 70.0902 141.933 69.7131 141.524L63.6 134.906C63.0502 134.311 62.2303 134.044 61.4356 134.203L52.5999 135.964C52.0547 136.072 51.5062 135.793 51.2737 135.288L47.505 127.105C47.166 126.369 46.4686 125.862 45.6639 125.767L36.7164 124.712C36.1643 124.646 35.729 124.211 35.6639 123.659L34.6084 114.712C34.5135 113.907 34.0068 113.209 33.2708 112.87L25.0874 109.102C24.5825 108.869 24.303 108.321 24.4116 107.775L26.1728 98.9398C26.3312 98.1451 26.0648 97.3252 25.4695 96.7754L18.8512 90.6624C18.4429 90.2852 18.3466 89.6771 18.6184 89.1922L23.0237 81.3332C23.4199 80.6263 23.4199 79.7643 23.0237 79.0574L18.6184 71.1984C18.3466 70.7135 18.4429 70.1055 18.8512 69.7283L25.4695 63.6152C26.0648 63.0654 26.3312 62.2455 26.1728 61.4508L24.4116 52.6151C24.303 52.07 24.5825 51.5214 25.0874 51.2889L33.2708 47.5202C34.0068 47.1812 34.5135 46.4838 34.6084 45.6791L35.6639 36.7316Z" stroke="url(#paint2_linear_3846_16261)" stroke-width="1.12558"/>
    <path d="M42.1188 42.9501C42.1702 42.5139 42.5142 42.1699 42.9505 42.1184L50.6197 41.2137C51.3373 41.1291 51.9592 40.6773 52.2615 40.021L55.4918 33.0066C55.6755 32.6076 56.109 32.3868 56.5398 32.4726L64.1133 33.9822C64.8219 34.1234 65.5529 33.8859 66.0432 33.3551L71.283 27.6823C71.581 27.3596 72.0615 27.2835 72.4447 27.4983L79.181 31.2743C79.8113 31.6276 80.58 31.6276 81.2103 31.2743L87.9466 27.4983C88.3298 27.2835 88.8103 27.3596 89.1083 27.6823L94.3481 33.3551C94.8384 33.8859 95.5694 34.1234 96.2781 33.9822L103.852 32.4726C104.282 32.3868 104.716 32.6076 104.9 33.0066L108.13 40.021C108.432 40.6773 109.054 41.1291 109.772 41.2137L117.441 42.1184C117.877 42.1699 118.221 42.5139 118.273 42.9501L119.177 50.6194C119.262 51.337 119.714 51.9589 120.37 52.2611L127.384 55.4914C127.783 55.6752 128.004 56.1086 127.918 56.5394L126.409 64.1129C126.268 64.8215 126.505 65.5526 127.036 66.0429L132.709 71.2826C133.031 71.5807 133.107 72.0612 132.893 72.4444L129.117 79.1807C128.763 79.811 128.763 80.5797 129.117 81.2099L132.893 87.9463C133.107 88.3294 133.031 88.8099 132.709 89.108L127.036 94.3478C126.505 94.838 126.268 95.5691 126.409 96.2777L127.918 103.851C128.004 104.282 127.783 104.715 127.384 104.899L120.37 108.13C119.714 108.432 119.262 109.054 119.177 109.771L118.273 117.44C118.221 117.877 117.877 118.221 117.441 118.272L109.772 119.177C109.054 119.262 108.432 119.713 108.13 120.37L104.9 127.384C104.716 127.783 104.282 128.004 103.852 127.918L96.2781 126.408C95.5695 126.267 94.8384 126.505 94.3481 127.036L89.1083 132.708C88.8103 133.031 88.3298 133.107 87.9466 132.892L81.2103 129.116C80.58 128.763 79.8113 128.763 79.181 129.116L72.4447 132.892C72.0615 133.107 71.581 133.031 71.283 132.708L66.0432 127.036C65.5529 126.505 64.8219 126.267 64.1133 126.408L56.5398 127.918C56.109 128.004 55.6755 127.783 55.4918 127.384L52.2615 120.37C51.9592 119.713 51.3373 119.262 50.6197 119.177L42.9505 118.272C42.5142 118.221 42.1702 117.877 42.1188 117.441L41.5598 117.506L42.1188 117.441L41.2141 109.771C41.1294 109.054 40.6776 108.432 40.0213 108.13L33.007 104.899C32.608 104.715 32.3871 104.282 32.473 103.851L33.9825 96.2777C34.1238 95.5691 33.8862 94.838 33.3555 94.3478L27.6826 89.108C27.3599 88.8099 27.2838 88.3294 27.4986 87.9463L31.2746 81.2099C31.6279 80.5797 31.6279 79.811 31.2746 79.1807L27.4986 72.4444C27.2838 72.0612 27.3599 71.5807 27.6826 71.2826L33.3555 66.0428C33.8862 65.5526 34.1238 64.8215 33.9825 64.1129L32.473 56.5394C32.3871 56.1086 32.608 55.6752 33.007 55.4914L40.0213 52.2611C40.6776 51.9589 41.1294 51.337 41.2141 50.6194L42.1188 42.9501L41.5598 42.8842L42.1188 42.9501Z" stroke="url(#paint3_linear_3846_16261)" stroke-width="1.12558"/>
    <path d="M48.5658 49.1686C48.6036 48.8482 48.8563 48.5955 49.1767 48.5577L55.5678 47.8038C56.1982 47.7295 56.7446 47.3325 57.0101 46.7559L59.702 40.9106C59.837 40.6175 60.1554 40.4553 60.4719 40.5184L66.7831 41.7764C67.4056 41.9004 68.0479 41.6918 68.4786 41.2255L72.8451 36.4981C73.064 36.2611 73.417 36.2052 73.6984 36.3629L79.312 39.5096C79.8658 39.82 80.5411 39.82 81.0948 39.5096L86.7084 36.3629C86.9899 36.2052 87.3428 36.2611 87.5617 36.4981L91.9282 41.2255C92.3589 41.6918 93.0012 41.9005 93.6238 41.7764L99.935 40.5184C100.251 40.4553 100.57 40.6175 100.705 40.9106L103.397 46.7559C103.662 47.3325 104.209 47.7295 104.839 47.8038L111.23 48.5577C111.551 48.5955 111.803 48.8482 111.841 49.1686L112.595 55.5597C112.669 56.1901 113.066 56.7365 113.643 57.002L119.488 59.6939C119.781 59.8289 119.943 60.1473 119.88 60.4637L118.622 66.775C118.498 67.3975 118.707 68.0398 119.173 68.4705L123.901 72.837C124.138 73.0559 124.194 73.4089 124.036 73.6903L120.889 79.3039C120.579 79.8577 120.579 80.533 120.889 81.0867L124.036 86.7003C124.194 86.9818 124.138 87.3347 123.901 87.5536L119.173 91.9201C118.707 92.3508 118.498 92.9931 118.622 93.6156L119.88 99.9269C119.943 100.243 119.781 100.562 119.488 100.697L113.643 103.389C113.066 103.654 112.669 104.201 112.595 104.831L111.841 111.222C111.803 111.542 111.551 111.795 111.23 111.833L104.839 112.587C104.209 112.661 103.662 113.058 103.397 113.635L100.705 119.48C100.57 119.773 100.251 119.935 99.935 119.872L93.6238 118.614C93.0012 118.49 92.3589 118.699 91.9282 119.165L87.5618 123.893C87.3428 124.13 86.9899 124.185 86.7084 124.028L81.0948 120.881C80.5411 120.571 79.8658 120.571 79.312 120.881L73.6984 124.028C73.417 124.185 73.064 124.13 72.8451 123.893L68.4786 119.165C68.0479 118.699 67.4056 118.49 66.7831 118.614L60.4719 119.872C60.1554 119.935 59.837 119.773 59.702 119.48L57.0101 113.635C56.7446 113.058 56.1982 112.661 55.5678 112.587L49.1767 111.833C48.8563 111.795 48.6036 111.542 48.5658 111.222L47.8119 104.831C47.7376 104.201 47.3406 103.654 46.764 103.389L40.9187 100.697C40.6257 100.562 40.4634 100.243 40.5265 99.9269L41.7845 93.6156C41.9085 92.9931 41.6999 92.3508 41.2336 91.9201L36.5062 87.5537C36.2692 87.3347 36.2133 86.9818 36.371 86.7003L39.5177 81.0867C39.8281 80.533 39.8281 79.8577 39.5177 79.3039L36.371 73.6903C36.2133 73.4089 36.2692 73.0559 36.5062 72.837L41.2336 68.4705C41.6999 68.0398 41.9085 67.3975 41.7845 66.775L40.5265 60.4638C40.4634 60.1473 40.6257 59.8289 40.9187 59.6939L46.764 57.002C47.3406 56.7365 47.7376 56.1901 47.8119 55.5597L48.5658 49.1686Z" stroke="url(#paint4_linear_3846_16261)" stroke-width="1.12558"/>
    <path d="M54.4019 99.8906L53.843 99.9565L54.4019 99.8906C54.3379 99.3474 53.9958 98.8765 53.4989 98.6477L48.8227 96.4942C48.6355 96.408 48.5319 96.2046 48.5722 96.0026L49.5786 90.9536C49.6855 90.4171 49.5057 89.8636 49.1038 89.4925L45.322 85.9993C45.1706 85.8595 45.1349 85.6341 45.2356 85.4543L47.753 80.9635C48.0204 80.4863 48.0204 79.9043 47.753 79.4272L45.2356 74.9363C45.1349 74.7565 45.1706 74.5311 45.322 74.3913L49.1038 70.8981C49.5057 70.527 49.6855 69.9735 49.5786 69.437L48.5722 64.3881C48.5319 64.186 48.6355 63.9826 48.8227 63.8964L53.4989 61.7429C53.9958 61.5141 54.3379 61.0433 54.4019 60.5L53.843 60.4341L54.4019 60.5L55.0051 55.3872C55.0292 55.1825 55.1906 55.0211 55.3952 54.997L60.5081 54.3939C61.0513 54.3298 61.5221 53.9878 61.7509 53.4909L63.9045 48.8147C63.9907 48.6275 64.194 48.5239 64.3961 48.5642L69.4451 49.5705C69.9816 49.6775 70.535 49.4976 70.9062 49.0958L74.3994 45.3139C74.5392 45.1625 74.7646 45.1268 74.9443 45.2276L79.4352 47.7449C79.9124 48.0124 80.4943 48.0124 80.9715 47.7449L85.4624 45.2276C85.6421 45.1268 85.8675 45.1625 86.0073 45.3139L89.5005 49.0958C89.8717 49.4976 90.4251 49.6775 90.9616 49.5705L96.0106 48.5642C96.2127 48.5239 96.416 48.6275 96.5022 48.8146L98.6558 53.4909C98.8846 53.9878 99.3554 54.3298 99.8987 54.3939L105.012 54.997C105.216 55.0212 105.378 55.1825 105.402 55.3872L106.005 60.5C106.069 61.0433 106.411 61.5141 106.908 61.7429L111.584 63.8964C111.771 63.9826 111.875 64.186 111.835 64.3881L110.828 69.437C110.721 69.9735 110.901 70.527 111.303 70.8981L115.085 74.3913C115.236 74.5311 115.272 74.7565 115.171 74.9363L112.654 79.4272C112.386 79.9043 112.386 80.4863 112.654 80.9635L115.171 85.4543C115.272 85.6341 115.236 85.8595 115.085 85.9993L111.303 89.4925C110.901 89.8636 110.721 90.4171 110.828 90.9536L111.835 96.0026C111.875 96.2047 111.771 96.408 111.584 96.4942L106.908 98.6477C106.411 98.8765 106.069 99.3474 106.005 99.8906L105.402 105.003C105.378 105.208 105.216 105.369 105.012 105.394L99.8987 105.997C99.3554 106.061 98.8846 106.403 98.6558 106.9L96.5022 111.576C96.416 111.763 96.2127 111.867 96.0106 111.826L90.9616 110.82C90.4252 110.713 89.8717 110.893 89.5005 111.295L86.0073 115.077C85.8675 115.228 85.6421 115.264 85.4624 115.163L80.9715 112.646C80.4943 112.378 79.9124 112.378 79.4352 112.646L74.9443 115.163C74.7646 115.264 74.5392 115.228 74.3994 115.077L70.9062 111.295C70.535 110.893 69.9816 110.713 69.4451 110.82L64.3961 111.826C64.194 111.867 63.9907 111.763 63.9045 111.576L61.7509 106.9C61.5221 106.403 61.0513 106.061 60.5081 105.997L55.3952 105.394C55.1906 105.369 55.0292 105.208 55.0051 105.003L54.4019 99.8906Z" stroke="url(#paint5_linear_3846_16261)" stroke-width="1.12558"/>
    <path d="M72.0993 103.026L72.2093 103.578L72.0993 103.026L68.3125 103.781C68.2248 103.798 68.1366 103.753 68.0991 103.672L66.484 100.165C66.2919 99.7476 65.8966 99.4604 65.4405 99.4066L65.3746 99.9656L65.4405 99.4066L61.6059 98.9543C61.517 98.9438 61.447 98.8738 61.4365 98.7849L60.9842 94.9503L60.4252 95.0162L60.9842 94.9503C60.9304 94.4942 60.6432 94.0989 60.226 93.9068L56.7188 92.2917C56.6376 92.2542 56.5926 92.166 56.6101 92.0783L57.3649 88.2915C57.4547 87.8411 57.3037 87.3764 56.9663 87.0648L54.1299 84.4449C54.0642 84.3843 54.0487 84.2864 54.0924 84.2084L55.9804 80.8402C56.205 80.4396 56.205 79.951 55.9804 79.5504L54.0924 76.1822C54.0487 76.1042 54.0642 76.0064 54.1299 75.9457L56.9663 73.3258C57.3037 73.0142 57.4547 72.5495 57.3649 72.0991L56.6101 68.3124C56.5926 68.2246 56.6376 68.1364 56.7188 68.099L60.226 66.4838C60.6432 66.2917 60.9304 65.8964 60.9842 65.4403L60.4252 65.3744L60.9842 65.4403L61.4365 61.6057C61.447 61.5168 61.517 61.4468 61.6059 61.4363L65.4405 60.984L65.3746 60.4251L65.4405 60.984C65.8966 60.9302 66.2919 60.643 66.484 60.2259L68.0991 56.7187C68.1365 56.6374 68.2248 56.5924 68.3125 56.6099L72.0993 57.3647L72.2093 56.8128L72.0993 57.3647C72.5497 57.4545 73.0143 57.3035 73.326 56.9661L75.9459 54.1297C76.0065 54.064 76.1044 54.0485 76.1824 54.0923L79.5506 55.9803C79.9512 56.2048 80.4398 56.2048 80.8404 55.9803L84.2086 54.0923C84.2866 54.0485 84.3844 54.064 84.4451 54.1297L87.065 56.9661C87.3766 57.3035 87.8413 57.4545 88.2917 57.3647L92.0784 56.6099C92.1662 56.5924 92.2544 56.6374 92.2918 56.7187L93.907 60.2259C94.0991 60.643 94.4944 60.9302 94.9505 60.984L98.7851 61.4363C98.874 61.4468 98.944 61.5168 98.9545 61.6057L99.4068 65.4403C99.4606 65.8964 99.7478 66.2917 100.165 66.4838L103.672 68.099C103.753 68.1364 103.798 68.2246 103.781 68.3124L103.026 72.0991C102.936 72.5495 103.087 73.0142 103.425 73.3258L106.261 75.9457C106.327 76.0064 106.342 76.1042 106.299 76.1822L104.411 79.5504C104.186 79.951 104.186 80.4396 104.411 80.8402L106.299 84.2084C106.342 84.2864 106.327 84.3843 106.261 84.4449L103.425 87.0648C103.087 87.3764 102.936 87.8411 103.026 88.2915L103.781 92.0783C103.798 92.166 103.753 92.2543 103.672 92.2917L100.165 93.9068C99.7478 94.0989 99.4606 94.4942 99.4068 94.9503L98.9545 98.7849C98.944 98.8738 98.874 98.9438 98.7851 98.9543L94.9505 99.4066C94.4944 99.4604 94.0991 99.7476 93.907 100.165L92.2918 103.672C92.2544 103.753 92.1662 103.798 92.0784 103.781L88.2917 103.026C87.8413 102.936 87.3766 103.087 87.065 103.424L84.4451 106.261C84.3844 106.327 84.2866 106.342 84.2086 106.298L80.8404 104.41C80.4398 104.186 79.9512 104.186 79.5506 104.41L76.1824 106.298C76.1044 106.342 76.0065 106.327 75.9459 106.261L73.326 103.424C73.0143 103.087 72.5497 102.936 72.0993 103.026Z" stroke="url(#paint6_linear_3846_16261)" stroke-width="1.12558"/>
    <path d="M67.582 70.3806L67.0231 70.3147L67.582 70.3806L67.8781 67.8702L70.3886 67.5741C70.7575 67.5305 71.0772 67.2982 71.2326 66.9608L72.29 64.6648L74.7691 65.1589C75.1334 65.2315 75.5093 65.1094 75.7614 64.8365L77.4765 62.9796L79.6816 64.2156C80.0056 64.3972 80.4009 64.3972 80.7249 64.2156L82.93 62.9796L84.6451 64.8365C84.8972 65.1094 85.273 65.2315 85.6374 65.1589L88.1165 64.6648L89.1739 66.9608C89.3293 67.2982 89.649 67.5305 90.0179 67.5741L92.5284 67.8702L92.8245 70.3806C92.868 70.7496 93.1003 71.0693 93.4377 71.2247L95.7338 72.2821L95.2397 74.7612C95.167 75.1255 95.2892 75.5014 95.5621 75.7534L97.419 77.4686L96.183 79.6736C96.0013 79.9977 96.0013 80.3929 96.183 80.717L97.419 82.922L95.5621 84.6372C95.2892 84.8892 95.167 85.2651 95.2397 85.6295L95.7338 88.1085L93.4377 89.1659C93.1003 89.3213 92.868 89.6411 92.8245 90.01L92.5284 92.5204L90.0179 92.8166C89.649 92.8601 89.3293 93.0924 89.1739 93.4298L88.1165 95.7259L85.6374 95.2317C85.2731 95.1591 84.8972 95.2812 84.6451 95.5541L82.93 97.4111L80.7249 96.175C80.4009 95.9934 80.0056 95.9934 79.6816 96.175L77.4765 97.4111L75.7614 95.5541C75.5093 95.2812 75.1334 95.1591 74.7691 95.2317L72.29 95.7259L71.2326 93.4298C71.0772 93.0924 70.7575 92.8601 70.3886 92.8166L67.8781 92.5204L67.582 90.01L67.0231 90.0759L67.582 90.01C67.5385 89.6411 67.3062 89.3213 66.9687 89.1659L64.6727 88.1085L65.1668 85.6295C65.2394 85.2651 65.1173 84.8893 64.8444 84.6372L62.9875 82.922L64.2235 80.717C64.4052 80.3929 64.4052 79.9977 64.2235 79.6736L62.9875 77.4686L64.8444 75.7534C65.1173 75.5014 65.2394 75.1255 65.1668 74.7612L64.6727 72.2821L66.9687 71.2247C67.3062 71.0693 67.5385 70.7496 67.582 70.3806Z" stroke="url(#paint7_linear_3846_16261)" stroke-width="1.12558"/>
    <path d="M73.7564 73.9765C73.77 73.8607 73.8614 73.7694 73.9772 73.7557L75.2554 73.6049C75.3426 73.5946 75.4181 73.5397 75.4549 73.46L75.9933 72.2909C76.0421 72.185 76.1571 72.1264 76.2715 72.1492L77.5338 72.4008C77.6199 72.4179 77.7087 72.3891 77.7682 72.3246L78.6416 71.3791C78.7207 71.2934 78.8482 71.2732 78.95 71.3302L80.0727 71.9596C80.1493 72.0025 80.2427 72.0025 80.3192 71.9596L81.442 71.3302C81.5437 71.2732 81.6713 71.2934 81.7504 71.3791L82.6238 72.3246C82.6833 72.3891 82.7721 72.4179 82.8582 72.4008L84.1205 72.1491C84.2349 72.1264 84.3499 72.185 84.3987 72.2909L84.9371 73.46C84.9738 73.5397 85.0494 73.5946 85.1365 73.6049L86.4148 73.7557C86.5306 73.7694 86.6219 73.8607 86.6356 73.9765L86.7864 75.2548C86.7967 75.3419 86.8516 75.4175 86.9313 75.4542L88.1004 75.9926C88.2063 76.0414 88.265 76.1564 88.2422 76.2708L87.9905 77.5331C87.9734 77.6192 88.0022 77.708 88.0667 77.7675L89.0122 78.6409C89.0979 78.72 89.1181 78.8476 89.0611 78.9493L88.4317 80.0721C88.3888 80.1486 88.3888 80.242 88.4317 80.3186L89.0611 81.4413C89.1181 81.5431 89.0979 81.6706 89.0122 81.7497L88.0667 82.6231C88.0022 82.6826 87.9734 82.7714 87.9905 82.8575L88.2422 84.1198C88.265 84.2342 88.2063 84.3493 88.1004 84.398L86.9313 84.9364C86.8516 84.9732 86.7967 85.0487 86.7864 85.1359L86.6356 86.4141C86.6219 86.5299 86.5306 86.6213 86.4148 86.6349L85.1365 86.7857C85.0494 86.796 84.9738 86.8509 84.9371 86.9306L84.3987 88.0997C84.3499 88.2056 84.2349 88.2643 84.1205 88.2415L82.8582 87.9899C82.7721 87.9727 82.6833 88.0016 82.6238 88.066L81.7504 89.0116C81.6713 89.0972 81.5437 89.1174 81.442 89.0604L80.3192 88.431C80.2427 88.3881 80.1493 88.3881 80.0727 88.431L78.95 89.0604C78.8482 89.1174 78.7207 89.0972 78.6416 89.0116L77.7682 88.066C77.7087 88.0016 77.6199 87.9727 77.5338 87.9899L76.2715 88.2415C76.1571 88.2643 76.0421 88.2056 75.9933 88.0997L75.4549 86.9306C75.4181 86.8509 75.3426 86.796 75.2554 86.7857L73.9772 86.6349C73.8614 86.6213 73.77 86.5299 73.7564 86.4141L73.6056 85.1359C73.5953 85.0487 73.5404 84.9732 73.4607 84.9364L72.2916 84.398C72.1857 84.3493 72.127 84.2342 72.1498 84.1198L72.4014 82.8575C72.4186 82.7714 72.3897 82.6826 72.3253 82.6231L71.3797 81.7497C71.2941 81.6706 71.2739 81.5431 71.3309 81.4413L71.9603 80.3186C72.0032 80.242 72.0032 80.1486 71.9603 80.0721L71.3309 78.9493C71.2739 78.8476 71.2941 78.72 71.3797 78.6409L72.3253 77.7675C72.3897 77.708 72.4186 77.6192 72.4014 77.5331L72.1498 76.2708C72.127 76.1564 72.1857 76.0414 72.2916 75.9926L73.4607 75.4542C73.5404 75.4175 73.5953 75.3419 73.6056 75.2548L73.7564 73.9765Z" fill="url(#paint8_radial_3846_16261)"/>
  </g>
  <defs>
    <linearGradient id="paint0_linear_3846_16261" x1="22.8909" y1="22.8904" x2="137.501" y2="137.5" gradientUnits="userSpaceOnUse">
      <stop stop-color="white"/>
      <stop offset="1" stop-color="white" stop-opacity="0.28"/>
    </linearGradient>
    <linearGradient id="paint1_linear_3846_16261" x1="29.2502" y1="29.2576" x2="131.126" y2="131.133" gradientUnits="userSpaceOnUse">
      <stop stop-color="white"/>
      <stop offset="1" stop-color="white" stop-opacity="0.28"/>
    </linearGradient>
    <linearGradient id="paint2_linear_3846_16261" x1="35.6096" y1="35.6248" x2="124.751" y2="124.766" gradientUnits="userSpaceOnUse">
      <stop stop-color="white"/>
      <stop offset="1" stop-color="white" stop-opacity="0.28"/>
    </linearGradient>
    <linearGradient id="paint3_linear_3846_16261" x1="41.9924" y1="41.992" x2="118.399" y2="118.399" gradientUnits="userSpaceOnUse">
      <stop stop-color="white"/>
      <stop offset="1" stop-color="white" stop-opacity="0.28"/>
    </linearGradient>
    <linearGradient id="paint4_linear_3846_16261" x1="48.3673" y1="48.3592" x2="112.04" y2="112.031" gradientUnits="userSpaceOnUse">
      <stop stop-color="white"/>
      <stop offset="1" stop-color="white" stop-opacity="0.28"/>
    </linearGradient>
    <linearGradient id="paint5_linear_3846_16261" x1="54.7345" y1="54.7264" x2="105.672" y2="105.664" gradientUnits="userSpaceOnUse">
      <stop stop-color="white"/>
      <stop offset="1" stop-color="white" stop-opacity="0.28"/>
    </linearGradient>
    <linearGradient id="paint6_linear_3846_16261" x1="61.0938" y1="61.0937" x2="99.2971" y2="99.297" gradientUnits="userSpaceOnUse">
      <stop stop-color="white"/>
      <stop offset="1" stop-color="white" stop-opacity="0.28"/>
    </linearGradient>
    <linearGradient id="paint7_linear_3846_16261" x1="67.4688" y1="67.4609" x2="92.9377" y2="92.9297" gradientUnits="userSpaceOnUse">
      <stop stop-color="white"/>
      <stop offset="1" stop-color="white" stop-opacity="0.28"/>
    </linearGradient>
    <radialGradient id="paint8_radial_3846_16261" cx="0" cy="0" r="1" gradientUnits="userSpaceOnUse" gradientTransform="translate(80.196 80.1953) rotate(45) scale(14.6332)">
      <stop stop-color="white"/>
      <stop offset="1" stop-color="#6D6D6D"/>
    </radialGradient>
    <clipPath id="clip0_3846_16261">
      <rect width="160" height="160" fill="white"/>
    </clipPath>
  </defs>
</svg>