<svg xmlns="http://www.w3.org/2000/svg" width="160" height="160" viewBox="0 0 160 160" fill="none">
  <path d="M151.922 20.065L115.961 0.0869713V40.043L151.922 20.065Z" fill="url(#paint0_linear_3770_49)"/>
  <path d="M115.961 20.065L80.0005 0.0869713V40.043L115.961 20.065Z" fill="url(#paint1_linear_3770_49)"/>
  <path d="M80 20.065L44.0396 0.0869713L44.0396 40.043L80 20.065Z" fill="url(#paint2_linear_3770_49)"/>
  <path d="M44.0391 20.065L8.07867 0.0869713L8.07867 40.043L44.0391 20.065Z" fill="url(#paint3_linear_3770_49)"/>
  <path d="M8.07812 60.022L44.0385 40.044L44.0385 80L8.07812 60.022Z" fill="url(#paint4_linear_3770_49)"/>
  <path d="M44.0391 60.022L79.9995 40.044V80L44.0391 60.022Z" fill="url(#paint5_linear_3770_49)"/>
  <path d="M80 60.022L115.96 40.044V80L80 60.022Z" fill="url(#paint6_linear_3770_49)"/>
  <path d="M115.961 60.022L151.921 40.044V80L115.961 60.022Z" fill="url(#paint7_linear_3770_49)"/>
  <path d="M151.922 99.9771L115.961 79.9991V119.955L151.922 99.9771Z" fill="url(#paint8_linear_3770_49)"/>
  <path d="M115.961 99.9771L80.0005 79.9991V119.955L115.961 99.9771Z" fill="url(#paint9_linear_3770_49)"/>
  <path d="M80 99.9771L44.0396 79.9991L44.0396 119.955L80 99.9771Z" fill="url(#paint10_linear_3770_49)"/>
  <path d="M44.0391 99.9771L8.07867 79.9991L8.07867 119.955L44.0391 99.9771Z" fill="url(#paint11_linear_3770_49)"/>
  <path d="M8.07812 139.932L44.0385 119.954L44.0385 159.91L8.07812 139.932Z" fill="url(#paint12_linear_3770_49)"/>
  <path d="M44.0391 139.932L79.9995 119.954V159.91L44.0391 139.932Z" fill="url(#paint13_linear_3770_49)"/>
  <path d="M80 139.932L115.96 119.954V159.91L80 139.932Z" fill="url(#paint14_linear_3770_49)"/>
  <path d="M115.961 139.932L151.921 119.954V159.91L115.961 139.932Z" fill="url(#paint15_linear_3770_49)"/>
  <defs>
    <linearGradient id="paint0_linear_3770_49" x1="151.922" y1="20.065" x2="115.961" y2="20.065" gradientUnits="userSpaceOnUse">
      <stop stop-color="#3749F3"/>
      <stop offset="0.536458" stop-color="#3545D2" stop-opacity="0.828125"/>
      <stop offset="1" stop-color="#3545D2" stop-opacity="0"/>
    </linearGradient>
    <linearGradient id="paint1_linear_3770_49" x1="115.961" y1="20.065" x2="80.0005" y2="20.065" gradientUnits="userSpaceOnUse">
      <stop stop-color="#3749F3"/>
      <stop offset="0.536458" stop-color="#3545D2" stop-opacity="0.828125"/>
      <stop offset="1" stop-color="#3545D2" stop-opacity="0"/>
    </linearGradient>
    <linearGradient id="paint2_linear_3770_49" x1="80" y1="20.065" x2="44.0396" y2="20.065" gradientUnits="userSpaceOnUse">
      <stop stop-color="#3749F3"/>
      <stop offset="0.536458" stop-color="#3545D2" stop-opacity="0.828125"/>
      <stop offset="1" stop-color="#3545D2" stop-opacity="0"/>
    </linearGradient>
    <linearGradient id="paint3_linear_3770_49" x1="44.0391" y1="20.065" x2="8.07867" y2="20.065" gradientUnits="userSpaceOnUse">
      <stop stop-color="#3749F3"/>
      <stop offset="0.536458" stop-color="#3545D2" stop-opacity="0.828125"/>
      <stop offset="1" stop-color="#3545D2" stop-opacity="0"/>
    </linearGradient>
    <linearGradient id="paint4_linear_3770_49" x1="8.07812" y1="60.022" x2="44.0385" y2="60.022" gradientUnits="userSpaceOnUse">
      <stop stop-color="#3749F3"/>
      <stop offset="0.536458" stop-color="#3545D2" stop-opacity="0.828125"/>
      <stop offset="1" stop-color="#3545D2" stop-opacity="0"/>
    </linearGradient>
    <linearGradient id="paint5_linear_3770_49" x1="44.0391" y1="60.022" x2="79.9995" y2="60.022" gradientUnits="userSpaceOnUse">
      <stop stop-color="#3749F3"/>
      <stop offset="0.536458" stop-color="#3545D2" stop-opacity="0.828125"/>
      <stop offset="1" stop-color="#3545D2" stop-opacity="0"/>
    </linearGradient>
    <linearGradient id="paint6_linear_3770_49" x1="80" y1="60.022" x2="115.96" y2="60.022" gradientUnits="userSpaceOnUse">
      <stop stop-color="#3749F3"/>
      <stop offset="0.536458" stop-color="#3545D2" stop-opacity="0.828125"/>
      <stop offset="1" stop-color="#3545D2" stop-opacity="0"/>
    </linearGradient>
    <linearGradient id="paint7_linear_3770_49" x1="115.961" y1="60.022" x2="151.921" y2="60.022" gradientUnits="userSpaceOnUse">
      <stop stop-color="#3749F3"/>
      <stop offset="0.536458" stop-color="#3545D2" stop-opacity="0.828125"/>
      <stop offset="1" stop-color="#3545D2" stop-opacity="0"/>
    </linearGradient>
    <linearGradient id="paint8_linear_3770_49" x1="151.922" y1="99.9771" x2="115.961" y2="99.9771" gradientUnits="userSpaceOnUse">
      <stop stop-color="#3749F3"/>
      <stop offset="0.536458" stop-color="#3545D2" stop-opacity="0.828125"/>
      <stop offset="1" stop-color="#3545D2" stop-opacity="0"/>
    </linearGradient>
    <linearGradient id="paint9_linear_3770_49" x1="115.961" y1="99.9771" x2="80.0005" y2="99.9771" gradientUnits="userSpaceOnUse">
      <stop stop-color="#3749F3"/>
      <stop offset="0.536458" stop-color="#3545D2" stop-opacity="0.828125"/>
      <stop offset="1" stop-color="#3545D2" stop-opacity="0"/>
    </linearGradient>
    <linearGradient id="paint10_linear_3770_49" x1="80" y1="99.9771" x2="44.0396" y2="99.9771" gradientUnits="userSpaceOnUse">
      <stop stop-color="#3749F3"/>
      <stop offset="0.536458" stop-color="#3545D2" stop-opacity="0.828125"/>
      <stop offset="1" stop-color="#3545D2" stop-opacity="0"/>
    </linearGradient>
    <linearGradient id="paint11_linear_3770_49" x1="44.0391" y1="99.9771" x2="8.07867" y2="99.9771" gradientUnits="userSpaceOnUse">
      <stop stop-color="#3749F3"/>
      <stop offset="0.536458" stop-color="#3545D2" stop-opacity="0.828125"/>
      <stop offset="1" stop-color="#3545D2" stop-opacity="0"/>
    </linearGradient>
    <linearGradient id="paint12_linear_3770_49" x1="8.07812" y1="139.932" x2="44.0385" y2="139.932" gradientUnits="userSpaceOnUse">
      <stop stop-color="#3749F3"/>
      <stop offset="0.536458" stop-color="#3545D2" stop-opacity="0.828125"/>
      <stop offset="1" stop-color="#3545D2" stop-opacity="0"/>
    </linearGradient>
    <linearGradient id="paint13_linear_3770_49" x1="44.0391" y1="139.932" x2="79.9995" y2="139.932" gradientUnits="userSpaceOnUse">
      <stop stop-color="#3749F3"/>
      <stop offset="0.536458" stop-color="#3545D2" stop-opacity="0.828125"/>
      <stop offset="1" stop-color="#3545D2" stop-opacity="0"/>
    </linearGradient>
    <linearGradient id="paint14_linear_3770_49" x1="80" y1="139.932" x2="115.96" y2="139.932" gradientUnits="userSpaceOnUse">
      <stop stop-color="#3749F3"/>
      <stop offset="0.536458" stop-color="#3545D2" stop-opacity="0.828125"/>
      <stop offset="1" stop-color="#3545D2" stop-opacity="0"/>
    </linearGradient>
    <linearGradient id="paint15_linear_3770_49" x1="115.961" y1="139.932" x2="151.921" y2="139.932" gradientUnits="userSpaceOnUse">
      <stop stop-color="#3749F3"/>
      <stop offset="0.536458" stop-color="#3545D2" stop-opacity="0.828125"/>
      <stop offset="1" stop-color="#3545D2" stop-opacity="0"/>
    </linearGradient>
  </defs>
</svg>