<svg xmlns="http://www.w3.org/2000/svg" width="160" height="160" viewBox="0 0 160 160" fill="none">
  <rect width="88.8889" height="88.8889" transform="matrix(0.866025 0.5 -0.866026 0.5 80 71.1113)" fill="url(#paint0_linear_3770_81)"/>
  <rect width="88.8889" height="88.8889" transform="matrix(0.866025 0.5 -0.866026 0.5 80 53.334)" fill="url(#paint1_linear_3770_81)"/>
  <rect width="88.8889" height="88.8889" transform="matrix(0.866025 0.5 -0.866026 0.5 80 35.5547)" fill="url(#paint2_linear_3770_81)"/>
  <rect width="88.8889" height="88.8889" transform="matrix(0.866025 0.5 -0.866026 0.5 80 17.7773)" fill="url(#paint3_linear_3770_81)"/>
  <rect width="88.8889" height="88.8889" transform="matrix(0.866025 0.5 -0.866026 0.5 80 0)" fill="url(#paint4_linear_3770_81)"/>
  <defs>
    <linearGradient id="paint0_linear_3770_81" x1="98.0665" y1="99.7113" x2="3.15221" y2="100.977" gradientUnits="userSpaceOnUse">
      <stop stop-color="#A17E18"/>
      <stop offset="1" stop-color="#FFC82E"/>
    </linearGradient>
    <linearGradient id="paint1_linear_3770_81" x1="98.0665" y1="99.7113" x2="3.15221" y2="100.977" gradientUnits="userSpaceOnUse">
      <stop stop-color="#A17E18"/>
      <stop offset="1" stop-color="#FFC82E"/>
    </linearGradient>
    <linearGradient id="paint2_linear_3770_81" x1="98.0665" y1="99.7113" x2="3.15221" y2="100.977" gradientUnits="userSpaceOnUse">
      <stop stop-color="#A17E18"/>
      <stop offset="1" stop-color="#FFC82E"/>
    </linearGradient>
    <linearGradient id="paint3_linear_3770_81" x1="98.0665" y1="99.7113" x2="3.15221" y2="100.977" gradientUnits="userSpaceOnUse">
      <stop stop-color="#A17E18"/>
      <stop offset="1" stop-color="#FFC82E"/>
    </linearGradient>
    <linearGradient id="paint4_linear_3770_81" x1="98.0665" y1="99.7113" x2="3.15221" y2="100.977" gradientUnits="userSpaceOnUse">
      <stop stop-color="#A17E18"/>
      <stop offset="1" stop-color="#FFC82E"/>
    </linearGradient>
  </defs>
</svg>