<svg xmlns="http://www.w3.org/2000/svg" width="160" height="160" viewBox="0 0 160 160" fill="none">
  <path d="M1.68956 38.7026C1.68956 26.8197 10.3138 17.1299 21.1195 16.6477C20.8393 16.6352 20.5577 16.6289 20.2747 16.6289C9.07729 16.6289 0 26.5116 0 38.7026C0 50.8936 9.07729 60.7764 20.2747 60.7764C20.5577 60.7764 20.8393 60.77 21.1195 60.7575C10.3139 60.2753 1.68956 50.5855 1.68956 38.7026Z" fill="url(#paint0_linear_3770_23)"/>
  <path d="M5.06867 38.7026C5.06867 26.8197 13.693 17.1299 24.4986 16.6477C24.2184 16.6352 23.9368 16.6289 23.6538 16.6289C12.4564 16.6289 3.37912 26.5116 3.37912 38.7026C3.37912 50.8936 12.4564 60.7764 23.6538 60.7764C23.9368 60.7764 24.2185 60.77 24.4986 60.7575C13.693 60.2753 5.06867 50.5855 5.06867 38.7026Z" fill="url(#paint1_linear_3770_23)"/>
  <path d="M27.8777 16.6477C17.0721 17.1299 8.44779 26.8197 8.44779 38.7026C8.44779 50.5855 17.0721 60.2753 27.8777 60.7575C27.5976 60.77 27.3159 60.7764 27.0329 60.7764C15.8355 60.7764 6.75823 50.8936 6.75823 38.7026C6.75823 26.5116 15.8355 16.6289 27.0329 16.6289C27.3159 16.6289 27.5975 16.6352 27.8777 16.6477Z" fill="url(#paint2_linear_3770_23)"/>
  <path d="M11.8269 38.7026C11.8269 26.8197 20.4512 17.1299 31.2568 16.6477C30.9767 16.6352 30.695 16.6289 30.412 16.6289C19.2146 16.6289 10.1373 26.5116 10.1373 38.7026C10.1373 50.8936 19.2146 60.7764 30.412 60.7764C30.695 60.7764 30.9767 60.77 31.2569 60.7575C20.4512 60.2753 11.8269 50.5855 11.8269 38.7026Z" fill="url(#paint3_linear_3770_23)"/>
  <path d="M34.6359 16.6477C23.8303 17.1299 15.206 26.8197 15.206 38.7026C15.206 50.5855 23.8304 60.2753 34.636 60.7575C34.3558 60.77 34.0742 60.7764 33.7912 60.7764C22.5938 60.7764 13.5165 50.8936 13.5165 38.7026C13.5165 26.5116 22.5938 16.6289 33.7912 16.6289C34.0741 16.6289 34.3558 16.6352 34.6359 16.6477Z" fill="url(#paint4_linear_3770_23)"/>
  <path d="M18.5851 38.7026C18.5851 26.8197 27.2094 17.1299 38.0151 16.6477C37.7349 16.6352 37.4533 16.6289 37.1703 16.6289C25.9729 16.6289 16.8956 26.5116 16.8956 38.7026C16.8956 50.8936 25.9729 60.7764 37.1703 60.7764C37.4533 60.7764 37.7349 60.77 38.0151 60.7575C27.2095 60.2753 18.5851 50.5855 18.5851 38.7026Z" fill="url(#paint5_linear_3770_23)"/>
  <path d="M41.3942 16.6477C30.5885 17.1299 21.9643 26.8197 21.9643 38.7026C21.9643 50.5855 30.5886 60.2753 41.3942 60.7575C41.114 60.77 40.8324 60.7764 40.5494 60.7764C29.352 60.7764 20.2747 50.8936 20.2747 38.7026C20.2747 26.5116 29.352 16.6289 40.5494 16.6289C40.8324 16.6289 41.114 16.6352 41.3942 16.6477Z" fill="url(#paint6_linear_3770_23)"/>
  <path d="M25.3434 38.7026C25.3434 26.8197 33.9677 17.1299 44.7733 16.6477C44.4931 16.6352 44.2115 16.6289 43.9285 16.6289C32.7311 16.6289 23.6538 26.5116 23.6538 38.7026C23.6538 50.8936 32.7311 60.7764 43.9285 60.7764C44.2115 60.7764 44.4931 60.77 44.7733 60.7575C33.9677 60.2753 25.3434 50.5855 25.3434 38.7026Z" fill="url(#paint7_linear_3770_23)"/>
  <path d="M48.1524 16.6477C37.3468 17.1299 28.7225 26.8197 28.7225 38.7026C28.7225 50.5855 37.3468 60.2753 48.1524 60.7575C47.8723 60.77 47.5906 60.7764 47.3076 60.7764C36.1102 60.7764 27.0329 50.8936 27.0329 38.7026C27.0329 26.5116 36.1102 16.6289 47.3076 16.6289C47.5906 16.6289 47.8722 16.6352 48.1524 16.6477Z" fill="url(#paint8_linear_3770_23)"/>
  <path d="M32.1016 38.7026C32.1016 26.8197 40.7259 17.1299 51.5315 16.6477C51.2514 16.6352 50.9697 16.6289 50.6867 16.6289C39.4893 16.6289 30.412 26.5116 30.412 38.7026C30.412 50.8936 39.4893 60.7764 50.6867 60.7764C50.9697 60.7764 51.2514 60.77 51.5316 60.7575C40.7259 60.2753 32.1016 50.5855 32.1016 38.7026Z" fill="url(#paint9_linear_3770_23)"/>
  <path d="M54.9106 16.6477C44.105 17.1299 35.4807 26.8197 35.4807 38.7026C35.4807 50.5855 44.105 60.2753 54.9107 60.7575C54.6305 60.77 54.3489 60.7764 54.0659 60.7764C42.8685 60.7764 33.7912 50.8936 33.7912 38.7026C33.7912 26.5116 42.8685 16.6289 54.0659 16.6289C54.3488 16.6289 54.6305 16.6352 54.9106 16.6477Z" fill="url(#paint10_linear_3770_23)"/>
  <path d="M38.8598 38.7026C38.8598 26.8197 47.4841 17.1299 58.2898 16.6477C58.0096 16.6352 57.728 16.6289 57.445 16.6289C46.2476 16.6289 37.1703 26.5116 37.1703 38.7026C37.1703 50.8936 46.2476 60.7764 57.445 60.7764C57.728 60.7764 58.0096 60.77 58.2898 60.7575C47.4842 60.2753 38.8598 50.5855 38.8598 38.7026Z" fill="url(#paint11_linear_3770_23)"/>
  <path d="M67.3481 81.0112C67.3481 69.1283 58.597 59.4385 47.6324 58.9563C47.9167 58.9438 48.2025 58.9375 48.4896 58.9375C59.8517 58.9375 69.0625 68.8202 69.0625 81.0112C69.0625 93.2022 59.8517 103.085 48.4896 103.085C48.2025 103.085 47.9167 103.079 47.6324 103.066C58.5969 102.584 67.3481 92.8941 67.3481 81.0112Z" fill="url(#paint12_linear_3770_23)"/>
  <path d="M63.9193 81.0112C63.9193 69.1283 55.1682 59.4385 44.2036 58.9563C44.4879 58.9438 44.7737 58.9375 45.0608 58.9375C56.4229 58.9375 65.6337 68.8202 65.6337 81.0112C65.6337 93.2022 56.4229 103.085 45.0608 103.085C44.7737 103.085 44.4879 103.079 44.2036 103.066C55.1681 102.584 63.9193 92.8941 63.9193 81.0112Z" fill="url(#paint13_linear_3770_23)"/>
  <path d="M40.7748 58.9563C51.7394 59.4385 60.4905 69.1283 60.4905 81.0112C60.4905 92.8941 51.7393 102.584 40.7748 103.066C41.0591 103.079 41.3449 103.085 41.632 103.085C52.9941 103.085 62.2049 93.2022 62.2049 81.0112C62.2049 68.8202 52.9941 58.9375 41.632 58.9375C41.3449 58.9375 41.0591 58.9438 40.7748 58.9563Z" fill="url(#paint14_linear_3770_23)"/>
  <path d="M57.0617 81.0112C57.0617 69.1283 48.3105 59.4385 37.346 58.9563C37.6303 58.9438 37.9161 58.9375 38.2032 58.9375C49.5653 58.9375 58.7761 68.8202 58.7761 81.0112C58.7761 93.2022 49.5653 103.085 38.2032 103.085C37.916 103.085 37.6303 103.079 37.346 103.066C48.3105 102.584 57.0617 92.8941 57.0617 81.0112Z" fill="url(#paint15_linear_3770_23)"/>
  <path d="M33.9172 58.9563C44.8817 59.4385 53.6328 69.1283 53.6328 81.0112C53.6328 92.8941 44.8817 102.584 33.9172 103.066C34.2014 103.079 34.4872 103.085 34.7744 103.085C46.1365 103.085 55.3473 93.2022 55.3473 81.0112C55.3473 68.8202 46.1365 58.9375 34.7744 58.9375C34.4872 58.9375 34.2015 58.9438 33.9172 58.9563Z" fill="url(#paint16_linear_3770_23)"/>
  <path d="M50.204 81.0112C50.204 69.1283 41.4529 59.4385 30.4884 58.9563C30.7727 58.9438 31.0584 58.9375 31.3456 58.9375C42.7077 58.9375 51.9184 68.8202 51.9184 81.0112C51.9184 93.2022 42.7077 103.085 31.3456 103.085C31.0584 103.085 30.7726 103.079 30.4883 103.066C41.4529 102.584 50.204 92.8941 50.204 81.0112Z" fill="url(#paint17_linear_3770_23)"/>
  <path d="M27.0596 58.9563C38.0241 59.4385 46.7752 69.1283 46.7752 81.0112C46.7752 92.8941 38.0241 102.584 27.0595 103.066C27.3438 103.079 27.6296 103.085 27.9168 103.085C39.2788 103.085 48.4896 93.2022 48.4896 81.0112C48.4896 68.8202 39.2788 58.9375 27.9168 58.9375C27.6296 58.9375 27.3438 58.9438 27.0596 58.9563Z" fill="url(#paint18_linear_3770_23)"/>
  <path d="M43.3464 81.0112C43.3464 69.1283 34.5953 59.4385 23.6308 58.9563C23.915 58.9438 24.2008 58.9375 24.488 58.9375C35.85 58.9375 45.0608 68.8202 45.0608 81.0112C45.0608 93.2022 35.85 103.085 24.488 103.085C24.2008 103.085 23.915 103.079 23.6307 103.066C34.5953 102.584 43.3464 92.8941 43.3464 81.0112Z" fill="url(#paint19_linear_3770_23)"/>
  <path d="M20.2019 58.9563C31.1665 59.4385 39.9176 69.1283 39.9176 81.0112C39.9176 92.8941 31.1664 102.584 20.2019 103.066C20.4862 103.079 20.772 103.085 21.0591 103.085C32.4212 103.085 41.632 93.2022 41.632 81.0112C41.632 68.8202 32.4212 58.9375 21.0591 58.9375C20.772 58.9375 20.4862 58.9438 20.2019 58.9563Z" fill="url(#paint20_linear_3770_23)"/>
  <path d="M36.4888 81.0112C36.4888 69.1283 27.7377 59.4385 16.7731 58.9563C17.0574 58.9438 17.3432 58.9375 17.6303 58.9375C28.9924 58.9375 38.2032 68.8202 38.2032 81.0112C38.2032 93.2022 28.9924 103.085 17.6303 103.085C17.3432 103.085 17.0574 103.079 16.7731 103.066C27.7376 102.584 36.4888 92.8941 36.4888 81.0112Z" fill="url(#paint21_linear_3770_23)"/>
  <path d="M13.3443 58.9563C24.3089 59.4385 33.06 69.1283 33.06 81.0112C33.06 92.8941 24.3088 102.584 13.3443 103.066C13.6286 103.079 13.9144 103.085 14.2015 103.085C25.5636 103.085 34.7744 93.2022 34.7744 81.0112C34.7744 68.8202 25.5636 58.9375 14.2015 58.9375C13.9144 58.9375 13.6286 58.9438 13.3443 58.9563Z" fill="url(#paint22_linear_3770_23)"/>
  <path d="M29.6312 81.0112C29.6312 69.1283 20.8801 59.4385 9.9155 58.9563C10.1998 58.9438 10.4856 58.9375 10.7727 58.9375C22.1348 58.9375 31.3456 68.8202 31.3456 81.0112C31.3456 93.2022 22.1348 103.085 10.7727 103.085C10.4856 103.085 10.1998 103.079 9.91548 103.066C20.88 102.584 29.6312 92.8941 29.6312 81.0112Z" fill="url(#paint23_linear_3770_23)"/>
  <path d="M1.68956 121.861C1.68956 109.978 10.3138 100.288 21.1195 99.8059C20.8393 99.7934 20.5577 99.7871 20.2747 99.7871C9.07729 99.7871 0 109.67 0 121.861C0 134.052 9.07729 143.935 20.2747 143.935C20.5577 143.935 20.8393 143.928 21.1195 143.916C10.3139 143.434 1.68956 133.744 1.68956 121.861Z" fill="url(#paint24_linear_3770_23)"/>
  <path d="M5.06867 121.861C5.06867 109.978 13.693 100.288 24.4986 99.8059C24.2184 99.7934 23.9368 99.7871 23.6538 99.7871C12.4564 99.7871 3.37912 109.67 3.37912 121.861C3.37912 134.052 12.4564 143.935 23.6538 143.935C23.9368 143.935 24.2185 143.928 24.4986 143.916C13.693 143.434 5.06867 133.744 5.06867 121.861Z" fill="url(#paint25_linear_3770_23)"/>
  <path d="M27.8777 99.8059C17.0721 100.288 8.44779 109.978 8.44779 121.861C8.44779 133.744 17.0721 143.434 27.8777 143.916C27.5976 143.928 27.3159 143.935 27.0329 143.935C15.8355 143.935 6.75823 134.052 6.75823 121.861C6.75823 109.67 15.8355 99.7871 27.0329 99.7871C27.3159 99.7871 27.5975 99.7934 27.8777 99.8059Z" fill="url(#paint26_linear_3770_23)"/>
  <path d="M11.8269 121.861C11.8269 109.978 20.4512 100.288 31.2568 99.8059C30.9767 99.7934 30.695 99.7871 30.412 99.7871C19.2146 99.7871 10.1373 109.67 10.1373 121.861C10.1373 134.052 19.2146 143.935 30.412 143.935C30.695 143.935 30.9767 143.928 31.2569 143.916C20.4512 143.434 11.8269 133.744 11.8269 121.861Z" fill="url(#paint27_linear_3770_23)"/>
  <path d="M34.6359 99.8059C23.8303 100.288 15.206 109.978 15.206 121.861C15.206 133.744 23.8304 143.434 34.636 143.916C34.3558 143.928 34.0742 143.935 33.7912 143.935C22.5938 143.935 13.5165 134.052 13.5165 121.861C13.5165 109.67 22.5938 99.7871 33.7912 99.7871C34.0741 99.7871 34.3558 99.7934 34.6359 99.8059Z" fill="url(#paint28_linear_3770_23)"/>
  <path d="M18.5851 121.861C18.5851 109.978 27.2094 100.288 38.0151 99.8059C37.7349 99.7934 37.4533 99.7871 37.1703 99.7871C25.9729 99.7871 16.8956 109.67 16.8956 121.861C16.8956 134.052 25.9729 143.935 37.1703 143.935C37.4533 143.935 37.7349 143.928 38.0151 143.916C27.2095 143.434 18.5851 133.744 18.5851 121.861Z" fill="url(#paint29_linear_3770_23)"/>
  <path d="M41.3942 99.8059C30.5885 100.288 21.9643 109.978 21.9643 121.861C21.9643 133.744 30.5886 143.434 41.3942 143.916C41.114 143.928 40.8324 143.935 40.5494 143.935C29.352 143.935 20.2747 134.052 20.2747 121.861C20.2747 109.67 29.352 99.7871 40.5494 99.7871C40.8324 99.7871 41.114 99.7934 41.3942 99.8059Z" fill="url(#paint30_linear_3770_23)"/>
  <path d="M25.3434 121.861C25.3434 109.978 33.9677 100.288 44.7733 99.8059C44.4931 99.7934 44.2115 99.7871 43.9285 99.7871C32.7311 99.7871 23.6538 109.67 23.6538 121.861C23.6538 134.052 32.7311 143.935 43.9285 143.935C44.2115 143.935 44.4931 143.928 44.7733 143.916C33.9677 143.434 25.3434 133.744 25.3434 121.861Z" fill="url(#paint31_linear_3770_23)"/>
  <path d="M48.1524 99.8059C37.3468 100.288 28.7225 109.978 28.7225 121.861C28.7225 133.744 37.3468 143.434 48.1524 143.916C47.8723 143.928 47.5906 143.935 47.3076 143.935C36.1102 143.935 27.0329 134.052 27.0329 121.861C27.0329 109.67 36.1102 99.7871 47.3076 99.7871C47.5906 99.7871 47.8722 99.7934 48.1524 99.8059Z" fill="url(#paint32_linear_3770_23)"/>
  <path d="M32.1016 121.861C32.1016 109.978 40.7259 100.288 51.5315 99.8059C51.2514 99.7934 50.9697 99.7871 50.6867 99.7871C39.4893 99.7871 30.412 109.67 30.412 121.861C30.412 134.052 39.4893 143.935 50.6867 143.935C50.9697 143.935 51.2514 143.928 51.5316 143.916C40.7259 143.434 32.1016 133.744 32.1016 121.861Z" fill="url(#paint33_linear_3770_23)"/>
  <path d="M54.9106 99.8059C44.105 100.288 35.4807 109.978 35.4807 121.861C35.4807 133.744 44.105 143.434 54.9107 143.916C54.6305 143.928 54.3489 143.935 54.0659 143.935C42.8685 143.935 33.7912 134.052 33.7912 121.861C33.7912 109.67 42.8685 99.7871 54.0659 99.7871C54.3488 99.7871 54.6305 99.7934 54.9106 99.8059Z" fill="url(#paint34_linear_3770_23)"/>
  <path d="M38.8598 121.861C38.8598 109.978 47.4841 100.288 58.2898 99.8059C58.0096 99.7934 57.728 99.7871 57.445 99.7871C46.2476 99.7871 37.1703 109.67 37.1703 121.861C37.1703 134.052 46.2476 143.935 57.445 143.935C57.728 143.935 58.0096 143.928 58.2898 143.916C47.4842 143.434 38.8598 133.744 38.8598 121.861Z" fill="url(#paint35_linear_3770_23)"/>
  <path d="M47.1583 38.7046C47.1583 26.8217 55.7826 17.1319 66.5882 16.6497C66.3081 16.6372 66.0264 16.6309 65.7434 16.6309C54.546 16.6309 45.4688 26.5136 45.4688 38.7046C45.4688 50.8956 54.546 60.7783 65.7434 60.7783C66.0264 60.7783 66.3081 60.772 66.5883 60.7595C55.7826 60.2773 47.1583 50.5875 47.1583 38.7046Z" fill="url(#paint36_linear_3770_23)"/>
  <path d="M50.5374 38.7046C50.5374 26.8217 59.1617 17.1319 69.9673 16.6497C69.6872 16.6372 69.4055 16.6309 69.1226 16.6309C57.9252 16.6309 48.8479 26.5136 48.8479 38.7046C48.8479 50.8956 57.9252 60.7783 69.1226 60.7783C69.4056 60.7783 69.6872 60.772 69.9674 60.7595C59.1618 60.2773 50.5374 50.5875 50.5374 38.7046Z" fill="url(#paint37_linear_3770_23)"/>
  <path d="M73.3465 16.6497C62.5408 17.1319 53.9165 26.8217 53.9165 38.7046C53.9165 50.5875 62.5409 60.2773 73.3465 60.7595C73.0663 60.772 72.7847 60.7783 72.5017 60.7783C61.3043 60.7783 52.227 50.8956 52.227 38.7046C52.227 26.5136 61.3043 16.6309 72.5017 16.6309C72.7847 16.6309 73.0663 16.6372 73.3465 16.6497Z" fill="url(#paint38_linear_3770_23)"/>
  <path d="M57.2957 38.7046C57.2957 26.8217 65.9199 17.1319 76.7256 16.6497C76.4454 16.6372 76.1638 16.6309 75.8808 16.6309C64.6834 16.6309 55.6061 26.5136 55.6061 38.7046C55.6061 50.8956 64.6834 60.7783 75.8808 60.7783C76.1638 60.7783 76.4454 60.772 76.7256 60.7595C65.92 60.2773 57.2957 50.5875 57.2957 38.7046Z" fill="url(#paint39_linear_3770_23)"/>
  <path d="M80.1047 16.6497C69.2991 17.1319 60.6748 26.8217 60.6748 38.7046C60.6748 50.5875 69.2991 60.2773 80.1047 60.7595C79.8245 60.772 79.5429 60.7783 79.2599 60.7783C68.0625 60.7783 58.9852 50.8956 58.9852 38.7046C58.9852 26.5136 68.0625 16.6309 79.2599 16.6309C79.5429 16.6309 79.8245 16.6372 80.1047 16.6497Z" fill="url(#paint40_linear_3770_23)"/>
  <path d="M64.0539 38.7046C64.0539 26.8217 72.6782 17.1319 83.4838 16.6497C83.2036 16.6372 82.922 16.6309 82.639 16.6309C71.4416 16.6309 62.3643 26.5136 62.3643 38.7046C62.3643 50.8956 71.4416 60.7783 82.639 60.7783C82.922 60.7783 83.2037 60.772 83.4838 60.7595C72.6782 60.2773 64.0539 50.5875 64.0539 38.7046Z" fill="url(#paint41_linear_3770_23)"/>
  <path d="M86.8629 16.6497C76.0573 17.1319 67.433 26.8217 67.433 38.7046C67.433 50.5875 76.0573 60.2773 86.863 60.7595C86.5828 60.772 86.3011 60.7783 86.0181 60.7783C74.8207 60.7783 65.7434 50.8956 65.7434 38.7046C65.7434 26.5136 74.8207 16.6309 86.0181 16.6309C86.3011 16.6309 86.5828 16.6372 86.8629 16.6497Z" fill="url(#paint42_linear_3770_23)"/>
  <path d="M70.8121 38.7046C70.8121 26.8217 79.4364 17.1319 90.242 16.6497C89.9619 16.6372 89.6802 16.6309 89.3973 16.6309C78.1999 16.6309 69.1226 26.5136 69.1226 38.7046C69.1226 50.8956 78.1999 60.7783 89.3973 60.7783C89.6803 60.7783 89.9619 60.772 90.2421 60.7595C79.4365 60.2773 70.8121 50.5875 70.8121 38.7046Z" fill="url(#paint43_linear_3770_23)"/>
  <path d="M93.6212 16.6497C82.8155 17.1319 74.1912 26.8217 74.1912 38.7046C74.1912 50.5875 82.8156 60.2773 93.6212 60.7595C93.341 60.772 93.0594 60.7783 92.7764 60.7783C81.579 60.7783 72.5017 50.8956 72.5017 38.7046C72.5017 26.5136 81.579 16.6309 92.7764 16.6309C93.0594 16.6309 93.341 16.6372 93.6212 16.6497Z" fill="url(#paint44_linear_3770_23)"/>
  <path d="M77.5704 38.7046C77.5704 26.8217 86.1946 17.1319 97.0003 16.6497C96.7201 16.6372 96.4385 16.6309 96.1555 16.6309C84.9581 16.6309 75.8808 26.5136 75.8808 38.7046C75.8808 50.8956 84.9581 60.7783 96.1555 60.7783C96.4385 60.7783 96.7201 60.772 97.0003 60.7595C86.1947 60.2773 77.5704 50.5875 77.5704 38.7046Z" fill="url(#paint45_linear_3770_23)"/>
  <path d="M100.379 16.6497C89.5738 17.1319 80.9495 26.8217 80.9495 38.7046C80.9495 50.5875 89.5738 60.2773 100.379 60.7595C100.099 60.772 99.8176 60.7783 99.5346 60.7783C88.3372 60.7783 79.2599 50.8956 79.2599 38.7046C79.2599 26.5136 88.3372 16.6309 99.5346 16.6309C99.8176 16.6309 100.099 16.6372 100.379 16.6497Z" fill="url(#paint46_linear_3770_23)"/>
  <path d="M84.3286 38.7046C84.3286 26.8217 92.9529 17.1319 103.759 16.6497C103.478 16.6372 103.197 16.6309 102.914 16.6309C91.7163 16.6309 82.639 26.5136 82.639 38.7046C82.639 50.8956 91.7163 60.7783 102.914 60.7783C103.197 60.7783 103.478 60.772 103.759 60.7595C92.9529 60.2773 84.3286 50.5875 84.3286 38.7046Z" fill="url(#paint47_linear_3770_23)"/>
  <path d="M112.817 81.0132C112.817 69.1303 104.066 59.4404 93.1012 58.9583C93.3855 58.9458 93.6712 58.9395 93.9584 58.9395C105.32 58.9395 114.531 68.8222 114.531 81.0132C114.531 93.2042 105.32 103.087 93.9584 103.087C93.6712 103.087 93.3854 103.081 93.1011 103.068C104.066 102.586 112.817 92.8961 112.817 81.0132Z" fill="url(#paint48_linear_3770_23)"/>
  <path d="M109.388 81.0132C109.388 69.1303 100.637 59.4404 89.6724 58.9583C89.9567 58.9458 90.2424 58.9395 90.5296 58.9395C101.892 58.9395 111.102 68.8222 111.102 81.0132C111.102 93.2042 101.892 103.087 90.5296 103.087C90.2424 103.087 89.9566 103.081 89.6723 103.068C100.637 102.586 109.388 92.8961 109.388 81.0132Z" fill="url(#paint49_linear_3770_23)"/>
  <path d="M86.2436 58.9583C97.2081 59.4404 105.959 69.1303 105.959 81.0132C105.959 92.8961 97.2081 102.586 86.2435 103.068C86.5278 103.081 86.8136 103.087 87.1008 103.087C98.4628 103.087 107.674 93.2042 107.674 81.0132C107.674 68.8222 98.4628 58.9395 87.1008 58.9395C86.8136 58.9395 86.5278 58.9458 86.2436 58.9583Z" fill="url(#paint50_linear_3770_23)"/>
  <path d="M102.53 81.0132C102.53 69.1303 93.7793 59.4404 82.8147 58.9583C83.099 58.9458 83.3848 58.9395 83.6719 58.9395C95.034 58.9395 104.245 68.8222 104.245 81.0132C104.245 93.2042 95.034 103.087 83.6719 103.087C83.3848 103.087 83.099 103.081 82.8147 103.068C93.7792 102.586 102.53 92.8961 102.53 81.0132Z" fill="url(#paint51_linear_3770_23)"/>
  <path d="M79.3859 58.9583C90.3505 59.4404 99.1016 69.1303 99.1016 81.0132C99.1016 92.8961 90.3504 102.586 79.3859 103.068C79.6702 103.081 79.956 103.087 80.2431 103.087C91.6052 103.087 100.816 93.2042 100.816 81.0132C100.816 68.8222 91.6052 58.9395 80.2431 58.9395C79.956 58.9395 79.6702 58.9458 79.3859 58.9583Z" fill="url(#paint52_linear_3770_23)"/>
  <path d="M95.6728 81.0132C95.6728 69.1303 86.9217 59.4404 75.9571 58.9583C76.2414 58.9458 76.5272 58.9395 76.8143 58.9395C88.1764 58.9395 97.3872 68.8222 97.3872 81.0132C97.3872 93.2042 88.1764 103.087 76.8143 103.087C76.5272 103.087 76.2414 103.081 75.9571 103.068C86.9216 102.586 95.6728 92.8961 95.6728 81.0132Z" fill="url(#paint53_linear_3770_23)"/>
  <path d="M72.5283 58.9583C83.4929 59.4404 92.244 69.1303 92.244 81.0132C92.244 92.8961 83.4928 102.586 72.5283 103.068C72.8126 103.081 73.0984 103.087 73.3855 103.087C84.7476 103.087 93.9584 93.2042 93.9584 81.0132C93.9584 68.8222 84.7476 58.9395 73.3855 58.9395C73.0984 58.9395 72.8126 58.9458 72.5283 58.9583Z" fill="url(#paint54_linear_3770_23)"/>
  <path d="M88.8152 81.0132C88.8152 69.1303 80.064 59.4404 69.0995 58.9583C69.3838 58.9458 69.6696 58.9395 69.9567 58.9395C81.3188 58.9395 90.5296 68.8222 90.5296 81.0132C90.5296 93.2042 81.3188 103.087 69.9567 103.087C69.6695 103.087 69.3838 103.081 69.0995 103.068C80.064 102.586 88.8152 92.8961 88.8152 81.0132Z" fill="url(#paint55_linear_3770_23)"/>
  <path d="M65.6707 58.9583C76.6352 59.4404 85.3864 69.1303 85.3864 81.0132C85.3864 92.8961 76.6352 102.586 65.6707 103.068C65.955 103.081 66.2407 103.087 66.5279 103.087C77.89 103.087 87.1008 93.2042 87.1008 81.0132C87.1008 68.8222 77.89 58.9395 66.5279 58.9395C66.2407 58.9395 65.955 58.9458 65.6707 58.9583Z" fill="url(#paint56_linear_3770_23)"/>
  <path d="M81.9575 81.0132C81.9575 69.1303 73.2064 59.4404 62.2419 58.9583C62.5262 58.9458 62.8119 58.9395 63.0991 58.9395C74.4612 58.9395 83.6719 68.8222 83.6719 81.0132C83.6719 93.2042 74.4612 103.087 63.0991 103.087C62.8119 103.087 62.5261 103.081 62.2418 103.068C73.2064 102.586 81.9575 92.8961 81.9575 81.0132Z" fill="url(#paint57_linear_3770_23)"/>
  <path d="M58.8131 58.9583C69.7776 59.4404 78.5287 69.1303 78.5287 81.0132C78.5287 92.8961 69.7776 102.586 58.813 103.068C59.0973 103.081 59.3831 103.087 59.6703 103.087C71.0324 103.087 80.2431 93.2042 80.2431 81.0132C80.2431 68.8222 71.0324 58.9395 59.6703 58.9395C59.3831 58.9395 59.0974 58.9458 58.8131 58.9583Z" fill="url(#paint58_linear_3770_23)"/>
  <path d="M75.0999 81.0132C75.0999 69.1303 66.3488 59.4404 55.3843 58.9583C55.6685 58.9458 55.9543 58.9395 56.2415 58.9395C67.6035 58.9395 76.8143 68.8222 76.8143 81.0132C76.8143 93.2042 67.6035 103.087 56.2415 103.087C55.9543 103.087 55.6685 103.081 55.3842 103.068C66.3488 102.586 75.0999 92.8961 75.0999 81.0132Z" fill="url(#paint59_linear_3770_23)"/>
  <path d="M47.1583 121.863C47.1583 109.98 55.7826 100.29 66.5882 99.8079C66.3081 99.7954 66.0264 99.7891 65.7434 99.7891C54.546 99.7891 45.4688 109.672 45.4688 121.863C45.4688 134.054 54.546 143.937 65.7434 143.937C66.0264 143.937 66.3081 143.93 66.5883 143.918C55.7826 143.435 47.1583 133.746 47.1583 121.863Z" fill="url(#paint60_linear_3770_23)"/>
  <path d="M50.5374 121.863C50.5374 109.98 59.1617 100.29 69.9673 99.8079C69.6872 99.7954 69.4055 99.7891 69.1226 99.7891C57.9252 99.7891 48.8479 109.672 48.8479 121.863C48.8479 134.054 57.9252 143.937 69.1226 143.937C69.4056 143.937 69.6872 143.93 69.9674 143.918C59.1618 143.435 50.5374 133.746 50.5374 121.863Z" fill="url(#paint61_linear_3770_23)"/>
  <path d="M73.3465 99.8079C62.5408 100.29 53.9165 109.98 53.9165 121.863C53.9165 133.746 62.5409 143.435 73.3465 143.918C73.0663 143.93 72.7847 143.937 72.5017 143.937C61.3043 143.937 52.227 134.054 52.227 121.863C52.227 109.672 61.3043 99.7891 72.5017 99.7891C72.7847 99.7891 73.0663 99.7954 73.3465 99.8079Z" fill="url(#paint62_linear_3770_23)"/>
  <path d="M57.2957 121.863C57.2957 109.98 65.9199 100.29 76.7256 99.8079C76.4454 99.7954 76.1638 99.7891 75.8808 99.7891C64.6834 99.7891 55.6061 109.672 55.6061 121.863C55.6061 134.054 64.6834 143.937 75.8808 143.937C76.1638 143.937 76.4454 143.93 76.7256 143.918C65.92 143.435 57.2957 133.746 57.2957 121.863Z" fill="url(#paint63_linear_3770_23)"/>
  <path d="M80.1047 99.8079C69.2991 100.29 60.6748 109.98 60.6748 121.863C60.6748 133.746 69.2991 143.435 80.1047 143.918C79.8245 143.93 79.5429 143.937 79.2599 143.937C68.0625 143.937 58.9852 134.054 58.9852 121.863C58.9852 109.672 68.0625 99.7891 79.2599 99.7891C79.5429 99.7891 79.8245 99.7954 80.1047 99.8079Z" fill="url(#paint64_linear_3770_23)"/>
  <path d="M64.0539 121.863C64.0539 109.98 72.6782 100.29 83.4838 99.8079C83.2036 99.7954 82.922 99.7891 82.639 99.7891C71.4416 99.7891 62.3643 109.672 62.3643 121.863C62.3643 134.054 71.4416 143.937 82.639 143.937C82.922 143.937 83.2037 143.93 83.4838 143.918C72.6782 143.435 64.0539 133.746 64.0539 121.863Z" fill="url(#paint65_linear_3770_23)"/>
  <path d="M86.8629 99.8079C76.0573 100.29 67.433 109.98 67.433 121.863C67.433 133.746 76.0573 143.435 86.863 143.918C86.5828 143.93 86.3011 143.937 86.0181 143.937C74.8207 143.937 65.7434 134.054 65.7434 121.863C65.7434 109.672 74.8207 99.7891 86.0181 99.7891C86.3011 99.7891 86.5828 99.7954 86.8629 99.8079Z" fill="url(#paint66_linear_3770_23)"/>
  <path d="M70.8121 121.863C70.8121 109.98 79.4364 100.29 90.242 99.8079C89.9619 99.7954 89.6802 99.7891 89.3973 99.7891C78.1999 99.7891 69.1226 109.672 69.1226 121.863C69.1226 134.054 78.1999 143.937 89.3973 143.937C89.6803 143.937 89.9619 143.93 90.2421 143.918C79.4365 143.435 70.8121 133.746 70.8121 121.863Z" fill="url(#paint67_linear_3770_23)"/>
  <path d="M93.6212 99.8079C82.8155 100.29 74.1912 109.98 74.1912 121.863C74.1912 133.746 82.8156 143.435 93.6212 143.918C93.341 143.93 93.0594 143.937 92.7764 143.937C81.579 143.937 72.5017 134.054 72.5017 121.863C72.5017 109.672 81.579 99.7891 92.7764 99.7891C93.0594 99.7891 93.341 99.7954 93.6212 99.8079Z" fill="url(#paint68_linear_3770_23)"/>
  <path d="M77.5704 121.863C77.5704 109.98 86.1946 100.29 97.0003 99.8079C96.7201 99.7954 96.4385 99.7891 96.1555 99.7891C84.9581 99.7891 75.8808 109.672 75.8808 121.863C75.8808 134.054 84.9581 143.937 96.1555 143.937C96.4385 143.937 96.7201 143.93 97.0003 143.918C86.1947 143.435 77.5704 133.746 77.5704 121.863Z" fill="url(#paint69_linear_3770_23)"/>
  <path d="M100.379 99.8079C89.5738 100.29 80.9495 109.98 80.9495 121.863C80.9495 133.746 89.5738 143.435 100.379 143.918C100.099 143.93 99.8176 143.937 99.5346 143.937C88.3372 143.937 79.2599 134.054 79.2599 121.863C79.2599 109.672 88.3372 99.7891 99.5346 99.7891C99.8176 99.7891 100.099 99.7954 100.379 99.8079Z" fill="url(#paint70_linear_3770_23)"/>
  <path d="M84.3286 121.863C84.3286 109.98 92.9529 100.29 103.759 99.8079C103.478 99.7954 103.197 99.7891 102.914 99.7891C91.7163 99.7891 82.639 109.672 82.639 121.863C82.639 134.054 91.7163 143.937 102.914 143.937C103.197 143.937 103.478 143.93 103.759 143.918C92.9529 143.435 84.3286 133.746 84.3286 121.863Z" fill="url(#paint71_linear_3770_23)"/>
  <path d="M92.6271 38.7046C92.6271 26.8217 101.251 17.1319 112.057 16.6497C111.777 16.6372 111.495 16.6309 111.212 16.6309C100.015 16.6309 90.9375 26.5136 90.9375 38.7046C90.9375 50.8956 100.015 60.7783 111.212 60.7783C111.495 60.7783 111.777 60.772 112.057 60.7595C101.251 60.2773 92.6271 50.5875 92.6271 38.7046Z" fill="url(#paint72_linear_3770_23)"/>
  <path d="M96.0062 38.7046C96.0062 26.8217 104.63 17.1319 115.436 16.6497C115.156 16.6372 114.874 16.6309 114.591 16.6309C103.394 16.6309 94.3166 26.5136 94.3166 38.7046C94.3166 50.8956 103.394 60.7783 114.591 60.7783C114.874 60.7783 115.156 60.772 115.436 60.7595C104.631 60.2773 96.0062 50.5875 96.0062 38.7046Z" fill="url(#paint73_linear_3770_23)"/>
  <path d="M118.815 16.6497C108.01 17.1319 99.3853 26.8217 99.3853 38.7046C99.3853 50.5875 108.01 60.2773 118.815 60.7595C118.535 60.772 118.253 60.7783 117.97 60.7783C106.773 60.7783 97.6957 50.8956 97.6957 38.7046C97.6957 26.5136 106.773 16.6309 117.97 16.6309C118.253 16.6309 118.535 16.6372 118.815 16.6497Z" fill="url(#paint74_linear_3770_23)"/>
  <path d="M102.764 38.7046C102.764 26.8217 111.389 17.1319 122.194 16.6497C121.914 16.6372 121.633 16.6309 121.35 16.6309C110.152 16.6309 101.075 26.5136 101.075 38.7046C101.075 50.8956 110.152 60.7783 121.35 60.7783C121.633 60.7783 121.914 60.772 122.194 60.7595C111.389 60.2773 102.764 50.5875 102.764 38.7046Z" fill="url(#paint75_linear_3770_23)"/>
  <path d="M125.573 16.6497C114.768 17.1319 106.144 26.8217 106.144 38.7046C106.144 50.5875 114.768 60.2773 125.573 60.7595C125.293 60.772 125.012 60.7783 124.729 60.7783C113.531 60.7783 104.454 50.8956 104.454 38.7046C104.454 26.5136 113.531 16.6309 124.729 16.6309C125.012 16.6309 125.293 16.6372 125.573 16.6497Z" fill="url(#paint76_linear_3770_23)"/>
  <path d="M109.523 38.7046C109.523 26.8217 118.147 17.1319 128.953 16.6497C128.672 16.6372 128.391 16.6309 128.108 16.6309C116.91 16.6309 107.833 26.5136 107.833 38.7046C107.833 50.8956 116.91 60.7783 128.108 60.7783C128.391 60.7783 128.672 60.772 128.953 60.7595C118.147 60.2773 109.523 50.5875 109.523 38.7046Z" fill="url(#paint77_linear_3770_23)"/>
  <path d="M132.332 16.6497C121.526 17.1319 112.902 26.8217 112.902 38.7046C112.902 50.5875 121.526 60.2773 132.332 60.7595C132.052 60.772 131.77 60.7783 131.487 60.7783C120.289 60.7783 111.212 50.8956 111.212 38.7046C111.212 26.5136 120.289 16.6309 131.487 16.6309C131.77 16.6309 132.052 16.6372 132.332 16.6497Z" fill="url(#paint78_linear_3770_23)"/>
  <path d="M116.281 38.7046C116.281 26.8217 124.905 17.1319 135.711 16.6497C135.431 16.6372 135.149 16.6309 134.866 16.6309C123.669 16.6309 114.591 26.5136 114.591 38.7046C114.591 50.8956 123.669 60.7783 134.866 60.7783C135.149 60.7783 135.431 60.772 135.711 60.7595C124.905 60.2773 116.281 50.5875 116.281 38.7046Z" fill="url(#paint79_linear_3770_23)"/>
  <path d="M139.09 16.6497C128.284 17.1319 119.66 26.8217 119.66 38.7046C119.66 50.5875 128.284 60.2773 139.09 60.7595C138.81 60.772 138.528 60.7783 138.245 60.7783C127.048 60.7783 117.97 50.8956 117.97 38.7046C117.97 26.5136 127.048 16.6309 138.245 16.6309C138.528 16.6309 138.81 16.6372 139.09 16.6497Z" fill="url(#paint80_linear_3770_23)"/>
  <path d="M123.039 38.7046C123.039 26.8217 131.663 17.1319 142.469 16.6497C142.189 16.6372 141.907 16.6309 141.624 16.6309C130.427 16.6309 121.35 26.5136 121.35 38.7046C121.35 50.8956 130.427 60.7783 141.624 60.7783C141.907 60.7783 142.189 60.772 142.469 60.7595C131.663 60.2773 123.039 50.5875 123.039 38.7046Z" fill="url(#paint81_linear_3770_23)"/>
  <path d="M145.848 16.6497C135.043 17.1319 126.418 26.8217 126.418 38.7046C126.418 50.5875 135.043 60.2773 145.848 60.7595C145.568 60.772 145.286 60.7783 145.003 60.7783C133.806 60.7783 124.729 50.8956 124.729 38.7046C124.729 26.5136 133.806 16.6309 145.003 16.6309C145.286 16.6309 145.568 16.6372 145.848 16.6497Z" fill="url(#paint82_linear_3770_23)"/>
  <path d="M129.797 38.7046C129.797 26.8217 138.422 17.1319 149.227 16.6497C148.947 16.6372 148.665 16.6309 148.382 16.6309C137.185 16.6309 128.108 26.5136 128.108 38.7046C128.108 50.8956 137.185 60.7783 148.382 60.7783C148.665 60.7783 148.947 60.772 149.227 60.7595C138.422 60.2773 129.797 50.5875 129.797 38.7046Z" fill="url(#paint83_linear_3770_23)"/>
  <path d="M158.286 81.0132C158.286 69.1303 149.534 59.4404 138.57 58.9583C138.854 58.9458 139.14 58.9395 139.427 58.9395C150.789 58.9395 160 68.8222 160 81.0132C160 93.2042 150.789 103.087 139.427 103.087C139.14 103.087 138.854 103.081 138.57 103.068C149.534 102.586 158.286 92.8961 158.286 81.0132Z" fill="url(#paint84_linear_3770_23)"/>
  <path d="M154.857 81.0132C154.857 69.1303 146.106 59.4404 135.141 58.9583C135.425 58.9458 135.711 58.9395 135.998 58.9395C147.36 58.9395 156.571 68.8222 156.571 81.0132C156.571 93.2042 147.36 103.087 135.998 103.087C135.711 103.087 135.425 103.081 135.141 103.068C146.106 102.586 154.857 92.8961 154.857 81.0132Z" fill="url(#paint85_linear_3770_23)"/>
  <path d="M131.712 58.9583C142.677 59.4404 151.428 69.1303 151.428 81.0132C151.428 92.8961 142.677 102.586 131.712 103.068C131.997 103.081 132.282 103.087 132.57 103.087C143.932 103.087 153.142 93.2042 153.142 81.0132C153.142 68.8222 143.932 58.9395 132.57 58.9395C132.282 58.9395 131.997 58.9458 131.712 58.9583Z" fill="url(#paint86_linear_3770_23)"/>
  <path d="M147.999 81.0132C147.999 69.1303 139.248 59.4404 128.283 58.9583C128.568 58.9458 128.854 58.9395 129.141 58.9395C140.503 58.9395 149.714 68.8222 149.714 81.0132C149.714 93.2042 140.503 103.087 129.141 103.087C128.854 103.087 128.568 103.081 128.283 103.068C139.248 102.586 147.999 92.8961 147.999 81.0132Z" fill="url(#paint87_linear_3770_23)"/>
  <path d="M124.855 58.9583C135.819 59.4404 144.57 69.1303 144.57 81.0132C144.57 92.8961 135.819 102.586 124.855 103.068C125.139 103.081 125.425 103.087 125.712 103.087C137.074 103.087 146.285 93.2042 146.285 81.0132C146.285 68.8222 137.074 58.9395 125.712 58.9395C125.425 58.9395 125.139 58.9458 124.855 58.9583Z" fill="url(#paint88_linear_3770_23)"/>
  <path d="M141.142 81.0132C141.142 69.1303 132.39 59.4404 121.426 58.9583C121.71 58.9458 121.996 58.9395 122.283 58.9395C133.645 58.9395 142.856 68.8222 142.856 81.0132C142.856 93.2042 133.645 103.087 122.283 103.087C121.996 103.087 121.71 103.081 121.426 103.068C132.39 102.586 141.142 92.8961 141.142 81.0132Z" fill="url(#paint89_linear_3770_23)"/>
  <path d="M117.997 58.9583C128.962 59.4404 137.713 69.1303 137.713 81.0132C137.713 92.8961 128.962 102.586 117.997 103.068C118.281 103.081 118.567 103.087 118.854 103.087C130.216 103.087 139.427 93.2042 139.427 81.0132C139.427 68.8222 130.216 58.9395 118.854 58.9395C118.567 58.9395 118.281 58.9458 117.997 58.9583Z" fill="url(#paint90_linear_3770_23)"/>
  <path d="M134.284 81.0132C134.284 69.1303 125.533 59.4404 114.568 58.9583C114.853 58.9458 115.138 58.9395 115.425 58.9395C126.788 58.9395 135.998 68.8222 135.998 81.0132C135.998 93.2042 126.788 103.087 115.425 103.087C115.138 103.087 114.853 103.081 114.568 103.068C125.533 102.586 134.284 92.8961 134.284 81.0132Z" fill="url(#paint91_linear_3770_23)"/>
  <path d="M111.139 58.9583C122.104 59.4404 130.855 69.1303 130.855 81.0132C130.855 92.8961 122.104 102.586 111.139 103.068C111.424 103.081 111.709 103.087 111.997 103.087C123.359 103.087 132.57 93.2042 132.57 81.0132C132.57 68.8222 123.359 58.9395 111.997 58.9395C111.709 58.9395 111.424 58.9458 111.139 58.9583Z" fill="url(#paint92_linear_3770_23)"/>
  <path d="M127.426 81.0132C127.426 69.1303 118.675 59.4404 107.711 58.9583C107.995 58.9458 108.281 58.9395 108.568 58.9395C119.93 58.9395 129.141 68.8222 129.141 81.0132C129.141 93.2042 119.93 103.087 108.568 103.087C108.281 103.087 107.995 103.081 107.711 103.068C118.675 102.586 127.426 92.8961 127.426 81.0132Z" fill="url(#paint93_linear_3770_23)"/>
  <path d="M104.282 58.9583C115.246 59.4404 123.997 69.1303 123.997 81.0132C123.997 92.8961 115.246 102.586 104.282 103.068C104.566 103.081 104.852 103.087 105.139 103.087C116.501 103.087 125.712 93.2042 125.712 81.0132C125.712 68.8222 116.501 58.9395 105.139 58.9395C104.852 58.9395 104.566 58.9458 104.282 58.9583Z" fill="url(#paint94_linear_3770_23)"/>
  <path d="M120.569 81.0132C120.569 69.1303 111.818 59.4404 100.853 58.9583C101.137 58.9458 101.423 58.9395 101.71 58.9395C113.072 58.9395 122.283 68.8222 122.283 81.0132C122.283 93.2042 113.072 103.087 101.71 103.087C101.423 103.087 101.137 103.081 100.853 103.068C111.818 102.586 120.569 92.8961 120.569 81.0132Z" fill="url(#paint95_linear_3770_23)"/>
  <path d="M92.6271 121.863C92.6271 109.98 101.251 100.29 112.057 99.8079C111.777 99.7954 111.495 99.7891 111.212 99.7891C100.015 99.7891 90.9375 109.672 90.9375 121.863C90.9375 134.054 100.015 143.937 111.212 143.937C111.495 143.937 111.777 143.93 112.057 143.918C101.251 143.435 92.6271 133.746 92.6271 121.863Z" fill="url(#paint96_linear_3770_23)"/>
  <path d="M96.0062 121.863C96.0062 109.98 104.63 100.29 115.436 99.8079C115.156 99.7954 114.874 99.7891 114.591 99.7891C103.394 99.7891 94.3166 109.672 94.3166 121.863C94.3166 134.054 103.394 143.937 114.591 143.937C114.874 143.937 115.156 143.93 115.436 143.918C104.631 143.435 96.0062 133.746 96.0062 121.863Z" fill="url(#paint97_linear_3770_23)"/>
  <path d="M118.815 99.8079C108.01 100.29 99.3853 109.98 99.3853 121.863C99.3853 133.746 108.01 143.435 118.815 143.918C118.535 143.93 118.253 143.937 117.97 143.937C106.773 143.937 97.6957 134.054 97.6957 121.863C97.6957 109.672 106.773 99.7891 117.97 99.7891C118.253 99.7891 118.535 99.7954 118.815 99.8079Z" fill="url(#paint98_linear_3770_23)"/>
  <path d="M102.764 121.863C102.764 109.98 111.389 100.29 122.194 99.8079C121.914 99.7954 121.633 99.7891 121.35 99.7891C110.152 99.7891 101.075 109.672 101.075 121.863C101.075 134.054 110.152 143.937 121.35 143.937C121.633 143.937 121.914 143.93 122.194 143.918C111.389 143.435 102.764 133.746 102.764 121.863Z" fill="url(#paint99_linear_3770_23)"/>
  <path d="M125.573 99.8079C114.768 100.29 106.144 109.98 106.144 121.863C106.144 133.746 114.768 143.435 125.573 143.918C125.293 143.93 125.012 143.937 124.729 143.937C113.531 143.937 104.454 134.054 104.454 121.863C104.454 109.672 113.531 99.7891 124.729 99.7891C125.012 99.7891 125.293 99.7954 125.573 99.8079Z" fill="url(#paint100_linear_3770_23)"/>
  <path d="M109.523 121.863C109.523 109.98 118.147 100.29 128.953 99.8079C128.672 99.7954 128.391 99.7891 128.108 99.7891C116.91 99.7891 107.833 109.672 107.833 121.863C107.833 134.054 116.91 143.937 128.108 143.937C128.391 143.937 128.672 143.93 128.953 143.918C118.147 143.435 109.523 133.746 109.523 121.863Z" fill="url(#paint101_linear_3770_23)"/>
  <path d="M132.332 99.8079C121.526 100.29 112.902 109.98 112.902 121.863C112.902 133.746 121.526 143.435 132.332 143.918C132.052 143.93 131.77 143.937 131.487 143.937C120.289 143.937 111.212 134.054 111.212 121.863C111.212 109.672 120.289 99.7891 131.487 99.7891C131.77 99.7891 132.052 99.7954 132.332 99.8079Z" fill="url(#paint102_linear_3770_23)"/>
  <path d="M116.281 121.863C116.281 109.98 124.905 100.29 135.711 99.8079C135.431 99.7954 135.149 99.7891 134.866 99.7891C123.669 99.7891 114.591 109.672 114.591 121.863C114.591 134.054 123.669 143.937 134.866 143.937C135.149 143.937 135.431 143.93 135.711 143.918C124.905 143.435 116.281 133.746 116.281 121.863Z" fill="url(#paint103_linear_3770_23)"/>
  <path d="M139.09 99.8079C128.284 100.29 119.66 109.98 119.66 121.863C119.66 133.746 128.284 143.435 139.09 143.918C138.81 143.93 138.528 143.937 138.245 143.937C127.048 143.937 117.97 134.054 117.97 121.863C117.97 109.672 127.048 99.7891 138.245 99.7891C138.528 99.7891 138.81 99.7954 139.09 99.8079Z" fill="url(#paint104_linear_3770_23)"/>
  <path d="M123.039 121.863C123.039 109.98 131.663 100.29 142.469 99.8079C142.189 99.7954 141.907 99.7891 141.624 99.7891C130.427 99.7891 121.35 109.672 121.35 121.863C121.35 134.054 130.427 143.937 141.624 143.937C141.907 143.937 142.189 143.93 142.469 143.918C131.663 143.435 123.039 133.746 123.039 121.863Z" fill="url(#paint105_linear_3770_23)"/>
  <path d="M145.848 99.8079C135.042 100.29 126.418 109.98 126.418 121.863C126.418 133.746 135.043 143.435 145.848 143.918C145.568 143.93 145.286 143.937 145.003 143.937C133.806 143.937 124.729 134.054 124.729 121.863C124.729 109.672 133.806 99.7891 145.003 99.7891C145.286 99.7891 145.568 99.7954 145.848 99.8079Z" fill="url(#paint106_linear_3770_23)"/>
  <path d="M129.797 121.863C129.797 109.98 138.422 100.29 149.227 99.8079C148.947 99.7954 148.665 99.7891 148.382 99.7891C137.185 99.7891 128.108 109.672 128.108 121.863C128.108 134.054 137.185 143.937 148.382 143.937C148.665 143.937 148.947 143.93 149.227 143.918C138.422 143.435 129.797 133.746 129.797 121.863Z" fill="url(#paint107_linear_3770_23)"/>
  <defs>
    <linearGradient id="paint0_linear_3770_23" x1="29.1449" y1="16.6289" x2="29.1449" y2="63.5356" gradientUnits="userSpaceOnUse">
      <stop stop-color="#BD4230"/>
      <stop offset="0.494955" stop-color="#BD4230"/>
      <stop offset="1" stop-color="#BD4230" stop-opacity="0"/>
    </linearGradient>
    <linearGradient id="paint1_linear_3770_23" x1="29.1449" y1="16.6289" x2="29.1449" y2="63.5356" gradientUnits="userSpaceOnUse">
      <stop stop-color="#BD4230"/>
      <stop offset="0.494955" stop-color="#BD4230"/>
      <stop offset="1" stop-color="#BD4230" stop-opacity="0"/>
    </linearGradient>
    <linearGradient id="paint2_linear_3770_23" x1="29.1449" y1="16.6289" x2="29.1449" y2="63.5356" gradientUnits="userSpaceOnUse">
      <stop stop-color="#BD4230"/>
      <stop offset="0.494955" stop-color="#BD4230"/>
      <stop offset="1" stop-color="#BD4230" stop-opacity="0"/>
    </linearGradient>
    <linearGradient id="paint3_linear_3770_23" x1="29.1449" y1="16.6289" x2="29.1449" y2="63.5356" gradientUnits="userSpaceOnUse">
      <stop stop-color="#BD4230"/>
      <stop offset="0.494955" stop-color="#BD4230"/>
      <stop offset="1" stop-color="#BD4230" stop-opacity="0"/>
    </linearGradient>
    <linearGradient id="paint4_linear_3770_23" x1="29.1449" y1="16.6289" x2="29.1449" y2="63.5356" gradientUnits="userSpaceOnUse">
      <stop stop-color="#BD4230"/>
      <stop offset="0.494955" stop-color="#BD4230"/>
      <stop offset="1" stop-color="#BD4230" stop-opacity="0"/>
    </linearGradient>
    <linearGradient id="paint5_linear_3770_23" x1="29.1449" y1="16.6289" x2="29.1449" y2="63.5356" gradientUnits="userSpaceOnUse">
      <stop stop-color="#BD4230"/>
      <stop offset="0.494955" stop-color="#BD4230"/>
      <stop offset="1" stop-color="#BD4230" stop-opacity="0"/>
    </linearGradient>
    <linearGradient id="paint6_linear_3770_23" x1="29.1449" y1="16.6289" x2="29.1449" y2="63.5356" gradientUnits="userSpaceOnUse">
      <stop stop-color="#BD4230"/>
      <stop offset="0.494955" stop-color="#BD4230"/>
      <stop offset="1" stop-color="#BD4230" stop-opacity="0"/>
    </linearGradient>
    <linearGradient id="paint7_linear_3770_23" x1="29.1449" y1="16.6289" x2="29.1449" y2="63.5356" gradientUnits="userSpaceOnUse">
      <stop stop-color="#BD4230"/>
      <stop offset="0.494955" stop-color="#BD4230"/>
      <stop offset="1" stop-color="#BD4230" stop-opacity="0"/>
    </linearGradient>
    <linearGradient id="paint8_linear_3770_23" x1="29.1449" y1="16.6289" x2="29.1449" y2="63.5356" gradientUnits="userSpaceOnUse">
      <stop stop-color="#BD4230"/>
      <stop offset="0.494955" stop-color="#BD4230"/>
      <stop offset="1" stop-color="#BD4230" stop-opacity="0"/>
    </linearGradient>
    <linearGradient id="paint9_linear_3770_23" x1="29.1449" y1="16.6289" x2="29.1449" y2="63.5356" gradientUnits="userSpaceOnUse">
      <stop stop-color="#BD4230"/>
      <stop offset="0.494955" stop-color="#BD4230"/>
      <stop offset="1" stop-color="#BD4230" stop-opacity="0"/>
    </linearGradient>
    <linearGradient id="paint10_linear_3770_23" x1="29.1449" y1="16.6289" x2="29.1449" y2="63.5356" gradientUnits="userSpaceOnUse">
      <stop stop-color="#BD4230"/>
      <stop offset="0.494955" stop-color="#BD4230"/>
      <stop offset="1" stop-color="#BD4230" stop-opacity="0"/>
    </linearGradient>
    <linearGradient id="paint11_linear_3770_23" x1="29.1449" y1="16.6289" x2="29.1449" y2="63.5356" gradientUnits="userSpaceOnUse">
      <stop stop-color="#BD4230"/>
      <stop offset="0.494955" stop-color="#BD4230"/>
      <stop offset="1" stop-color="#BD4230" stop-opacity="0"/>
    </linearGradient>
    <linearGradient id="paint12_linear_3770_23" x1="39.489" y1="58.9375" x2="39.489" y2="103.085" gradientUnits="userSpaceOnUse">
      <stop stop-color="#2F2F2F" stop-opacity="0"/>
      <stop offset="0.512772" stop-color="#5E180E"/>
      <stop offset="1" stop-color="#2F2F2F"/>
    </linearGradient>
    <linearGradient id="paint13_linear_3770_23" x1="39.489" y1="58.9375" x2="39.489" y2="103.085" gradientUnits="userSpaceOnUse">
      <stop stop-color="#2F2F2F" stop-opacity="0"/>
      <stop offset="0.512772" stop-color="#5E180E"/>
      <stop offset="1" stop-color="#2F2F2F"/>
    </linearGradient>
    <linearGradient id="paint14_linear_3770_23" x1="39.489" y1="58.9375" x2="39.489" y2="103.085" gradientUnits="userSpaceOnUse">
      <stop stop-color="#2F2F2F" stop-opacity="0"/>
      <stop offset="0.512772" stop-color="#5E180E"/>
      <stop offset="1" stop-color="#2F2F2F"/>
    </linearGradient>
    <linearGradient id="paint15_linear_3770_23" x1="39.489" y1="58.9375" x2="39.489" y2="103.085" gradientUnits="userSpaceOnUse">
      <stop stop-color="#2F2F2F" stop-opacity="0"/>
      <stop offset="0.512772" stop-color="#5E180E"/>
      <stop offset="1" stop-color="#2F2F2F"/>
    </linearGradient>
    <linearGradient id="paint16_linear_3770_23" x1="39.489" y1="58.9375" x2="39.489" y2="103.085" gradientUnits="userSpaceOnUse">
      <stop stop-color="#2F2F2F" stop-opacity="0"/>
      <stop offset="0.512772" stop-color="#5E180E"/>
      <stop offset="1" stop-color="#2F2F2F"/>
    </linearGradient>
    <linearGradient id="paint17_linear_3770_23" x1="39.489" y1="58.9375" x2="39.489" y2="103.085" gradientUnits="userSpaceOnUse">
      <stop stop-color="#2F2F2F" stop-opacity="0"/>
      <stop offset="0.512772" stop-color="#5E180E"/>
      <stop offset="1" stop-color="#2F2F2F"/>
    </linearGradient>
    <linearGradient id="paint18_linear_3770_23" x1="39.489" y1="58.9375" x2="39.489" y2="103.085" gradientUnits="userSpaceOnUse">
      <stop stop-color="#2F2F2F" stop-opacity="0"/>
      <stop offset="0.512772" stop-color="#5E180E"/>
      <stop offset="1" stop-color="#2F2F2F"/>
    </linearGradient>
    <linearGradient id="paint19_linear_3770_23" x1="39.489" y1="58.9375" x2="39.489" y2="103.085" gradientUnits="userSpaceOnUse">
      <stop stop-color="#2F2F2F" stop-opacity="0"/>
      <stop offset="0.512772" stop-color="#5E180E"/>
      <stop offset="1" stop-color="#2F2F2F"/>
    </linearGradient>
    <linearGradient id="paint20_linear_3770_23" x1="39.489" y1="58.9375" x2="39.489" y2="103.085" gradientUnits="userSpaceOnUse">
      <stop stop-color="#2F2F2F" stop-opacity="0"/>
      <stop offset="0.512772" stop-color="#5E180E"/>
      <stop offset="1" stop-color="#2F2F2F"/>
    </linearGradient>
    <linearGradient id="paint21_linear_3770_23" x1="39.489" y1="58.9375" x2="39.489" y2="103.085" gradientUnits="userSpaceOnUse">
      <stop stop-color="#2F2F2F" stop-opacity="0"/>
      <stop offset="0.512772" stop-color="#5E180E"/>
      <stop offset="1" stop-color="#2F2F2F"/>
    </linearGradient>
    <linearGradient id="paint22_linear_3770_23" x1="39.489" y1="58.9375" x2="39.489" y2="103.085" gradientUnits="userSpaceOnUse">
      <stop stop-color="#2F2F2F" stop-opacity="0"/>
      <stop offset="0.512772" stop-color="#5E180E"/>
      <stop offset="1" stop-color="#2F2F2F"/>
    </linearGradient>
    <linearGradient id="paint23_linear_3770_23" x1="39.489" y1="58.9375" x2="39.489" y2="103.085" gradientUnits="userSpaceOnUse">
      <stop stop-color="#2F2F2F" stop-opacity="0"/>
      <stop offset="0.512772" stop-color="#5E180E"/>
      <stop offset="1" stop-color="#2F2F2F"/>
    </linearGradient>
    <linearGradient id="paint24_linear_3770_23" x1="29.1449" y1="99.7871" x2="29.1449" y2="146.694" gradientUnits="userSpaceOnUse">
      <stop stop-color="#BD4230"/>
      <stop offset="0.494955" stop-color="#BD4230"/>
      <stop offset="1" stop-color="#BD4230" stop-opacity="0"/>
    </linearGradient>
    <linearGradient id="paint25_linear_3770_23" x1="29.1449" y1="99.7871" x2="29.1449" y2="146.694" gradientUnits="userSpaceOnUse">
      <stop stop-color="#BD4230"/>
      <stop offset="0.494955" stop-color="#BD4230"/>
      <stop offset="1" stop-color="#BD4230" stop-opacity="0"/>
    </linearGradient>
    <linearGradient id="paint26_linear_3770_23" x1="29.1449" y1="99.7871" x2="29.1449" y2="146.694" gradientUnits="userSpaceOnUse">
      <stop stop-color="#BD4230"/>
      <stop offset="0.494955" stop-color="#BD4230"/>
      <stop offset="1" stop-color="#BD4230" stop-opacity="0"/>
    </linearGradient>
    <linearGradient id="paint27_linear_3770_23" x1="29.1449" y1="99.7871" x2="29.1449" y2="146.694" gradientUnits="userSpaceOnUse">
      <stop stop-color="#BD4230"/>
      <stop offset="0.494955" stop-color="#BD4230"/>
      <stop offset="1" stop-color="#BD4230" stop-opacity="0"/>
    </linearGradient>
    <linearGradient id="paint28_linear_3770_23" x1="29.1449" y1="99.7871" x2="29.1449" y2="146.694" gradientUnits="userSpaceOnUse">
      <stop stop-color="#BD4230"/>
      <stop offset="0.494955" stop-color="#BD4230"/>
      <stop offset="1" stop-color="#BD4230" stop-opacity="0"/>
    </linearGradient>
    <linearGradient id="paint29_linear_3770_23" x1="29.1449" y1="99.7871" x2="29.1449" y2="146.694" gradientUnits="userSpaceOnUse">
      <stop stop-color="#BD4230"/>
      <stop offset="0.494955" stop-color="#BD4230"/>
      <stop offset="1" stop-color="#BD4230" stop-opacity="0"/>
    </linearGradient>
    <linearGradient id="paint30_linear_3770_23" x1="29.1449" y1="99.7871" x2="29.1449" y2="146.694" gradientUnits="userSpaceOnUse">
      <stop stop-color="#BD4230"/>
      <stop offset="0.494955" stop-color="#BD4230"/>
      <stop offset="1" stop-color="#BD4230" stop-opacity="0"/>
    </linearGradient>
    <linearGradient id="paint31_linear_3770_23" x1="29.1449" y1="99.7871" x2="29.1449" y2="146.694" gradientUnits="userSpaceOnUse">
      <stop stop-color="#BD4230"/>
      <stop offset="0.494955" stop-color="#BD4230"/>
      <stop offset="1" stop-color="#BD4230" stop-opacity="0"/>
    </linearGradient>
    <linearGradient id="paint32_linear_3770_23" x1="29.1449" y1="99.7871" x2="29.1449" y2="146.694" gradientUnits="userSpaceOnUse">
      <stop stop-color="#BD4230"/>
      <stop offset="0.494955" stop-color="#BD4230"/>
      <stop offset="1" stop-color="#BD4230" stop-opacity="0"/>
    </linearGradient>
    <linearGradient id="paint33_linear_3770_23" x1="29.1449" y1="99.7871" x2="29.1449" y2="146.694" gradientUnits="userSpaceOnUse">
      <stop stop-color="#BD4230"/>
      <stop offset="0.494955" stop-color="#BD4230"/>
      <stop offset="1" stop-color="#BD4230" stop-opacity="0"/>
    </linearGradient>
    <linearGradient id="paint34_linear_3770_23" x1="29.1449" y1="99.7871" x2="29.1449" y2="146.694" gradientUnits="userSpaceOnUse">
      <stop stop-color="#BD4230"/>
      <stop offset="0.494955" stop-color="#BD4230"/>
      <stop offset="1" stop-color="#BD4230" stop-opacity="0"/>
    </linearGradient>
    <linearGradient id="paint35_linear_3770_23" x1="29.1449" y1="99.7871" x2="29.1449" y2="146.694" gradientUnits="userSpaceOnUse">
      <stop stop-color="#BD4230"/>
      <stop offset="0.494955" stop-color="#BD4230"/>
      <stop offset="1" stop-color="#BD4230" stop-opacity="0"/>
    </linearGradient>
    <linearGradient id="paint36_linear_3770_23" x1="74.6136" y1="16.6309" x2="74.6136" y2="63.5375" gradientUnits="userSpaceOnUse">
      <stop stop-color="#BD4230"/>
      <stop offset="0.494955" stop-color="#BD4230"/>
      <stop offset="1" stop-color="#BD4230" stop-opacity="0"/>
    </linearGradient>
    <linearGradient id="paint37_linear_3770_23" x1="74.6136" y1="16.6309" x2="74.6136" y2="63.5375" gradientUnits="userSpaceOnUse">
      <stop stop-color="#BD4230"/>
      <stop offset="0.494955" stop-color="#BD4230"/>
      <stop offset="1" stop-color="#BD4230" stop-opacity="0"/>
    </linearGradient>
    <linearGradient id="paint38_linear_3770_23" x1="74.6136" y1="16.6309" x2="74.6136" y2="63.5375" gradientUnits="userSpaceOnUse">
      <stop stop-color="#BD4230"/>
      <stop offset="0.494955" stop-color="#BD4230"/>
      <stop offset="1" stop-color="#BD4230" stop-opacity="0"/>
    </linearGradient>
    <linearGradient id="paint39_linear_3770_23" x1="74.6136" y1="16.6309" x2="74.6136" y2="63.5375" gradientUnits="userSpaceOnUse">
      <stop stop-color="#BD4230"/>
      <stop offset="0.494955" stop-color="#BD4230"/>
      <stop offset="1" stop-color="#BD4230" stop-opacity="0"/>
    </linearGradient>
    <linearGradient id="paint40_linear_3770_23" x1="74.6136" y1="16.6309" x2="74.6136" y2="63.5375" gradientUnits="userSpaceOnUse">
      <stop stop-color="#BD4230"/>
      <stop offset="0.494955" stop-color="#BD4230"/>
      <stop offset="1" stop-color="#BD4230" stop-opacity="0"/>
    </linearGradient>
    <linearGradient id="paint41_linear_3770_23" x1="74.6136" y1="16.6309" x2="74.6136" y2="63.5375" gradientUnits="userSpaceOnUse">
      <stop stop-color="#BD4230"/>
      <stop offset="0.494955" stop-color="#BD4230"/>
      <stop offset="1" stop-color="#BD4230" stop-opacity="0"/>
    </linearGradient>
    <linearGradient id="paint42_linear_3770_23" x1="74.6136" y1="16.6309" x2="74.6136" y2="63.5375" gradientUnits="userSpaceOnUse">
      <stop stop-color="#BD4230"/>
      <stop offset="0.494955" stop-color="#BD4230"/>
      <stop offset="1" stop-color="#BD4230" stop-opacity="0"/>
    </linearGradient>
    <linearGradient id="paint43_linear_3770_23" x1="74.6136" y1="16.6309" x2="74.6136" y2="63.5375" gradientUnits="userSpaceOnUse">
      <stop stop-color="#BD4230"/>
      <stop offset="0.494955" stop-color="#BD4230"/>
      <stop offset="1" stop-color="#BD4230" stop-opacity="0"/>
    </linearGradient>
    <linearGradient id="paint44_linear_3770_23" x1="74.6136" y1="16.6309" x2="74.6136" y2="63.5375" gradientUnits="userSpaceOnUse">
      <stop stop-color="#BD4230"/>
      <stop offset="0.494955" stop-color="#BD4230"/>
      <stop offset="1" stop-color="#BD4230" stop-opacity="0"/>
    </linearGradient>
    <linearGradient id="paint45_linear_3770_23" x1="74.6136" y1="16.6309" x2="74.6136" y2="63.5375" gradientUnits="userSpaceOnUse">
      <stop stop-color="#BD4230"/>
      <stop offset="0.494955" stop-color="#BD4230"/>
      <stop offset="1" stop-color="#BD4230" stop-opacity="0"/>
    </linearGradient>
    <linearGradient id="paint46_linear_3770_23" x1="74.6136" y1="16.6309" x2="74.6136" y2="63.5375" gradientUnits="userSpaceOnUse">
      <stop stop-color="#BD4230"/>
      <stop offset="0.494955" stop-color="#BD4230"/>
      <stop offset="1" stop-color="#BD4230" stop-opacity="0"/>
    </linearGradient>
    <linearGradient id="paint47_linear_3770_23" x1="74.6136" y1="16.6309" x2="74.6136" y2="63.5375" gradientUnits="userSpaceOnUse">
      <stop stop-color="#BD4230"/>
      <stop offset="0.494955" stop-color="#BD4230"/>
      <stop offset="1" stop-color="#BD4230" stop-opacity="0"/>
    </linearGradient>
    <linearGradient id="paint48_linear_3770_23" x1="84.9577" y1="58.9395" x2="84.9577" y2="103.087" gradientUnits="userSpaceOnUse">
      <stop stop-color="#2F2F2F" stop-opacity="0"/>
      <stop offset="0.512772" stop-color="#5E180E"/>
      <stop offset="1" stop-color="#2F2F2F"/>
    </linearGradient>
    <linearGradient id="paint49_linear_3770_23" x1="84.9577" y1="58.9395" x2="84.9577" y2="103.087" gradientUnits="userSpaceOnUse">
      <stop stop-color="#2F2F2F" stop-opacity="0"/>
      <stop offset="0.512772" stop-color="#5E180E"/>
      <stop offset="1" stop-color="#2F2F2F"/>
    </linearGradient>
    <linearGradient id="paint50_linear_3770_23" x1="84.9577" y1="58.9395" x2="84.9577" y2="103.087" gradientUnits="userSpaceOnUse">
      <stop stop-color="#2F2F2F" stop-opacity="0"/>
      <stop offset="0.512772" stop-color="#5E180E"/>
      <stop offset="1" stop-color="#2F2F2F"/>
    </linearGradient>
    <linearGradient id="paint51_linear_3770_23" x1="84.9577" y1="58.9395" x2="84.9577" y2="103.087" gradientUnits="userSpaceOnUse">
      <stop stop-color="#2F2F2F" stop-opacity="0"/>
      <stop offset="0.512772" stop-color="#5E180E"/>
      <stop offset="1" stop-color="#2F2F2F"/>
    </linearGradient>
    <linearGradient id="paint52_linear_3770_23" x1="84.9577" y1="58.9395" x2="84.9577" y2="103.087" gradientUnits="userSpaceOnUse">
      <stop stop-color="#2F2F2F" stop-opacity="0"/>
      <stop offset="0.512772" stop-color="#5E180E"/>
      <stop offset="1" stop-color="#2F2F2F"/>
    </linearGradient>
    <linearGradient id="paint53_linear_3770_23" x1="84.9577" y1="58.9395" x2="84.9577" y2="103.087" gradientUnits="userSpaceOnUse">
      <stop stop-color="#2F2F2F" stop-opacity="0"/>
      <stop offset="0.512772" stop-color="#5E180E"/>
      <stop offset="1" stop-color="#2F2F2F"/>
    </linearGradient>
    <linearGradient id="paint54_linear_3770_23" x1="84.9577" y1="58.9395" x2="84.9577" y2="103.087" gradientUnits="userSpaceOnUse">
      <stop stop-color="#2F2F2F" stop-opacity="0"/>
      <stop offset="0.512772" stop-color="#5E180E"/>
      <stop offset="1" stop-color="#2F2F2F"/>
    </linearGradient>
    <linearGradient id="paint55_linear_3770_23" x1="84.9577" y1="58.9395" x2="84.9577" y2="103.087" gradientUnits="userSpaceOnUse">
      <stop stop-color="#2F2F2F" stop-opacity="0"/>
      <stop offset="0.512772" stop-color="#5E180E"/>
      <stop offset="1" stop-color="#2F2F2F"/>
    </linearGradient>
    <linearGradient id="paint56_linear_3770_23" x1="84.9577" y1="58.9395" x2="84.9577" y2="103.087" gradientUnits="userSpaceOnUse">
      <stop stop-color="#2F2F2F" stop-opacity="0"/>
      <stop offset="0.512772" stop-color="#5E180E"/>
      <stop offset="1" stop-color="#2F2F2F"/>
    </linearGradient>
    <linearGradient id="paint57_linear_3770_23" x1="84.9577" y1="58.9395" x2="84.9577" y2="103.087" gradientUnits="userSpaceOnUse">
      <stop stop-color="#2F2F2F" stop-opacity="0"/>
      <stop offset="0.512772" stop-color="#5E180E"/>
      <stop offset="1" stop-color="#2F2F2F"/>
    </linearGradient>
    <linearGradient id="paint58_linear_3770_23" x1="84.9577" y1="58.9395" x2="84.9577" y2="103.087" gradientUnits="userSpaceOnUse">
      <stop stop-color="#2F2F2F" stop-opacity="0"/>
      <stop offset="0.512772" stop-color="#5E180E"/>
      <stop offset="1" stop-color="#2F2F2F"/>
    </linearGradient>
    <linearGradient id="paint59_linear_3770_23" x1="84.9577" y1="58.9395" x2="84.9577" y2="103.087" gradientUnits="userSpaceOnUse">
      <stop stop-color="#2F2F2F" stop-opacity="0"/>
      <stop offset="0.512772" stop-color="#5E180E"/>
      <stop offset="1" stop-color="#2F2F2F"/>
    </linearGradient>
    <linearGradient id="paint60_linear_3770_23" x1="74.6136" y1="99.7891" x2="74.6136" y2="146.696" gradientUnits="userSpaceOnUse">
      <stop stop-color="#BD4230"/>
      <stop offset="0.494955" stop-color="#BD4230"/>
      <stop offset="1" stop-color="#BD4230" stop-opacity="0"/>
    </linearGradient>
    <linearGradient id="paint61_linear_3770_23" x1="74.6136" y1="99.7891" x2="74.6136" y2="146.696" gradientUnits="userSpaceOnUse">
      <stop stop-color="#BD4230"/>
      <stop offset="0.494955" stop-color="#BD4230"/>
      <stop offset="1" stop-color="#BD4230" stop-opacity="0"/>
    </linearGradient>
    <linearGradient id="paint62_linear_3770_23" x1="74.6136" y1="99.7891" x2="74.6136" y2="146.696" gradientUnits="userSpaceOnUse">
      <stop stop-color="#BD4230"/>
      <stop offset="0.494955" stop-color="#BD4230"/>
      <stop offset="1" stop-color="#BD4230" stop-opacity="0"/>
    </linearGradient>
    <linearGradient id="paint63_linear_3770_23" x1="74.6136" y1="99.7891" x2="74.6136" y2="146.696" gradientUnits="userSpaceOnUse">
      <stop stop-color="#BD4230"/>
      <stop offset="0.494955" stop-color="#BD4230"/>
      <stop offset="1" stop-color="#BD4230" stop-opacity="0"/>
    </linearGradient>
    <linearGradient id="paint64_linear_3770_23" x1="74.6136" y1="99.7891" x2="74.6136" y2="146.696" gradientUnits="userSpaceOnUse">
      <stop stop-color="#BD4230"/>
      <stop offset="0.494955" stop-color="#BD4230"/>
      <stop offset="1" stop-color="#BD4230" stop-opacity="0"/>
    </linearGradient>
    <linearGradient id="paint65_linear_3770_23" x1="74.6136" y1="99.7891" x2="74.6136" y2="146.696" gradientUnits="userSpaceOnUse">
      <stop stop-color="#BD4230"/>
      <stop offset="0.494955" stop-color="#BD4230"/>
      <stop offset="1" stop-color="#BD4230" stop-opacity="0"/>
    </linearGradient>
    <linearGradient id="paint66_linear_3770_23" x1="74.6136" y1="99.7891" x2="74.6136" y2="146.696" gradientUnits="userSpaceOnUse">
      <stop stop-color="#BD4230"/>
      <stop offset="0.494955" stop-color="#BD4230"/>
      <stop offset="1" stop-color="#BD4230" stop-opacity="0"/>
    </linearGradient>
    <linearGradient id="paint67_linear_3770_23" x1="74.6136" y1="99.7891" x2="74.6136" y2="146.696" gradientUnits="userSpaceOnUse">
      <stop stop-color="#BD4230"/>
      <stop offset="0.494955" stop-color="#BD4230"/>
      <stop offset="1" stop-color="#BD4230" stop-opacity="0"/>
    </linearGradient>
    <linearGradient id="paint68_linear_3770_23" x1="74.6136" y1="99.7891" x2="74.6136" y2="146.696" gradientUnits="userSpaceOnUse">
      <stop stop-color="#BD4230"/>
      <stop offset="0.494955" stop-color="#BD4230"/>
      <stop offset="1" stop-color="#BD4230" stop-opacity="0"/>
    </linearGradient>
    <linearGradient id="paint69_linear_3770_23" x1="74.6136" y1="99.7891" x2="74.6136" y2="146.696" gradientUnits="userSpaceOnUse">
      <stop stop-color="#BD4230"/>
      <stop offset="0.494955" stop-color="#BD4230"/>
      <stop offset="1" stop-color="#BD4230" stop-opacity="0"/>
    </linearGradient>
    <linearGradient id="paint70_linear_3770_23" x1="74.6136" y1="99.7891" x2="74.6136" y2="146.696" gradientUnits="userSpaceOnUse">
      <stop stop-color="#BD4230"/>
      <stop offset="0.494955" stop-color="#BD4230"/>
      <stop offset="1" stop-color="#BD4230" stop-opacity="0"/>
    </linearGradient>
    <linearGradient id="paint71_linear_3770_23" x1="74.6136" y1="99.7891" x2="74.6136" y2="146.696" gradientUnits="userSpaceOnUse">
      <stop stop-color="#BD4230"/>
      <stop offset="0.494955" stop-color="#BD4230"/>
      <stop offset="1" stop-color="#BD4230" stop-opacity="0"/>
    </linearGradient>
    <linearGradient id="paint72_linear_3770_23" x1="120.082" y1="16.6309" x2="120.082" y2="63.5375" gradientUnits="userSpaceOnUse">
      <stop stop-color="#BD4230"/>
      <stop offset="0.494955" stop-color="#BD4230"/>
      <stop offset="1" stop-color="#BD4230" stop-opacity="0"/>
    </linearGradient>
    <linearGradient id="paint73_linear_3770_23" x1="120.082" y1="16.6309" x2="120.082" y2="63.5375" gradientUnits="userSpaceOnUse">
      <stop stop-color="#BD4230"/>
      <stop offset="0.494955" stop-color="#BD4230"/>
      <stop offset="1" stop-color="#BD4230" stop-opacity="0"/>
    </linearGradient>
    <linearGradient id="paint74_linear_3770_23" x1="120.082" y1="16.6309" x2="120.082" y2="63.5375" gradientUnits="userSpaceOnUse">
      <stop stop-color="#BD4230"/>
      <stop offset="0.494955" stop-color="#BD4230"/>
      <stop offset="1" stop-color="#BD4230" stop-opacity="0"/>
    </linearGradient>
    <linearGradient id="paint75_linear_3770_23" x1="120.082" y1="16.6309" x2="120.082" y2="63.5375" gradientUnits="userSpaceOnUse">
      <stop stop-color="#BD4230"/>
      <stop offset="0.494955" stop-color="#BD4230"/>
      <stop offset="1" stop-color="#BD4230" stop-opacity="0"/>
    </linearGradient>
    <linearGradient id="paint76_linear_3770_23" x1="120.082" y1="16.6309" x2="120.082" y2="63.5375" gradientUnits="userSpaceOnUse">
      <stop stop-color="#BD4230"/>
      <stop offset="0.494955" stop-color="#BD4230"/>
      <stop offset="1" stop-color="#BD4230" stop-opacity="0"/>
    </linearGradient>
    <linearGradient id="paint77_linear_3770_23" x1="120.082" y1="16.6309" x2="120.082" y2="63.5375" gradientUnits="userSpaceOnUse">
      <stop stop-color="#BD4230"/>
      <stop offset="0.494955" stop-color="#BD4230"/>
      <stop offset="1" stop-color="#BD4230" stop-opacity="0"/>
    </linearGradient>
    <linearGradient id="paint78_linear_3770_23" x1="120.082" y1="16.6309" x2="120.082" y2="63.5375" gradientUnits="userSpaceOnUse">
      <stop stop-color="#BD4230"/>
      <stop offset="0.494955" stop-color="#BD4230"/>
      <stop offset="1" stop-color="#BD4230" stop-opacity="0"/>
    </linearGradient>
    <linearGradient id="paint79_linear_3770_23" x1="120.082" y1="16.6309" x2="120.082" y2="63.5375" gradientUnits="userSpaceOnUse">
      <stop stop-color="#BD4230"/>
      <stop offset="0.494955" stop-color="#BD4230"/>
      <stop offset="1" stop-color="#BD4230" stop-opacity="0"/>
    </linearGradient>
    <linearGradient id="paint80_linear_3770_23" x1="120.082" y1="16.6309" x2="120.082" y2="63.5375" gradientUnits="userSpaceOnUse">
      <stop stop-color="#BD4230"/>
      <stop offset="0.494955" stop-color="#BD4230"/>
      <stop offset="1" stop-color="#BD4230" stop-opacity="0"/>
    </linearGradient>
    <linearGradient id="paint81_linear_3770_23" x1="120.082" y1="16.6309" x2="120.082" y2="63.5375" gradientUnits="userSpaceOnUse">
      <stop stop-color="#BD4230"/>
      <stop offset="0.494955" stop-color="#BD4230"/>
      <stop offset="1" stop-color="#BD4230" stop-opacity="0"/>
    </linearGradient>
    <linearGradient id="paint82_linear_3770_23" x1="120.082" y1="16.6309" x2="120.082" y2="63.5375" gradientUnits="userSpaceOnUse">
      <stop stop-color="#BD4230"/>
      <stop offset="0.494955" stop-color="#BD4230"/>
      <stop offset="1" stop-color="#BD4230" stop-opacity="0"/>
    </linearGradient>
    <linearGradient id="paint83_linear_3770_23" x1="120.082" y1="16.6309" x2="120.082" y2="63.5375" gradientUnits="userSpaceOnUse">
      <stop stop-color="#BD4230"/>
      <stop offset="0.494955" stop-color="#BD4230"/>
      <stop offset="1" stop-color="#BD4230" stop-opacity="0"/>
    </linearGradient>
    <linearGradient id="paint84_linear_3770_23" x1="130.426" y1="58.9395" x2="130.426" y2="103.087" gradientUnits="userSpaceOnUse">
      <stop stop-color="#2F2F2F" stop-opacity="0"/>
      <stop offset="0.512772" stop-color="#5E180E"/>
      <stop offset="1" stop-color="#2F2F2F"/>
    </linearGradient>
    <linearGradient id="paint85_linear_3770_23" x1="130.426" y1="58.9395" x2="130.426" y2="103.087" gradientUnits="userSpaceOnUse">
      <stop stop-color="#2F2F2F" stop-opacity="0"/>
      <stop offset="0.512772" stop-color="#5E180E"/>
      <stop offset="1" stop-color="#2F2F2F"/>
    </linearGradient>
    <linearGradient id="paint86_linear_3770_23" x1="130.426" y1="58.9395" x2="130.426" y2="103.087" gradientUnits="userSpaceOnUse">
      <stop stop-color="#2F2F2F" stop-opacity="0"/>
      <stop offset="0.512772" stop-color="#5E180E"/>
      <stop offset="1" stop-color="#2F2F2F"/>
    </linearGradient>
    <linearGradient id="paint87_linear_3770_23" x1="130.426" y1="58.9395" x2="130.426" y2="103.087" gradientUnits="userSpaceOnUse">
      <stop stop-color="#2F2F2F" stop-opacity="0"/>
      <stop offset="0.512772" stop-color="#5E180E"/>
      <stop offset="1" stop-color="#2F2F2F"/>
    </linearGradient>
    <linearGradient id="paint88_linear_3770_23" x1="130.426" y1="58.9395" x2="130.426" y2="103.087" gradientUnits="userSpaceOnUse">
      <stop stop-color="#2F2F2F" stop-opacity="0"/>
      <stop offset="0.512772" stop-color="#5E180E"/>
      <stop offset="1" stop-color="#2F2F2F"/>
    </linearGradient>
    <linearGradient id="paint89_linear_3770_23" x1="130.426" y1="58.9395" x2="130.426" y2="103.087" gradientUnits="userSpaceOnUse">
      <stop stop-color="#2F2F2F" stop-opacity="0"/>
      <stop offset="0.512772" stop-color="#5E180E"/>
      <stop offset="1" stop-color="#2F2F2F"/>
    </linearGradient>
    <linearGradient id="paint90_linear_3770_23" x1="130.426" y1="58.9395" x2="130.426" y2="103.087" gradientUnits="userSpaceOnUse">
      <stop stop-color="#2F2F2F" stop-opacity="0"/>
      <stop offset="0.512772" stop-color="#5E180E"/>
      <stop offset="1" stop-color="#2F2F2F"/>
    </linearGradient>
    <linearGradient id="paint91_linear_3770_23" x1="130.426" y1="58.9395" x2="130.426" y2="103.087" gradientUnits="userSpaceOnUse">
      <stop stop-color="#2F2F2F" stop-opacity="0"/>
      <stop offset="0.512772" stop-color="#5E180E"/>
      <stop offset="1" stop-color="#2F2F2F"/>
    </linearGradient>
    <linearGradient id="paint92_linear_3770_23" x1="130.426" y1="58.9395" x2="130.426" y2="103.087" gradientUnits="userSpaceOnUse">
      <stop stop-color="#2F2F2F" stop-opacity="0"/>
      <stop offset="0.512772" stop-color="#5E180E"/>
      <stop offset="1" stop-color="#2F2F2F"/>
    </linearGradient>
    <linearGradient id="paint93_linear_3770_23" x1="130.426" y1="58.9395" x2="130.426" y2="103.087" gradientUnits="userSpaceOnUse">
      <stop stop-color="#2F2F2F" stop-opacity="0"/>
      <stop offset="0.512772" stop-color="#5E180E"/>
      <stop offset="1" stop-color="#2F2F2F"/>
    </linearGradient>
    <linearGradient id="paint94_linear_3770_23" x1="130.426" y1="58.9395" x2="130.426" y2="103.087" gradientUnits="userSpaceOnUse">
      <stop stop-color="#2F2F2F" stop-opacity="0"/>
      <stop offset="0.512772" stop-color="#5E180E"/>
      <stop offset="1" stop-color="#2F2F2F"/>
    </linearGradient>
    <linearGradient id="paint95_linear_3770_23" x1="130.426" y1="58.9395" x2="130.426" y2="103.087" gradientUnits="userSpaceOnUse">
      <stop stop-color="#2F2F2F" stop-opacity="0"/>
      <stop offset="0.512772" stop-color="#5E180E"/>
      <stop offset="1" stop-color="#2F2F2F"/>
    </linearGradient>
    <linearGradient id="paint96_linear_3770_23" x1="120.082" y1="99.7891" x2="120.082" y2="146.696" gradientUnits="userSpaceOnUse">
      <stop stop-color="#BD4230"/>
      <stop offset="0.494955" stop-color="#BD4230"/>
      <stop offset="1" stop-color="#BD4230" stop-opacity="0"/>
    </linearGradient>
    <linearGradient id="paint97_linear_3770_23" x1="120.082" y1="99.7891" x2="120.082" y2="146.696" gradientUnits="userSpaceOnUse">
      <stop stop-color="#BD4230"/>
      <stop offset="0.494955" stop-color="#BD4230"/>
      <stop offset="1" stop-color="#BD4230" stop-opacity="0"/>
    </linearGradient>
    <linearGradient id="paint98_linear_3770_23" x1="120.082" y1="99.7891" x2="120.082" y2="146.696" gradientUnits="userSpaceOnUse">
      <stop stop-color="#BD4230"/>
      <stop offset="0.494955" stop-color="#BD4230"/>
      <stop offset="1" stop-color="#BD4230" stop-opacity="0"/>
    </linearGradient>
    <linearGradient id="paint99_linear_3770_23" x1="120.082" y1="99.7891" x2="120.082" y2="146.696" gradientUnits="userSpaceOnUse">
      <stop stop-color="#BD4230"/>
      <stop offset="0.494955" stop-color="#BD4230"/>
      <stop offset="1" stop-color="#BD4230" stop-opacity="0"/>
    </linearGradient>
    <linearGradient id="paint100_linear_3770_23" x1="120.082" y1="99.7891" x2="120.082" y2="146.696" gradientUnits="userSpaceOnUse">
      <stop stop-color="#BD4230"/>
      <stop offset="0.494955" stop-color="#BD4230"/>
      <stop offset="1" stop-color="#BD4230" stop-opacity="0"/>
    </linearGradient>
    <linearGradient id="paint101_linear_3770_23" x1="120.082" y1="99.7891" x2="120.082" y2="146.696" gradientUnits="userSpaceOnUse">
      <stop stop-color="#BD4230"/>
      <stop offset="0.494955" stop-color="#BD4230"/>
      <stop offset="1" stop-color="#BD4230" stop-opacity="0"/>
    </linearGradient>
    <linearGradient id="paint102_linear_3770_23" x1="120.082" y1="99.7891" x2="120.082" y2="146.696" gradientUnits="userSpaceOnUse">
      <stop stop-color="#BD4230"/>
      <stop offset="0.494955" stop-color="#BD4230"/>
      <stop offset="1" stop-color="#BD4230" stop-opacity="0"/>
    </linearGradient>
    <linearGradient id="paint103_linear_3770_23" x1="120.082" y1="99.7891" x2="120.082" y2="146.696" gradientUnits="userSpaceOnUse">
      <stop stop-color="#BD4230"/>
      <stop offset="0.494955" stop-color="#BD4230"/>
      <stop offset="1" stop-color="#BD4230" stop-opacity="0"/>
    </linearGradient>
    <linearGradient id="paint104_linear_3770_23" x1="120.082" y1="99.7891" x2="120.082" y2="146.696" gradientUnits="userSpaceOnUse">
      <stop stop-color="#BD4230"/>
      <stop offset="0.494955" stop-color="#BD4230"/>
      <stop offset="1" stop-color="#BD4230" stop-opacity="0"/>
    </linearGradient>
    <linearGradient id="paint105_linear_3770_23" x1="120.082" y1="99.7891" x2="120.082" y2="146.696" gradientUnits="userSpaceOnUse">
      <stop stop-color="#BD4230"/>
      <stop offset="0.494955" stop-color="#BD4230"/>
      <stop offset="1" stop-color="#BD4230" stop-opacity="0"/>
    </linearGradient>
    <linearGradient id="paint106_linear_3770_23" x1="120.082" y1="99.7891" x2="120.082" y2="146.696" gradientUnits="userSpaceOnUse">
      <stop stop-color="#BD4230"/>
      <stop offset="0.494955" stop-color="#BD4230"/>
      <stop offset="1" stop-color="#BD4230" stop-opacity="0"/>
    </linearGradient>
    <linearGradient id="paint107_linear_3770_23" x1="120.082" y1="99.7891" x2="120.082" y2="146.696" gradientUnits="userSpaceOnUse">
      <stop stop-color="#BD4230"/>
      <stop offset="0.494955" stop-color="#BD4230"/>
      <stop offset="1" stop-color="#BD4230" stop-opacity="0"/>
    </linearGradient>
  </defs>
</svg>