<svg xmlns="http://www.w3.org/2000/svg" width="160" height="160" viewBox="0 0 160 160" fill="none">
  <path fill-rule="evenodd" clip-rule="evenodd" d="M160 80C160 35.8172 124.183 0 80 0C35.8172 0 0 35.8172 0 80C0 124.183 35.8172 160 80 160C124.183 160 160 124.183 160 80ZM70 80C70 115.108 72.8269 144.934 76.7591 155.705C76.0166 154.935 75.2141 153.874 74.3673 152.441C72.1499 148.69 70.0664 143.095 68.2832 135.962C64.7265 121.735 62.5 101.949 62.5 80C62.5 58.0514 64.7265 38.2647 68.2832 24.0378C70.0664 16.9051 72.1499 11.3103 74.3673 7.55887C75.2141 6.12613 76.0166 5.06482 76.7591 4.29486C72.8269 15.0656 70 44.8918 70 80ZM85.6327 152.441C84.7859 153.874 83.9834 154.935 83.2409 155.705C87.173 144.934 90 115.108 90 80C90 44.8918 87.173 15.0656 83.2409 4.29484C83.9834 5.06481 84.7859 6.12612 85.6327 7.55887C87.8501 11.3103 89.9336 16.9051 91.7168 24.0378C95.2735 38.2647 97.5 58.0514 97.5 80C97.5 101.949 95.2735 121.735 91.7168 135.962C89.9336 143.095 87.8501 148.69 85.6327 152.441ZM72.6966 154.498C71.8636 153.809 71.0284 152.997 70.1933 152.055C66.8793 148.317 63.7806 142.765 61.1276 135.691C55.8286 121.56 52.5 101.871 52.5 80C52.5 58.129 55.8286 38.4399 61.1276 24.3093C63.7806 17.2347 66.8793 11.6832 70.1933 7.94531C71.0284 7.00345 71.8636 6.19067 72.6966 5.50169C65.2631 17.1706 60 46.1268 60 80C60 113.873 65.2631 142.829 72.6966 154.498ZM87.3034 154.498C88.1364 153.809 88.9716 152.997 89.8067 152.055C93.1207 148.317 96.2194 142.765 98.8724 135.691C104.171 121.56 107.5 101.871 107.5 80C107.5 58.129 104.171 38.4399 98.8724 24.3093C96.2194 17.2347 93.1207 11.6832 89.8067 7.94531C88.9716 7.00345 88.1364 6.19067 87.3034 5.50169C94.7369 17.1706 100 46.1268 100 80C100 113.873 94.7369 142.829 87.3034 154.498ZM53.9518 135.451C58.0123 143.572 62.807 149.611 67.9601 153.297C57.386 140.928 50 112.764 50 80C50 47.2361 57.386 19.0725 67.9601 6.70331C62.807 10.3886 58.0123 16.4285 53.9518 24.5495C46.9209 38.6113 42.5 58.2126 42.5 80C42.5 101.787 46.9209 121.389 53.9518 135.451ZM106.048 135.451C101.988 143.572 97.193 149.611 92.0399 153.297C102.614 140.928 110 112.764 110 80C110 47.2361 102.614 19.0725 92.0399 6.70332C97.193 10.3886 101.988 16.4285 106.048 24.5495C113.079 38.6113 117.5 58.2126 117.5 80C117.5 101.787 113.079 121.389 106.048 135.451ZM62.6795 152.132C56.7588 148.319 51.349 142.578 46.7647 135.244C38.0017 121.223 32.5 101.698 32.5 80C32.5 58.3022 38.0017 38.7772 46.7647 24.7565C51.349 17.4215 56.7588 11.6811 62.6795 7.86848C49.2614 20.78 40 48.2269 40 80C40 111.773 49.2614 139.22 62.6795 152.132ZM97.3205 152.132C103.241 148.319 108.651 142.578 113.235 135.244C121.998 121.223 127.5 101.698 127.5 80C127.5 58.3022 121.998 38.7772 113.235 24.7565C108.651 17.4215 103.241 11.6811 97.3205 7.86847C110.739 20.78 120 48.2269 120 80C120 111.773 110.739 139.22 97.3205 152.132ZM39.5736 135.069C44.5788 141.742 50.4506 147.149 56.9153 150.982C40.9204 137.638 30 110.859 30 80C30 49.1407 40.9204 22.3624 56.9153 9.01833C50.4506 12.8506 44.5788 18.2579 39.5736 24.9315C29.0703 38.9358 22.5 58.3972 22.5 80C22.5 101.603 29.0703 121.064 39.5736 135.069ZM120.426 135.069C115.421 141.742 109.549 147.149 103.085 150.982C119.08 137.638 130 110.859 130 80C130 49.1407 119.08 22.3624 103.085 9.01831C109.549 12.8506 115.421 18.2579 120.426 24.9315C130.93 38.9358 137.5 58.3972 137.5 80C137.5 101.603 130.93 121.064 120.426 135.069ZM50.6539 149.794C28.1691 137.305 12.5 110.899 12.5 80C12.5 49.1012 28.1691 22.6952 50.6539 10.2055C32.3599 23.9096 20 50.0303 20 80C20 109.97 32.3599 136.09 50.6539 149.794ZM109.346 149.794C131.831 137.305 147.5 110.899 147.5 80C147.5 49.1012 131.831 22.6951 109.346 10.2055C127.64 23.9096 140 50.0303 140 80C140 109.97 127.64 136.09 109.346 149.794ZM2.5 80C2.5 109.871 19.3991 135.794 44.1583 148.732C23.7003 134.768 10 109.212 10 80C10 50.7875 23.7003 25.2321 44.1583 11.268C19.3991 24.2057 2.5 50.1293 2.5 80ZM157.5 80C157.5 109.871 140.601 135.794 115.842 148.732C136.3 134.768 150 109.212 150 80C150 50.7875 136.3 25.2321 115.842 11.268C140.601 24.2057 157.5 50.1293 157.5 80ZM84.5904 136.258C86.3836 121.913 87.5 102.021 87.5 80C87.5 57.9787 86.3836 38.0872 84.5904 23.7415C83.6916 16.5512 82.6342 10.8501 81.495 6.99534C81.4128 6.71746 81.3311 6.45216 81.25 6.1992V153.801C81.3311 153.548 81.4128 153.283 81.495 153.005C82.6342 149.15 83.6916 143.449 84.5904 136.258ZM78.75 6.19919V153.801C78.6689 153.548 78.5872 153.283 78.505 153.005C77.3658 149.15 76.3084 143.449 75.4096 136.258C73.6164 121.913 72.5 102.021 72.5 80C72.5 57.9787 73.6164 38.0872 75.4096 23.7415C76.3084 16.5512 77.3658 10.8501 78.505 6.99534C78.5872 6.71746 78.6689 6.45216 78.75 6.19919Z" fill="url(#paint0_linear_3846_16250)"/>
  <defs>
    <linearGradient id="paint0_linear_3846_16250" x1="46.25" y1="7.5" x2="106.25" y2="165" gradientUnits="userSpaceOnUse">
      <stop stop-color="white"/>
      <stop offset="1" stop-color="white" stop-opacity="0"/>
    </linearGradient>
  </defs>
</svg>