<svg xmlns="http://www.w3.org/2000/svg" width="32" height="32" viewBox="0 0 32 32" fill="none">
  <path fill-rule="evenodd" clip-rule="evenodd" d="M19.1812 6.91011L27.5794 15.3083C27.6102 15.33 27.6396 15.3547 27.6672 15.3823C27.809 15.5241 27.8736 15.714 27.8609 15.8995C27.8531 16.0591 27.7883 16.2163 27.6665 16.3382C27.6404 16.3642 27.6128 16.3876 27.5838 16.4085L19.1819 24.8104C18.9216 25.0707 18.4995 25.0707 18.2391 24.8104C17.9788 24.55 17.9788 24.1279 18.2391 23.8676L25.5801 16.5266L4.52604 16.5266C4.15785 16.5266 3.85938 16.2281 3.85938 15.86C3.85938 15.4918 4.15785 15.1933 4.52604 15.1933L25.5787 15.1933L18.2384 7.85292C17.978 7.59257 17.978 7.17046 18.2384 6.91011C18.4987 6.64976 18.9208 6.64976 19.1812 6.91011Z" fill="white"/>
</svg>