<svg xmlns="http://www.w3.org/2000/svg" width="160" height="160" viewBox="0 0 160 160" fill="none">
  <path d="M80 0C69.4942 0 59.0914 2.06926 49.3853 6.08964C39.6793 10.11 30.8601 16.0028 23.4315 23.4315C16.0028 30.8601 10.11 39.6793 6.08963 49.3853C2.06926 59.0914 0 69.4943 0 80H2.46154C2.46154 69.8175 4.46713 59.7347 8.3638 50.3273C12.2605 40.9199 17.9719 32.3721 25.172 25.172C32.3721 17.9719 40.9199 12.2605 50.3273 8.3638C59.7347 4.46713 69.8175 2.46154 80 2.46154C90.1825 2.46154 100.265 4.46713 109.673 8.3638C119.08 12.2605 127.628 17.9719 134.828 25.172C142.028 32.3721 147.74 40.9199 151.636 50.3273C155.533 59.7347 157.538 69.8175 157.538 80H160C160 69.4942 157.931 59.0914 153.91 49.3853C149.89 39.6793 143.997 30.8601 136.569 23.4315C129.14 16.0028 120.321 10.11 110.615 6.08964C100.909 2.06926 90.5058 0 80 0Z" fill="url(#paint0_linear_3846_16281)"/>
  <path d="M80 9.84615C61.3941 9.84615 43.5501 17.2373 30.3937 30.3937C17.2373 43.5501 9.84615 61.394 9.84615 80H12.3077C12.3077 62.0469 19.4395 44.8291 32.1343 32.1343C44.8291 19.4395 62.0469 12.3077 80 12.3077C97.9531 12.3077 115.171 19.4395 127.866 32.1343C140.56 44.8291 147.692 62.0469 147.692 80H150.154C150.154 61.394 142.763 43.5501 129.606 30.3937C116.45 17.2373 98.606 9.84615 80 9.84615Z" fill="url(#paint1_linear_3846_16281)"/>
  <path d="M37.356 37.356C48.6659 26.0461 64.0054 19.6923 80 19.6923C95.9946 19.6923 111.334 26.0461 122.644 37.356C133.954 48.6659 140.308 64.0054 140.308 80H137.846C137.846 64.6582 131.752 49.9449 120.903 39.0966C110.055 28.2483 95.3418 22.1538 80 22.1538C64.6583 22.1538 49.9449 28.2483 39.0966 39.0966C28.2483 49.9448 22.1538 64.6582 22.1538 80H19.6923C19.6923 64.0054 26.0461 48.6659 37.356 37.356Z" fill="url(#paint2_linear_3846_16281)"/>
  <path d="M80 29.5385C66.6168 29.5385 53.7817 34.8549 44.3183 44.3183C34.8549 53.7817 29.5385 66.6168 29.5385 80H32C32 67.2696 37.0571 55.0606 46.0589 46.0589C55.0606 37.0571 67.2696 32 80 32C92.7304 32 104.939 37.0571 113.941 46.0589C122.943 55.0606 128 67.2696 128 80H130.462C130.462 66.6168 125.145 53.7817 115.682 44.3183C106.218 34.8549 93.3832 29.5385 80 29.5385Z" fill="url(#paint3_linear_3846_16281)"/>
  <path d="M51.2806 51.2806C58.8975 43.6637 69.2281 39.3846 80 39.3846C90.7719 39.3846 101.103 43.6637 108.719 51.2806C116.336 58.8974 120.615 69.2281 120.615 80H118.154C118.154 69.881 114.134 60.1764 106.979 53.0212C99.8236 45.8659 90.119 41.8462 80 41.8462C69.881 41.8462 60.1764 45.8659 53.0212 53.0212C45.8659 60.1764 41.8462 69.881 41.8462 80H39.3846C39.3846 69.2281 43.6637 58.8974 51.2806 51.2806Z" fill="url(#paint4_linear_3846_16281)"/>
  <path d="M80 49.2308C71.8395 49.2308 64.0132 52.4725 58.2429 58.2429C52.4725 64.0132 49.2308 71.8395 49.2308 80H51.6923C51.6923 72.4923 54.6747 65.2922 59.9834 59.9834C65.2922 54.6747 72.4923 51.6923 80 51.6923C87.5077 51.6923 94.7078 54.6747 100.017 59.9834C105.325 65.2922 108.308 72.4923 108.308 80H110.769C110.769 71.8395 107.527 64.0132 101.757 58.2429C95.9868 52.4725 88.1605 49.2308 80 49.2308Z" fill="url(#paint5_linear_3846_16281)"/>
  <path d="M80 160C69.4942 160 59.0914 157.931 49.3853 153.91C39.6793 149.89 30.8601 143.997 23.4315 136.569C16.0028 129.14 10.11 120.321 6.08963 110.615C2.06926 100.909 0 90.5058 0 80H2.46154C2.46154 90.1825 4.46713 100.265 8.3638 109.673C12.2605 119.08 17.9719 127.628 25.172 134.828C32.3721 142.028 40.9199 147.74 50.3273 151.636C59.7347 155.533 69.8175 157.538 80 157.538C90.1825 157.538 100.265 155.533 109.673 151.636C119.08 147.74 127.628 142.028 134.828 134.828C142.028 127.628 147.74 119.08 151.636 109.673C155.533 100.265 157.538 90.1825 157.538 80H160C160 90.5058 157.931 100.909 153.91 110.615C149.89 120.321 143.997 129.14 136.569 136.569C129.14 143.997 120.321 149.89 110.615 153.91C100.909 157.931 90.5058 160 80 160Z" fill="url(#paint6_linear_3846_16281)"/>
  <path d="M80 150.154C61.3941 150.154 43.5501 142.763 30.3937 129.606C17.2373 116.45 9.84615 98.606 9.84615 80H12.3077C12.3077 97.9531 19.4395 115.171 32.1343 127.866C44.8291 140.56 62.0469 147.692 80 147.692C97.9531 147.692 115.171 140.56 127.866 127.866C140.56 115.171 147.692 97.9531 147.692 80H150.154C150.154 98.606 142.763 116.45 129.606 129.606C116.45 142.763 98.606 150.154 80 150.154Z" fill="url(#paint7_linear_3846_16281)"/>
  <path d="M37.356 122.644C48.6659 133.954 64.0054 140.308 80 140.308C95.9946 140.308 111.334 133.954 122.644 122.644C133.954 111.334 140.308 95.9946 140.308 80H137.846C137.846 95.3418 131.752 110.055 120.903 120.903C110.055 131.752 95.3418 137.846 80 137.846C64.6583 137.846 49.9449 131.752 39.0966 120.903C28.2483 110.055 22.1538 95.3418 22.1538 80H19.6923C19.6923 95.9946 26.0461 111.334 37.356 122.644Z" fill="url(#paint8_linear_3846_16281)"/>
  <path d="M80 130.462C66.6168 130.462 53.7817 125.145 44.3183 115.682C34.8549 106.218 29.5385 93.3832 29.5385 80H32C32 92.7304 37.0571 104.939 46.0589 113.941C55.0606 122.943 67.2696 128 80 128C92.7304 128 104.939 122.943 113.941 113.941C122.943 104.939 128 92.7304 128 80H130.462C130.462 93.3832 125.145 106.218 115.682 115.682C106.218 125.145 93.3832 130.462 80 130.462Z" fill="url(#paint9_linear_3846_16281)"/>
  <path d="M51.2806 108.719C58.8975 116.336 69.2281 120.615 80 120.615C90.7719 120.615 101.103 116.336 108.719 108.719C116.336 101.103 120.615 90.7719 120.615 80H118.154C118.154 90.119 114.134 99.8236 106.979 106.979C99.8236 114.134 90.119 118.154 80 118.154C69.881 118.154 60.1764 114.134 53.0212 106.979C45.8659 99.8236 41.8462 90.119 41.8462 80H39.3846C39.3846 90.7719 43.6637 101.103 51.2806 108.719Z" fill="url(#paint10_linear_3846_16281)"/>
  <path d="M80 110.769C71.8395 110.769 64.0132 107.527 58.2429 101.757C52.4725 95.9868 49.2308 88.1605 49.2308 80H51.6923C51.6923 87.5077 54.6747 94.7079 59.9834 100.017C65.2922 105.325 72.4923 108.308 80 108.308C87.5077 108.308 94.7078 105.325 100.017 100.017C105.325 94.7078 108.308 87.5077 108.308 80H110.769C110.769 88.1605 107.527 95.9868 101.757 101.757C95.9868 107.527 88.1605 110.769 80 110.769Z" fill="url(#paint11_linear_3846_16281)"/>
  <defs>
    <linearGradient id="paint0_linear_3846_16281" x1="80" y1="0" x2="80" y2="83.6923" gradientUnits="userSpaceOnUse">
      <stop stop-color="white"/>
      <stop offset="1" stop-color="white" stop-opacity="0"/>
    </linearGradient>
    <linearGradient id="paint1_linear_3846_16281" x1="80" y1="0" x2="80" y2="83.6923" gradientUnits="userSpaceOnUse">
      <stop stop-color="white"/>
      <stop offset="1" stop-color="white" stop-opacity="0"/>
    </linearGradient>
    <linearGradient id="paint2_linear_3846_16281" x1="80" y1="0" x2="80" y2="83.6923" gradientUnits="userSpaceOnUse">
      <stop stop-color="white"/>
      <stop offset="1" stop-color="white" stop-opacity="0"/>
    </linearGradient>
    <linearGradient id="paint3_linear_3846_16281" x1="80" y1="0" x2="80" y2="83.6923" gradientUnits="userSpaceOnUse">
      <stop stop-color="white"/>
      <stop offset="1" stop-color="white" stop-opacity="0"/>
    </linearGradient>
    <linearGradient id="paint4_linear_3846_16281" x1="80" y1="0" x2="80" y2="83.6923" gradientUnits="userSpaceOnUse">
      <stop stop-color="white"/>
      <stop offset="1" stop-color="white" stop-opacity="0"/>
    </linearGradient>
    <linearGradient id="paint5_linear_3846_16281" x1="80" y1="0" x2="80" y2="83.6923" gradientUnits="userSpaceOnUse">
      <stop stop-color="white"/>
      <stop offset="1" stop-color="white" stop-opacity="0"/>
    </linearGradient>
    <linearGradient id="paint6_linear_3846_16281" x1="80" y1="160" x2="80" y2="76.3077" gradientUnits="userSpaceOnUse">
      <stop stop-color="white"/>
      <stop offset="1" stop-color="white" stop-opacity="0"/>
    </linearGradient>
    <linearGradient id="paint7_linear_3846_16281" x1="80" y1="160" x2="80" y2="76.3077" gradientUnits="userSpaceOnUse">
      <stop stop-color="white"/>
      <stop offset="1" stop-color="white" stop-opacity="0"/>
    </linearGradient>
    <linearGradient id="paint8_linear_3846_16281" x1="80" y1="160" x2="80" y2="76.3077" gradientUnits="userSpaceOnUse">
      <stop stop-color="white"/>
      <stop offset="1" stop-color="white" stop-opacity="0"/>
    </linearGradient>
    <linearGradient id="paint9_linear_3846_16281" x1="80" y1="160" x2="80" y2="76.3077" gradientUnits="userSpaceOnUse">
      <stop stop-color="white"/>
      <stop offset="1" stop-color="white" stop-opacity="0"/>
    </linearGradient>
    <linearGradient id="paint10_linear_3846_16281" x1="80" y1="160" x2="80" y2="76.3077" gradientUnits="userSpaceOnUse">
      <stop stop-color="white"/>
      <stop offset="1" stop-color="white" stop-opacity="0"/>
    </linearGradient>
    <linearGradient id="paint11_linear_3846_16281" x1="80" y1="160" x2="80" y2="76.3077" gradientUnits="userSpaceOnUse">
      <stop stop-color="white"/>
      <stop offset="1" stop-color="white" stop-opacity="0"/>
    </linearGradient>
  </defs>
</svg>