<svg width="98" height="98" viewBox="0 0 98 98" fill="none" xmlns="http://www.w3.org/2000/svg">
<g id="Group 2087325365">
<rect id="Rectangle 4252733" width="98" height="98" rx="24" fill="url(#paint0_radial_3920_2974)"/>
<path id="Vector 28" d="M67.3954 37.2362C69.1307 36.254 75.1882 35.3537 78 35.0263C74.1438 36.2544 65.2264 39.2005 62.5752 46.3209C59.9241 53.4413 55.5858 61.0534 52.2117 61.299C48.8375 61.5445 41.1251 65.7187 39.92 67.9286C38.956 69.6965 36.9475 71.448 36.0638 72.1028L36.5458 69.1563C33.4127 71.6117 24.2542 79.4691 24.0132 78.978C23.7721 78.4869 26.9053 75.2948 28.3514 73.8216C29.7975 72.3483 37.2689 64.9821 37.2689 62.7722C37.2689 60.5623 39.679 56.1426 42.0891 52.705C44.4992 49.2674 43.5352 49.2674 42.8121 48.7763C42.0891 48.2853 37.5098 48.04 31.0024 40.6738C24.4951 33.3075 25.7002 19.0661 26.1822 20.0483C26.6642 21.0305 33.6536 26.6779 34.6176 27.9056C35.381 28.8777 44.7065 35.7026 49.4154 39.0961C48.6429 38.5103 47.2107 36.9909 46.6684 34.7808C46.0899 30.8521 48.5161 24.1407 49.8015 21.276C51.2476 23.977 54.1397 29.7717 54.1397 31.3432C54.1397 32.9147 56.2285 36.7451 57.2729 38.4639C62.4788 32.9638 66.1904 35.3537 67.3954 37.2362Z" fill="url(#paint1_linear_3920_2974)"/>
</g>
<defs>
<radialGradient id="paint0_radial_3920_2974" cx="0" cy="0" r="1" gradientUnits="userSpaceOnUse" gradientTransform="translate(49 42.2823) rotate(90) scale(132.379)">
<stop/>
<stop offset="1"/>
</radialGradient>
<linearGradient id="paint1_linear_3920_2974" x1="64.0909" y1="37.8662" x2="32.9608" y2="65.6169" gradientUnits="userSpaceOnUse">
<stop stop-color="#CD851A"/>
<stop offset="1" stop-color="#D94F4F"/>
</linearGradient>
</defs>
</svg>
