<svg width="16" height="16" viewBox="0 0 16 16" fill="none" xmlns="http://www.w3.org/2000/svg">
<g id="Info">
<path id="Vector" d="M8.045 11C8.175 11 8.2825 10.9575 8.3675 10.8725C8.4525 10.7875 8.495 10.68 8.495 10.55V7.835C8.495 7.715 8.45 7.6125 8.36 7.5275C8.27 7.4425 8.165 7.4 8.045 7.4C7.915 7.4 7.8075 7.4425 7.7225 7.5275C7.6375 7.6125 7.595 7.72 7.595 7.85V10.565C7.595 10.685 7.64 10.7875 7.73 10.8725C7.82 10.9575 7.925 11 8.045 11ZM8 6.29C8.14 6.29 8.2575 6.245 8.3525 6.155C8.4475 6.065 8.495 5.95 8.495 5.81C8.495 5.67 8.4475 5.55 8.3525 5.45C8.2575 5.35 8.14 5.3 8 5.3C7.86 5.3 7.7425 5.35 7.6475 5.45C7.5525 5.55 7.505 5.67 7.505 5.81C7.505 5.95 7.5525 6.065 7.6475 6.155C7.7425 6.245 7.86 6.29 8 6.29ZM8 14C7.15 14 6.36 13.8475 5.63 13.5425C4.9 13.2375 4.265 12.815 3.725 12.275C3.185 11.735 2.7625 11.1 2.4575 10.37C2.1525 9.64 2 8.85 2 8C2 7.16 2.1525 6.375 2.4575 5.645C2.7625 4.915 3.185 4.28 3.725 3.74C4.265 3.2 4.9 2.775 5.63 2.465C6.36 2.155 7.15 2 8 2C8.84 2 9.625 2.155 10.355 2.465C11.085 2.775 11.72 3.2 12.26 3.74C12.8 4.28 13.225 4.915 13.535 5.645C13.845 6.375 14 7.16 14 8C14 8.85 13.845 9.64 13.535 10.37C13.225 11.1 12.8 11.735 12.26 12.275C11.72 12.815 11.085 13.2375 10.355 13.5425C9.625 13.8475 8.84 14 8 14ZM8 13.1C9.4 13.1 10.6 12.6 11.6 11.6C12.6 10.6 13.1 9.4 13.1 8C13.1 6.6 12.6 5.4 11.6 4.4C10.6 3.4 9.4 2.9 8 2.9C6.6 2.9 5.4 3.4 4.4 4.4C3.4 5.4 2.9 6.6 2.9 8C2.9 9.4 3.4 10.6 4.4 11.6C5.4 12.6 6.6 13.1 8 13.1Z" fill="#9F9CB4"/>
</g>
</svg>
