<svg width="64" height="64" viewBox="0 0 64 64" fill="none" xmlns="http://www.w3.org/2000/svg">
<g id="Layer_1" clip-path="url(#clip0_3640_1300)">
<g id="Group">
<path id="Vector" d="M19.2766 45.1779C21.9068 44.8645 24.4219 45.2799 26.9388 45.5574C27.8263 45.6556 28.7137 45.7651 29.5936 45.6273C30.4471 45.4932 31.0985 45.0344 31.2571 44.1526C31.4195 43.2539 30.9663 42.6685 30.1412 42.2418C28.3436 41.3147 26.5385 41.0976 24.6088 41.6772C21.38 42.6477 18.4665 44.3226 15.3737 45.5952C10.7816 47.4853 6.37082 47.608 2.16394 44.3943C2.12807 44.3679 2.09031 44.3433 2.05443 44.315C-0.598468 42.2758 -0.632456 41.8358 1.66546 39.5492C3.7217 37.5024 5.76849 35.4481 7.82661 33.4051C8.19103 33.0426 8.49691 32.5743 9.17477 32.5479C9.73745 33.2465 9.64682 34.2076 10.0754 34.9761C11.3839 37.3212 13.3892 38.5825 16.0157 38.7468C18.4646 38.8997 20.8834 38.5617 23.2984 38.2502C26.7349 37.8064 29.992 38.169 33.0169 40.1893C34.9598 41.4865 36.4043 43.1198 37.2275 45.2686C38.6267 48.9184 36.1664 52.0868 32.2937 51.6752C31.546 51.5959 30.8001 51.4429 30.0524 51.407C29.1083 51.3617 28.3833 51.7526 28.2265 52.7495C28.083 53.6691 28.4645 54.3847 29.3255 54.8417C30.9418 55.697 30.9399 55.7045 29.6635 56.9847C27.8942 58.7596 26.108 60.5156 24.3671 62.317C23.7742 62.9306 23.2134 63.1251 22.3732 62.7645C18.4325 61.0764 15.6682 58.112 13.8178 54.3885C11.6728 50.074 14.3899 45.5971 19.2747 45.1817L19.2766 45.1779Z" fill="url(#paint0_linear_3640_1300)"/>
<path id="Vector_2" d="M44.7237 18.8191C42.0935 19.1326 39.5784 18.7172 37.0615 18.4396C36.174 18.3414 35.2866 18.2319 34.4067 18.3697C33.5532 18.5038 32.9018 18.9626 32.7432 19.8444C32.5808 20.7432 33.034 21.3285 33.8591 21.7552C35.6567 22.6823 37.4618 22.8995 39.3915 22.3198C42.6203 21.3493 45.5338 19.6745 48.6266 18.4018C53.2187 16.5118 57.6295 16.389 61.8363 19.6027C61.8722 19.6291 61.91 19.6537 61.9459 19.682C64.5987 21.7213 64.6327 22.1612 62.3348 24.4478C60.2786 26.4946 58.2318 28.5489 56.1737 30.5919C55.8092 30.9545 55.5034 31.4227 54.8255 31.4492C54.2628 30.7506 54.3535 29.7895 53.9248 29.021C52.6163 26.6758 50.6111 25.4145 47.9846 25.2503C45.5356 25.0973 43.1169 25.4353 40.7019 25.7469C37.2654 26.1906 34.0083 25.8281 30.9834 23.8077C29.0405 22.5105 27.596 20.8772 26.7728 18.7285C25.3736 15.0786 27.8339 11.9102 31.7066 12.3219C32.4543 12.4012 33.2001 12.5541 33.9479 12.59C34.8919 12.6353 35.617 12.2445 35.7737 11.2475C35.9172 10.3279 35.5358 9.61233 34.6748 9.15539C33.0585 8.30004 33.0604 8.29249 34.3368 7.0123C36.1061 5.2374 37.8923 3.48139 39.6332 1.68006C40.2261 1.0664 40.7869 0.87192 41.6271 1.23256C45.5677 2.9206 48.332 5.88505 50.1825 9.60855C52.3274 13.9231 49.6103 18.3999 44.7256 18.8153L44.7237 18.8191Z" fill="url(#paint1_linear_3640_1300)"/>
</g>
<g id="Group_2">
<path id="Vector_3" d="M18.8197 19.2764C19.1331 21.9067 18.7177 24.4217 18.4401 26.9387C18.3419 27.8261 18.2324 28.7136 18.3703 29.5935C18.5043 30.4469 18.9632 31.0984 19.8449 31.257C20.7437 31.4194 21.3291 30.9662 21.7558 30.1411C22.6829 28.3435 22.9 26.5384 22.3204 24.6087C21.3498 21.3799 19.675 18.4664 18.4024 15.3736C16.5123 10.7815 16.3896 6.3707 19.6033 2.16382C19.6297 2.12795 19.6542 2.09018 19.6826 2.05431C21.7218 -0.59859 22.1617 -0.632578 24.4483 1.66534C26.4951 3.72158 28.5495 5.76837 30.5925 7.82649C30.955 8.19091 31.4233 8.49679 31.4497 9.17465C30.7511 9.73733 29.79 9.6467 29.0215 10.0753C26.6764 11.3838 25.4151 13.3891 25.2508 16.0155C25.0979 18.4645 25.4359 20.8833 25.7474 23.2983C26.1911 26.7348 25.8286 29.9919 23.8082 33.0168C22.5111 34.9597 20.8778 36.4042 18.729 37.2274C15.0792 38.6266 11.9108 36.1663 12.3224 32.2936C12.4017 31.5459 12.5547 30.8 12.5905 30.0523C12.6359 29.1082 12.245 28.3832 11.248 28.2264C10.3285 28.0829 9.61287 28.4643 9.15593 29.3254C8.30059 30.9416 8.29303 30.9398 7.01284 29.6633C5.23795 27.8941 3.48194 26.1079 1.68061 24.367C1.06695 23.7741 0.87247 23.2133 1.23311 22.3731C2.92115 18.4324 5.8856 15.6681 9.6091 13.8177C13.9236 11.6727 18.4005 14.3898 18.8159 19.2746L18.8197 19.2764Z" fill="url(#paint2_linear_3640_1300)"/>
<path id="Vector_4" d="M45.1783 44.7234C44.8649 42.0931 45.2803 39.5781 45.5579 37.0611C45.6561 36.1737 45.7656 35.2862 45.6277 34.4063C45.4937 33.5529 45.0348 32.9014 44.1531 32.7428C43.2543 32.5804 42.6689 33.0336 42.2422 33.8588C41.3151 35.6563 41.098 37.4614 41.6776 39.3911C42.6482 42.6199 44.323 45.5334 45.5956 48.6262C47.4857 53.2183 47.6084 57.6291 44.3947 61.836C44.3683 61.8719 44.3438 61.9096 44.3154 61.9455C42.2762 64.5984 41.8363 64.6324 39.5497 62.3345C37.5029 60.2782 35.4485 58.2314 33.4055 56.1733C33.043 55.8089 32.5747 55.503 32.5483 54.8251C33.2469 54.2625 34.208 54.3531 34.9765 53.9245C37.3216 52.616 38.5829 50.6107 38.7472 47.9843C38.9001 45.5353 38.5621 43.1165 38.2506 40.7015C37.8069 37.265 38.1694 34.0079 40.1898 30.983C41.4869 29.0401 43.1202 27.5956 45.269 26.7724C48.9188 25.3732 52.0872 27.8336 51.6756 31.7062C51.5963 32.4539 51.4433 33.1998 51.4075 33.9475C51.3621 34.8916 51.753 35.6167 52.75 35.7734C53.6695 35.9169 54.3851 35.5355 54.8421 34.6744C55.6974 33.0582 55.705 33.06 56.9852 34.3365C58.76 36.1057 60.5161 37.8919 62.3174 39.6328C62.931 40.2257 63.1255 40.7865 62.7649 41.6267C61.0769 45.5674 58.1124 48.3317 54.3889 50.1821C50.0744 52.3271 45.5975 49.61 45.1821 44.7253L45.1783 44.7234Z" fill="url(#paint3_linear_3640_1300)"/>
</g>
</g>
<defs>
<linearGradient id="paint0_linear_3640_1300" x1="10.6506" y1="53.3477" x2="28.388" y2="35.6103" gradientUnits="userSpaceOnUse">
<stop stop-color="#7357FF"/>
<stop offset="0.54" stop-color="#48D64E"/>
<stop offset="1" stop-color="#000E00"/>
</linearGradient>
<linearGradient id="paint1_linear_3640_1300" x1="53.3485" y1="10.6505" x2="35.611" y2="28.3879" gradientUnits="userSpaceOnUse">
<stop stop-color="#7357FF"/>
<stop offset="0.54" stop-color="#48D64E"/>
<stop offset="1" stop-color="#000E00"/>
</linearGradient>
<linearGradient id="paint2_linear_3640_1300" x1="10.6506" y1="10.6499" x2="28.3881" y2="28.3874" gradientUnits="userSpaceOnUse">
<stop stop-color="#7357FF"/>
<stop offset="0.54" stop-color="#48D64E"/>
<stop offset="1" stop-color="#000E00"/>
</linearGradient>
<linearGradient id="paint3_linear_3640_1300" x1="53.3478" y1="53.3494" x2="35.6103" y2="35.612" gradientUnits="userSpaceOnUse">
<stop stop-color="#7357FF"/>
<stop offset="0.54" stop-color="#48D64E"/>
<stop offset="1" stop-color="#000E00"/>
</linearGradient>
<clipPath id="clip0_3640_1300">
<rect width="64" height="64" fill="white"/>
</clipPath>
</defs>
</svg>
