<svg xmlns="http://www.w3.org/2000/svg" width="24" height="24" viewBox="0 0 24 24" fill="none">
<path d="M20.3 9.43H13.06V3.97C13.06 3.37 12.55 3 12.03 3C11.72 3 11.4 3.14 11.19 3.44C10.23 4.84 10 5.11 7.3 9H4C3.45 9 3 9.45 3 10V19C3 19.55 3.45 20 4 20H18.53C18.87 20 19.16 19.77 19.22 19.45C19.81 16.37 20.4 13.29 20.98 10.22C21.06 9.81 20.73 9.43 20.29 9.43H20.3ZM7 19H4V10H7V19ZM19.43 13.02L18.29 19H8V9.75C9.61 7.44 10.37 6.36 10.9 5.6C11.31 5.02 11.59 4.62 12.01 4C12.01 4 12.01 4 12.03 4C12.05 4 12.05 4 12.06 4V9.43V10.43H19.93L19.43 13.02Z" fill="#BCBCBC"/>
</svg>