<svg width="439" height="461" viewBox="0 0 439 461" fill="none" xmlns="http://www.w3.org/2000/svg">
<g clip-path="url(#clip0_3640_1134)">
<path d="M196.681 268.964C223.518 265.766 249.179 270.004 274.86 272.836C283.915 273.838 292.969 274.955 301.947 273.549C310.655 272.181 317.302 267.5 318.92 258.503C320.577 249.332 315.953 243.36 307.534 239.006C289.193 229.547 270.776 227.331 251.087 233.246C218.143 243.148 188.416 260.236 156.86 273.221C110.006 292.506 65.0023 293.758 22.079 260.969C21.713 260.699 21.3276 260.448 20.9616 260.159C-6.10625 239.353 -6.45302 234.864 16.9929 211.534C37.9729 190.65 58.8566 169.689 79.8559 148.844C83.5741 145.145 86.6951 140.367 93.6113 140.098C99.3524 147.226 98.4277 157.032 102.801 164.873C116.152 188.8 136.612 201.67 163.41 203.346C188.397 204.906 213.076 201.458 237.716 198.279C272.779 193.752 306.012 197.451 336.875 218.065C356.699 231.3 371.437 247.964 379.837 269.888C394.113 307.128 369.01 339.456 329.497 335.256C321.867 334.447 314.258 332.886 306.629 332.52C296.996 332.058 289.598 336.046 287.999 346.218C286.535 355.6 290.426 362.902 299.211 367.564C315.703 376.291 315.683 376.368 302.66 389.43C284.608 407.54 266.383 425.456 248.621 443.836C242.571 450.097 236.849 452.081 228.276 448.401C188.069 431.178 159.865 400.932 140.985 362.94C119.099 318.919 146.822 273.241 196.662 269.002L196.681 268.964Z" fill="url(#paint0_linear_3640_1134)"/>
<path d="M456.322 0.0175171C429.485 3.21558 403.824 -1.0228 378.143 -3.85481C369.088 -4.85661 360.033 -5.974 351.056 -4.56763C342.348 -3.19978 335.701 1.48169 334.083 10.4786C332.426 19.649 337.05 25.6212 345.469 29.9752C363.809 39.4345 382.227 41.65 401.916 35.7355C434.86 25.8331 464.587 8.74475 496.143 -4.24013C542.997 -23.5248 588.001 -24.777 630.924 8.01266C631.29 8.28238 631.675 8.53282 632.041 8.82181C659.109 29.6284 659.456 34.1172 636.01 57.4476C615.03 78.3313 594.146 99.2921 573.147 120.137C569.429 123.836 566.308 128.614 559.391 128.884C553.65 121.755 554.575 111.949 550.202 104.108C536.851 80.1808 516.391 67.3115 489.593 65.6354C464.606 64.0749 439.927 67.5234 415.286 70.7022C380.223 75.2296 346.991 71.5306 316.128 50.9167C296.304 37.6814 281.565 21.0168 273.166 -0.907211C258.89 -38.1472 283.993 -70.4745 323.506 -66.2747C331.135 -65.4655 338.745 -63.905 346.374 -63.539C356.007 -63.0766 363.405 -67.0645 365.004 -77.2367C366.468 -86.6189 362.576 -93.9205 353.791 -98.5827C337.3 -107.31 337.32 -107.387 350.343 -120.449C368.395 -138.558 386.62 -156.475 404.382 -174.854C410.432 -181.116 416.153 -183.1 424.727 -179.42C464.933 -162.197 493.138 -131.95 512.018 -93.959C533.903 -49.9376 506.181 -4.25938 456.341 -0.0209961L456.322 0.0175171Z" fill="url(#paint1_linear_3640_1134)"/>
<path d="M192.019 4.68117C195.217 31.5179 190.978 57.1794 188.146 82.8601C187.144 91.9148 186.027 100.97 187.433 109.947C188.801 118.655 193.483 125.302 202.48 126.92C211.65 128.577 217.622 123.953 221.976 115.534C231.436 97.1936 233.651 78.7758 227.737 59.0866C217.834 26.1428 200.746 -3.58368 187.761 -35.1404C168.476 -81.9938 167.224 -126.998 200.014 -169.921C200.283 -170.287 200.534 -170.672 200.823 -171.038C221.629 -198.106 226.118 -198.453 249.449 -175.007C270.332 -154.027 291.293 -133.143 312.138 -112.144C315.837 -108.426 320.615 -105.305 320.885 -98.3886C313.756 -92.6475 303.95 -93.5723 296.109 -89.199C272.182 -75.8481 259.312 -55.3883 257.636 -28.5901C256.076 -3.60294 259.524 21.076 262.703 45.7164C267.231 80.7794 263.532 114.012 242.918 144.875C229.682 164.699 213.018 179.437 191.094 187.837C153.854 202.113 121.527 177.01 125.726 137.497C126.536 129.868 128.096 122.258 128.462 114.629C128.924 104.996 124.937 97.5981 114.764 95.9991C105.382 94.5349 98.0806 98.4265 93.4184 107.212C84.6911 123.703 84.6141 123.683 71.5522 110.66C53.4427 92.6084 35.5259 74.3833 17.1467 56.6207C10.8855 50.5713 8.90115 44.8495 12.5808 36.2764C29.8041 -3.93045 60.0507 -32.135 98.0421 -51.015C142.063 -72.9005 187.742 -45.1776 191.98 4.66193L192.019 4.68117Z" fill="url(#paint2_linear_3640_1134)"/>
<path d="M460.959 264.32C457.761 237.483 462 211.822 464.832 186.141C465.834 177.086 466.951 168.032 465.545 159.054C464.177 150.346 459.495 143.699 450.498 142.081C441.328 140.424 435.356 145.048 431.002 153.467C421.543 171.808 419.327 190.225 425.241 209.914C435.144 242.858 452.232 272.585 465.217 304.141C484.502 350.995 485.754 395.999 452.964 438.922C452.695 439.288 452.444 439.673 452.155 440.04C431.349 467.107 426.86 467.454 403.529 444.008C382.646 423.028 361.685 402.145 340.84 381.145C337.141 377.427 332.363 374.306 332.093 367.39C339.222 361.649 349.028 362.573 356.869 358.2C380.796 344.849 393.666 324.389 395.342 297.591C396.902 272.604 393.454 247.925 390.275 223.285C385.747 188.222 389.446 154.989 410.06 124.126C423.296 104.302 439.96 89.5636 461.884 81.1639C499.124 66.8883 531.451 91.9911 527.252 131.504C526.442 139.133 524.882 146.743 524.516 154.372C524.054 164.005 528.042 171.403 538.214 173.002C547.596 174.466 554.897 170.575 559.56 161.79C568.287 145.298 568.364 145.318 581.426 158.341C599.535 176.393 617.452 194.618 635.831 212.38C642.093 218.43 644.077 224.152 640.397 232.725C623.174 272.932 592.927 301.136 554.936 320.016C510.915 341.902 465.236 314.179 460.998 264.339L460.959 264.32Z" fill="url(#paint3_linear_3640_1134)"/>
</g>
<defs>
<linearGradient id="paint0_linear_3640_1134" x1="108.669" y1="352.321" x2="289.647" y2="171.344" gradientUnits="userSpaceOnUse">
<stop stop-color="#7357FF"/>
<stop offset="0.54" stop-color="#48D64E"/>
<stop offset="1" stop-color="#000E00"/>
</linearGradient>
<linearGradient id="paint1_linear_3640_1134" x1="544.321" y1="-83.3283" x2="363.344" y2="97.649" gradientUnits="userSpaceOnUse">
<stop stop-color="#7357FF"/>
<stop offset="0.54" stop-color="#48D64E"/>
<stop offset="1" stop-color="#000E00"/>
</linearGradient>
<linearGradient id="paint2_linear_3640_1134" x1="108.669" y1="-83.3363" x2="289.646" y2="97.641" gradientUnits="userSpaceOnUse">
<stop stop-color="#7357FF"/>
<stop offset="0.54" stop-color="#48D64E"/>
<stop offset="1" stop-color="#000E00"/>
</linearGradient>
<linearGradient id="paint3_linear_3640_1134" x1="544.313" y1="352.333" x2="363.336" y2="171.356" gradientUnits="userSpaceOnUse">
<stop stop-color="#7357FF"/>
<stop offset="0.54" stop-color="#48D64E"/>
<stop offset="1" stop-color="#000E00"/>
</linearGradient>
<clipPath id="clip0_3640_1134">
<rect width="653" height="653" fill="white" transform="translate(0 -192)"/>
</clipPath>
</defs>
</svg>
