<svg xmlns="http://www.w3.org/2000/svg" width="30" height="30" viewBox="0 0 30 30" fill="none">
  <g clip-path="url(#clip0_3945_40146)">
    <path d="M24.325 4.18802C23.9 3.82552 23.3375 3.68802 22.7875 3.77552L11.5375 5.82552C10.65 5.98802 10 6.76302 10 7.67552V18.8255C9.2125 18.0005 8.1 17.5005 6.875 17.5005C4.4625 17.5005 2.5 19.463 2.5 21.8755C2.5 24.288 4.4625 26.2505 6.875 26.2505C8.75 26.2505 10.35 25.063 10.9625 23.4005C11.15 22.9255 11.25 22.413 11.25 21.8755V7.67552C11.25 7.36302 11.4625 7.11302 11.7625 7.05052L23.0125 5.01302C23.275 4.96302 23.4375 5.07552 23.525 5.15052C23.6125 5.21302 23.75 5.37552 23.75 5.62552V16.3255C22.9625 15.5005 21.85 15.0005 20.625 15.0005C18.2125 15.0005 16.25 16.963 16.25 19.3755C16.25 21.788 18.2125 23.7505 20.625 23.7505C22.5 23.7505 24.1 22.563 24.7125 20.9005C24.9 20.4255 25 19.913 25 19.3755V5.62552C25 5.06302 24.75 4.53802 24.325 4.18802ZM6.875 25.0005C5.15 25.0005 3.75 23.6005 3.75 21.8755C3.75 20.1505 5.15 18.7505 6.875 18.7505C8.6 18.7505 10 20.1505 10 21.8755C10 23.6005 8.6 25.0005 6.875 25.0005ZM20.625 22.5005C18.9 22.5005 17.5 21.1005 17.5 19.3755C17.5 17.6505 18.9 16.2505 20.625 16.2505C22.35 16.2505 23.75 17.6505 23.75 19.3755C23.75 21.1005 22.35 22.5005 20.625 22.5005Z" fill="black"/>
    <path d="M5 0L5.00336 4.74682C5.00346 4.88475 5.11525 4.99654 5.25318 4.99664L10 5L5.25318 5.00336C5.11525 5.00346 5.00346 5.11525 5.00336 5.25318L5 10L4.99664 5.25318C4.99654 5.11525 4.88475 5.00346 4.74682 5.00336L0 5L4.74682 4.99664C4.88475 4.99654 4.99654 4.88475 4.99664 4.74682L5 0Z" fill="black"/>
    <path d="M26.25 21.25L26.2525 24.7477C26.2526 24.8856 26.3644 24.9974 26.5023 24.9975L30 25L26.5023 25.0025C26.3644 25.0026 26.2526 25.1144 26.2525 25.2523L26.25 28.75L26.2475 25.2523C26.2474 25.1144 26.1356 25.0026 25.9977 25.0025L22.5 25L25.9977 24.9975C26.1356 24.9974 26.2474 24.8856 26.2475 24.7477L26.25 21.25Z" fill="black"/>
    <path d="M4.76743 0.589679C4.85067 0.378642 5.14933 0.378642 5.23257 0.589679L6.37438 3.48478C6.39979 3.54921 6.45079 3.60021 6.51522 3.62562L9.41032 4.76743C9.62136 4.85067 9.62136 5.14933 9.41032 5.23257L6.51522 6.37438C6.45079 6.39979 6.39979 6.45079 6.37438 6.51522L5.23257 9.41032C5.14933 9.62136 4.85067 9.62136 4.76743 9.41032L3.62562 6.51522C3.60021 6.45079 3.54921 6.39979 3.48478 6.37438L0.589679 5.23257C0.378642 5.14933 0.378642 4.85067 0.589679 4.76743L3.48478 3.62562C3.54921 3.60021 3.60021 3.54921 3.62562 3.48478L4.76743 0.589679Z" fill="black"/>
    <path d="M26.0174 22.8397C26.1007 22.6286 26.3993 22.6286 26.4826 22.8397L27.2708 24.8383C27.2962 24.9028 27.3472 24.9538 27.4117 24.9792L29.4103 25.7674C29.6214 25.8507 29.6214 26.1493 29.4103 26.2326L27.4117 27.0208C27.3472 27.0462 27.2962 27.0972 27.2708 27.1617L26.4826 29.1603C26.3993 29.3714 26.1007 29.3714 26.0174 29.1603L25.2292 27.1617C25.2038 27.0972 25.1528 27.0462 25.0883 27.0208L23.0897 26.2326C22.8786 26.1493 22.8786 25.8507 23.0897 25.7674L25.0883 24.9792C25.1528 24.9538 25.2038 24.9028 25.2292 24.8383L26.0174 22.8397Z" fill="black"/>
  </g>
  <defs>
    <clipPath id="clip0_3945_40146">
      <rect width="30" height="30" fill="white"/>
    </clipPath>
  </defs>
</svg>