<svg width="48" height="48" viewBox="0 0 48 48" fill="none" xmlns="http://www.w3.org/2000/svg">
<rect width="48" height="48" rx="24" fill="#BD4230"/>
<path d="M31.46 15.3504C31.12 15.0604 30.67 14.9504 30.23 15.0204L21.23 16.6604C20.52 16.7904 20 17.4104 20 18.1404V27.0604C19.37 26.4004 18.48 26.0004 17.5 26.0004C15.57 26.0004 14 27.5704 14 29.5004C14 31.4304 15.57 33.0004 17.5 33.0004C19 33.0004 20.28 32.0504 20.77 30.7204C20.92 30.3404 21 29.9304 21 29.5004V18.1404C21 17.8904 21.17 17.6904 21.41 17.6404L30.41 16.0104C30.62 15.9704 30.75 16.0604 30.82 16.1204C30.89 16.1704 31 16.3004 31 16.5004V25.0604C30.37 24.4004 29.48 24.0004 28.5 24.0004C26.57 24.0004 25 25.5704 25 27.5004C25 29.4304 26.57 31.0004 28.5 31.0004C30 31.0004 31.28 30.0504 31.77 28.7204C31.92 28.3404 32 27.9304 32 27.5004V16.5004C32 16.0504 31.8 15.6304 31.46 15.3504ZM17.5 32.0004C16.12 32.0004 15 30.8804 15 29.5004C15 28.1204 16.12 27.0004 17.5 27.0004C18.88 27.0004 20 28.1204 20 29.5004C20 30.8804 18.88 32.0004 17.5 32.0004ZM28.5 30.0004C27.12 30.0004 26 28.8804 26 27.5004C26 26.1204 27.12 25.0004 28.5 25.0004C29.88 25.0004 31 26.1204 31 27.5004C31 28.8804 29.88 30.0004 28.5 30.0004Z" fill="white"/>
<path d="M15.8139 12.4717C15.8805 12.3029 16.1195 12.3029 16.1861 12.4717L17.0995 14.7878C17.1198 14.8394 17.1606 14.8802 17.2122 14.9005L19.5283 15.8139C19.6971 15.8805 19.6971 16.1195 19.5283 16.1861L17.2122 17.0995C17.1606 17.1198 17.1198 17.1606 17.0995 17.2122L16.1861 19.5283C16.1195 19.6971 15.8805 19.6971 15.8139 19.5283L14.9005 17.2122C14.8802 17.1606 14.8394 17.1198 14.7878 17.0995L12.4717 16.1861C12.3029 16.1195 12.3029 15.8805 12.4717 15.8139L14.7878 14.9005C14.8394 14.8802 14.8802 14.8394 14.9005 14.7878L15.8139 12.4717Z" fill="white"/>
<path d="M32.8139 29.4717C32.8805 29.3029 33.1195 29.3029 33.1861 29.4717L33.8167 31.0707C33.837 31.1222 33.8778 31.163 33.9293 31.1833L35.5283 31.8139C35.6971 31.8805 35.6971 32.1195 35.5283 32.1861L33.9293 32.8167C33.8778 32.837 33.837 32.8778 33.8167 32.9293L33.1861 34.5283C33.1195 34.6971 32.8805 34.6971 32.8139 34.5283L32.1833 32.9293C32.163 32.8778 32.1222 32.837 32.0707 32.8167L30.4717 32.1861C30.3029 32.1195 30.3029 31.8805 30.4717 31.8139L32.0707 31.1833C32.1222 31.163 32.163 31.1222 32.1833 31.0707L32.8139 29.4717Z" fill="white"/>
</svg>
