<svg width="32" height="32" viewBox="0 0 32 32" fill="none" xmlns="http://www.w3.org/2000/svg">
<path fill-rule="evenodd" clip-rule="evenodd" d="M23.9116 5.4242C24.1237 5.36637 24.3327 5.526 24.3327 5.74579V16.5363C23.7439 16.1952 23.0601 16 22.3307 16C20.1216 16 18.3307 17.7909 18.3307 20C18.3307 22.2091 20.1216 24 22.3307 24C24.5399 24 26.3307 22.2091 26.3307 20C26.3307 19.8514 26.3226 19.7047 26.3068 19.5603C26.3237 19.4874 26.3327 19.4115 26.3327 19.3335V5.74579C26.3327 4.20725 24.8697 3.08985 23.3854 3.49467L11.3854 6.7674C10.3703 7.04426 9.66602 7.9663 9.66602 9.01851V20.5363C9.07723 20.1952 8.39344 20 7.66406 20C5.45492 20 3.66406 21.7909 3.66406 24C3.66406 26.2091 5.45492 28 7.66406 28C9.84887 28 11.6246 26.2484 11.6634 24.0728C11.6651 24.0488 11.666 24.0246 11.666 24.0001V9.01851C11.666 8.8682 11.7666 8.73648 11.9116 8.69693L23.9116 5.4242ZM22.3307 22C23.4353 22 24.3307 21.1046 24.3307 20C24.3307 18.8954 23.4353 18 22.3307 18C21.2262 18 20.3307 18.8954 20.3307 20C20.3307 21.1046 21.2262 22 22.3307 22ZM7.66406 26C8.76863 26 9.66406 25.1046 9.66406 24C9.66406 22.8954 8.76863 22 7.66406 22C6.55949 22 5.66406 22.8954 5.66406 24C5.66406 25.1046 6.55949 26 7.66406 26Z" fill="#C2C2C2"/>
</svg>
