<svg width="24" height="24" viewBox="0 0 24 24" fill="none" xmlns="http://www.w3.org/2000/svg">
<path fill-rule="evenodd" clip-rule="evenodd" d="M20.32 20.32C20.23 20.41 20.12 20.45 20 20.45C19.88 20.45 19.77 20.41 19.68 20.32L17.77 18.41L17.08 17.72L13 13.64V18.98C13 19.84 12.01 20.31 11.36 19.76L7.28 16.3C7.1 16.15 6.87 16.07 6.64 16.07H4C3.45 16.07 3 15.61 3 15.05V8.95001C3 8.39001 3.45 7.93001 4 7.93001H6.64C6.82 7.93001 6.99 7.88001 7.15 7.79001L7.14999 7.78999L3.67999 4.31999C3.50999 4.13999 3.50999 3.85999 3.67999 3.67999C3.85999 3.50999 4.13999 3.50999 4.31999 3.67999L20.32 19.68C20.49 19.86 20.49 20.14 20.32 20.32ZM13 11.09V5.01999C13 4.15999 12.01 3.68999 11.36 4.23999L8.54001 6.62999L13 11.09ZM16.07 14.16C16.95 13.32 17 12.23 17 12C17 10.58 16 9.75001 15.8 9.60001C15.58 9.44001 15.27 9.48001 15.1 9.70001C14.93 9.92001 14.98 10.23 15.2 10.4C15.28 10.46 16 11.03 16 12C16 12.09 15.98 12.89 15.36 13.45L16.07 14.16ZM19 12C19 12.39 18.92 14.18 17.58 15.67L16.88 14.97C17.96 13.71 18 12.2 18 12C18 9.81 16.38 8.54 16.2 8.4C15.98 8.23 15.93 7.92 16.1 7.7C16.27 7.48 16.58 7.43 16.8 7.6C17.17 7.88 19 9.38 19 12ZM19.09 17.18C20.9 15.05 21 12.56 21 12C21 8.2 18.33 6 17.8 5.6C17.58 5.43 17.27 5.48 17.1 5.7C16.93 5.92 16.98 6.23 17.2 6.4C17.49 6.62 20 8.6 20 12C20 12.3 19.95 14.55 18.38 16.47L19.09 17.18Z" fill="#0C090E"/>
</svg>
