<svg width="32" height="32" viewBox="0 0 32 32" fill="none" xmlns="http://www.w3.org/2000/svg">
<path d="M26.5733 20.6C25 19.4133 24.0266 18.1067 23.7066 16.68C23.4933 15.7733 23.6 15.12 23.7466 14.2933C23.9333 13.2667 24.16 11.9867 23.68 10.3333C22.7866 7.26667 19.8 4 16 4C12.2 4 9.21329 7.26667 8.31996 10.3333C7.83996 11.9867 8.06663 13.2667 8.25329 14.2933C8.39996 15.12 8.50663 15.7733 8.29329 16.68C7.97329 18.1067 6.99996 19.4133 5.42663 20.6C4.90663 20.9867 4.66663 21.5467 4.66663 22.1067C4.66663 23.0667 5.35996 24 6.45329 24H11.3866C11.7066 26.2533 13.6533 28 16 28C18.3466 28 20.2933 26.2533 20.6133 24H25.5466C26.64 24 27.3333 23.0667 27.3333 22.1067C27.3333 21.5467 27.0933 20.9867 26.5733 20.6ZM6.45329 22.12C7.78663 21.1333 9.47996 19.5067 10.04 17.12C10.6533 14.4933 9.33329 13.2933 10.04 10.88C10.72 8.53333 13.04 5.88 16 5.88C18.96 5.88 21.28 8.53333 21.96 10.88C22.6666 13.2933 21.3466 14.4933 21.96 17.12C22.52 19.5067 24.2133 21.1333 25.5466 22.12H6.45329Z" fill="#C2C2C2"/>
</svg>
