<svg width="80" height="80" viewBox="0 0 80 80" fill="none" xmlns="http://www.w3.org/2000/svg">
<g id="play-circle">
<path id="Vector" fill-rule="evenodd" clip-rule="evenodd" d="M70.0052 40.0013C70.0052 23.468 56.5385 10.0013 40.0052 10.0013C23.4719 10.0013 10.0052 23.468 10.0052 40.0013C10.0052 56.5346 23.4719 70.0013 40.0052 70.0013C56.5385 70.0013 70.0052 56.5346 70.0052 40.0013ZM6.67188 40.0013C6.67188 21.6013 21.6052 6.66797 40.0052 6.66797C58.4052 6.66797 73.3385 21.6013 73.3385 40.0013C73.3385 58.4013 58.4052 73.3346 40.0052 73.3346C21.6052 73.3346 6.67188 58.4013 6.67188 40.0013ZM31.4062 24.1318L56.4062 38.5652V38.5318C57.5063 39.1985 57.5063 40.7985 56.4062 41.4318L31.4062 55.8652C30.3062 56.5318 28.9062 55.6985 28.9062 54.4318V25.5652C28.9062 24.2985 30.3062 23.4985 31.4062 24.1318Z" fill="white"/>
</g>
</svg>
