<svg xmlns="http://www.w3.org/2000/svg" width="16" height="17" viewBox="0 0 16 17" fill="none">
  <path d="M13.6667 8.16667L8.33333 8.16667V2.83333C8.33333 2.64667 8.18667 2.5 8 2.5C7.81333 2.5 7.66667 2.64667 7.66667 2.83333L7.66667 8.16667H2.33333C2.14667 8.16667 2 8.31333 2 8.5C2 8.68667 2.14667 8.83333 2.33333 8.83333H7.66667L7.66667 14.1667C7.66667 14.3533 7.81333 14.5 8 14.5C8.18667 14.5 8.33333 14.3533 8.33333 14.1667L8.33333 8.83333L13.6667 8.83333C13.8533 8.83333 14 8.68667 14 8.5C14 8.31333 13.8533 8.16667 13.6667 8.16667Z" fill="white"/>
</svg>