<svg width="111" height="40" viewBox="0 0 111 40" fill="none" xmlns="http://www.w3.org/2000/svg">
<rect x="0.669434" y="0.962402" width="4.5822" height="32.0754" fill="#FFCF4A"/>
<rect x="44.2002" y="19.291" width="4.5822" height="13.7466" fill="#FFCF4A"/>
<rect x="87.731" y="19.291" width="4.5822" height="13.7466" fill="#FFCF4A"/>
<rect x="25.8716" y="19.291" width="4.5822" height="13.7466" fill="#FFCF4A"/>
<rect x="106.06" y="19.291" width="4.5822" height="13.7466" fill="#FFCF4A"/>
<rect x="106.06" y="12.418" width="4.5822" height="4.5822" fill="#FFCF4A"/>
<rect x="80.8579" y="28.4556" width="4.5822" height="4.5822" fill="#FFCF4A"/>
<rect x="62.5288" y="12.418" width="4.5822" height="13.7466" fill="#FFCF4A"/>
<rect x="73.9844" y="26.1646" width="4.5822" height="13.7466" fill="#FFCF4A"/>
<rect x="62.5288" y="30.7466" width="4.5822" height="9.16439" fill="#FFCF4A"/>
<rect x="73.9844" y="12.418" width="4.5822" height="13.7466" fill="#FFCF4A"/>
<rect x="55.6558" y="12.418" width="4.5822" height="20.6199" fill="#FFCF4A"/>
<rect x="99.1865" y="12.418" width="4.5822" height="20.6199" fill="#FFCF4A"/>
<rect x="37.3271" y="12.418" width="4.5822" height="20.6199" fill="#FFCF4A"/>
<rect x="14.416" y="0.962402" width="4.5822" height="16.0377" fill="#FFCF4A"/>
<rect x="18.998" y="12.418" width="4.5822" height="20.6199" fill="#FFCF4A"/>
<rect x="0.669434" y="5.54443" width="4.58219" height="18.3288" transform="rotate(-90 0.669434 5.54443)" fill="#FFCF4A"/>
<rect x="0.669434" y="17" width="4.58219" height="18.3288" transform="rotate(-90 0.669434 17)" fill="#FFCF4A"/>
<rect x="44.2002" y="23.8735" width="4.58219" height="16.0377" transform="rotate(-90 44.2002 23.8735)" fill="#FFCF4A"/>
<rect x="87.731" y="23.8735" width="4.58219" height="16.0377" transform="rotate(-90 87.731 23.8735)" fill="#FFCF4A"/>
<rect x="25.8716" y="23.8735" width="4.58219" height="16.0377" transform="rotate(-90 25.8716 23.8735)" fill="#FFCF4A"/>
<rect x="51.0737" y="17" width="4.5822" height="9.16439" transform="rotate(-90 51.0737 17)" fill="#FFCF4A"/>
<rect x="94.6045" y="17" width="4.5822" height="9.16439" transform="rotate(-90 94.6045 17)" fill="#FFCF4A"/>
<rect x="32.7446" y="17" width="4.5822" height="9.16439" transform="rotate(-90 32.7446 17)" fill="#FFCF4A"/>
<rect x="44.2002" y="33.0376" width="4.58219" height="16.0377" transform="rotate(-90 44.2002 33.0376)" fill="#FFCF4A"/>
<rect x="87.731" y="33.0376" width="4.58219" height="16.0377" transform="rotate(-90 87.731 33.0376)" fill="#FFCF4A"/>
<rect x="25.8716" y="33.0376" width="4.58219" height="16.0377" transform="rotate(-90 25.8716 33.0376)" fill="#FFCF4A"/>
<rect x="62.5288" y="17" width="4.58219" height="16.0377" transform="rotate(-90 62.5288 17)" fill="#FFCF4A"/>
<rect x="62.5288" y="26.1646" width="4.58219" height="16.0377" transform="rotate(-90 62.5288 26.1646)" fill="#FFCF4A"/>
<rect x="62.5288" y="39.9111" width="4.58219" height="16.0377" transform="rotate(-90 62.5288 39.9111)" fill="#FFCF4A"/>
</svg>
