<svg width="48" height="48" viewBox="0 0 48 48" fill="none" xmlns="http://www.w3.org/2000/svg">
<g clip-path="url(#clip0_4143_207)">
<path d="M37.2714 35.3L37.2714 12.7291C37.2714 11.626 36.3663 10.7209 35.2632 10.7209L12.6923 10.7209C11.5892 10.7209 10.6841 11.626 10.6841 12.7291C10.6841 13.8322 11.5892 14.7373 12.6923 14.7373L30.4266 14.7373L11.264 33.8999C10.4861 34.6777 10.4861 35.9505 11.264 36.7283C12.0418 37.5061 13.3146 37.5061 14.0924 36.7283L33.255 17.5657L33.255 35.3C33.255 36.4031 34.1601 37.3081 35.2632 37.3081C36.3663 37.3081 37.2714 36.4031 37.2714 35.3Z" fill="white"/>
</g>
<defs>
<clipPath id="clip0_4143_207">
<rect width="48" height="48" fill="white"/>
</clipPath>
</defs>
</svg>
