<svg xmlns="http://www.w3.org/2000/svg" width="24" height="24" viewBox="0 0 24 24" fill="none">
  <path fill-rule="evenodd" clip-rule="evenodd" d="M13.86 5.25C13.86 4.5 14.48 4 15.12 4C15.41 4 15.71 4.1 15.96 4.34L21.6 9.58C22.13 10.07 22.13 10.91 21.6 11.41L17 15.68L16 16.61L15.96 16.65C15.71 16.88 15.41 16.99 15.12 16.99C14.48 16.99 13.86 16.48 13.86 15.73V13.99H9C5.86 13.99 3.28 16.41 3.02 19.49C3.02 19.77 2.79 20 2.51 20C2.23 20 2 19.77 2 19.49V13.99C2 10.12 5.13 6.99 9 6.99H13.86V5.25ZM3 13.99V16.39C4.22 14.35 6.45 12.99 9 12.99H14.86V15.73C14.86 15.94 15.05 15.99 15.12 15.99C15.18 15.99 15.23 15.96 15.28 15.92L16 15.25L17 14.32L20.92 10.68C20.99 10.61 21 10.54 21 10.49C21 10.44 20.99 10.37 20.92 10.31L15.28 5.07C15.23 5.02 15.18 5 15.12 5C15.05 5 14.86 5.05 14.86 5.25V7.99H9C5.69 7.99 3 10.68 3 13.99Z" fill="#BCBCBC"/>
</svg>