<svg xmlns="http://www.w3.org/2000/svg" width="33" height="32" viewBox="0 0 33 32" fill="none">
  <path fill-rule="evenodd" clip-rule="evenodd" d="M21.169 16.668C21.169 19.2413 19.0757 21.3346 16.5024 21.3346C13.929 21.3346 11.8357 19.2413 11.8357 16.668V7.33464C11.8357 4.7613 13.929 2.66797 16.5024 2.66797C19.0757 2.66797 21.169 4.7613 21.169 7.33464V16.668ZM23.7157 11.3346V16.788L23.7291 16.7746C23.7291 20.5213 20.8491 23.6146 17.1824 23.948V23.988V27.9613H21.6624C22.0357 27.9613 22.3291 28.2546 22.3291 28.628C22.3291 29.0013 22.0357 29.2946 21.6624 29.2946H11.3691C10.9957 29.2946 10.7024 29.0013 10.7024 28.628C10.7024 28.2546 10.9957 27.9613 11.3691 27.9613H15.8491V23.988V23.9613C12.1691 23.628 9.28906 20.548 9.28906 16.788V11.3346C9.28906 10.9613 9.5824 10.668 9.95573 10.668C10.3291 10.668 10.6224 10.9613 10.6224 11.3346V16.788C10.6224 20.028 13.2624 22.668 16.5024 22.668C19.7424 22.668 22.3824 20.028 22.3824 16.788V11.3346C22.3824 10.9613 22.6757 10.668 23.0491 10.668C23.4224 10.668 23.7157 10.9613 23.7157 11.3346Z" fill="#121212"/>
</svg>