<svg width="98" height="98" viewBox="0 0 98 98" fill="none" xmlns="http://www.w3.org/2000/svg">
<g id="Group 2087325365">
<rect id="Rectangle 4252733" width="98" height="98" rx="24" fill="url(#paint0_radial_3920_3015)"/>
<g id="Group 2087325386">
<path id="Vector 22" d="M71.2863 36.3748C61.1357 38.7731 42.2673 49.0057 47.9995 70.7499C57.5531 69.1511 75.5855 60.0377 71.2863 36.3748Z" fill="url(#paint1_linear_3920_3015)"/>
<path id="Vector 23" d="M26.1237 36.3748C24.2814 59.8124 35.2184 65.2812 44.5937 69.9687C41.4687 61.3749 43.0312 56.6874 46.1556 49.4096C41.0245 41.1596 31.9807 37.355 26.1237 36.3748Z" fill="url(#paint2_linear_3920_3015)"/>
<path id="Vector 24" d="M61.7814 69.9692C71.1564 66.8442 74.5418 53.5629 75.0627 47.3129C78.1877 46.0629 83.6564 47.8338 86.0002 48.8754C84.1252 65.1255 69.0731 69.7088 61.7814 69.9692Z" fill="url(#paint3_linear_3920_3015)"/>
<path id="Vector 25" d="M35.2189 69.9692C25.8438 66.8442 22.4584 53.5629 21.9376 47.3129C18.8126 46.0629 13.3438 47.8338 11 48.8754C12.8751 65.1255 27.9272 69.7088 35.2189 69.9692Z" fill="url(#paint4_linear_3920_3015)"/>
<path id="Vector 26" d="M48.5001 26.9998C46.0001 28.8748 42.771 34.5519 41.4689 37.1561C43.8126 38.7186 46.9376 42.6249 48.5001 44.9686C50.0626 42.6249 53.1877 38.7186 55.5314 37.1561C53.9689 34.0311 50.5835 29.0832 48.5001 26.9998Z" fill="url(#paint5_linear_3920_3015)"/>
</g>
</g>
<defs>
<radialGradient id="paint0_radial_3920_3015" cx="0" cy="0" r="1" gradientUnits="userSpaceOnUse" gradientTransform="translate(49 42.2823) rotate(90) scale(132.379)">
<stop/>
<stop offset="1"/>
</radialGradient>
<linearGradient id="paint1_linear_3920_3015" x1="69.9795" y1="36.4148" x2="25.0001" y2="81.3942" gradientUnits="userSpaceOnUse">
<stop stop-color="#FF86E4"/>
<stop offset="1" stop-color="#7A4BFF" stop-opacity="0"/>
</linearGradient>
<linearGradient id="paint2_linear_3920_3015" x1="28.168" y1="36.4141" x2="66.4998" y2="74.7459" gradientUnits="userSpaceOnUse">
<stop stop-color="#FF86E4"/>
<stop offset="1" stop-color="#7A4BFF" stop-opacity="0"/>
</linearGradient>
<linearGradient id="paint3_linear_3920_3015" x1="82.1632" y1="46.9371" x2="51.1001" y2="78.0002" gradientUnits="userSpaceOnUse">
<stop stop-color="#FF86E4"/>
<stop offset="1" stop-color="#7A4BFF" stop-opacity="0"/>
</linearGradient>
<linearGradient id="paint4_linear_3920_3015" x1="16.8151" y1="46.9371" x2="42.5001" y2="76.5002" gradientUnits="userSpaceOnUse">
<stop stop-color="#FF86E4"/>
<stop offset="1" stop-color="#7A4BFF" stop-opacity="0"/>
</linearGradient>
<linearGradient id="paint5_linear_3920_3015" x1="48.5001" y1="26.9998" x2="48.5001" y2="59.4998" gradientUnits="userSpaceOnUse">
<stop stop-color="#FF86E4"/>
<stop offset="1" stop-color="#7A4BFF"/>
</linearGradient>
</defs>
</svg>
