<svg width="24" height="24" viewBox="0 0 24 24" fill="none" xmlns="http://www.w3.org/2000/svg">
<g id="upload">
<path id="Vector" fill-rule="evenodd" clip-rule="evenodd" d="M12 3C12.12 3 12.25 3.05 12.35 3.15L17.37 8.15C17.57 8.35 17.57 8.66 17.37 8.86C17.17 9.06 16.86 9.06 16.66 8.86L12.51 4.71V18C12.51 18.28 12.29 18.5 12.01 18.5C11.73 18.5 11.51 18.28 11.51 18V4.71L7.36 8.86C7.16 9.06 6.85 9.06 6.65 8.86C6.45 8.66 6.45 8.35 6.65 8.15L11.65 3.15C11.74 3.05 11.88 3 12 3ZM20 18.5C20 18.22 20.22 18 20.5 18C20.78 18 21 18.22 21 18.5V20.5C21 20.78 20.78 21 20.5 21H3.5C3.22 21 3 20.78 3 20.5V18.5C3 18.22 3.22 18 3.5 18C3.78 18 4 18.22 4 18.5V20H20V18.5Z" fill="#9F9CB4"/>
</g>
</svg>
