<svg xmlns="http://www.w3.org/2000/svg" width="32" height="32" viewBox="0 0 32 32" fill="none">
  <path fill-rule="evenodd" clip-rule="evenodd" d="M20.9333 10.6667C20.9333 13.244 18.844 15.3333 16.2667 15.3333C13.6893 15.3333 11.6 13.244 11.6 10.6667C11.6 8.08934 13.6893 6 16.2667 6C18.844 6 20.9333 8.08934 20.9333 10.6667ZM22.9333 10.6667C22.9333 14.3486 19.9486 17.3333 16.2667 17.3333C12.5848 17.3333 9.6 14.3486 9.6 10.6667C9.6 6.98477 12.5848 4 16.2667 4C19.9486 4 22.9333 6.98477 22.9333 10.6667ZM15.9992 21.6823C13.0392 21.6823 10.3677 22.3244 8.01173 23.6332C6.48498 24.3055 5.28556 25.2043 4.26351 26.3171C3.88992 26.7239 3.91681 27.3565 4.32357 27.73C4.73032 28.1036 5.36292 28.0767 5.7365 27.67C6.58981 26.7409 7.57645 26.0041 8.85617 25.4468L8.90192 25.4269L8.94545 25.4025C10.9785 24.2641 13.3207 23.6823 15.9992 23.6823C18.6777 23.6823 21.0198 24.2641 23.0529 25.4025L23.0768 25.4159L23.1015 25.428C24.2907 26.0106 25.431 26.7654 26.2618 27.67C26.6354 28.0767 27.268 28.1036 27.6748 27.73C28.0815 27.3565 28.1084 26.7239 27.7348 26.3171C26.6866 25.1759 25.3233 24.2921 24.006 23.644C21.6453 22.3279 18.9673 21.6823 15.9992 21.6823Z" fill="#C2C2C2"/>
</svg>