<svg width="98" height="98" viewBox="0 0 98 98" fill="none" xmlns="http://www.w3.org/2000/svg">
<g id="Group 2087325365">
<rect id="Rectangle 4252733" width="98" height="98" rx="24" fill="url(#paint0_radial_3640_1189)"/>
<g id="Group 2087325347">
<g id="1">
<g id="Union">
<path d="M22.5902 35.4754C22.5902 31.3245 25.6028 27.9397 29.3774 27.7713C29.2796 27.7669 29.1812 27.7647 29.0823 27.7647C25.1709 27.7647 22 31.2169 22 35.4754C22 39.734 25.1709 43.1862 29.0823 43.1862C29.1812 43.1862 29.2796 43.184 29.3774 43.1796C25.6028 43.0112 22.5902 39.6263 22.5902 35.4754Z" fill="url(#paint1_linear_3640_1189)"/>
<path d="M23.7706 35.4754C23.7706 31.3245 26.7832 27.9397 30.5578 27.7713C30.4599 27.7669 30.3616 27.7647 30.2627 27.7647C26.3513 27.7647 23.1804 31.2169 23.1804 35.4754C23.1804 39.734 26.3513 43.1862 30.2627 43.1862C30.3616 43.1862 30.4599 43.184 30.5578 43.1796C26.7832 43.0112 23.7706 39.6263 23.7706 35.4754Z" fill="url(#paint2_linear_3640_1189)"/>
<path d="M31.7382 27.7713C27.9636 27.9397 24.951 31.3245 24.951 35.4754C24.951 39.6263 27.9636 43.0112 31.7382 43.1796C31.6403 43.184 31.542 43.1862 31.4431 43.1862C27.5316 43.1862 24.3608 39.734 24.3608 35.4754C24.3608 31.2169 27.5316 27.7647 31.4431 27.7647C31.5419 27.7647 31.6403 27.7669 31.7382 27.7713Z" fill="url(#paint3_linear_3640_1189)"/>
<path d="M26.1314 35.4754C26.1314 31.3245 29.144 27.9397 32.9186 27.7713C32.8207 27.7669 32.7223 27.7647 32.6235 27.7647C28.712 27.7647 25.5412 31.2169 25.5412 35.4754C25.5412 39.734 28.712 43.1862 32.6235 43.1862C32.7223 43.1862 32.8207 43.184 32.9186 43.1796C29.144 43.0112 26.1314 39.6263 26.1314 35.4754Z" fill="url(#paint4_linear_3640_1189)"/>
<path d="M34.099 27.7713C30.3244 27.9397 27.3117 31.3245 27.3117 35.4754C27.3117 39.6263 30.3244 43.0112 34.099 43.1796C34.0011 43.184 33.9027 43.1862 33.8039 43.1862C29.8924 43.1862 26.7215 39.734 26.7215 35.4754C26.7215 31.2169 29.8924 27.7647 33.8039 27.7647C33.9027 27.7647 34.0011 27.7669 34.099 27.7713Z" fill="url(#paint5_linear_3640_1189)"/>
<path d="M28.4921 35.4754C28.4921 31.3245 31.5047 27.9397 35.2794 27.7713C35.1815 27.7669 35.0831 27.7647 34.9843 27.7647C31.0728 27.7647 27.9019 31.2169 27.9019 35.4754C27.9019 39.734 31.0728 43.1862 34.9843 43.1862C35.0831 43.1862 35.1815 43.184 35.2794 43.1796C31.5048 43.0112 28.4921 39.6263 28.4921 35.4754Z" fill="url(#paint6_linear_3640_1189)"/>
<path d="M36.4597 27.7713C32.6851 27.9397 29.6725 31.3245 29.6725 35.4754C29.6725 39.6263 32.6852 43.0112 36.4598 43.1796C36.3619 43.184 36.2635 43.1862 36.1646 43.1862C32.2532 43.1862 29.0823 39.734 29.0823 35.4754C29.0823 31.2169 32.2532 27.7647 36.1646 27.7647C36.2635 27.7647 36.3619 27.7669 36.4597 27.7713Z" fill="url(#paint7_linear_3640_1189)"/>
<path d="M30.8529 35.4754C30.8529 31.3245 33.8655 27.9397 37.6401 27.7713C37.5423 27.7669 37.4439 27.7647 37.345 27.7647C33.4336 27.7647 30.2627 31.2169 30.2627 35.4754C30.2627 39.734 33.4336 43.1862 37.345 43.1862C37.4439 43.1862 37.5423 43.184 37.6401 43.1796C33.8655 43.0112 30.8529 39.6263 30.8529 35.4754Z" fill="url(#paint8_linear_3640_1189)"/>
<path d="M38.8205 27.7713C35.0459 27.9397 32.0333 31.3245 32.0333 35.4754C32.0333 39.6263 35.0459 43.0112 38.8205 43.1796C38.7227 43.184 38.6243 43.1862 38.5254 43.1862C34.614 43.1862 31.4431 39.734 31.4431 35.4754C31.4431 31.2169 34.614 27.7647 38.5254 27.7647C38.6243 27.7647 38.7227 27.7669 38.8205 27.7713Z" fill="url(#paint9_linear_3640_1189)"/>
<path d="M33.2137 35.4754C33.2137 31.3245 36.2263 27.9397 40.0009 27.7713C39.903 27.7669 39.8047 27.7647 39.7058 27.7647C35.7943 27.7647 32.6235 31.2169 32.6235 35.4754C32.6235 39.734 35.7943 43.1862 39.7058 43.1862C39.8047 43.1862 39.903 43.184 40.0009 43.1796C36.2263 43.0112 33.2137 39.6263 33.2137 35.4754Z" fill="url(#paint10_linear_3640_1189)"/>
<path d="M41.1813 27.7713C37.4067 27.9397 34.3941 31.3245 34.3941 35.4754C34.3941 39.6263 37.4067 43.0112 41.1813 43.1796C41.0834 43.184 40.9851 43.1862 40.8862 43.1862C36.9747 43.1862 33.8039 39.734 33.8039 35.4754C33.8039 31.2169 36.9747 27.7647 40.8862 27.7647C40.985 27.7647 41.0834 27.7669 41.1813 27.7713Z" fill="url(#paint11_linear_3640_1189)"/>
<path d="M35.5745 35.4754C35.5745 31.3245 38.5871 27.9397 42.3617 27.7713C42.2638 27.7669 42.1654 27.7647 42.0666 27.7647C38.1551 27.7647 34.9843 31.2169 34.9843 35.4754C34.9843 39.734 38.1551 43.1862 42.0666 43.1862C42.1654 43.1862 42.2638 43.184 42.3617 43.1796C38.5871 43.0112 35.5745 39.6263 35.5745 35.4754Z" fill="url(#paint12_linear_3640_1189)"/>
</g>
<g id="Union_2">
<path d="M22.5902 64.5244C22.5902 60.3734 25.6028 56.9886 29.3774 56.8202C29.2796 56.8158 29.1812 56.8136 29.0823 56.8136C25.1709 56.8136 22 60.2658 22 64.5244C22 68.7829 25.1709 72.2351 29.0823 72.2351C29.1812 72.2351 29.2796 72.2329 29.3774 72.2285C25.6028 72.0601 22.5902 68.6753 22.5902 64.5244Z" fill="url(#paint13_linear_3640_1189)"/>
<path d="M23.7706 64.5244C23.7706 60.3734 26.7832 56.9886 30.5578 56.8202C30.4599 56.8158 30.3616 56.8136 30.2627 56.8136C26.3513 56.8136 23.1804 60.2658 23.1804 64.5244C23.1804 68.7829 26.3513 72.2351 30.2627 72.2351C30.3616 72.2351 30.4599 72.2329 30.5578 72.2285C26.7832 72.0601 23.7706 68.6753 23.7706 64.5244Z" fill="url(#paint14_linear_3640_1189)"/>
<path d="M31.7382 56.8202C27.9636 56.9886 24.951 60.3734 24.951 64.5244C24.951 68.6753 27.9636 72.0601 31.7382 72.2285C31.6403 72.2329 31.542 72.2351 31.4431 72.2351C27.5316 72.2351 24.3608 68.7829 24.3608 64.5244C24.3608 60.2658 27.5316 56.8136 31.4431 56.8136C31.5419 56.8136 31.6403 56.8158 31.7382 56.8202Z" fill="url(#paint15_linear_3640_1189)"/>
<path d="M26.1314 64.5244C26.1314 60.3734 29.144 56.9886 32.9186 56.8202C32.8207 56.8158 32.7223 56.8136 32.6235 56.8136C28.712 56.8136 25.5412 60.2658 25.5412 64.5244C25.5412 68.7829 28.712 72.2351 32.6235 72.2351C32.7223 72.2351 32.8207 72.2329 32.9186 72.2285C29.144 72.0601 26.1314 68.6753 26.1314 64.5244Z" fill="url(#paint16_linear_3640_1189)"/>
<path d="M34.099 56.8202C30.3244 56.9886 27.3117 60.3734 27.3117 64.5244C27.3117 68.6753 30.3244 72.0601 34.099 72.2285C34.0011 72.2329 33.9027 72.2351 33.8039 72.2351C29.8924 72.2351 26.7215 68.7829 26.7215 64.5244C26.7215 60.2658 29.8924 56.8136 33.8039 56.8136C33.9027 56.8136 34.0011 56.8158 34.099 56.8202Z" fill="url(#paint17_linear_3640_1189)"/>
<path d="M28.4921 64.5244C28.4921 60.3734 31.5047 56.9886 35.2794 56.8202C35.1815 56.8158 35.0831 56.8136 34.9843 56.8136C31.0728 56.8136 27.9019 60.2658 27.9019 64.5244C27.9019 68.7829 31.0728 72.2351 34.9843 72.2351C35.0831 72.2351 35.1815 72.2329 35.2794 72.2285C31.5048 72.0601 28.4921 68.6753 28.4921 64.5244Z" fill="url(#paint18_linear_3640_1189)"/>
<path d="M36.4597 56.8202C32.6851 56.9886 29.6725 60.3734 29.6725 64.5244C29.6725 68.6753 32.6852 72.0601 36.4598 72.2285C36.3619 72.2329 36.2635 72.2351 36.1646 72.2351C32.2532 72.2351 29.0823 68.7829 29.0823 64.5244C29.0823 60.2658 32.2532 56.8136 36.1646 56.8136C36.2635 56.8136 36.3619 56.8158 36.4597 56.8202Z" fill="url(#paint19_linear_3640_1189)"/>
<path d="M30.8529 64.5244C30.8529 60.3734 33.8655 56.9886 37.6401 56.8202C37.5423 56.8158 37.4439 56.8136 37.345 56.8136C33.4336 56.8136 30.2627 60.2658 30.2627 64.5244C30.2627 68.7829 33.4336 72.2351 37.345 72.2351C37.4439 72.2351 37.5423 72.2329 37.6401 72.2285C33.8655 72.0601 30.8529 68.6753 30.8529 64.5244Z" fill="url(#paint20_linear_3640_1189)"/>
<path d="M38.8205 56.8202C35.0459 56.9886 32.0333 60.3734 32.0333 64.5244C32.0333 68.6753 35.0459 72.0601 38.8205 72.2285C38.7227 72.2329 38.6243 72.2351 38.5254 72.2351C34.614 72.2351 31.4431 68.7829 31.4431 64.5244C31.4431 60.2658 34.614 56.8136 38.5254 56.8136C38.6243 56.8136 38.7227 56.8158 38.8205 56.8202Z" fill="url(#paint21_linear_3640_1189)"/>
<path d="M33.2137 64.5244C33.2137 60.3734 36.2263 56.9886 40.0009 56.8202C39.903 56.8158 39.8047 56.8136 39.7058 56.8136C35.7943 56.8136 32.6235 60.2658 32.6235 64.5244C32.6235 68.7829 35.7943 72.2351 39.7058 72.2351C39.8047 72.2351 39.903 72.2329 40.0009 72.2285C36.2263 72.0601 33.2137 68.6753 33.2137 64.5244Z" fill="url(#paint22_linear_3640_1189)"/>
<path d="M41.1813 56.8202C37.4067 56.9886 34.3941 60.3734 34.3941 64.5244C34.3941 68.6753 37.4067 72.0601 41.1813 72.2285C41.0834 72.2329 40.9851 72.2351 40.8862 72.2351C36.9747 72.2351 33.8039 68.7829 33.8039 64.5244C33.8039 60.2658 36.9747 56.8136 40.8862 56.8136C40.985 56.8136 41.0834 56.8158 41.1813 56.8202Z" fill="url(#paint23_linear_3640_1189)"/>
<path d="M35.5745 64.5244C35.5745 60.3734 38.5871 56.9886 42.3617 56.8202C42.2638 56.8158 42.1654 56.8136 42.0666 56.8136C38.1551 56.8136 34.9843 60.2658 34.9843 64.5244C34.9843 68.7829 38.1551 72.2351 42.0666 72.2351C42.1654 72.2351 42.2638 72.2329 42.3617 72.2285C38.5871 72.0601 35.5745 68.6753 35.5745 64.5244Z" fill="url(#paint24_linear_3640_1189)"/>
</g>
<g id="Union_3">
<path d="M43.6364 50.2547C43.6364 46.1038 40.5795 42.719 36.7494 42.5505C36.8487 42.5462 36.9485 42.544 37.0488 42.544C41.0178 42.544 44.2353 45.9962 44.2353 50.2547C44.2353 54.5133 41.0178 57.9655 37.0488 57.9655C36.9485 57.9655 36.8487 57.9633 36.7494 57.9589C40.5795 57.7905 43.6364 54.4056 43.6364 50.2547Z" fill="url(#paint25_linear_3640_1189)"/>
<path d="M42.4387 50.2547C42.4387 46.1038 39.3817 42.719 35.5516 42.5505C35.6509 42.5462 35.7508 42.544 35.8511 42.544C39.82 42.544 43.0375 45.9962 43.0375 50.2547C43.0375 54.5133 39.82 57.9655 35.8511 57.9655C35.7508 57.9655 35.6509 57.9633 35.5516 57.9589C39.3817 57.7905 42.4387 54.4056 42.4387 50.2547Z" fill="url(#paint26_linear_3640_1189)"/>
<path d="M34.3539 42.5505C38.184 42.719 41.2409 46.1038 41.2409 50.2547C41.2409 54.4056 38.184 57.7905 34.3539 57.9589C34.4532 57.9633 34.553 57.9655 34.6533 57.9655C38.6223 57.9655 41.8398 54.5133 41.8398 50.2547C41.8398 45.9962 38.6223 42.544 34.6533 42.544C34.553 42.544 34.4532 42.5462 34.3539 42.5505Z" fill="url(#paint27_linear_3640_1189)"/>
<path d="M40.0432 50.2547C40.0432 46.1038 36.9863 42.719 33.1561 42.5505C33.2554 42.5462 33.3553 42.544 33.4556 42.544C37.4246 42.544 40.6421 45.9962 40.6421 50.2547C40.6421 54.5133 37.4246 57.9655 33.4556 57.9655C33.3553 57.9655 33.2554 57.9633 33.1561 57.9589C36.9862 57.7905 40.0432 54.4056 40.0432 50.2547Z" fill="url(#paint28_linear_3640_1189)"/>
<path d="M31.9584 42.5505C35.7885 42.719 38.8454 46.1038 38.8454 50.2547C38.8454 54.4056 35.7885 57.7905 31.9584 57.9589C32.0577 57.9633 32.1575 57.9655 32.2578 57.9655C36.2268 57.9655 39.4443 54.5133 39.4443 50.2547C39.4443 45.9962 36.2268 42.544 32.2578 42.544C32.1575 42.544 32.0577 42.5462 31.9584 42.5505Z" fill="url(#paint29_linear_3640_1189)"/>
<path d="M37.6477 50.2547C37.6477 46.1038 34.5908 42.719 30.7606 42.5505C30.8599 42.5462 30.9598 42.544 31.0601 42.544C35.0291 42.544 38.2466 45.9962 38.2466 50.2547C38.2466 54.5133 35.0291 57.9655 31.0601 57.9655C30.9598 57.9655 30.8599 57.9633 30.7606 57.9589C34.5907 57.7905 37.6477 54.4056 37.6477 50.2547Z" fill="url(#paint30_linear_3640_1189)"/>
<path d="M29.5629 42.5505C33.393 42.719 36.4499 46.1038 36.4499 50.2547C36.4499 54.4056 33.393 57.7905 29.5629 57.9589C29.6622 57.9633 29.762 57.9655 29.8623 57.9655C33.8313 57.9655 37.0488 54.5133 37.0488 50.2547C37.0488 45.9962 33.8313 42.544 29.8623 42.544C29.762 42.544 29.6622 42.5462 29.5629 42.5505Z" fill="url(#paint31_linear_3640_1189)"/>
<path d="M35.2522 50.2547C35.2522 46.1038 32.1953 42.719 28.3651 42.5505C28.4645 42.5462 28.5643 42.544 28.6646 42.544C32.6336 42.544 35.8511 45.9962 35.8511 50.2547C35.8511 54.5133 32.6336 57.9655 28.6646 57.9655C28.5643 57.9655 28.4644 57.9633 28.3651 57.9589C32.1952 57.7905 35.2522 54.4056 35.2522 50.2547Z" fill="url(#paint32_linear_3640_1189)"/>
<path d="M27.1674 42.5505C30.9975 42.719 34.0544 46.1038 34.0544 50.2547C34.0544 54.4056 30.9975 57.7905 27.1674 57.9589C27.2667 57.9633 27.3665 57.9655 27.4668 57.9655C31.4358 57.9655 34.6533 54.5133 34.6533 50.2547C34.6533 45.9962 31.4358 42.544 27.4668 42.544C27.3665 42.544 27.2667 42.5462 27.1674 42.5505Z" fill="url(#paint33_linear_3640_1189)"/>
<path d="M32.8567 50.2547C32.8567 46.1038 29.7998 42.719 25.9697 42.5505C26.069 42.5462 26.1688 42.544 26.2691 42.544C30.2381 42.544 33.4556 45.9962 33.4556 50.2547C33.4556 54.5133 30.2381 57.9655 26.2691 57.9655C26.1688 57.9655 26.069 57.9633 25.9696 57.9589C29.7998 57.7905 32.8567 54.4056 32.8567 50.2547Z" fill="url(#paint34_linear_3640_1189)"/>
<path d="M24.7719 42.5505C28.602 42.719 31.659 46.1038 31.659 50.2547C31.659 54.4056 28.602 57.7905 24.7719 57.9589C24.8712 57.9633 24.971 57.9655 25.0713 57.9655C29.0403 57.9655 32.2578 54.5133 32.2578 50.2547C32.2578 45.9962 29.0403 42.544 25.0713 42.544C24.971 42.544 24.8712 42.5462 24.7719 42.5505Z" fill="url(#paint35_linear_3640_1189)"/>
<path d="M30.4612 50.2547C30.4612 46.1038 27.4043 42.719 23.5742 42.5505C23.6735 42.5462 23.7733 42.544 23.8736 42.544C27.8426 42.544 31.0601 45.9962 31.0601 50.2547C31.0601 54.5133 27.8426 57.9655 23.8736 57.9655C23.7733 57.9655 23.6735 57.9633 23.5742 57.9589C27.4043 57.7905 30.4612 54.4056 30.4612 50.2547Z" fill="url(#paint36_linear_3640_1189)"/>
</g>
</g>
<g id="2">
<g id="Union_4">
<path d="M38.4725 35.4755C38.4725 31.3246 41.4851 27.9397 45.2597 27.7713C45.1619 27.7669 45.0635 27.7647 44.9646 27.7647C41.0532 27.7647 37.8823 31.2169 37.8823 35.4755C37.8823 39.734 41.0532 43.1862 44.9646 43.1862C45.0635 43.1862 45.1619 43.184 45.2598 43.1797C41.4852 43.0112 38.4725 39.6264 38.4725 35.4755Z" fill="url(#paint37_linear_3640_1189)"/>
<path d="M39.6529 35.4755C39.6529 31.3246 42.6655 27.9397 46.4401 27.7713C46.3423 27.7669 46.2439 27.7647 46.145 27.7647C42.2336 27.7647 39.0627 31.2169 39.0627 35.4755C39.0627 39.734 42.2336 43.1862 46.145 43.1862C46.2439 43.1862 46.3423 43.184 46.4401 43.1797C42.6655 43.0112 39.6529 39.6264 39.6529 35.4755Z" fill="url(#paint38_linear_3640_1189)"/>
<path d="M47.6205 27.7713C43.8459 27.9397 40.8333 31.3246 40.8333 35.4755C40.8333 39.6264 43.8459 43.0112 47.6205 43.1797C47.5227 43.184 47.4243 43.1862 47.3254 43.1862C43.414 43.1862 40.2431 39.734 40.2431 35.4755C40.2431 31.2169 43.414 27.7647 47.3254 27.7647C47.4243 27.7647 47.5227 27.7669 47.6205 27.7713Z" fill="url(#paint39_linear_3640_1189)"/>
<path d="M42.0137 35.4755C42.0137 31.3246 45.0263 27.9397 48.8009 27.7713C48.703 27.7669 48.6047 27.7647 48.5058 27.7647C44.5944 27.7647 41.4235 31.2169 41.4235 35.4755C41.4235 39.734 44.5944 43.1862 48.5058 43.1862C48.6047 43.1862 48.703 43.184 48.8009 43.1797C45.0263 43.0112 42.0137 39.6264 42.0137 35.4755Z" fill="url(#paint40_linear_3640_1189)"/>
<path d="M49.9813 27.7713C46.2067 27.9397 43.1941 31.3246 43.1941 35.4755C43.1941 39.6264 46.2067 43.0112 49.9813 43.1797C49.8834 43.184 49.7851 43.1862 49.6862 43.1862C45.7747 43.1862 42.6039 39.734 42.6039 35.4755C42.6039 31.2169 45.7747 27.7647 49.6862 27.7647C49.785 27.7647 49.8834 27.7669 49.9813 27.7713Z" fill="url(#paint41_linear_3640_1189)"/>
<path d="M44.3745 35.4755C44.3745 31.3246 47.3871 27.9397 51.1617 27.7713C51.0638 27.7669 50.9654 27.7647 50.8666 27.7647C46.9551 27.7647 43.7843 31.2169 43.7843 35.4755C43.7843 39.734 46.9551 43.1862 50.8666 43.1862C50.9654 43.1862 51.0638 43.184 51.1617 43.1797C47.3871 43.0112 44.3745 39.6264 44.3745 35.4755Z" fill="url(#paint42_linear_3640_1189)"/>
<path d="M52.3421 27.7713C48.5675 27.9397 45.5548 31.3246 45.5548 35.4755C45.5548 39.6264 48.5675 43.0112 52.3421 43.1797C52.2442 43.184 52.1458 43.1862 52.047 43.1862C48.1355 43.1862 44.9646 39.734 44.9646 35.4755C44.9646 31.2169 48.1355 27.7647 52.047 27.7647C52.1458 27.7647 52.2442 27.7669 52.3421 27.7713Z" fill="url(#paint43_linear_3640_1189)"/>
<path d="M46.7352 35.4755C46.7352 31.3246 49.7478 27.9397 53.5225 27.7713C53.4246 27.7669 53.3262 27.7647 53.2274 27.7647C49.3159 27.7647 46.145 31.2169 46.145 35.4755C46.145 39.734 49.3159 43.1862 53.2274 43.1862C53.3262 43.1862 53.4246 43.184 53.5225 43.1797C49.7479 43.0112 46.7352 39.6264 46.7352 35.4755Z" fill="url(#paint44_linear_3640_1189)"/>
<path d="M54.7028 27.7713C50.9282 27.9397 47.9156 31.3246 47.9156 35.4755C47.9156 39.6264 50.9283 43.0112 54.7029 43.1797C54.605 43.184 54.5066 43.1862 54.4077 43.1862C50.4963 43.1862 47.3254 39.734 47.3254 35.4755C47.3254 31.2169 50.4963 27.7647 54.4077 27.7647C54.5066 27.7647 54.605 27.7669 54.7028 27.7713Z" fill="url(#paint45_linear_3640_1189)"/>
<path d="M49.096 35.4755C49.096 31.3246 52.1086 27.9397 55.8832 27.7713C55.7854 27.7669 55.687 27.7647 55.5881 27.7647C51.6767 27.7647 48.5058 31.2169 48.5058 35.4755C48.5058 39.734 51.6767 43.1862 55.5881 43.1862C55.687 43.1862 55.7854 43.184 55.8832 43.1797C52.1086 43.0112 49.096 39.6264 49.096 35.4755Z" fill="url(#paint46_linear_3640_1189)"/>
<path d="M57.0636 27.7713C53.289 27.9397 50.2764 31.3246 50.2764 35.4755C50.2764 39.6264 53.289 43.0112 57.0636 43.1797C56.9658 43.184 56.8674 43.1862 56.7685 43.1862C52.8571 43.1862 49.6862 39.734 49.6862 35.4755C49.6862 31.2169 52.8571 27.7647 56.7685 27.7647C56.8674 27.7647 56.9657 27.7669 57.0636 27.7713Z" fill="url(#paint47_linear_3640_1189)"/>
<path d="M51.4568 35.4755C51.4568 31.3246 54.4694 27.9397 58.244 27.7713C58.1461 27.7669 58.0478 27.7647 57.9489 27.7647C54.0374 27.7647 50.8666 31.2169 50.8666 35.4755C50.8666 39.734 54.0374 43.1862 57.9489 43.1862C58.0478 43.1862 58.1461 43.184 58.244 43.1797C54.4694 43.0112 51.4568 39.6264 51.4568 35.4755Z" fill="url(#paint48_linear_3640_1189)"/>
</g>
<g id="Union_5">
<path d="M38.4725 64.5244C38.4725 60.3735 41.4851 56.9886 45.2597 56.8202C45.1619 56.8158 45.0635 56.8136 44.9646 56.8136C41.0532 56.8136 37.8823 60.2659 37.8823 64.5244C37.8823 68.7829 41.0532 72.2351 44.9646 72.2351C45.0635 72.2351 45.1619 72.2329 45.2598 72.2286C41.4852 72.0601 38.4725 68.6753 38.4725 64.5244Z" fill="url(#paint49_linear_3640_1189)"/>
<path d="M39.6529 64.5244C39.6529 60.3735 42.6655 56.9886 46.4401 56.8202C46.3423 56.8158 46.2439 56.8136 46.145 56.8136C42.2336 56.8136 39.0627 60.2659 39.0627 64.5244C39.0627 68.7829 42.2336 72.2351 46.145 72.2351C46.2439 72.2351 46.3423 72.2329 46.4401 72.2286C42.6655 72.0601 39.6529 68.6753 39.6529 64.5244Z" fill="url(#paint50_linear_3640_1189)"/>
<path d="M47.6205 56.8202C43.8459 56.9886 40.8333 60.3735 40.8333 64.5244C40.8333 68.6753 43.8459 72.0601 47.6205 72.2286C47.5227 72.2329 47.4243 72.2351 47.3254 72.2351C43.414 72.2351 40.2431 68.7829 40.2431 64.5244C40.2431 60.2659 43.414 56.8136 47.3254 56.8136C47.4243 56.8136 47.5227 56.8158 47.6205 56.8202Z" fill="url(#paint51_linear_3640_1189)"/>
<path d="M42.0137 64.5244C42.0137 60.3735 45.0263 56.9886 48.8009 56.8202C48.703 56.8158 48.6047 56.8136 48.5058 56.8136C44.5944 56.8136 41.4235 60.2659 41.4235 64.5244C41.4235 68.7829 44.5944 72.2351 48.5058 72.2351C48.6047 72.2351 48.703 72.2329 48.8009 72.2286C45.0263 72.0601 42.0137 68.6753 42.0137 64.5244Z" fill="url(#paint52_linear_3640_1189)"/>
<path d="M49.9813 56.8202C46.2067 56.9886 43.1941 60.3735 43.1941 64.5244C43.1941 68.6753 46.2067 72.0601 49.9813 72.2286C49.8834 72.2329 49.7851 72.2351 49.6862 72.2351C45.7747 72.2351 42.6039 68.7829 42.6039 64.5244C42.6039 60.2659 45.7747 56.8136 49.6862 56.8136C49.785 56.8136 49.8834 56.8158 49.9813 56.8202Z" fill="url(#paint53_linear_3640_1189)"/>
<path d="M44.3745 64.5244C44.3745 60.3735 47.3871 56.9886 51.1617 56.8202C51.0638 56.8158 50.9654 56.8136 50.8666 56.8136C46.9551 56.8136 43.7843 60.2659 43.7843 64.5244C43.7843 68.7829 46.9551 72.2351 50.8666 72.2351C50.9654 72.2351 51.0638 72.2329 51.1617 72.2286C47.3871 72.0601 44.3745 68.6753 44.3745 64.5244Z" fill="url(#paint54_linear_3640_1189)"/>
<path d="M52.3421 56.8202C48.5675 56.9886 45.5548 60.3735 45.5548 64.5244C45.5548 68.6753 48.5675 72.0601 52.3421 72.2286C52.2442 72.2329 52.1458 72.2351 52.047 72.2351C48.1355 72.2351 44.9646 68.7829 44.9646 64.5244C44.9646 60.2659 48.1355 56.8136 52.047 56.8136C52.1458 56.8136 52.2442 56.8158 52.3421 56.8202Z" fill="url(#paint55_linear_3640_1189)"/>
<path d="M46.7352 64.5244C46.7352 60.3735 49.7478 56.9886 53.5225 56.8202C53.4246 56.8158 53.3262 56.8136 53.2274 56.8136C49.3159 56.8136 46.145 60.2659 46.145 64.5244C46.145 68.7829 49.3159 72.2351 53.2274 72.2351C53.3262 72.2351 53.4246 72.2329 53.5225 72.2286C49.7479 72.0601 46.7352 68.6753 46.7352 64.5244Z" fill="url(#paint56_linear_3640_1189)"/>
<path d="M54.7028 56.8202C50.9282 56.9886 47.9156 60.3735 47.9156 64.5244C47.9156 68.6753 50.9283 72.0601 54.7029 72.2286C54.605 72.2329 54.5066 72.2351 54.4077 72.2351C50.4963 72.2351 47.3254 68.7829 47.3254 64.5244C47.3254 60.2659 50.4963 56.8136 54.4077 56.8136C54.5066 56.8136 54.605 56.8158 54.7028 56.8202Z" fill="url(#paint57_linear_3640_1189)"/>
<path d="M49.096 64.5244C49.096 60.3735 52.1086 56.9886 55.8832 56.8202C55.7854 56.8158 55.687 56.8136 55.5881 56.8136C51.6767 56.8136 48.5058 60.2659 48.5058 64.5244C48.5058 68.7829 51.6767 72.2351 55.5881 72.2351C55.687 72.2351 55.7854 72.2329 55.8832 72.2286C52.1086 72.0601 49.096 68.6753 49.096 64.5244Z" fill="url(#paint58_linear_3640_1189)"/>
<path d="M57.0636 56.8202C53.289 56.9886 50.2764 60.3735 50.2764 64.5244C50.2764 68.6753 53.289 72.0601 57.0636 72.2286C56.9658 72.2329 56.8674 72.2351 56.7685 72.2351C52.8571 72.2351 49.6862 68.7829 49.6862 64.5244C49.6862 60.2659 52.8571 56.8136 56.7685 56.8136C56.8674 56.8136 56.9657 56.8158 57.0636 56.8202Z" fill="url(#paint59_linear_3640_1189)"/>
<path d="M51.4568 64.5244C51.4568 60.3735 54.4694 56.9886 58.244 56.8202C58.1461 56.8158 58.0478 56.8136 57.9489 56.8136C54.0374 56.8136 50.8666 60.2659 50.8666 64.5244C50.8666 68.7829 54.0374 72.2351 57.9489 72.2351C58.0478 72.2351 58.1461 72.2329 58.244 72.2286C54.4694 72.0601 51.4568 68.6753 51.4568 64.5244Z" fill="url(#paint60_linear_3640_1189)"/>
</g>
<g id="Union_6">
<path d="M59.5188 50.2548C59.5188 46.1039 56.4619 42.719 52.6318 42.5506C52.7311 42.5462 52.8309 42.544 52.9312 42.544C56.9002 42.544 60.1177 45.9962 60.1177 50.2548C60.1177 54.5133 56.9002 57.9655 52.9312 57.9655C52.8309 57.9655 52.7311 57.9633 52.6317 57.9589C56.4619 57.7905 59.5188 54.4057 59.5188 50.2548Z" fill="url(#paint61_linear_3640_1189)"/>
<path d="M58.3211 50.2548C58.3211 46.1039 55.2641 42.719 51.434 42.5506C51.5333 42.5462 51.6331 42.544 51.7334 42.544C55.7024 42.544 58.9199 45.9962 58.9199 50.2548C58.9199 54.5133 55.7024 57.9655 51.7334 57.9655C51.6331 57.9655 51.5333 57.9633 51.434 57.9589C55.2641 57.7905 58.3211 54.4057 58.3211 50.2548Z" fill="url(#paint62_linear_3640_1189)"/>
<path d="M50.2363 42.5506C54.0664 42.719 57.1233 46.1039 57.1233 50.2548C57.1233 54.4057 54.0664 57.7905 50.2363 57.9589C50.3356 57.9633 50.4354 57.9655 50.5357 57.9655C54.5047 57.9655 57.7222 54.5133 57.7222 50.2548C57.7222 45.9962 54.5047 42.544 50.5357 42.544C50.4354 42.544 50.3356 42.5462 50.2363 42.5506Z" fill="url(#paint63_linear_3640_1189)"/>
<path d="M55.9256 50.2548C55.9256 46.1039 52.8686 42.719 49.0385 42.5506C49.1378 42.5462 49.2377 42.544 49.338 42.544C53.3069 42.544 56.5244 45.9962 56.5244 50.2548C56.5244 54.5133 53.3069 57.9655 49.338 57.9655C49.2376 57.9655 49.1378 57.9633 49.0385 57.9589C52.8686 57.7905 55.9256 54.4057 55.9256 50.2548Z" fill="url(#paint64_linear_3640_1189)"/>
<path d="M47.8408 42.5506C51.6709 42.719 54.7278 46.1039 54.7278 50.2548C54.7278 54.4057 51.6709 57.7905 47.8408 57.9589C47.9401 57.9633 48.0399 57.9655 48.1402 57.9655C52.1092 57.9655 55.3267 54.5133 55.3267 50.2548C55.3267 45.9962 52.1092 42.544 48.1402 42.544C48.0399 42.544 47.9401 42.5462 47.8408 42.5506Z" fill="url(#paint65_linear_3640_1189)"/>
<path d="M53.5301 50.2548C53.5301 46.1039 50.4731 42.719 46.643 42.5506C46.7423 42.5462 46.8422 42.544 46.9425 42.544C50.9114 42.544 54.1289 45.9962 54.1289 50.2548C54.1289 54.5133 50.9114 57.9655 46.9425 57.9655C46.8422 57.9655 46.7423 57.9633 46.643 57.9589C50.4731 57.7905 53.5301 54.4057 53.5301 50.2548Z" fill="url(#paint66_linear_3640_1189)"/>
<path d="M45.4453 42.5506C49.2754 42.719 52.3323 46.1039 52.3323 50.2548C52.3323 54.4057 49.2754 57.7905 45.4453 57.9589C45.5446 57.9633 45.6444 57.9655 45.7447 57.9655C49.7137 57.9655 52.9312 54.5133 52.9312 50.2548C52.9312 45.9962 49.7137 42.544 45.7447 42.544C45.6444 42.544 45.5446 42.5462 45.4453 42.5506Z" fill="url(#paint67_linear_3640_1189)"/>
<path d="M51.1346 50.2548C51.1346 46.1039 48.0777 42.719 44.2475 42.5506C44.3468 42.5462 44.4467 42.544 44.547 42.544C48.516 42.544 51.7334 45.9962 51.7334 50.2548C51.7334 54.5133 48.516 57.9655 44.547 57.9655C44.4467 57.9655 44.3468 57.9633 44.2475 57.9589C48.0776 57.7905 51.1346 54.4057 51.1346 50.2548Z" fill="url(#paint68_linear_3640_1189)"/>
<path d="M43.0498 42.5506C46.8799 42.719 49.9368 46.1039 49.9368 50.2548C49.9368 54.4057 46.8799 57.7905 43.0498 57.9589C43.1491 57.9633 43.2489 57.9655 43.3492 57.9655C47.3182 57.9655 50.5357 54.5133 50.5357 50.2548C50.5357 45.9962 47.3182 42.544 43.3492 42.544C43.2489 42.544 43.1491 42.5462 43.0498 42.5506Z" fill="url(#paint69_linear_3640_1189)"/>
<path d="M48.7391 50.2548C48.7391 46.1039 45.6822 42.719 41.852 42.5506C41.9513 42.5462 42.0512 42.544 42.1515 42.544C46.1205 42.544 49.338 45.9962 49.338 50.2548C49.338 54.5133 46.1205 57.9655 42.1515 57.9655C42.0512 57.9655 41.9513 57.9633 41.852 57.9589C45.6821 57.7905 48.7391 54.4057 48.7391 50.2548Z" fill="url(#paint70_linear_3640_1189)"/>
<path d="M40.6543 42.5506C44.4844 42.719 47.5413 46.1039 47.5413 50.2548C47.5413 54.4057 44.4844 57.7905 40.6543 57.9589C40.7536 57.9633 40.8534 57.9655 40.9537 57.9655C44.9227 57.9655 48.1402 54.5133 48.1402 50.2548C48.1402 45.9962 44.9227 42.544 40.9537 42.544C40.8534 42.544 40.7536 42.5462 40.6543 42.5506Z" fill="url(#paint71_linear_3640_1189)"/>
<path d="M46.3436 50.2548C46.3436 46.1039 43.2867 42.719 39.4565 42.5506C39.5559 42.5462 39.6557 42.544 39.756 42.544C43.725 42.544 46.9425 45.9962 46.9425 50.2548C46.9425 54.5133 43.725 57.9655 39.756 57.9655C39.6557 57.9655 39.5558 57.9633 39.4565 57.9589C43.2866 57.7905 46.3436 54.4057 46.3436 50.2548Z" fill="url(#paint72_linear_3640_1189)"/>
</g>
</g>
<g id="3">
<g id="Union_7">
<path d="M54.3549 35.4755C54.3549 31.3246 57.3675 27.9397 61.1421 27.7713C61.0443 27.7669 60.9459 27.7647 60.847 27.7647C56.9356 27.7647 53.7647 31.2169 53.7647 35.4755C53.7647 39.734 56.9356 43.1862 60.847 43.1862C60.9459 43.1862 61.0443 43.184 61.1421 43.1797C57.3675 43.0112 54.3549 39.6264 54.3549 35.4755Z" fill="url(#paint73_linear_3640_1189)"/>
<path d="M55.5353 35.4755C55.5353 31.3246 58.5479 27.9397 62.3225 27.7713C62.2247 27.7669 62.1263 27.7647 62.0274 27.7647C58.116 27.7647 54.9451 31.2169 54.9451 35.4755C54.9451 39.734 58.116 43.1862 62.0274 43.1862C62.1263 43.1862 62.2247 43.184 62.3225 43.1797C58.5479 43.0112 55.5353 39.6264 55.5353 35.4755Z" fill="url(#paint74_linear_3640_1189)"/>
<path d="M63.5029 27.7713C59.7283 27.9397 56.7157 31.3246 56.7157 35.4755C56.7157 39.6264 59.7283 43.0112 63.5029 43.1797C63.405 43.184 63.3067 43.1862 63.2078 43.1862C59.2963 43.1862 56.1255 39.734 56.1255 35.4755C56.1255 31.2169 59.2963 27.7647 63.2078 27.7647C63.3067 27.7647 63.405 27.7669 63.5029 27.7713Z" fill="url(#paint75_linear_3640_1189)"/>
<path d="M57.8961 35.4755C57.8961 31.3246 60.9087 27.9397 64.6833 27.7713C64.5854 27.7669 64.487 27.7647 64.3882 27.7647C60.4767 27.7647 57.3059 31.2169 57.3059 35.4755C57.3059 39.734 60.4767 43.1862 64.3882 43.1862C64.4871 43.1862 64.5854 43.184 64.6833 43.1797C60.9087 43.0112 57.8961 39.6264 57.8961 35.4755Z" fill="url(#paint76_linear_3640_1189)"/>
<path d="M65.8637 27.7713C62.0891 27.9397 59.0765 31.3246 59.0765 35.4755C59.0765 39.6264 62.0891 43.0112 65.8637 43.1797C65.7658 43.184 65.6674 43.1862 65.5686 43.1862C61.6571 43.1862 58.4863 39.734 58.4863 35.4755C58.4863 31.2169 61.6571 27.7647 65.5686 27.7647C65.6674 27.7647 65.7658 27.7669 65.8637 27.7713Z" fill="url(#paint77_linear_3640_1189)"/>
<path d="M60.2568 35.4755C60.2568 31.3246 63.2695 27.9397 67.0441 27.7713C66.9462 27.7669 66.8478 27.7647 66.749 27.7647C62.8375 27.7647 59.6666 31.2169 59.6666 35.4755C59.6666 39.734 62.8375 43.1862 66.749 43.1862C66.8478 43.1862 66.9462 43.184 67.0441 43.1797C63.2695 43.0112 60.2568 39.6264 60.2568 35.4755Z" fill="url(#paint78_linear_3640_1189)"/>
<path d="M68.2245 27.7713C64.4498 27.9397 61.4372 31.3246 61.4372 35.4755C61.4372 39.6264 64.4499 43.0112 68.2245 43.1797C68.1266 43.184 68.0282 43.1862 67.9294 43.1862C64.0179 43.1862 60.847 39.734 60.847 35.4755C60.847 31.2169 64.0179 27.7647 67.9294 27.7647C68.0282 27.7647 68.1266 27.7669 68.2245 27.7713Z" fill="url(#paint79_linear_3640_1189)"/>
<path d="M62.6176 35.4755C62.6176 31.3246 65.6302 27.9397 69.4048 27.7713C69.307 27.7669 69.2086 27.7647 69.1097 27.7647C65.1983 27.7647 62.0274 31.2169 62.0274 35.4755C62.0274 39.734 65.1983 43.1862 69.1097 43.1862C69.2086 43.1862 69.307 43.184 69.4049 43.1797C65.6302 43.0112 62.6176 39.6264 62.6176 35.4755Z" fill="url(#paint80_linear_3640_1189)"/>
<path d="M70.5852 27.7713C66.8106 27.9397 63.798 31.3246 63.798 35.4755C63.798 39.6264 66.8106 43.0112 70.5852 43.1797C70.4874 43.184 70.389 43.1862 70.2901 43.1862C66.3787 43.1862 63.2078 39.734 63.2078 35.4755C63.2078 31.2169 66.3787 27.7647 70.2901 27.7647C70.389 27.7647 70.4874 27.7669 70.5852 27.7713Z" fill="url(#paint81_linear_3640_1189)"/>
<path d="M64.9784 35.4755C64.9784 31.3246 67.991 27.9397 71.7656 27.7713C71.6677 27.7669 71.5694 27.7647 71.4705 27.7647C67.5591 27.7647 64.3882 31.2169 64.3882 35.4755C64.3882 39.734 67.5591 43.1862 71.4705 43.1862C71.5694 43.1862 71.6678 43.184 71.7656 43.1797C67.991 43.0112 64.9784 39.6264 64.9784 35.4755Z" fill="url(#paint82_linear_3640_1189)"/>
<path d="M72.946 27.7713C69.1714 27.9397 66.1588 31.3246 66.1588 35.4755C66.1588 39.6264 69.1714 43.0112 72.946 43.1797C72.8481 43.184 72.7498 43.1862 72.6509 43.1862C68.7394 43.1862 65.5686 39.734 65.5686 35.4755C65.5686 31.2169 68.7394 27.7647 72.6509 27.7647C72.7498 27.7647 72.8481 27.7669 72.946 27.7713Z" fill="url(#paint83_linear_3640_1189)"/>
<path d="M67.3392 35.4755C67.3392 31.3246 70.3518 27.9397 74.1264 27.7713C74.0285 27.7669 73.9301 27.7647 73.8313 27.7647C69.9198 27.7647 66.749 31.2169 66.749 35.4755C66.749 39.734 69.9198 43.1862 73.8313 43.1862C73.9301 43.1862 74.0285 43.184 74.1264 43.1797C70.3518 43.0112 67.3392 39.6264 67.3392 35.4755Z" fill="url(#paint84_linear_3640_1189)"/>
</g>
<g id="Union_8">
<path d="M54.3549 64.5244C54.3549 60.3735 57.3675 56.9886 61.1421 56.8202C61.0443 56.8158 60.9459 56.8136 60.847 56.8136C56.9356 56.8136 53.7647 60.2659 53.7647 64.5244C53.7647 68.7829 56.9356 72.2351 60.847 72.2351C60.9459 72.2351 61.0443 72.2329 61.1421 72.2286C57.3675 72.0601 54.3549 68.6753 54.3549 64.5244Z" fill="url(#paint85_linear_3640_1189)"/>
<path d="M55.5353 64.5244C55.5353 60.3735 58.5479 56.9886 62.3225 56.8202C62.2247 56.8158 62.1263 56.8136 62.0274 56.8136C58.116 56.8136 54.9451 60.2659 54.9451 64.5244C54.9451 68.7829 58.116 72.2351 62.0274 72.2351C62.1263 72.2351 62.2247 72.2329 62.3225 72.2286C58.5479 72.0601 55.5353 68.6753 55.5353 64.5244Z" fill="url(#paint86_linear_3640_1189)"/>
<path d="M63.5029 56.8202C59.7283 56.9886 56.7157 60.3735 56.7157 64.5244C56.7157 68.6753 59.7283 72.0601 63.5029 72.2286C63.405 72.2329 63.3067 72.2351 63.2078 72.2351C59.2963 72.2351 56.1255 68.7829 56.1255 64.5244C56.1255 60.2659 59.2963 56.8136 63.2078 56.8136C63.3067 56.8136 63.405 56.8158 63.5029 56.8202Z" fill="url(#paint87_linear_3640_1189)"/>
<path d="M57.8961 64.5244C57.8961 60.3735 60.9087 56.9886 64.6833 56.8202C64.5854 56.8158 64.487 56.8136 64.3882 56.8136C60.4767 56.8136 57.3059 60.2659 57.3059 64.5244C57.3059 68.7829 60.4767 72.2351 64.3882 72.2351C64.4871 72.2351 64.5854 72.2329 64.6833 72.2286C60.9087 72.0601 57.8961 68.6753 57.8961 64.5244Z" fill="url(#paint88_linear_3640_1189)"/>
<path d="M65.8637 56.8202C62.0891 56.9886 59.0765 60.3735 59.0765 64.5244C59.0765 68.6753 62.0891 72.0601 65.8637 72.2286C65.7658 72.2329 65.6674 72.2351 65.5686 72.2351C61.6571 72.2351 58.4863 68.7829 58.4863 64.5244C58.4863 60.2659 61.6571 56.8136 65.5686 56.8136C65.6674 56.8136 65.7658 56.8158 65.8637 56.8202Z" fill="url(#paint89_linear_3640_1189)"/>
<path d="M60.2568 64.5244C60.2568 60.3735 63.2695 56.9886 67.0441 56.8202C66.9462 56.8158 66.8478 56.8136 66.749 56.8136C62.8375 56.8136 59.6666 60.2659 59.6666 64.5244C59.6666 68.7829 62.8375 72.2351 66.749 72.2351C66.8478 72.2351 66.9462 72.2329 67.0441 72.2286C63.2695 72.0601 60.2568 68.6753 60.2568 64.5244Z" fill="url(#paint90_linear_3640_1189)"/>
<path d="M68.2245 56.8202C64.4498 56.9886 61.4372 60.3735 61.4372 64.5244C61.4372 68.6753 64.4499 72.0601 68.2245 72.2286C68.1266 72.2329 68.0282 72.2351 67.9294 72.2351C64.0179 72.2351 60.847 68.7829 60.847 64.5244C60.847 60.2659 64.0179 56.8136 67.9294 56.8136C68.0282 56.8136 68.1266 56.8158 68.2245 56.8202Z" fill="url(#paint91_linear_3640_1189)"/>
<path d="M62.6176 64.5244C62.6176 60.3735 65.6302 56.9886 69.4048 56.8202C69.307 56.8158 69.2086 56.8136 69.1097 56.8136C65.1983 56.8136 62.0274 60.2659 62.0274 64.5244C62.0274 68.7829 65.1983 72.2351 69.1097 72.2351C69.2086 72.2351 69.307 72.2329 69.4049 72.2286C65.6302 72.0601 62.6176 68.6753 62.6176 64.5244Z" fill="url(#paint92_linear_3640_1189)"/>
<path d="M70.5852 56.8202C66.8106 56.9886 63.798 60.3735 63.798 64.5244C63.798 68.6753 66.8106 72.0601 70.5852 72.2286C70.4874 72.2329 70.389 72.2351 70.2901 72.2351C66.3787 72.2351 63.2078 68.7829 63.2078 64.5244C63.2078 60.2659 66.3787 56.8136 70.2901 56.8136C70.389 56.8136 70.4874 56.8158 70.5852 56.8202Z" fill="url(#paint93_linear_3640_1189)"/>
<path d="M64.9784 64.5244C64.9784 60.3735 67.991 56.9886 71.7656 56.8202C71.6677 56.8158 71.5694 56.8136 71.4705 56.8136C67.5591 56.8136 64.3882 60.2659 64.3882 64.5244C64.3882 68.7829 67.5591 72.2351 71.4705 72.2351C71.5694 72.2351 71.6678 72.2329 71.7656 72.2286C67.991 72.0601 64.9784 68.6753 64.9784 64.5244Z" fill="url(#paint94_linear_3640_1189)"/>
<path d="M72.946 56.8202C69.1714 56.9886 66.1588 60.3735 66.1588 64.5244C66.1588 68.6753 69.1714 72.0601 72.946 72.2286C72.8481 72.2329 72.7498 72.2351 72.6509 72.2351C68.7394 72.2351 65.5686 68.7829 65.5686 64.5244C65.5686 60.2659 68.7394 56.8136 72.6509 56.8136C72.7498 56.8136 72.8481 56.8158 72.946 56.8202Z" fill="url(#paint95_linear_3640_1189)"/>
<path d="M67.3392 64.5244C67.3392 60.3735 70.3518 56.9886 74.1264 56.8202C74.0285 56.8158 73.9301 56.8136 73.8313 56.8136C69.9198 56.8136 66.749 60.2659 66.749 64.5244C66.749 68.7829 69.9198 72.2351 73.8313 72.2351C73.9301 72.2351 74.0285 72.2329 74.1264 72.2286C70.3518 72.0601 67.3392 68.6753 67.3392 64.5244Z" fill="url(#paint96_linear_3640_1189)"/>
</g>
<g id="Union_9">
<path d="M75.4011 50.2548C75.4011 46.1039 72.3442 42.719 68.5141 42.5506C68.6134 42.5462 68.7132 42.544 68.8135 42.544C72.7825 42.544 76 45.9962 76 50.2548C76 54.5133 72.7825 57.9655 68.8135 57.9655C68.7132 57.9655 68.6134 57.9633 68.5141 57.9589C72.3442 57.7905 75.4011 54.4057 75.4011 50.2548Z" fill="url(#paint97_linear_3640_1189)"/>
<path d="M74.2034 50.2548C74.2034 46.1039 71.1465 42.719 67.3163 42.5506C67.4156 42.5462 67.5155 42.544 67.6158 42.544C71.5848 42.544 74.8023 45.9962 74.8023 50.2548C74.8023 54.5133 71.5848 57.9655 67.6158 57.9655C67.5155 57.9655 67.4156 57.9633 67.3163 57.9589C71.1464 57.7905 74.2034 54.4057 74.2034 50.2548Z" fill="url(#paint98_linear_3640_1189)"/>
<path d="M66.1186 42.5506C69.9487 42.719 73.0056 46.1039 73.0056 50.2548C73.0056 54.4057 69.9487 57.7905 66.1186 57.9589C66.2179 57.9633 66.3177 57.9655 66.418 57.9655C70.387 57.9655 73.6045 54.5133 73.6045 50.2548C73.6045 45.9962 70.387 42.544 66.418 42.544C66.3177 42.544 66.2179 42.5462 66.1186 42.5506Z" fill="url(#paint99_linear_3640_1189)"/>
<path d="M71.8079 50.2548C71.8079 46.1039 68.751 42.719 64.9208 42.5506C65.0201 42.5462 65.12 42.544 65.2203 42.544C69.1893 42.544 72.4068 45.9962 72.4068 50.2548C72.4068 54.5133 69.1893 57.9655 65.2203 57.9655C65.12 57.9655 65.0201 57.9633 64.9208 57.9589C68.7509 57.7905 71.8079 54.4057 71.8079 50.2548Z" fill="url(#paint100_linear_3640_1189)"/>
<path d="M63.7231 42.5506C67.5532 42.719 70.6101 46.1039 70.6101 50.2548C70.6101 54.4057 67.5532 57.7905 63.7231 57.9589C63.8224 57.9633 63.9222 57.9655 64.0225 57.9655C67.9915 57.9655 71.209 54.5133 71.209 50.2548C71.209 45.9962 67.9915 42.544 64.0225 42.544C63.9222 42.544 63.8224 42.5462 63.7231 42.5506Z" fill="url(#paint101_linear_3640_1189)"/>
<path d="M69.4124 50.2548C69.4124 46.1039 66.3555 42.719 62.5254 42.5506C62.6247 42.5462 62.7245 42.544 62.8248 42.544C66.7938 42.544 70.0113 45.9962 70.0113 50.2548C70.0113 54.5133 66.7938 57.9655 62.8248 57.9655C62.7245 57.9655 62.6246 57.9633 62.5253 57.9589C66.3555 57.7905 69.4124 54.4057 69.4124 50.2548Z" fill="url(#paint102_linear_3640_1189)"/>
<path d="M61.3276 42.5506C65.1577 42.719 68.2146 46.1039 68.2146 50.2548C68.2146 54.4057 65.1577 57.7905 61.3276 57.9589C61.4269 57.9633 61.5267 57.9655 61.627 57.9655C65.596 57.9655 68.8135 54.5133 68.8135 50.2548C68.8135 45.9962 65.596 42.544 61.627 42.544C61.5267 42.544 61.4269 42.5462 61.3276 42.5506Z" fill="url(#paint103_linear_3640_1189)"/>
<path d="M67.0169 50.2548C67.0169 46.1039 63.96 42.719 60.1299 42.5506C60.2292 42.5462 60.329 42.544 60.4293 42.544C64.3983 42.544 67.6158 45.9962 67.6158 50.2548C67.6158 54.5133 64.3983 57.9655 60.4293 57.9655C60.329 57.9655 60.2292 57.9633 60.1298 57.9589C63.96 57.7905 67.0169 54.4057 67.0169 50.2548Z" fill="url(#paint104_linear_3640_1189)"/>
<path d="M58.9321 42.5506C62.7622 42.719 65.8192 46.1039 65.8192 50.2548C65.8192 54.4057 62.7622 57.7905 58.9321 57.9589C59.0314 57.9633 59.1312 57.9655 59.2315 57.9655C63.2005 57.9655 66.418 54.5133 66.418 50.2548C66.418 45.9962 63.2005 42.544 59.2315 42.544C59.1312 42.544 59.0314 42.5462 58.9321 42.5506Z" fill="url(#paint105_linear_3640_1189)"/>
<path d="M64.6214 50.2548C64.6214 46.1039 61.5645 42.719 57.7344 42.5506C57.8337 42.5462 57.9335 42.544 58.0338 42.544C62.0028 42.544 65.2203 45.9962 65.2203 50.2548C65.2203 54.5133 62.0028 57.9655 58.0338 57.9655C57.9335 57.9655 57.8337 57.9633 57.7344 57.9589C61.5645 57.7905 64.6214 54.4057 64.6214 50.2548Z" fill="url(#paint106_linear_3640_1189)"/>
<path d="M56.5366 42.5506C60.3667 42.719 63.4237 46.1039 63.4237 50.2548C63.4237 54.4057 60.3667 57.7905 56.5366 57.9589C56.6359 57.9633 56.7357 57.9655 56.8361 57.9655C60.805 57.9655 64.0225 54.5133 64.0225 50.2548C64.0225 45.9962 60.805 42.544 56.8361 42.544C56.7358 42.544 56.6359 42.5462 56.5366 42.5506Z" fill="url(#paint107_linear_3640_1189)"/>
<path d="M62.2259 50.2548C62.2259 46.1039 59.169 42.719 55.3389 42.5506C55.4382 42.5462 55.538 42.544 55.6383 42.544C59.6073 42.544 62.8248 45.9962 62.8248 50.2548C62.8248 54.5133 59.6073 57.9655 55.6383 57.9655C55.538 57.9655 55.4382 57.9633 55.3389 57.9589C59.169 57.7905 62.2259 54.4057 62.2259 50.2548Z" fill="url(#paint108_linear_3640_1189)"/>
</g>
</g>
</g>
</g>
<defs>
<radialGradient id="paint0_radial_3640_1189" cx="0" cy="0" r="1" gradientUnits="userSpaceOnUse" gradientTransform="translate(49 42.2823) rotate(90) scale(132.379)">
<stop/>
<stop offset="1"/>
</radialGradient>
<linearGradient id="paint1_linear_3640_1189" x1="32.1808" y1="27.7647" x2="32.1808" y2="44.15" gradientUnits="userSpaceOnUse">
<stop stop-color="#58FFFF"/>
<stop offset="0.494955" stop-color="#79FCFC"/>
<stop offset="1" stop-color="#13E4E4" stop-opacity="0"/>
</linearGradient>
<linearGradient id="paint2_linear_3640_1189" x1="32.1808" y1="27.7647" x2="32.1808" y2="44.15" gradientUnits="userSpaceOnUse">
<stop stop-color="#58FFFF"/>
<stop offset="0.494955" stop-color="#79FCFC"/>
<stop offset="1" stop-color="#13E4E4" stop-opacity="0"/>
</linearGradient>
<linearGradient id="paint3_linear_3640_1189" x1="32.1808" y1="27.7647" x2="32.1808" y2="44.15" gradientUnits="userSpaceOnUse">
<stop stop-color="#58FFFF"/>
<stop offset="0.494955" stop-color="#79FCFC"/>
<stop offset="1" stop-color="#13E4E4" stop-opacity="0"/>
</linearGradient>
<linearGradient id="paint4_linear_3640_1189" x1="32.1808" y1="27.7647" x2="32.1808" y2="44.15" gradientUnits="userSpaceOnUse">
<stop stop-color="#58FFFF"/>
<stop offset="0.494955" stop-color="#79FCFC"/>
<stop offset="1" stop-color="#13E4E4" stop-opacity="0"/>
</linearGradient>
<linearGradient id="paint5_linear_3640_1189" x1="32.1808" y1="27.7647" x2="32.1808" y2="44.15" gradientUnits="userSpaceOnUse">
<stop stop-color="#58FFFF"/>
<stop offset="0.494955" stop-color="#79FCFC"/>
<stop offset="1" stop-color="#13E4E4" stop-opacity="0"/>
</linearGradient>
<linearGradient id="paint6_linear_3640_1189" x1="32.1808" y1="27.7647" x2="32.1808" y2="44.15" gradientUnits="userSpaceOnUse">
<stop stop-color="#58FFFF"/>
<stop offset="0.494955" stop-color="#79FCFC"/>
<stop offset="1" stop-color="#13E4E4" stop-opacity="0"/>
</linearGradient>
<linearGradient id="paint7_linear_3640_1189" x1="32.1808" y1="27.7647" x2="32.1808" y2="44.15" gradientUnits="userSpaceOnUse">
<stop stop-color="#58FFFF"/>
<stop offset="0.494955" stop-color="#79FCFC"/>
<stop offset="1" stop-color="#13E4E4" stop-opacity="0"/>
</linearGradient>
<linearGradient id="paint8_linear_3640_1189" x1="32.1808" y1="27.7647" x2="32.1808" y2="44.15" gradientUnits="userSpaceOnUse">
<stop stop-color="#58FFFF"/>
<stop offset="0.494955" stop-color="#79FCFC"/>
<stop offset="1" stop-color="#13E4E4" stop-opacity="0"/>
</linearGradient>
<linearGradient id="paint9_linear_3640_1189" x1="32.1808" y1="27.7647" x2="32.1808" y2="44.15" gradientUnits="userSpaceOnUse">
<stop stop-color="#58FFFF"/>
<stop offset="0.494955" stop-color="#79FCFC"/>
<stop offset="1" stop-color="#13E4E4" stop-opacity="0"/>
</linearGradient>
<linearGradient id="paint10_linear_3640_1189" x1="32.1808" y1="27.7647" x2="32.1808" y2="44.15" gradientUnits="userSpaceOnUse">
<stop stop-color="#58FFFF"/>
<stop offset="0.494955" stop-color="#79FCFC"/>
<stop offset="1" stop-color="#13E4E4" stop-opacity="0"/>
</linearGradient>
<linearGradient id="paint11_linear_3640_1189" x1="32.1808" y1="27.7647" x2="32.1808" y2="44.15" gradientUnits="userSpaceOnUse">
<stop stop-color="#58FFFF"/>
<stop offset="0.494955" stop-color="#79FCFC"/>
<stop offset="1" stop-color="#13E4E4" stop-opacity="0"/>
</linearGradient>
<linearGradient id="paint12_linear_3640_1189" x1="32.1808" y1="27.7647" x2="32.1808" y2="44.15" gradientUnits="userSpaceOnUse">
<stop stop-color="#58FFFF"/>
<stop offset="0.494955" stop-color="#79FCFC"/>
<stop offset="1" stop-color="#13E4E4" stop-opacity="0"/>
</linearGradient>
<linearGradient id="paint13_linear_3640_1189" x1="32.1808" y1="56.8136" x2="32.1808" y2="73.199" gradientUnits="userSpaceOnUse">
<stop stop-color="#58FFFF"/>
<stop offset="0.494955" stop-color="#79FCFC"/>
<stop offset="1" stop-color="#13E4E4" stop-opacity="0"/>
</linearGradient>
<linearGradient id="paint14_linear_3640_1189" x1="32.1808" y1="56.8136" x2="32.1808" y2="73.199" gradientUnits="userSpaceOnUse">
<stop stop-color="#58FFFF"/>
<stop offset="0.494955" stop-color="#79FCFC"/>
<stop offset="1" stop-color="#13E4E4" stop-opacity="0"/>
</linearGradient>
<linearGradient id="paint15_linear_3640_1189" x1="32.1808" y1="56.8136" x2="32.1808" y2="73.199" gradientUnits="userSpaceOnUse">
<stop stop-color="#58FFFF"/>
<stop offset="0.494955" stop-color="#79FCFC"/>
<stop offset="1" stop-color="#13E4E4" stop-opacity="0"/>
</linearGradient>
<linearGradient id="paint16_linear_3640_1189" x1="32.1808" y1="56.8136" x2="32.1808" y2="73.199" gradientUnits="userSpaceOnUse">
<stop stop-color="#58FFFF"/>
<stop offset="0.494955" stop-color="#79FCFC"/>
<stop offset="1" stop-color="#13E4E4" stop-opacity="0"/>
</linearGradient>
<linearGradient id="paint17_linear_3640_1189" x1="32.1808" y1="56.8136" x2="32.1808" y2="73.199" gradientUnits="userSpaceOnUse">
<stop stop-color="#58FFFF"/>
<stop offset="0.494955" stop-color="#79FCFC"/>
<stop offset="1" stop-color="#13E4E4" stop-opacity="0"/>
</linearGradient>
<linearGradient id="paint18_linear_3640_1189" x1="32.1808" y1="56.8136" x2="32.1808" y2="73.199" gradientUnits="userSpaceOnUse">
<stop stop-color="#58FFFF"/>
<stop offset="0.494955" stop-color="#79FCFC"/>
<stop offset="1" stop-color="#13E4E4" stop-opacity="0"/>
</linearGradient>
<linearGradient id="paint19_linear_3640_1189" x1="32.1808" y1="56.8136" x2="32.1808" y2="73.199" gradientUnits="userSpaceOnUse">
<stop stop-color="#58FFFF"/>
<stop offset="0.494955" stop-color="#79FCFC"/>
<stop offset="1" stop-color="#13E4E4" stop-opacity="0"/>
</linearGradient>
<linearGradient id="paint20_linear_3640_1189" x1="32.1808" y1="56.8136" x2="32.1808" y2="73.199" gradientUnits="userSpaceOnUse">
<stop stop-color="#58FFFF"/>
<stop offset="0.494955" stop-color="#79FCFC"/>
<stop offset="1" stop-color="#13E4E4" stop-opacity="0"/>
</linearGradient>
<linearGradient id="paint21_linear_3640_1189" x1="32.1808" y1="56.8136" x2="32.1808" y2="73.199" gradientUnits="userSpaceOnUse">
<stop stop-color="#58FFFF"/>
<stop offset="0.494955" stop-color="#79FCFC"/>
<stop offset="1" stop-color="#13E4E4" stop-opacity="0"/>
</linearGradient>
<linearGradient id="paint22_linear_3640_1189" x1="32.1808" y1="56.8136" x2="32.1808" y2="73.199" gradientUnits="userSpaceOnUse">
<stop stop-color="#58FFFF"/>
<stop offset="0.494955" stop-color="#79FCFC"/>
<stop offset="1" stop-color="#13E4E4" stop-opacity="0"/>
</linearGradient>
<linearGradient id="paint23_linear_3640_1189" x1="32.1808" y1="56.8136" x2="32.1808" y2="73.199" gradientUnits="userSpaceOnUse">
<stop stop-color="#58FFFF"/>
<stop offset="0.494955" stop-color="#79FCFC"/>
<stop offset="1" stop-color="#13E4E4" stop-opacity="0"/>
</linearGradient>
<linearGradient id="paint24_linear_3640_1189" x1="32.1808" y1="56.8136" x2="32.1808" y2="73.199" gradientUnits="userSpaceOnUse">
<stop stop-color="#58FFFF"/>
<stop offset="0.494955" stop-color="#79FCFC"/>
<stop offset="1" stop-color="#13E4E4" stop-opacity="0"/>
</linearGradient>
<linearGradient id="paint25_linear_3640_1189" x1="33.9047" y1="42.544" x2="33.9047" y2="57.9655" gradientUnits="userSpaceOnUse">
<stop stop-color="#2F2F2F" stop-opacity="0"/>
<stop offset="0.512772" stop-color="#349BC7"/>
<stop offset="1" stop-color="#2F2F2F"/>
</linearGradient>
<linearGradient id="paint26_linear_3640_1189" x1="33.9047" y1="42.544" x2="33.9047" y2="57.9655" gradientUnits="userSpaceOnUse">
<stop stop-color="#2F2F2F" stop-opacity="0"/>
<stop offset="0.512772" stop-color="#349BC7"/>
<stop offset="1" stop-color="#2F2F2F"/>
</linearGradient>
<linearGradient id="paint27_linear_3640_1189" x1="33.9047" y1="42.544" x2="33.9047" y2="57.9655" gradientUnits="userSpaceOnUse">
<stop stop-color="#2F2F2F" stop-opacity="0"/>
<stop offset="0.512772" stop-color="#349BC7"/>
<stop offset="1" stop-color="#2F2F2F"/>
</linearGradient>
<linearGradient id="paint28_linear_3640_1189" x1="33.9047" y1="42.544" x2="33.9047" y2="57.9655" gradientUnits="userSpaceOnUse">
<stop stop-color="#2F2F2F" stop-opacity="0"/>
<stop offset="0.512772" stop-color="#349BC7"/>
<stop offset="1" stop-color="#2F2F2F"/>
</linearGradient>
<linearGradient id="paint29_linear_3640_1189" x1="33.9047" y1="42.544" x2="33.9047" y2="57.9655" gradientUnits="userSpaceOnUse">
<stop stop-color="#2F2F2F" stop-opacity="0"/>
<stop offset="0.512772" stop-color="#349BC7"/>
<stop offset="1" stop-color="#2F2F2F"/>
</linearGradient>
<linearGradient id="paint30_linear_3640_1189" x1="33.9047" y1="42.544" x2="33.9047" y2="57.9655" gradientUnits="userSpaceOnUse">
<stop stop-color="#2F2F2F" stop-opacity="0"/>
<stop offset="0.512772" stop-color="#349BC7"/>
<stop offset="1" stop-color="#2F2F2F"/>
</linearGradient>
<linearGradient id="paint31_linear_3640_1189" x1="33.9047" y1="42.544" x2="33.9047" y2="57.9655" gradientUnits="userSpaceOnUse">
<stop stop-color="#2F2F2F" stop-opacity="0"/>
<stop offset="0.512772" stop-color="#349BC7"/>
<stop offset="1" stop-color="#2F2F2F"/>
</linearGradient>
<linearGradient id="paint32_linear_3640_1189" x1="33.9047" y1="42.544" x2="33.9047" y2="57.9655" gradientUnits="userSpaceOnUse">
<stop stop-color="#2F2F2F" stop-opacity="0"/>
<stop offset="0.512772" stop-color="#349BC7"/>
<stop offset="1" stop-color="#2F2F2F"/>
</linearGradient>
<linearGradient id="paint33_linear_3640_1189" x1="33.9047" y1="42.544" x2="33.9047" y2="57.9655" gradientUnits="userSpaceOnUse">
<stop stop-color="#2F2F2F" stop-opacity="0"/>
<stop offset="0.512772" stop-color="#349BC7"/>
<stop offset="1" stop-color="#2F2F2F"/>
</linearGradient>
<linearGradient id="paint34_linear_3640_1189" x1="33.9047" y1="42.544" x2="33.9047" y2="57.9655" gradientUnits="userSpaceOnUse">
<stop stop-color="#2F2F2F" stop-opacity="0"/>
<stop offset="0.512772" stop-color="#349BC7"/>
<stop offset="1" stop-color="#2F2F2F"/>
</linearGradient>
<linearGradient id="paint35_linear_3640_1189" x1="33.9047" y1="42.544" x2="33.9047" y2="57.9655" gradientUnits="userSpaceOnUse">
<stop stop-color="#2F2F2F" stop-opacity="0"/>
<stop offset="0.512772" stop-color="#349BC7"/>
<stop offset="1" stop-color="#2F2F2F"/>
</linearGradient>
<linearGradient id="paint36_linear_3640_1189" x1="33.9047" y1="42.544" x2="33.9047" y2="57.9655" gradientUnits="userSpaceOnUse">
<stop stop-color="#2F2F2F" stop-opacity="0"/>
<stop offset="0.512772" stop-color="#349BC7"/>
<stop offset="1" stop-color="#2F2F2F"/>
</linearGradient>
<linearGradient id="paint37_linear_3640_1189" x1="48.0632" y1="27.7647" x2="48.0632" y2="44.1501" gradientUnits="userSpaceOnUse">
<stop stop-color="#58FFFF"/>
<stop offset="0.494955" stop-color="#79FCFC"/>
<stop offset="1" stop-color="#13E4E4" stop-opacity="0"/>
</linearGradient>
<linearGradient id="paint38_linear_3640_1189" x1="48.0632" y1="27.7647" x2="48.0632" y2="44.1501" gradientUnits="userSpaceOnUse">
<stop stop-color="#58FFFF"/>
<stop offset="0.494955" stop-color="#79FCFC"/>
<stop offset="1" stop-color="#13E4E4" stop-opacity="0"/>
</linearGradient>
<linearGradient id="paint39_linear_3640_1189" x1="48.0632" y1="27.7647" x2="48.0632" y2="44.1501" gradientUnits="userSpaceOnUse">
<stop stop-color="#58FFFF"/>
<stop offset="0.494955" stop-color="#79FCFC"/>
<stop offset="1" stop-color="#13E4E4" stop-opacity="0"/>
</linearGradient>
<linearGradient id="paint40_linear_3640_1189" x1="48.0632" y1="27.7647" x2="48.0632" y2="44.1501" gradientUnits="userSpaceOnUse">
<stop stop-color="#58FFFF"/>
<stop offset="0.494955" stop-color="#79FCFC"/>
<stop offset="1" stop-color="#13E4E4" stop-opacity="0"/>
</linearGradient>
<linearGradient id="paint41_linear_3640_1189" x1="48.0632" y1="27.7647" x2="48.0632" y2="44.1501" gradientUnits="userSpaceOnUse">
<stop stop-color="#58FFFF"/>
<stop offset="0.494955" stop-color="#79FCFC"/>
<stop offset="1" stop-color="#13E4E4" stop-opacity="0"/>
</linearGradient>
<linearGradient id="paint42_linear_3640_1189" x1="48.0632" y1="27.7647" x2="48.0632" y2="44.1501" gradientUnits="userSpaceOnUse">
<stop stop-color="#58FFFF"/>
<stop offset="0.494955" stop-color="#79FCFC"/>
<stop offset="1" stop-color="#13E4E4" stop-opacity="0"/>
</linearGradient>
<linearGradient id="paint43_linear_3640_1189" x1="48.0632" y1="27.7647" x2="48.0632" y2="44.1501" gradientUnits="userSpaceOnUse">
<stop stop-color="#58FFFF"/>
<stop offset="0.494955" stop-color="#79FCFC"/>
<stop offset="1" stop-color="#13E4E4" stop-opacity="0"/>
</linearGradient>
<linearGradient id="paint44_linear_3640_1189" x1="48.0632" y1="27.7647" x2="48.0632" y2="44.1501" gradientUnits="userSpaceOnUse">
<stop stop-color="#58FFFF"/>
<stop offset="0.494955" stop-color="#79FCFC"/>
<stop offset="1" stop-color="#13E4E4" stop-opacity="0"/>
</linearGradient>
<linearGradient id="paint45_linear_3640_1189" x1="48.0632" y1="27.7647" x2="48.0632" y2="44.1501" gradientUnits="userSpaceOnUse">
<stop stop-color="#58FFFF"/>
<stop offset="0.494955" stop-color="#79FCFC"/>
<stop offset="1" stop-color="#13E4E4" stop-opacity="0"/>
</linearGradient>
<linearGradient id="paint46_linear_3640_1189" x1="48.0632" y1="27.7647" x2="48.0632" y2="44.1501" gradientUnits="userSpaceOnUse">
<stop stop-color="#58FFFF"/>
<stop offset="0.494955" stop-color="#79FCFC"/>
<stop offset="1" stop-color="#13E4E4" stop-opacity="0"/>
</linearGradient>
<linearGradient id="paint47_linear_3640_1189" x1="48.0632" y1="27.7647" x2="48.0632" y2="44.1501" gradientUnits="userSpaceOnUse">
<stop stop-color="#58FFFF"/>
<stop offset="0.494955" stop-color="#79FCFC"/>
<stop offset="1" stop-color="#13E4E4" stop-opacity="0"/>
</linearGradient>
<linearGradient id="paint48_linear_3640_1189" x1="48.0632" y1="27.7647" x2="48.0632" y2="44.1501" gradientUnits="userSpaceOnUse">
<stop stop-color="#58FFFF"/>
<stop offset="0.494955" stop-color="#79FCFC"/>
<stop offset="1" stop-color="#13E4E4" stop-opacity="0"/>
</linearGradient>
<linearGradient id="paint49_linear_3640_1189" x1="48.0632" y1="56.8136" x2="48.0632" y2="73.199" gradientUnits="userSpaceOnUse">
<stop stop-color="#58FFFF"/>
<stop offset="0.494955" stop-color="#79FCFC"/>
<stop offset="1" stop-color="#13E4E4" stop-opacity="0"/>
</linearGradient>
<linearGradient id="paint50_linear_3640_1189" x1="48.0632" y1="56.8136" x2="48.0632" y2="73.199" gradientUnits="userSpaceOnUse">
<stop stop-color="#58FFFF"/>
<stop offset="0.494955" stop-color="#79FCFC"/>
<stop offset="1" stop-color="#13E4E4" stop-opacity="0"/>
</linearGradient>
<linearGradient id="paint51_linear_3640_1189" x1="48.0632" y1="56.8136" x2="48.0632" y2="73.199" gradientUnits="userSpaceOnUse">
<stop stop-color="#58FFFF"/>
<stop offset="0.494955" stop-color="#79FCFC"/>
<stop offset="1" stop-color="#13E4E4" stop-opacity="0"/>
</linearGradient>
<linearGradient id="paint52_linear_3640_1189" x1="48.0632" y1="56.8136" x2="48.0632" y2="73.199" gradientUnits="userSpaceOnUse">
<stop stop-color="#58FFFF"/>
<stop offset="0.494955" stop-color="#79FCFC"/>
<stop offset="1" stop-color="#13E4E4" stop-opacity="0"/>
</linearGradient>
<linearGradient id="paint53_linear_3640_1189" x1="48.0632" y1="56.8136" x2="48.0632" y2="73.199" gradientUnits="userSpaceOnUse">
<stop stop-color="#58FFFF"/>
<stop offset="0.494955" stop-color="#79FCFC"/>
<stop offset="1" stop-color="#13E4E4" stop-opacity="0"/>
</linearGradient>
<linearGradient id="paint54_linear_3640_1189" x1="48.0632" y1="56.8136" x2="48.0632" y2="73.199" gradientUnits="userSpaceOnUse">
<stop stop-color="#58FFFF"/>
<stop offset="0.494955" stop-color="#79FCFC"/>
<stop offset="1" stop-color="#13E4E4" stop-opacity="0"/>
</linearGradient>
<linearGradient id="paint55_linear_3640_1189" x1="48.0632" y1="56.8136" x2="48.0632" y2="73.199" gradientUnits="userSpaceOnUse">
<stop stop-color="#58FFFF"/>
<stop offset="0.494955" stop-color="#79FCFC"/>
<stop offset="1" stop-color="#13E4E4" stop-opacity="0"/>
</linearGradient>
<linearGradient id="paint56_linear_3640_1189" x1="48.0632" y1="56.8136" x2="48.0632" y2="73.199" gradientUnits="userSpaceOnUse">
<stop stop-color="#58FFFF"/>
<stop offset="0.494955" stop-color="#79FCFC"/>
<stop offset="1" stop-color="#13E4E4" stop-opacity="0"/>
</linearGradient>
<linearGradient id="paint57_linear_3640_1189" x1="48.0632" y1="56.8136" x2="48.0632" y2="73.199" gradientUnits="userSpaceOnUse">
<stop stop-color="#58FFFF"/>
<stop offset="0.494955" stop-color="#79FCFC"/>
<stop offset="1" stop-color="#13E4E4" stop-opacity="0"/>
</linearGradient>
<linearGradient id="paint58_linear_3640_1189" x1="48.0632" y1="56.8136" x2="48.0632" y2="73.199" gradientUnits="userSpaceOnUse">
<stop stop-color="#58FFFF"/>
<stop offset="0.494955" stop-color="#79FCFC"/>
<stop offset="1" stop-color="#13E4E4" stop-opacity="0"/>
</linearGradient>
<linearGradient id="paint59_linear_3640_1189" x1="48.0632" y1="56.8136" x2="48.0632" y2="73.199" gradientUnits="userSpaceOnUse">
<stop stop-color="#58FFFF"/>
<stop offset="0.494955" stop-color="#79FCFC"/>
<stop offset="1" stop-color="#13E4E4" stop-opacity="0"/>
</linearGradient>
<linearGradient id="paint60_linear_3640_1189" x1="48.0632" y1="56.8136" x2="48.0632" y2="73.199" gradientUnits="userSpaceOnUse">
<stop stop-color="#58FFFF"/>
<stop offset="0.494955" stop-color="#79FCFC"/>
<stop offset="1" stop-color="#13E4E4" stop-opacity="0"/>
</linearGradient>
<linearGradient id="paint61_linear_3640_1189" x1="49.7871" y1="42.544" x2="49.7871" y2="57.9655" gradientUnits="userSpaceOnUse">
<stop stop-color="#2F2F2F" stop-opacity="0"/>
<stop offset="0.512772" stop-color="#349BC7"/>
<stop offset="1" stop-color="#2F2F2F"/>
</linearGradient>
<linearGradient id="paint62_linear_3640_1189" x1="49.7871" y1="42.544" x2="49.7871" y2="57.9655" gradientUnits="userSpaceOnUse">
<stop stop-color="#2F2F2F" stop-opacity="0"/>
<stop offset="0.512772" stop-color="#349BC7"/>
<stop offset="1" stop-color="#2F2F2F"/>
</linearGradient>
<linearGradient id="paint63_linear_3640_1189" x1="49.7871" y1="42.544" x2="49.7871" y2="57.9655" gradientUnits="userSpaceOnUse">
<stop stop-color="#2F2F2F" stop-opacity="0"/>
<stop offset="0.512772" stop-color="#349BC7"/>
<stop offset="1" stop-color="#2F2F2F"/>
</linearGradient>
<linearGradient id="paint64_linear_3640_1189" x1="49.7871" y1="42.544" x2="49.7871" y2="57.9655" gradientUnits="userSpaceOnUse">
<stop stop-color="#2F2F2F" stop-opacity="0"/>
<stop offset="0.512772" stop-color="#349BC7"/>
<stop offset="1" stop-color="#2F2F2F"/>
</linearGradient>
<linearGradient id="paint65_linear_3640_1189" x1="49.7871" y1="42.544" x2="49.7871" y2="57.9655" gradientUnits="userSpaceOnUse">
<stop stop-color="#2F2F2F" stop-opacity="0"/>
<stop offset="0.512772" stop-color="#349BC7"/>
<stop offset="1" stop-color="#2F2F2F"/>
</linearGradient>
<linearGradient id="paint66_linear_3640_1189" x1="49.7871" y1="42.544" x2="49.7871" y2="57.9655" gradientUnits="userSpaceOnUse">
<stop stop-color="#2F2F2F" stop-opacity="0"/>
<stop offset="0.512772" stop-color="#349BC7"/>
<stop offset="1" stop-color="#2F2F2F"/>
</linearGradient>
<linearGradient id="paint67_linear_3640_1189" x1="49.7871" y1="42.544" x2="49.7871" y2="57.9655" gradientUnits="userSpaceOnUse">
<stop stop-color="#2F2F2F" stop-opacity="0"/>
<stop offset="0.512772" stop-color="#349BC7"/>
<stop offset="1" stop-color="#2F2F2F"/>
</linearGradient>
<linearGradient id="paint68_linear_3640_1189" x1="49.7871" y1="42.544" x2="49.7871" y2="57.9655" gradientUnits="userSpaceOnUse">
<stop stop-color="#2F2F2F" stop-opacity="0"/>
<stop offset="0.512772" stop-color="#349BC7"/>
<stop offset="1" stop-color="#2F2F2F"/>
</linearGradient>
<linearGradient id="paint69_linear_3640_1189" x1="49.7871" y1="42.544" x2="49.7871" y2="57.9655" gradientUnits="userSpaceOnUse">
<stop stop-color="#2F2F2F" stop-opacity="0"/>
<stop offset="0.512772" stop-color="#349BC7"/>
<stop offset="1" stop-color="#2F2F2F"/>
</linearGradient>
<linearGradient id="paint70_linear_3640_1189" x1="49.7871" y1="42.544" x2="49.7871" y2="57.9655" gradientUnits="userSpaceOnUse">
<stop stop-color="#2F2F2F" stop-opacity="0"/>
<stop offset="0.512772" stop-color="#349BC7"/>
<stop offset="1" stop-color="#2F2F2F"/>
</linearGradient>
<linearGradient id="paint71_linear_3640_1189" x1="49.7871" y1="42.544" x2="49.7871" y2="57.9655" gradientUnits="userSpaceOnUse">
<stop stop-color="#2F2F2F" stop-opacity="0"/>
<stop offset="0.512772" stop-color="#349BC7"/>
<stop offset="1" stop-color="#2F2F2F"/>
</linearGradient>
<linearGradient id="paint72_linear_3640_1189" x1="49.7871" y1="42.544" x2="49.7871" y2="57.9655" gradientUnits="userSpaceOnUse">
<stop stop-color="#2F2F2F" stop-opacity="0"/>
<stop offset="0.512772" stop-color="#349BC7"/>
<stop offset="1" stop-color="#2F2F2F"/>
</linearGradient>
<linearGradient id="paint73_linear_3640_1189" x1="63.9456" y1="27.7647" x2="63.9456" y2="44.1501" gradientUnits="userSpaceOnUse">
<stop stop-color="#58FFFF"/>
<stop offset="0.494955" stop-color="#79FCFC"/>
<stop offset="1" stop-color="#13E4E4" stop-opacity="0"/>
</linearGradient>
<linearGradient id="paint74_linear_3640_1189" x1="63.9456" y1="27.7647" x2="63.9456" y2="44.1501" gradientUnits="userSpaceOnUse">
<stop stop-color="#58FFFF"/>
<stop offset="0.494955" stop-color="#79FCFC"/>
<stop offset="1" stop-color="#13E4E4" stop-opacity="0"/>
</linearGradient>
<linearGradient id="paint75_linear_3640_1189" x1="63.9456" y1="27.7647" x2="63.9456" y2="44.1501" gradientUnits="userSpaceOnUse">
<stop stop-color="#58FFFF"/>
<stop offset="0.494955" stop-color="#79FCFC"/>
<stop offset="1" stop-color="#13E4E4" stop-opacity="0"/>
</linearGradient>
<linearGradient id="paint76_linear_3640_1189" x1="63.9456" y1="27.7647" x2="63.9456" y2="44.1501" gradientUnits="userSpaceOnUse">
<stop stop-color="#58FFFF"/>
<stop offset="0.494955" stop-color="#79FCFC"/>
<stop offset="1" stop-color="#13E4E4" stop-opacity="0"/>
</linearGradient>
<linearGradient id="paint77_linear_3640_1189" x1="63.9456" y1="27.7647" x2="63.9456" y2="44.1501" gradientUnits="userSpaceOnUse">
<stop stop-color="#58FFFF"/>
<stop offset="0.494955" stop-color="#79FCFC"/>
<stop offset="1" stop-color="#13E4E4" stop-opacity="0"/>
</linearGradient>
<linearGradient id="paint78_linear_3640_1189" x1="63.9456" y1="27.7647" x2="63.9456" y2="44.1501" gradientUnits="userSpaceOnUse">
<stop stop-color="#58FFFF"/>
<stop offset="0.494955" stop-color="#79FCFC"/>
<stop offset="1" stop-color="#13E4E4" stop-opacity="0"/>
</linearGradient>
<linearGradient id="paint79_linear_3640_1189" x1="63.9456" y1="27.7647" x2="63.9456" y2="44.1501" gradientUnits="userSpaceOnUse">
<stop stop-color="#58FFFF"/>
<stop offset="0.494955" stop-color="#79FCFC"/>
<stop offset="1" stop-color="#13E4E4" stop-opacity="0"/>
</linearGradient>
<linearGradient id="paint80_linear_3640_1189" x1="63.9456" y1="27.7647" x2="63.9456" y2="44.1501" gradientUnits="userSpaceOnUse">
<stop stop-color="#58FFFF"/>
<stop offset="0.494955" stop-color="#79FCFC"/>
<stop offset="1" stop-color="#13E4E4" stop-opacity="0"/>
</linearGradient>
<linearGradient id="paint81_linear_3640_1189" x1="63.9456" y1="27.7647" x2="63.9456" y2="44.1501" gradientUnits="userSpaceOnUse">
<stop stop-color="#58FFFF"/>
<stop offset="0.494955" stop-color="#79FCFC"/>
<stop offset="1" stop-color="#13E4E4" stop-opacity="0"/>
</linearGradient>
<linearGradient id="paint82_linear_3640_1189" x1="63.9456" y1="27.7647" x2="63.9456" y2="44.1501" gradientUnits="userSpaceOnUse">
<stop stop-color="#58FFFF"/>
<stop offset="0.494955" stop-color="#79FCFC"/>
<stop offset="1" stop-color="#13E4E4" stop-opacity="0"/>
</linearGradient>
<linearGradient id="paint83_linear_3640_1189" x1="63.9456" y1="27.7647" x2="63.9456" y2="44.1501" gradientUnits="userSpaceOnUse">
<stop stop-color="#58FFFF"/>
<stop offset="0.494955" stop-color="#79FCFC"/>
<stop offset="1" stop-color="#13E4E4" stop-opacity="0"/>
</linearGradient>
<linearGradient id="paint84_linear_3640_1189" x1="63.9456" y1="27.7647" x2="63.9456" y2="44.1501" gradientUnits="userSpaceOnUse">
<stop stop-color="#58FFFF"/>
<stop offset="0.494955" stop-color="#79FCFC"/>
<stop offset="1" stop-color="#13E4E4" stop-opacity="0"/>
</linearGradient>
<linearGradient id="paint85_linear_3640_1189" x1="63.9456" y1="56.8136" x2="63.9456" y2="73.199" gradientUnits="userSpaceOnUse">
<stop stop-color="#58FFFF"/>
<stop offset="0.494955" stop-color="#79FCFC"/>
<stop offset="1" stop-color="#13E4E4" stop-opacity="0"/>
</linearGradient>
<linearGradient id="paint86_linear_3640_1189" x1="63.9456" y1="56.8136" x2="63.9456" y2="73.199" gradientUnits="userSpaceOnUse">
<stop stop-color="#58FFFF"/>
<stop offset="0.494955" stop-color="#79FCFC"/>
<stop offset="1" stop-color="#13E4E4" stop-opacity="0"/>
</linearGradient>
<linearGradient id="paint87_linear_3640_1189" x1="63.9456" y1="56.8136" x2="63.9456" y2="73.199" gradientUnits="userSpaceOnUse">
<stop stop-color="#58FFFF"/>
<stop offset="0.494955" stop-color="#79FCFC"/>
<stop offset="1" stop-color="#13E4E4" stop-opacity="0"/>
</linearGradient>
<linearGradient id="paint88_linear_3640_1189" x1="63.9456" y1="56.8136" x2="63.9456" y2="73.199" gradientUnits="userSpaceOnUse">
<stop stop-color="#58FFFF"/>
<stop offset="0.494955" stop-color="#79FCFC"/>
<stop offset="1" stop-color="#13E4E4" stop-opacity="0"/>
</linearGradient>
<linearGradient id="paint89_linear_3640_1189" x1="63.9456" y1="56.8136" x2="63.9456" y2="73.199" gradientUnits="userSpaceOnUse">
<stop stop-color="#58FFFF"/>
<stop offset="0.494955" stop-color="#79FCFC"/>
<stop offset="1" stop-color="#13E4E4" stop-opacity="0"/>
</linearGradient>
<linearGradient id="paint90_linear_3640_1189" x1="63.9456" y1="56.8136" x2="63.9456" y2="73.199" gradientUnits="userSpaceOnUse">
<stop stop-color="#58FFFF"/>
<stop offset="0.494955" stop-color="#79FCFC"/>
<stop offset="1" stop-color="#13E4E4" stop-opacity="0"/>
</linearGradient>
<linearGradient id="paint91_linear_3640_1189" x1="63.9456" y1="56.8136" x2="63.9456" y2="73.199" gradientUnits="userSpaceOnUse">
<stop stop-color="#58FFFF"/>
<stop offset="0.494955" stop-color="#79FCFC"/>
<stop offset="1" stop-color="#13E4E4" stop-opacity="0"/>
</linearGradient>
<linearGradient id="paint92_linear_3640_1189" x1="63.9456" y1="56.8136" x2="63.9456" y2="73.199" gradientUnits="userSpaceOnUse">
<stop stop-color="#58FFFF"/>
<stop offset="0.494955" stop-color="#79FCFC"/>
<stop offset="1" stop-color="#13E4E4" stop-opacity="0"/>
</linearGradient>
<linearGradient id="paint93_linear_3640_1189" x1="63.9456" y1="56.8136" x2="63.9456" y2="73.199" gradientUnits="userSpaceOnUse">
<stop stop-color="#58FFFF"/>
<stop offset="0.494955" stop-color="#79FCFC"/>
<stop offset="1" stop-color="#13E4E4" stop-opacity="0"/>
</linearGradient>
<linearGradient id="paint94_linear_3640_1189" x1="63.9456" y1="56.8136" x2="63.9456" y2="73.199" gradientUnits="userSpaceOnUse">
<stop stop-color="#58FFFF"/>
<stop offset="0.494955" stop-color="#79FCFC"/>
<stop offset="1" stop-color="#13E4E4" stop-opacity="0"/>
</linearGradient>
<linearGradient id="paint95_linear_3640_1189" x1="63.9456" y1="56.8136" x2="63.9456" y2="73.199" gradientUnits="userSpaceOnUse">
<stop stop-color="#58FFFF"/>
<stop offset="0.494955" stop-color="#79FCFC"/>
<stop offset="1" stop-color="#13E4E4" stop-opacity="0"/>
</linearGradient>
<linearGradient id="paint96_linear_3640_1189" x1="63.9456" y1="56.8136" x2="63.9456" y2="73.199" gradientUnits="userSpaceOnUse">
<stop stop-color="#58FFFF"/>
<stop offset="0.494955" stop-color="#79FCFC"/>
<stop offset="1" stop-color="#13E4E4" stop-opacity="0"/>
</linearGradient>
<linearGradient id="paint97_linear_3640_1189" x1="65.6694" y1="42.544" x2="65.6694" y2="57.9655" gradientUnits="userSpaceOnUse">
<stop stop-color="#2F2F2F" stop-opacity="0"/>
<stop offset="0.512772" stop-color="#349BC7"/>
<stop offset="1" stop-color="#2F2F2F"/>
</linearGradient>
<linearGradient id="paint98_linear_3640_1189" x1="65.6694" y1="42.544" x2="65.6694" y2="57.9655" gradientUnits="userSpaceOnUse">
<stop stop-color="#2F2F2F" stop-opacity="0"/>
<stop offset="0.512772" stop-color="#349BC7"/>
<stop offset="1" stop-color="#2F2F2F"/>
</linearGradient>
<linearGradient id="paint99_linear_3640_1189" x1="65.6694" y1="42.544" x2="65.6694" y2="57.9655" gradientUnits="userSpaceOnUse">
<stop stop-color="#2F2F2F" stop-opacity="0"/>
<stop offset="0.512772" stop-color="#349BC7"/>
<stop offset="1" stop-color="#2F2F2F"/>
</linearGradient>
<linearGradient id="paint100_linear_3640_1189" x1="65.6694" y1="42.544" x2="65.6694" y2="57.9655" gradientUnits="userSpaceOnUse">
<stop stop-color="#2F2F2F" stop-opacity="0"/>
<stop offset="0.512772" stop-color="#349BC7"/>
<stop offset="1" stop-color="#2F2F2F"/>
</linearGradient>
<linearGradient id="paint101_linear_3640_1189" x1="65.6694" y1="42.544" x2="65.6694" y2="57.9655" gradientUnits="userSpaceOnUse">
<stop stop-color="#2F2F2F" stop-opacity="0"/>
<stop offset="0.512772" stop-color="#349BC7"/>
<stop offset="1" stop-color="#2F2F2F"/>
</linearGradient>
<linearGradient id="paint102_linear_3640_1189" x1="65.6694" y1="42.544" x2="65.6694" y2="57.9655" gradientUnits="userSpaceOnUse">
<stop stop-color="#2F2F2F" stop-opacity="0"/>
<stop offset="0.512772" stop-color="#349BC7"/>
<stop offset="1" stop-color="#2F2F2F"/>
</linearGradient>
<linearGradient id="paint103_linear_3640_1189" x1="65.6694" y1="42.544" x2="65.6694" y2="57.9655" gradientUnits="userSpaceOnUse">
<stop stop-color="#2F2F2F" stop-opacity="0"/>
<stop offset="0.512772" stop-color="#349BC7"/>
<stop offset="1" stop-color="#2F2F2F"/>
</linearGradient>
<linearGradient id="paint104_linear_3640_1189" x1="65.6694" y1="42.544" x2="65.6694" y2="57.9655" gradientUnits="userSpaceOnUse">
<stop stop-color="#2F2F2F" stop-opacity="0"/>
<stop offset="0.512772" stop-color="#349BC7"/>
<stop offset="1" stop-color="#2F2F2F"/>
</linearGradient>
<linearGradient id="paint105_linear_3640_1189" x1="65.6694" y1="42.544" x2="65.6694" y2="57.9655" gradientUnits="userSpaceOnUse">
<stop stop-color="#2F2F2F" stop-opacity="0"/>
<stop offset="0.512772" stop-color="#349BC7"/>
<stop offset="1" stop-color="#2F2F2F"/>
</linearGradient>
<linearGradient id="paint106_linear_3640_1189" x1="65.6694" y1="42.544" x2="65.6694" y2="57.9655" gradientUnits="userSpaceOnUse">
<stop stop-color="#2F2F2F" stop-opacity="0"/>
<stop offset="0.512772" stop-color="#349BC7"/>
<stop offset="1" stop-color="#2F2F2F"/>
</linearGradient>
<linearGradient id="paint107_linear_3640_1189" x1="65.6694" y1="42.544" x2="65.6694" y2="57.9655" gradientUnits="userSpaceOnUse">
<stop stop-color="#2F2F2F" stop-opacity="0"/>
<stop offset="0.512772" stop-color="#349BC7"/>
<stop offset="1" stop-color="#2F2F2F"/>
</linearGradient>
<linearGradient id="paint108_linear_3640_1189" x1="65.6694" y1="42.544" x2="65.6694" y2="57.9655" gradientUnits="userSpaceOnUse">
<stop stop-color="#2F2F2F" stop-opacity="0"/>
<stop offset="0.512772" stop-color="#349BC7"/>
<stop offset="1" stop-color="#2F2F2F"/>
</linearGradient>
</defs>
</svg>
