<svg width="98" height="98" viewBox="0 0 98 98" fill="none" xmlns="http://www.w3.org/2000/svg">
<g id="Group 2087325365">
<rect id="Rectangle 4252733" width="98" height="98" rx="24" fill="url(#paint0_radial_3920_2994)"/>
<path id="Vector 27" d="M42.1177 24.1416V35.5635C42.1177 40.5606 46.5131 45.5577 49.8095 44.8438C53.1059 44.1299 54.9373 49.127 50.1758 49.4839C42.8504 49.7695 38.5773 42.2263 37.3564 38.419C27.98 38.419 21.4848 45.7956 19.4093 49.4839C12.4502 48.7701 10.2525 54.481 9.1537 57.6934C8.0549 60.9058 13.1826 63.4044 13.9152 58.7642C14.6477 54.1241 18.6766 54.1241 17.944 54.481C17.2115 54.838 16.8452 68.4015 17.2115 70.5431C17.5045 72.2564 18.3103 72.6847 18.6766 72.6847H27.8333C27.8333 72.4467 29.3914 65.6625 31.7086 63.4044C34.6388 60.5489 37.9352 61.2628 40.8653 61.9766C43.0629 62.512 46.635 69.3533 47.6117 72.6847C49.8093 72.9226 54.6441 73.2558 56.4022 72.6847C58.1602 72.1136 58.3556 70.0672 58.2335 69.1153C58.2335 61.6911 60.9195 57.4555 62.2624 56.2657C62.2624 59.2401 64.167 65.2604 71.7854 65.546C81.3084 65.9029 83.8723 58.4073 84.2385 56.2657C84.6048 54.1241 84.2385 45.5577 84.2385 40.5606C84.2385 35.5635 89 37.7051 89 35.2066C89 32.708 84.6048 33.7788 81.6746 35.5635C78.7445 37.3482 79.8433 41.9883 79.8433 47.3423C79.8433 52.6964 80.5758 55.5518 78.012 58.7642C75.9609 61.3342 74.9597 59.835 74.7156 58.7642V35.5635C74.7156 24.7127 65.1926 22 60.4311 22H44.3153C42.5572 22 42.1177 23.4277 42.1177 24.1416Z" fill="url(#paint1_linear_3920_2994)"/>
</g>
<defs>
<radialGradient id="paint0_radial_3920_2994" cx="0" cy="0" r="1" gradientUnits="userSpaceOnUse" gradientTransform="translate(49 42.2823) rotate(90) scale(132.379)">
<stop/>
<stop offset="1"/>
</radialGradient>
<linearGradient id="paint1_linear_3920_2994" x1="64.3065" y1="22" x2="28.6373" y2="82.2995" gradientUnits="userSpaceOnUse">
<stop stop-color="white"/>
<stop offset="1" stop-color="white" stop-opacity="0"/>
</linearGradient>
</defs>
</svg>
