<svg width="24" height="24" viewBox="0 0 24 24" fill="none" xmlns="http://www.w3.org/2000/svg">
<path fill-rule="evenodd" clip-rule="evenodd" d="M13 18.98V5.02C13 4.41 12.51 4 11.99 4C11.78 4 11.55 4.07 11.36 4.24L7.28 7.7C7.1 7.85 6.87 7.93 6.64 7.93H4C3.45 7.93 3 8.39 3 8.95V15.05C3 15.61 3.45 16.07 4 16.07H6.64C6.87 16.07 7.1 16.15 7.28 16.3L11.36 19.76C11.55 19.93 11.78 20 11.99 20C12.51 20 13 19.59 13 18.98ZM15.1 14.3C15.2 14.43 15.35 14.5 15.5 14.5C15.6 14.5 15.71 14.47 15.8 14.4C16.94 13.54 17 12.25 17 12C17 10.58 16 9.75001 15.8 9.60001C15.58 9.44001 15.27 9.48001 15.1 9.70001C14.94 9.92001 14.98 10.23 15.2 10.4C15.28 10.46 16 11.03 16 12C16 12.1 15.98 13.02 15.2 13.6C14.98 13.77 14.93 14.08 15.1 14.3ZM16.5 16.5C16.35 16.5 16.2 16.43 16.1 16.3C15.93 16.08 15.98 15.77 16.2 15.6C17.95 14.29 18 12.23 18 12C18 9.81 16.38 8.54 16.2 8.4C15.98 8.23 15.93 7.92 16.1 7.7C16.27 7.48 16.58 7.43 16.8 7.6C17.17 7.88 19 9.38 19 12C19 12.46 18.89 14.83 16.8 16.4C16.71 16.47 16.6 16.5 16.5 16.5ZM17.1 18.3C17.2 18.43 17.35 18.5 17.5 18.5C17.6 18.5 17.71 18.47 17.8 18.4C20.85 16.12 21 12.67 21 12C21 8.2 18.33 6 17.8 5.6C17.58 5.43 17.27 5.48 17.1 5.7C16.94 5.92 16.98 6.23 17.2 6.4C17.49 6.62 20 8.6 20 12C20 12.36 19.92 15.56 17.2 17.6C16.98 17.77 16.93 18.08 17.1 18.3Z" fill="#0C090E"/>
</svg>
