<svg width="24" height="24" viewBox="0 0 24 24" fill="none" xmlns="http://www.w3.org/2000/svg">
<path fill-rule="evenodd" clip-rule="evenodd" d="M3.70056 17.999C3.30056 18.299 3.30056 18.799 3.60056 19.199C3.90056 19.599 4.40056 19.599 4.80056 19.299L20.4006 5.799C20.8006 5.499 20.8006 4.999 20.5006 4.599C20.2006 4.199 19.7006 4.199 19.3006 4.499L3.70056 17.999ZM6.2 8.20022L11.7 5.40022C12.2 5.10022 13 5.60022 13 6.20022V8.90022L5.2 15.6002H3.9C3.4 15.6002 3 15.2002 3 14.7002V9.30022C3 8.80022 3.4 8.40022 3.9 8.40022H5.7H5.9C6 8.30022 6.1 8.20022 6.2 8.20022ZM11.7 18.6002L8.7 17.1002L13 13.4002V17.8002C13 18.5002 12.3 18.9002 11.7 18.6002ZM14.1992 12.1992V16.4992C16.0992 16.1992 17.5992 14.2992 17.5992 11.9992C17.5992 11.1992 17.3992 10.3992 17.0992 9.69922L14.1992 12.1992ZM19.3008 12.0006C19.3008 10.7006 19.0008 9.60058 18.4008 8.60058L19.7008 7.50058C20.5008 8.80058 21.0008 10.3006 21.0008 12.0006C21.0008 15.8006 18.5008 19.0006 15.3008 19.7006C14.8008 19.9006 14.3008 19.4006 14.3008 18.9006C14.3008 18.4006 14.6008 18.0006 15.1008 17.9006C17.5008 17.2006 19.3008 14.8006 19.3008 12.0006ZM15.3008 4.30058C16.0008 4.40058 16.7008 4.70058 17.3008 5.10058L15.9008 6.40058C15.7508 6.35058 15.6258 6.30058 15.5008 6.25058C15.3758 6.20058 15.2508 6.15058 15.1008 6.10058C14.7008 6.00058 14.3008 5.60058 14.3008 5.10058C14.3008 4.60058 14.8008 4.20058 15.3008 4.30058Z" fill="#AAAAAA"/>
</svg>
