<svg width="304" height="304" viewBox="0 0 304 304" fill="none" xmlns="http://www.w3.org/2000/svg">
<g clip-path="url(#clip0_3640_1162)">
<path d="M0 135.059C0 60.4673 60.4683 -0.000976562 135.06 -0.000976562H217.06C265.012 -0.000976562 303.884 38.8715 303.884 86.8231V130.235C303.884 226.138 226.139 303.883 130.236 303.883C58.3087 303.883 0 245.575 0 173.647V135.059Z" fill="#5CFF63"/>
<g filter="url(#filter0_f_3640_1162)">
<circle cx="33.1432" cy="151.941" r="119.229" fill="#0644BB"/>
</g>
<g filter="url(#filter1_f_3640_1162)">
<circle cx="275.476" cy="228.988" r="174.755" fill="#D9CB4F"/>
</g>
<path d="M96.8981 140.724V144.216H90.5863V146.991H95.2418V150.326H90.5863V156.504H86.1993V140.724H96.8981ZM105.192 156.66C103.715 156.66 102.357 156.317 101.118 155.631C99.8797 154.929 98.8949 153.967 98.1638 152.743C97.4475 151.505 97.0894 150.11 97.0894 148.558C97.0894 147.006 97.4475 145.618 98.1638 144.395C98.8949 143.156 99.8797 142.194 101.118 141.507C102.357 140.821 103.715 140.478 105.192 140.478C106.684 140.478 108.042 140.821 109.265 141.507C110.504 142.194 111.481 143.156 112.198 144.395C112.914 145.618 113.272 147.006 113.272 148.558C113.272 150.11 112.914 151.505 112.198 152.743C111.481 153.967 110.504 154.929 109.265 155.631C108.027 156.317 106.669 156.66 105.192 156.66ZM105.192 152.587C106.311 152.587 107.191 152.221 107.833 151.49C108.49 150.759 108.818 149.781 108.818 148.558C108.818 147.304 108.49 146.32 107.833 145.603C107.191 144.872 106.311 144.507 105.192 144.507C104.058 144.507 103.17 144.872 102.528 145.603C101.887 146.32 101.566 147.304 101.566 148.558C101.566 149.796 101.887 150.781 102.528 151.512C103.17 152.228 104.058 152.587 105.192 152.587ZM122.115 156.504L118.982 150.684H118.512V156.504H114.125V140.724H121.041C122.309 140.724 123.384 140.948 124.264 141.395C125.144 141.828 125.808 142.432 126.256 143.208C126.704 143.969 126.928 144.827 126.928 145.782C126.928 146.857 126.629 147.804 126.032 148.625C125.45 149.431 124.592 150.005 123.458 150.348L127.017 156.504H122.115ZM118.512 147.685H120.683C121.28 147.685 121.727 147.543 122.026 147.26C122.324 146.976 122.474 146.566 122.474 146.029C122.474 145.521 122.317 145.126 122.003 144.842C121.705 144.544 121.265 144.395 120.683 144.395H118.512V147.685ZM136.922 156.66C135.087 156.66 133.58 156.227 132.401 155.362C131.222 154.482 130.588 153.228 130.498 151.602H135.176C135.221 152.154 135.385 152.557 135.669 152.81C135.952 153.064 136.318 153.191 136.766 153.191C137.168 153.191 137.497 153.094 137.75 152.9C138.019 152.691 138.153 152.408 138.153 152.049C138.153 151.587 137.937 151.229 137.504 150.975C137.071 150.721 136.37 150.438 135.4 150.125C134.371 149.781 133.535 149.453 132.893 149.14C132.267 148.811 131.715 148.341 131.237 147.73C130.775 147.103 130.543 146.29 130.543 145.29C130.543 144.275 130.797 143.41 131.304 142.694C131.812 141.962 132.513 141.41 133.408 141.037C134.304 140.664 135.318 140.478 136.452 140.478C138.288 140.478 139.75 140.91 140.839 141.776C141.943 142.626 142.533 143.828 142.607 145.379H137.84C137.825 144.902 137.676 144.544 137.392 144.305C137.124 144.066 136.773 143.947 136.34 143.947C136.012 143.947 135.743 144.044 135.535 144.238C135.326 144.432 135.221 144.708 135.221 145.066C135.221 145.365 135.333 145.626 135.557 145.85C135.796 146.058 136.087 146.245 136.43 146.409C136.773 146.558 137.28 146.752 137.952 146.991C138.952 147.334 139.772 147.677 140.414 148.021C141.07 148.349 141.63 148.819 142.093 149.431C142.57 150.028 142.809 150.789 142.809 151.714C142.809 152.654 142.57 153.497 142.093 154.243C141.63 154.989 140.951 155.578 140.056 156.011C139.175 156.444 138.131 156.66 136.922 156.66ZM148.116 140.724V156.504H143.729V140.724H148.116ZM164.111 156.504H159.724L153.882 147.685V156.504H149.495V140.724H153.882L159.724 149.655V140.724H164.111V156.504ZM175.563 145.917C175.309 145.499 174.959 145.178 174.511 144.954C174.078 144.73 173.563 144.618 172.967 144.618C171.862 144.618 170.989 144.977 170.348 145.693C169.721 146.409 169.408 147.372 169.408 148.58C169.408 149.938 169.743 150.975 170.415 151.691C171.101 152.393 172.094 152.743 173.392 152.743C174.929 152.743 176.025 152.049 176.682 150.662H172.273V147.506H180.465V151.758C180.121 152.594 179.614 153.377 178.943 154.109C178.286 154.84 177.45 155.444 176.436 155.922C175.421 156.384 174.265 156.615 172.967 156.615C171.385 156.615 169.982 156.28 168.759 155.608C167.55 154.922 166.61 153.974 165.938 152.766C165.282 151.542 164.954 150.147 164.954 148.58C164.954 147.028 165.282 145.648 165.938 144.439C166.61 143.216 167.55 142.268 168.759 141.597C169.967 140.91 171.362 140.567 172.944 140.567C174.929 140.567 176.57 141.045 177.868 142C179.166 142.955 179.972 144.26 180.286 145.917H175.563ZM185.698 144.238V146.812H190.734V150.147H185.698V152.989H191.406V156.504H181.311V140.724H191.406V144.238H185.698ZM200.445 156.504L197.312 150.684H196.842V156.504H192.455V140.724H199.371C200.639 140.724 201.713 140.948 202.594 141.395C203.474 141.828 204.138 142.432 204.586 143.208C205.034 143.969 205.257 144.827 205.257 145.782C205.257 146.857 204.959 147.804 204.362 148.625C203.78 149.431 202.922 150.005 201.788 150.348L205.347 156.504H200.445ZM196.842 147.685H199.013C199.61 147.685 200.057 147.543 200.356 147.26C200.654 146.976 200.803 146.566 200.803 146.029C200.803 145.521 200.647 145.126 200.333 144.842C200.035 144.544 199.595 144.395 199.013 144.395H196.842V147.685ZM212.087 156.66C210.252 156.66 208.745 156.227 207.566 155.362C206.387 154.482 205.753 153.228 205.663 151.602H210.341C210.386 152.154 210.55 152.557 210.834 152.81C211.117 153.064 211.483 153.191 211.93 153.191C212.333 153.191 212.661 153.094 212.915 152.9C213.184 152.691 213.318 152.408 213.318 152.049C213.318 151.587 213.102 151.229 212.669 150.975C212.236 150.721 211.535 150.438 210.565 150.125C209.535 149.781 208.7 149.453 208.058 149.14C207.431 148.811 206.879 148.341 206.402 147.73C205.939 147.103 205.708 146.29 205.708 145.29C205.708 144.275 205.962 143.41 206.469 142.694C206.976 141.962 207.678 141.41 208.573 141.037C209.468 140.664 210.483 140.478 211.617 140.478C213.452 140.478 214.915 140.91 216.004 141.776C217.108 142.626 217.698 143.828 217.772 145.379H213.005C212.99 144.902 212.841 144.544 212.557 144.305C212.288 144.066 211.938 143.947 211.505 143.947C211.177 143.947 210.908 144.044 210.699 144.238C210.49 144.432 210.386 144.708 210.386 145.066C210.386 145.365 210.498 145.626 210.722 145.85C210.96 146.058 211.251 146.245 211.595 146.409C211.938 146.558 212.445 146.752 213.117 146.991C214.116 147.334 214.937 147.677 215.579 148.021C216.235 148.349 216.795 148.819 217.257 149.431C217.735 150.028 217.974 150.789 217.974 151.714C217.974 152.654 217.735 153.497 217.257 154.243C216.795 154.989 216.116 155.578 215.221 156.011C214.34 156.444 213.296 156.66 212.087 156.66Z" fill="black"/>
</g>
<defs>
<filter id="filter0_f_3640_1162" x="-258.259" y="-139.461" width="582.804" height="582.804" filterUnits="userSpaceOnUse" color-interpolation-filters="sRGB">
<feFlood flood-opacity="0" result="BackgroundImageFix"/>
<feBlend mode="normal" in="SourceGraphic" in2="BackgroundImageFix" result="shape"/>
<feGaussianBlur stdDeviation="86.0863" result="effect1_foregroundBlur_3640_1162"/>
</filter>
<filter id="filter1_f_3640_1162" x="-71.4516" y="-117.939" width="693.855" height="693.855" filterUnits="userSpaceOnUse" color-interpolation-filters="sRGB">
<feFlood flood-opacity="0" result="BackgroundImageFix"/>
<feBlend mode="normal" in="SourceGraphic" in2="BackgroundImageFix" result="shape"/>
<feGaussianBlur stdDeviation="86.0863" result="effect1_foregroundBlur_3640_1162"/>
</filter>
<clipPath id="clip0_3640_1162">
<path d="M0 135.059C0 60.4673 60.4683 -0.000976562 135.06 -0.000976562H217.06C265.012 -0.000976562 303.884 38.8715 303.884 86.8231V130.235C303.884 226.138 226.139 303.883 130.236 303.883C58.3087 303.883 0 245.575 0 173.647V135.059Z" fill="white"/>
</clipPath>
</defs>
</svg>
