<svg width="344" height="344" viewBox="0 0 344 344" fill="none" xmlns="http://www.w3.org/2000/svg">
<g clip-path="url(#clip0_3640_1163)">
<path d="M120.269 56.325C173.407 25.217 241.702 43.0762 272.81 96.2145L307.008 154.631C327.006 188.791 315.525 232.695 281.365 252.693L250.439 270.798C182.118 310.794 94.3098 287.832 54.3139 219.512C24.3169 168.271 41.5382 102.415 92.7788 72.4181L120.269 56.325Z" fill="#FCB079"/>
<g filter="url(#filter0_f_3640_1163)">
<circle cx="251.194" cy="121.411" r="98.4223" transform="rotate(59.6547 251.194 121.411)" fill="#FD2727"/>
</g>
<g filter="url(#filter1_f_3640_1163)">
<circle cx="73.5451" cy="265.918" r="144.258" transform="rotate(59.6547 73.5451 265.918)" fill="#5E26FF"/>
</g>
<path d="M168.302 140.88L168.302 144.371H161.99L161.99 147.147H166.646L166.646 150.482H161.99L161.99 156.659H157.603L157.603 140.88H168.302ZM176.596 156.816C175.119 156.816 173.761 156.473 172.522 155.787C171.284 155.085 170.299 154.123 169.568 152.899C168.852 151.661 168.494 150.266 168.494 148.714C168.494 147.162 168.852 145.774 169.568 144.551C170.299 143.312 171.284 142.35 172.522 141.663C173.761 140.977 175.119 140.634 176.596 140.634C178.088 140.634 179.446 140.977 180.67 141.663C181.908 142.35 182.885 143.312 183.602 144.551C184.318 145.774 184.676 147.162 184.676 148.714C184.676 150.266 184.318 151.661 183.602 152.899C182.885 154.123 181.908 155.085 180.67 155.787C179.431 156.473 178.073 156.816 176.596 156.816ZM176.596 152.742C177.715 152.742 178.596 152.377 179.237 151.646C179.894 150.915 180.222 149.937 180.222 148.714C180.222 147.46 179.894 146.475 179.237 145.759C178.596 145.028 177.715 144.662 176.596 144.662C175.462 144.662 174.574 145.028 173.933 145.759C173.291 146.475 172.97 147.46 172.97 148.714C172.97 149.952 173.291 150.937 173.933 151.668C174.574 152.384 175.462 152.742 176.596 152.742ZM193.52 156.659L190.386 150.84H189.916L189.916 156.659H185.529L185.529 140.88H192.445C193.714 140.88 194.788 141.104 195.668 141.551C196.549 141.984 197.213 142.588 197.66 143.364C198.108 144.125 198.332 144.983 198.332 145.938C198.332 147.013 198.033 147.96 197.436 148.781C196.855 149.587 195.997 150.161 194.863 150.504L198.421 156.659H193.52ZM189.916 147.841H192.087C192.684 147.841 193.132 147.699 193.43 147.415C193.728 147.132 193.878 146.722 193.878 146.184C193.878 145.677 193.721 145.282 193.408 144.998C193.109 144.7 192.669 144.551 192.087 144.551H189.916L189.916 147.841ZM117.809 179.085H112.214L111.363 181.659H106.752L112.505 165.88H117.563L123.293 181.659H118.66L117.809 179.085ZM116.712 175.728L115.011 170.625L113.333 175.728H116.712ZM129.848 165.88C131.505 165.88 132.952 166.216 134.191 166.887C135.444 167.544 136.406 168.469 137.078 169.662C137.749 170.856 138.085 172.222 138.085 173.758C138.085 175.28 137.742 176.638 137.055 177.832C136.384 179.026 135.422 179.966 134.168 180.652C132.93 181.324 131.49 181.659 129.848 181.659H123.604L123.604 165.88H129.848ZM129.513 177.787C130.796 177.787 131.803 177.437 132.534 176.735C133.265 176.034 133.631 175.042 133.631 173.758C133.631 172.46 133.265 171.46 132.534 170.759C131.803 170.043 130.796 169.685 129.513 169.685H127.991L127.991 177.787H129.513ZM154.298 165.88L148.859 181.659H143.241L137.78 165.88H142.48L146.061 177.272L149.62 165.88H154.298ZM158.933 169.394L158.933 171.968H163.969L163.969 175.303H158.933L158.933 178.145H164.64L164.64 181.659H154.546L154.546 165.88H164.64L164.64 169.394H158.933ZM173.679 181.659L170.546 175.84H170.076L170.076 181.659H165.689L165.689 165.88H172.605C173.873 165.88 174.948 166.104 175.828 166.551C176.708 166.984 177.372 167.588 177.82 168.364C178.268 169.125 178.491 169.983 178.491 170.938C178.491 172.013 178.193 172.96 177.596 173.781C177.014 174.587 176.156 175.161 175.022 175.504L178.581 181.659H173.679ZM170.076 172.841H172.247C172.844 172.841 173.291 172.699 173.59 172.415C173.888 172.132 174.037 171.722 174.037 171.184C174.037 170.677 173.881 170.282 173.567 169.998C173.269 169.7 172.829 169.551 172.247 169.551H170.076L170.076 172.841ZM191.252 165.88L191.252 169.371H187.044L187.045 181.659H182.658L182.658 169.371H178.494L178.494 165.88H191.252ZM196.143 165.88L196.143 181.659H191.756L191.756 165.88H196.143ZM203.476 181.816C201.641 181.816 200.134 181.383 198.955 180.518C197.776 179.638 197.142 178.384 197.052 176.758H201.73C201.775 177.31 201.939 177.713 202.223 177.966C202.506 178.22 202.872 178.347 203.319 178.347C203.722 178.347 204.051 178.25 204.304 178.056C204.573 177.847 204.707 177.563 204.707 177.205C204.707 176.743 204.491 176.385 204.058 176.131C203.625 175.877 202.924 175.594 201.954 175.28C200.925 174.937 200.089 174.609 199.447 174.296C198.821 173.967 198.269 173.497 197.791 172.886C197.328 172.259 197.097 171.446 197.097 170.446C197.097 169.431 197.351 168.566 197.858 167.849C198.366 167.118 199.067 166.566 199.962 166.193C200.857 165.82 201.872 165.634 203.006 165.634C204.842 165.634 206.304 166.066 207.393 166.932C208.497 167.782 209.087 168.984 209.161 170.535H204.394C204.379 170.058 204.23 169.7 203.946 169.461C203.678 169.222 203.327 169.103 202.894 169.103C202.566 169.103 202.297 169.2 202.088 169.394C201.88 169.588 201.775 169.864 201.775 170.222C201.775 170.52 201.887 170.782 202.111 171.005C202.35 171.214 202.641 171.401 202.984 171.565C203.327 171.714 203.834 171.908 204.506 172.147C205.506 172.49 206.326 172.833 206.968 173.176C207.624 173.505 208.184 173.975 208.647 174.587C209.124 175.183 209.363 175.944 209.363 176.87C209.363 177.81 209.124 178.653 208.647 179.399C208.184 180.145 207.505 180.734 206.61 181.167C205.729 181.6 204.685 181.816 203.476 181.816ZM214.67 169.394L214.67 171.968H219.706L219.706 175.303H214.67L214.67 178.145H220.378L220.378 181.659H210.283L210.283 165.88H220.378L220.378 169.394H214.67ZM229.417 181.659L226.283 175.84H225.813L225.813 181.659H221.426L221.426 165.88H228.342C229.611 165.88 230.685 166.104 231.565 166.551C232.446 166.984 233.11 167.588 233.557 168.364C234.005 169.125 234.229 169.983 234.229 170.938C234.229 172.013 233.931 172.96 233.334 173.781C232.752 174.587 231.894 175.161 230.76 175.504L234.318 181.659H229.417ZM225.813 172.841H227.984C228.581 172.841 229.029 172.699 229.327 172.415C229.626 172.132 229.775 171.722 229.775 171.184C229.775 170.677 229.618 170.282 229.305 169.998C229.006 169.7 228.566 169.551 227.984 169.551H225.813L225.813 172.841ZM241.059 181.816C239.223 181.816 237.716 181.383 236.537 180.518C235.358 179.638 234.724 178.384 234.635 176.758H239.313C239.357 177.31 239.522 177.713 239.805 177.966C240.089 178.22 240.454 178.347 240.902 178.347C241.305 178.347 241.633 178.25 241.887 178.056C242.155 177.847 242.29 177.563 242.29 177.205C242.29 176.743 242.073 176.385 241.64 176.131C241.208 175.877 240.506 175.594 239.537 175.28C238.507 174.937 237.671 174.609 237.03 174.296C236.403 173.967 235.851 173.497 235.373 172.886C234.911 172.259 234.68 171.446 234.68 170.446C234.68 169.431 234.933 168.566 235.441 167.849C235.948 167.118 236.649 166.566 237.544 166.193C238.44 165.82 239.454 165.634 240.588 165.634C242.424 165.634 243.886 166.066 244.975 166.932C246.08 167.782 246.669 168.984 246.744 170.535H241.976C241.961 170.058 241.812 169.7 241.529 169.461C241.26 169.222 240.909 169.103 240.477 169.103C240.148 169.103 239.88 169.2 239.671 169.394C239.462 169.588 239.357 169.864 239.357 170.222C239.357 170.52 239.469 170.782 239.693 171.005C239.932 171.214 240.223 171.401 240.566 171.565C240.909 171.714 241.417 171.908 242.088 172.147C243.088 172.49 243.909 172.833 244.55 173.176C245.207 173.505 245.766 173.975 246.229 174.587C246.706 175.183 246.945 175.944 246.945 176.87C246.945 177.81 246.706 178.653 246.229 179.399C245.766 180.145 245.087 180.734 244.192 181.167C243.312 181.6 242.267 181.816 241.059 181.816Z" fill="black"/>
</g>
<defs>
<filter id="filter0_f_3640_1163" x="10.6292" y="-119.153" width="481.129" height="481.129" filterUnits="userSpaceOnUse" color-interpolation-filters="sRGB">
<feFlood flood-opacity="0" result="BackgroundImageFix"/>
<feBlend mode="normal" in="SourceGraphic" in2="BackgroundImageFix" result="shape"/>
<feGaussianBlur stdDeviation="71.0631" result="effect1_foregroundBlur_3640_1163"/>
</filter>
<filter id="filter1_f_3640_1163" x="-212.862" y="-20.4891" width="572.815" height="572.815" filterUnits="userSpaceOnUse" color-interpolation-filters="sRGB">
<feFlood flood-opacity="0" result="BackgroundImageFix"/>
<feBlend mode="normal" in="SourceGraphic" in2="BackgroundImageFix" result="shape"/>
<feGaussianBlur stdDeviation="71.0631" result="effect1_foregroundBlur_3640_1163"/>
</filter>
<clipPath id="clip0_3640_1163">
<path d="M120.269 56.325C173.407 25.217 241.702 43.0762 272.81 96.2145L307.008 154.631C327.006 188.791 315.525 232.695 281.365 252.693L250.439 270.798C182.118 310.794 94.3098 287.832 54.3139 219.512C24.3169 168.271 41.5382 102.415 92.7788 72.4181L120.269 56.325Z" fill="white"/>
</clipPath>
</defs>
</svg>
