<svg width="341" height="341" viewBox="0 0 341 341" fill="none" xmlns="http://www.w3.org/2000/svg">
<g clip-path="url(#clip0_3640_1164)">
<path d="M308.329 149.099C325.981 214.975 286.887 282.687 221.011 300.339L148.591 319.743C106.242 331.091 62.7131 305.959 51.3657 263.61L41.0926 225.27C18.3979 140.573 68.6613 53.5139 153.359 30.8191C216.883 13.7981 282.177 51.4957 299.198 115.019L308.329 149.099Z" fill="#FFE24A"/>
<g filter="url(#filter0_f_3640_1164)">
<circle cx="249.238" cy="245.335" r="109.013" transform="rotate(165 249.238 245.335)" fill="#E83800"/>
</g>
<g filter="url(#filter1_f_3640_1164)">
<circle cx="51.4212" cy="53.8553" r="159.781" transform="rotate(165 51.4212 53.8553)" fill="#D94040"/>
</g>
<path d="M110.571 151.333V154.824H104.259V157.6H108.915V160.935H104.259V167.112H99.8725V151.333H110.571ZM118.865 167.269C117.388 167.269 116.03 166.926 114.791 166.24C113.553 165.538 112.568 164.576 111.837 163.352C111.121 162.114 110.763 160.719 110.763 159.167C110.763 157.615 111.121 156.227 111.837 155.004C112.568 153.765 113.553 152.803 114.791 152.116C116.03 151.43 117.388 151.087 118.865 151.087C120.357 151.087 121.715 151.43 122.939 152.116C124.177 152.803 125.154 153.765 125.871 155.004C126.587 156.227 126.945 157.615 126.945 159.167C126.945 160.719 126.587 162.114 125.871 163.352C125.154 164.576 124.177 165.538 122.939 166.24C121.7 166.926 120.342 167.269 118.865 167.269ZM118.865 163.196C119.984 163.196 120.864 162.83 121.506 162.099C122.163 161.368 122.491 160.39 122.491 159.167C122.491 157.913 122.163 156.928 121.506 156.212C120.864 155.481 119.984 155.115 118.865 155.115C117.731 155.115 116.843 155.481 116.201 156.212C115.56 156.928 115.239 157.913 115.239 159.167C115.239 160.405 115.56 161.39 116.201 162.121C116.843 162.837 117.731 163.196 118.865 163.196ZM135.789 167.112L132.655 161.293H132.185V167.112H127.798V151.333H134.714C135.983 151.333 137.057 151.557 137.937 152.004C138.818 152.437 139.482 153.041 139.929 153.817C140.377 154.578 140.601 155.436 140.601 156.391C140.601 157.466 140.302 158.413 139.705 159.234C139.124 160.04 138.266 160.614 137.132 160.957L140.69 167.112H135.789ZM132.185 158.294H134.356C134.953 158.294 135.401 158.152 135.699 157.868C135.997 157.585 136.147 157.175 136.147 156.637C136.147 156.13 135.99 155.735 135.677 155.451C135.378 155.153 134.938 155.004 134.356 155.004H132.185V158.294ZM144.105 159.189C144.105 157.637 144.425 156.257 145.067 155.048C145.723 153.825 146.649 152.877 147.842 152.206C149.036 151.519 150.409 151.176 151.961 151.176C153.93 151.176 155.587 151.706 156.93 152.765C158.273 153.81 159.138 155.235 159.526 157.04H154.803C154.52 156.443 154.124 155.988 153.617 155.675C153.125 155.362 152.55 155.205 151.894 155.205C150.879 155.205 150.066 155.571 149.454 156.302C148.857 157.018 148.559 157.98 148.559 159.189C148.559 160.413 148.857 161.39 149.454 162.121C150.066 162.837 150.879 163.196 151.894 163.196C152.55 163.196 153.125 163.039 153.617 162.725C154.124 162.412 154.52 161.957 154.803 161.36H159.526C159.138 163.166 158.273 164.598 156.93 165.658C155.587 166.702 153.93 167.224 151.961 167.224C150.409 167.224 149.036 166.889 147.842 166.217C146.649 165.531 145.723 164.583 145.067 163.375C144.425 162.151 144.105 160.756 144.105 159.189ZM168.049 167.269C166.572 167.269 165.214 166.926 163.976 166.24C162.737 165.538 161.753 164.576 161.021 163.352C160.305 162.114 159.947 160.719 159.947 159.167C159.947 157.615 160.305 156.227 161.021 155.004C161.753 153.765 162.737 152.803 163.976 152.116C165.214 151.43 166.572 151.087 168.049 151.087C169.542 151.087 170.9 151.43 172.123 152.116C173.362 152.803 174.339 153.765 175.055 155.004C175.771 156.227 176.13 157.615 176.13 159.167C176.13 160.719 175.771 162.114 175.055 163.352C174.339 164.576 173.362 165.538 172.123 166.24C170.885 166.926 169.527 167.269 168.049 167.269ZM168.049 163.196C169.169 163.196 170.049 162.83 170.691 162.099C171.347 161.368 171.675 160.39 171.675 159.167C171.675 157.913 171.347 156.928 170.691 156.212C170.049 155.481 169.169 155.115 168.049 155.115C166.915 155.115 166.028 155.481 165.386 156.212C164.744 156.928 164.424 157.913 164.424 159.167C164.424 160.405 164.744 161.39 165.386 162.121C166.028 162.837 166.915 163.196 168.049 163.196ZM191.598 167.112H187.211L181.369 158.294V167.112H176.983V151.333H181.369L187.211 160.263V151.333H191.598V167.112ZM204.863 151.333V154.824H200.655V167.112H196.268V154.824H192.105V151.333H204.863ZM209.754 154.847V157.421H214.79V160.756H209.754V163.598H215.462V167.112H205.367V151.333H215.462V154.847H209.754ZM231.126 167.112H226.739L220.897 158.294V167.112H216.51V151.333H220.897L226.739 160.263V151.333H231.126V167.112ZM244.391 151.333V154.824H240.183V167.112H235.796V154.824H231.633V151.333H244.391ZM115.403 184.189C115.403 182.637 115.724 181.257 116.365 180.048C117.022 178.825 117.947 177.877 119.141 177.206C120.335 176.519 121.707 176.176 123.259 176.176C125.229 176.176 126.885 176.706 128.228 177.765C129.571 178.81 130.437 180.235 130.824 182.04H126.102C125.818 181.443 125.423 180.988 124.916 180.675C124.423 180.362 123.849 180.205 123.192 180.205C122.177 180.205 121.364 180.571 120.752 181.302C120.156 182.018 119.857 182.98 119.857 184.189C119.857 185.413 120.156 186.39 120.752 187.121C121.364 187.837 122.177 188.196 123.192 188.196C123.849 188.196 124.423 188.039 124.916 187.725C125.423 187.412 125.818 186.957 126.102 186.36H130.824C130.437 188.166 129.571 189.598 128.228 190.658C126.885 191.702 125.229 192.224 123.259 192.224C121.707 192.224 120.335 191.889 119.141 191.217C117.947 190.531 117.022 189.583 116.365 188.375C115.724 187.151 115.403 185.756 115.403 184.189ZM139.773 192.112L136.64 186.293H136.17V192.112H131.783V176.333H138.699C139.967 176.333 141.042 176.557 141.922 177.004C142.802 177.437 143.466 178.041 143.914 178.817C144.362 179.578 144.585 180.436 144.585 181.391C144.585 182.466 144.287 183.413 143.69 184.234C143.108 185.04 142.25 185.614 141.116 185.957L144.675 192.112H139.773ZM136.17 183.294H138.341C138.938 183.294 139.385 183.152 139.684 182.868C139.982 182.585 140.131 182.175 140.131 181.637C140.131 181.13 139.975 180.735 139.661 180.451C139.363 180.153 138.923 180.004 138.341 180.004H136.17V183.294ZM149.848 179.847V182.421H154.884V185.756H149.848V188.598H155.556V192.112H145.461V176.333H155.556V179.847H149.848ZM166.587 189.538H160.991L160.141 192.112H155.53L161.282 176.333H166.341L172.071 192.112H167.438L166.587 189.538ZM165.49 186.181L163.789 181.078L162.111 186.181H165.49ZM184.267 176.333V179.824H180.059V192.112H175.672V179.824H171.509V176.333H184.267ZM192.336 192.269C190.859 192.269 189.501 191.926 188.262 191.24C187.024 190.538 186.039 189.576 185.308 188.352C184.591 187.114 184.233 185.719 184.233 184.167C184.233 182.615 184.591 181.227 185.308 180.004C186.039 178.765 187.024 177.803 188.262 177.116C189.501 176.43 190.859 176.087 192.336 176.087C193.828 176.087 195.186 176.43 196.409 177.116C197.648 177.803 198.625 178.765 199.341 180.004C200.058 181.227 200.416 182.615 200.416 184.167C200.416 185.719 200.058 187.114 199.341 188.352C198.625 189.576 197.648 190.538 196.409 191.24C195.171 191.926 193.813 192.269 192.336 192.269ZM192.336 188.196C193.455 188.196 194.335 187.83 194.977 187.099C195.633 186.368 195.962 185.39 195.962 184.167C195.962 182.913 195.633 181.928 194.977 181.212C194.335 180.481 193.455 180.115 192.336 180.115C191.202 180.115 190.314 180.481 189.672 181.212C189.031 181.928 188.71 182.913 188.71 184.167C188.71 185.405 189.031 186.39 189.672 187.121C190.314 187.837 191.202 188.196 192.336 188.196ZM209.259 192.112L206.126 186.293H205.656V192.112H201.269V176.333H208.185C209.453 176.333 210.528 176.557 211.408 177.004C212.288 177.437 212.952 178.041 213.4 178.817C213.848 179.578 214.072 180.436 214.072 181.391C214.072 182.466 213.773 183.413 213.176 184.234C212.594 185.04 211.736 185.614 210.602 185.957L214.161 192.112H209.259ZM205.656 183.294H207.827C208.424 183.294 208.871 183.152 209.17 182.868C209.468 182.585 209.617 182.175 209.617 181.637C209.617 181.13 209.461 180.735 209.147 180.451C208.849 180.153 208.409 180.004 207.827 180.004H205.656V183.294ZM220.901 192.269C219.066 192.269 217.559 191.836 216.38 190.971C215.201 190.091 214.567 188.837 214.477 187.211H219.155C219.2 187.763 219.364 188.166 219.648 188.419C219.931 188.673 220.297 188.8 220.744 188.8C221.147 188.8 221.476 188.703 221.729 188.509C221.998 188.3 222.132 188.016 222.132 187.658C222.132 187.196 221.916 186.838 221.483 186.584C221.05 186.33 220.349 186.047 219.379 185.733C218.35 185.39 217.514 185.062 216.872 184.749C216.246 184.42 215.693 183.95 215.216 183.339C214.753 182.712 214.522 181.899 214.522 180.899C214.522 179.884 214.776 179.019 215.283 178.302C215.79 177.571 216.492 177.019 217.387 176.646C218.282 176.273 219.297 176.087 220.431 176.087C222.266 176.087 223.729 176.519 224.818 177.385C225.922 178.235 226.512 179.437 226.586 180.988H221.819C221.804 180.511 221.655 180.153 221.371 179.914C221.103 179.675 220.752 179.556 220.319 179.556C219.991 179.556 219.722 179.653 219.513 179.847C219.305 180.041 219.2 180.317 219.2 180.675C219.2 180.973 219.312 181.235 219.536 181.458C219.775 181.667 220.066 181.854 220.409 182.018C220.752 182.167 221.259 182.361 221.931 182.6C222.93 182.943 223.751 183.286 224.393 183.629C225.049 183.958 225.609 184.428 226.071 185.04C226.549 185.636 226.788 186.397 226.788 187.323C226.788 188.263 226.549 189.106 226.071 189.852C225.609 190.598 224.93 191.187 224.035 191.62C223.154 192.053 222.11 192.269 220.901 192.269Z" fill="black"/>
</g>
<defs>
<filter id="filter0_f_3640_1164" x="-17.2219" y="-21.1245" width="532.919" height="532.919" filterUnits="userSpaceOnUse" color-interpolation-filters="sRGB">
<feFlood flood-opacity="0" result="BackgroundImageFix"/>
<feBlend mode="normal" in="SourceGraphic" in2="BackgroundImageFix" result="shape"/>
<feGaussianBlur stdDeviation="78.7098" result="effect1_foregroundBlur_3640_1164"/>
</filter>
<filter id="filter1_f_3640_1164" x="-265.819" y="-263.385" width="634.48" height="634.48" filterUnits="userSpaceOnUse" color-interpolation-filters="sRGB">
<feFlood flood-opacity="0" result="BackgroundImageFix"/>
<feBlend mode="normal" in="SourceGraphic" in2="BackgroundImageFix" result="shape"/>
<feGaussianBlur stdDeviation="78.7098" result="effect1_foregroundBlur_3640_1164"/>
</filter>
<clipPath id="clip0_3640_1164">
<path d="M308.329 149.099C325.981 214.975 286.887 282.687 221.011 300.339L148.591 319.743C106.242 331.091 62.7131 305.959 51.3657 263.61L41.0926 225.27C18.3979 140.573 68.6613 53.5139 153.359 30.8191C216.883 13.7981 282.177 51.4957 299.198 115.019L308.329 149.099Z" fill="white"/>
</clipPath>
</defs>
</svg>
