<svg width="1440" height="444" viewBox="0 0 1440 444" fill="none" xmlns="http://www.w3.org/2000/svg">
<rect width="4" height="4" rx="2" fill="#333333"/>
<rect x="40" width="4" height="4" rx="2" fill="#333333"/>
<rect x="80" width="4" height="4" rx="2" fill="#333333"/>
<rect x="120" width="4" height="4" rx="2" fill="#333333"/>
<rect x="160" width="4" height="4" rx="2" fill="#333333"/>
<rect x="200" width="4" height="4" rx="2" fill="#333333"/>
<rect x="240" width="4" height="4" rx="2" fill="#333333"/>
<rect x="280" width="4" height="4" rx="2" fill="#333333"/>
<rect x="320" width="4" height="4" rx="2" fill="#333333"/>
<rect x="360" width="4" height="4" rx="2" fill="#333333"/>
<rect x="400" width="4" height="4" rx="2" fill="#333333"/>
<rect x="440" width="4" height="4" rx="2" fill="#333333"/>
<rect x="480" width="4" height="4" rx="2" fill="#333333"/>
<rect x="520" width="4" height="4" rx="2" fill="#333333"/>
<rect x="560" width="4" height="4" rx="2" fill="#333333"/>
<rect x="600" width="4" height="4" rx="2" fill="#333333"/>
<rect x="640" width="4" height="4" rx="2" fill="#333333"/>
<rect x="680" width="4" height="4" rx="2" fill="#333333"/>
<rect x="720" width="4" height="4" rx="2" fill="#333333"/>
<rect x="760" width="4" height="4" rx="2" fill="#333333"/>
<rect x="800" width="4" height="4" rx="2" fill="#333333"/>
<rect x="840" width="4" height="4" rx="2" fill="#333333"/>
<rect x="880" width="4" height="4" rx="2" fill="#333333"/>
<rect x="920" width="4" height="4" rx="2" fill="#333333"/>
<rect x="960" width="4" height="4" rx="2" fill="#333333"/>
<rect x="1000" width="4" height="4" rx="2" fill="#333333"/>
<rect x="1040" width="4" height="4" rx="2" fill="#333333"/>
<rect x="1080" width="4" height="4" rx="2" fill="#333333"/>
<rect x="1120" width="4" height="4" rx="2" fill="#333333"/>
<rect x="1160" width="4" height="4" rx="2" fill="#333333"/>
<rect x="1200" width="4" height="4" rx="2" fill="#333333"/>
<rect x="1240" width="4" height="4" rx="2" fill="#333333"/>
<rect x="1280" width="4" height="4" rx="2" fill="#333333"/>
<rect x="1320" width="4" height="4" rx="2" fill="#333333"/>
<rect x="1360" width="4" height="4" rx="2" fill="#333333"/>
<rect x="1400" width="4" height="4" rx="2" fill="#333333"/>
<rect y="40" width="4" height="4" rx="2" fill="#333333"/>
<rect x="40" y="40" width="4" height="4" rx="2" fill="#333333"/>
<rect x="80" y="40" width="4" height="4" rx="2" fill="#333333"/>
<rect x="120" y="40" width="4" height="4" rx="2" fill="#333333"/>
<rect x="160" y="40" width="4" height="4" rx="2" fill="#333333"/>
<rect x="200" y="40" width="4" height="4" rx="2" fill="#333333"/>
<rect x="240" y="40" width="4" height="4" rx="2" fill="#333333"/>
<rect x="280" y="40" width="4" height="4" rx="2" fill="#333333"/>
<rect x="320" y="40" width="4" height="4" rx="2" fill="#333333"/>
<rect x="360" y="40" width="4" height="4" rx="2" fill="#333333"/>
<rect x="400" y="40" width="4" height="4" rx="2" fill="#333333"/>
<rect x="440" y="40" width="4" height="4" rx="2" fill="#333333"/>
<rect x="480" y="40" width="4" height="4" rx="2" fill="#333333"/>
<rect x="520" y="40" width="4" height="4" rx="2" fill="#333333"/>
<rect x="560" y="40" width="4" height="4" rx="2" fill="#333333"/>
<rect x="600" y="40" width="4" height="4" rx="2" fill="#333333"/>
<rect x="640" y="40" width="4" height="4" rx="2" fill="#333333"/>
<rect x="680" y="40" width="4" height="4" rx="2" fill="#333333"/>
<rect x="720" y="40" width="4" height="4" rx="2" fill="#333333"/>
<rect x="760" y="40" width="4" height="4" rx="2" fill="#333333"/>
<rect x="800" y="40" width="4" height="4" rx="2" fill="#333333"/>
<rect x="840" y="40" width="4" height="4" rx="2" fill="#333333"/>
<rect x="880" y="40" width="4" height="4" rx="2" fill="#333333"/>
<rect x="920" y="40" width="4" height="4" rx="2" fill="#333333"/>
<rect x="960" y="40" width="4" height="4" rx="2" fill="#333333"/>
<rect x="1000" y="40" width="4" height="4" rx="2" fill="#333333"/>
<rect x="1040" y="40" width="4" height="4" rx="2" fill="#333333"/>
<rect x="1080" y="40" width="4" height="4" rx="2" fill="#333333"/>
<rect x="1120" y="40" width="4" height="4" rx="2" fill="#333333"/>
<rect x="1160" y="40" width="4" height="4" rx="2" fill="#333333"/>
<rect x="1200" y="40" width="4" height="4" rx="2" fill="#333333"/>
<rect x="1240" y="40" width="4" height="4" rx="2" fill="#333333"/>
<rect x="1280" y="40" width="4" height="4" rx="2" fill="#333333"/>
<rect x="1320" y="40" width="4" height="4" rx="2" fill="#333333"/>
<rect x="1360" y="40" width="4" height="4" rx="2" fill="#333333"/>
<rect x="1400" y="40" width="4" height="4" rx="2" fill="#333333"/>
<rect y="80" width="4" height="4" rx="2" fill="#333333"/>
<rect x="40" y="80" width="4" height="4" rx="2" fill="#333333"/>
<rect x="80" y="80" width="4" height="4" rx="2" fill="#333333"/>
<rect x="120" y="80" width="4" height="4" rx="2" fill="#333333"/>
<rect x="160" y="80" width="4" height="4" rx="2" fill="#333333"/>
<rect x="200" y="80" width="4" height="4" rx="2" fill="#333333"/>
<rect x="240" y="80" width="4" height="4" rx="2" fill="#333333"/>
<rect x="280" y="80" width="4" height="4" rx="2" fill="#333333"/>
<rect x="320" y="80" width="4" height="4" rx="2" fill="#333333"/>
<rect x="360" y="80" width="4" height="4" rx="2" fill="#333333"/>
<rect x="400" y="80" width="4" height="4" rx="2" fill="#333333"/>
<rect x="440" y="80" width="4" height="4" rx="2" fill="#333333"/>
<rect x="480" y="80" width="4" height="4" rx="2" fill="#333333"/>
<rect x="520" y="80" width="4" height="4" rx="2" fill="#333333"/>
<rect x="560" y="80" width="4" height="4" rx="2" fill="#333333"/>
<rect x="600" y="80" width="4" height="4" rx="2" fill="#333333"/>
<rect x="640" y="80" width="4" height="4" rx="2" fill="#333333"/>
<rect x="680" y="80" width="4" height="4" rx="2" fill="#333333"/>
<rect x="720" y="80" width="4" height="4" rx="2" fill="#333333"/>
<rect x="760" y="80" width="4" height="4" rx="2" fill="#333333"/>
<rect x="800" y="80" width="4" height="4" rx="2" fill="#333333"/>
<rect x="840" y="80" width="4" height="4" rx="2" fill="#333333"/>
<rect x="880" y="80" width="4" height="4" rx="2" fill="#333333"/>
<rect x="920" y="80" width="4" height="4" rx="2" fill="#333333"/>
<rect x="960" y="80" width="4" height="4" rx="2" fill="#333333"/>
<rect x="1000" y="80" width="4" height="4" rx="2" fill="#333333"/>
<rect x="1040" y="80" width="4" height="4" rx="2" fill="#333333"/>
<rect x="1080" y="80" width="4" height="4" rx="2" fill="#333333"/>
<rect x="1120" y="80" width="4" height="4" rx="2" fill="#333333"/>
<path d="M1162 74.9993V83.5493C1161.06 83.0093 1159.9 82.7993 1158.67 83.2293C1157.33 83.7093 1156.3 84.8993 1156.06 86.2993C1155.6 89.0393 1157.92 91.3793 1160.65 90.9493C1162.61 90.6393 1164 88.8393 1164 86.8493V76.9993H1166C1167.1 76.9993 1168 76.0993 1168 74.9993C1168 73.8993 1167.1 72.9993 1166 72.9993H1164C1162.9 72.9993 1162 73.8993 1162 74.9993Z" fill="#333333"/>
<rect x="1200" y="80" width="4" height="4" rx="2" fill="#333333"/>
<rect x="1240" y="80" width="4" height="4" rx="2" fill="#333333"/>
<rect x="1280" y="80" width="4" height="4" rx="2" fill="#333333"/>
<rect x="1320" y="80" width="4" height="4" rx="2" fill="#333333"/>
<rect x="1360" y="80" width="4" height="4" rx="2" fill="#333333"/>
<rect x="1400" y="80" width="4" height="4" rx="2" fill="#333333"/>
<rect y="120" width="4" height="4" rx="2" fill="#333333"/>
<rect x="40" y="120" width="4" height="4" rx="2" fill="#333333"/>
<rect x="80" y="120" width="4" height="4" rx="2" fill="#333333"/>
<path d="M121.999 114.999V123.549C121.059 123.009 119.899 122.799 118.669 123.229C117.329 123.709 116.299 124.899 116.059 126.299C115.599 129.039 117.919 131.379 120.649 130.949C122.609 130.639 123.999 128.839 123.999 126.849V116.999H125.999C127.099 116.999 127.999 116.099 127.999 114.999C127.999 113.899 127.099 112.999 125.999 112.999H123.999C122.899 112.999 121.999 113.899 121.999 114.999Z" fill="#333333"/>
<rect x="160" y="120" width="4" height="4" rx="2" fill="#333333"/>
<rect x="200" y="120" width="4" height="4" rx="2" fill="#333333"/>
<rect x="240" y="120" width="4" height="4" rx="2" fill="#333333"/>
<rect x="280" y="120" width="4" height="4" rx="2" fill="#333333"/>
<rect x="320" y="120" width="4" height="4" rx="2" fill="#333333"/>
<rect x="360" y="120" width="4" height="4" rx="2" fill="#333333"/>
<rect x="400" y="120" width="4" height="4" rx="2" fill="#333333"/>
<rect x="440" y="120" width="4" height="4" rx="2" fill="#333333"/>
<rect x="480" y="120" width="4" height="4" rx="2" fill="#333333"/>
<rect x="520" y="120" width="4" height="4" rx="2" fill="#333333"/>
<rect x="560" y="120" width="4" height="4" rx="2" fill="#333333"/>
<rect x="600" y="120" width="4" height="4" rx="2" fill="#333333"/>
<rect x="640" y="120" width="4" height="4" rx="2" fill="#333333"/>
<rect x="680" y="120" width="4" height="4" rx="2" fill="#333333"/>
<rect x="720" y="120" width="4" height="4" rx="2" fill="#333333"/>
<rect x="760" y="120" width="4" height="4" rx="2" fill="#333333"/>
<rect x="800" y="120" width="4" height="4" rx="2" fill="#333333"/>
<rect x="840" y="120" width="4" height="4" rx="2" fill="#333333"/>
<rect x="880" y="120" width="4" height="4" rx="2" fill="#333333"/>
<rect x="920" y="120" width="4" height="4" rx="2" fill="#333333"/>
<rect x="960" y="120" width="4" height="4" rx="2" fill="#333333"/>
<rect x="1000" y="120" width="4" height="4" rx="2" fill="#333333"/>
<rect x="1040" y="120" width="4" height="4" rx="2" fill="#333333"/>
<rect x="1080" y="120" width="4" height="4" rx="2" fill="#333333"/>
<rect x="1120" y="120" width="4" height="4" rx="2" fill="#333333"/>
<rect x="1160" y="120" width="4" height="4" rx="2" fill="#333333"/>
<rect x="1200" y="120" width="4" height="4" rx="2" fill="#333333"/>
<rect x="1240" y="120" width="4" height="4" rx="2" fill="#333333"/>
<rect x="1280" y="120" width="4" height="4" rx="2" fill="#333333"/>
<rect x="1320" y="120" width="4" height="4" rx="2" fill="#333333"/>
<rect x="1360" y="120" width="4" height="4" rx="2" fill="#333333"/>
<rect x="1400" y="120" width="4" height="4" rx="2" fill="#333333"/>
<rect y="160" width="4" height="4" rx="2" fill="#333333"/>
<rect x="40" y="160" width="4" height="4" rx="2" fill="#333333"/>
<rect x="80" y="160" width="4" height="4" rx="2" fill="#333333"/>
<rect x="120" y="160" width="4" height="4" rx="2" fill="#333333"/>
<rect x="160" y="160" width="4" height="4" rx="2" fill="#333333"/>
<rect x="200" y="160" width="4" height="4" rx="2" fill="#333333"/>
<rect x="240" y="160" width="4" height="4" rx="2" fill="#333333"/>
<rect x="280" y="160" width="4" height="4" rx="2" fill="#333333"/>
<rect x="320" y="160" width="4" height="4" rx="2" fill="#333333"/>
<rect x="360" y="160" width="4" height="4" rx="2" fill="#333333"/>
<rect x="400" y="160" width="4" height="4" rx="2" fill="#333333"/>
<rect x="440" y="160" width="4" height="4" rx="2" fill="#333333"/>
<rect x="480" y="160" width="4" height="4" rx="2" fill="#333333"/>
<rect x="520" y="160" width="4" height="4" rx="2" fill="#333333"/>
<rect x="560" y="160" width="4" height="4" rx="2" fill="#333333"/>
<rect x="600" y="160" width="4" height="4" rx="2" fill="#333333"/>
<rect x="640" y="160" width="4" height="4" rx="2" fill="#333333"/>
<rect x="680" y="160" width="4" height="4" rx="2" fill="#333333"/>
<rect x="720" y="160" width="4" height="4" rx="2" fill="#333333"/>
<rect x="760" y="160" width="4" height="4" rx="2" fill="#333333"/>
<rect x="800" y="160" width="4" height="4" rx="2" fill="#333333"/>
<rect x="840" y="160" width="4" height="4" rx="2" fill="#333333"/>
<rect x="880" y="160" width="4" height="4" rx="2" fill="#333333"/>
<rect x="920" y="160" width="4" height="4" rx="2" fill="#333333"/>
<rect x="960" y="160" width="4" height="4" rx="2" fill="#333333"/>
<rect x="1000" y="160" width="4" height="4" rx="2" fill="#333333"/>
<rect x="1040" y="160" width="4" height="4" rx="2" fill="#333333"/>
<rect x="1080" y="160" width="4" height="4" rx="2" fill="#333333"/>
<rect x="1120" y="160" width="4" height="4" rx="2" fill="#333333"/>
<rect x="1160" y="160" width="4" height="4" rx="2" fill="#333333"/>
<rect x="1200" y="160" width="4" height="4" rx="2" fill="#333333"/>
<rect x="1240" y="160" width="4" height="4" rx="2" fill="#333333"/>
<rect x="1280" y="160" width="4" height="4" rx="2" fill="#333333"/>
<rect x="1320" y="160" width="4" height="4" rx="2" fill="#333333"/>
<rect x="1360" y="160" width="4" height="4" rx="2" fill="#333333"/>
<rect x="1400" y="160" width="4" height="4" rx="2" fill="#333333"/>
<rect y="200" width="4" height="4" rx="2" fill="#333333"/>
<rect x="40" y="200" width="4" height="4" rx="2" fill="#333333"/>
<rect x="80" y="200" width="4" height="4" rx="2" fill="#333333"/>
<rect x="120" y="200" width="4" height="4" rx="2" fill="#333333"/>
<rect x="160" y="200" width="4" height="4" rx="2" fill="#333333"/>
<rect x="200" y="200" width="4" height="4" rx="2" fill="#333333"/>
<rect x="240" y="200" width="4" height="4" rx="2" fill="#333333"/>
<rect x="280" y="200" width="4" height="4" rx="2" fill="#333333"/>
<rect x="320" y="200" width="4" height="4" rx="2" fill="#333333"/>
<rect x="360" y="200" width="4" height="4" rx="2" fill="#333333"/>
<rect x="400" y="200" width="4" height="4" rx="2" fill="#333333"/>
<rect x="440" y="200" width="4" height="4" rx="2" fill="#333333"/>
<rect x="480" y="200" width="4" height="4" rx="2" fill="#333333"/>
<rect x="520" y="200" width="4" height="4" rx="2" fill="#333333"/>
<rect x="560" y="200" width="4" height="4" rx="2" fill="#333333"/>
<rect x="600" y="200" width="4" height="4" rx="2" fill="#333333"/>
<path d="M641.999 194.999V203.549C641.059 203.009 639.899 202.799 638.669 203.229C637.329 203.709 636.299 204.899 636.059 206.299C635.599 209.039 637.919 211.379 640.649 210.949C642.609 210.639 643.999 208.839 643.999 206.849V196.999H645.999C647.099 196.999 647.999 196.099 647.999 194.999C647.999 193.899 647.099 192.999 645.999 192.999H643.999C642.899 192.999 641.999 193.899 641.999 194.999Z" fill="#333333"/>
<rect x="680" y="200" width="4" height="4" rx="2" fill="#333333"/>
<rect x="720" y="200" width="4" height="4" rx="2" fill="#333333"/>
<rect x="760" y="200" width="4" height="4" rx="2" fill="#333333"/>
<rect x="800" y="200" width="4" height="4" rx="2" fill="#333333"/>
<rect x="840" y="200" width="4" height="4" rx="2" fill="#333333"/>
<rect x="880" y="200" width="4" height="4" rx="2" fill="#333333"/>
<rect x="920" y="200" width="4" height="4" rx="2" fill="#333333"/>
<rect x="960" y="200" width="4" height="4" rx="2" fill="#333333"/>
<rect x="1000" y="200" width="4" height="4" rx="2" fill="#333333"/>
<rect x="1040" y="200" width="4" height="4" rx="2" fill="#333333"/>
<rect x="1080" y="200" width="4" height="4" rx="2" fill="#333333"/>
<rect x="1120" y="200" width="4" height="4" rx="2" fill="#333333"/>
<rect x="1160" y="200" width="4" height="4" rx="2" fill="#333333"/>
<rect x="1200" y="200" width="4" height="4" rx="2" fill="#333333"/>
<rect x="1240" y="200" width="4" height="4" rx="2" fill="#333333"/>
<rect x="1280" y="200" width="4" height="4" rx="2" fill="#333333"/>
<rect x="1320" y="200" width="4" height="4" rx="2" fill="#333333"/>
<rect x="1360" y="200" width="4" height="4" rx="2" fill="#333333"/>
<rect x="1400" y="200" width="4" height="4" rx="2" fill="#333333"/>
<rect y="240" width="4" height="4" rx="2" fill="#333333"/>
<rect x="40" y="240" width="4" height="4" rx="2" fill="#333333"/>
<rect x="80" y="240" width="4" height="4" rx="2" fill="#333333"/>
<rect x="120" y="240" width="4" height="4" rx="2" fill="#333333"/>
<rect x="160" y="240" width="4" height="4" rx="2" fill="#333333"/>
<rect x="200" y="240" width="4" height="4" rx="2" fill="#333333"/>
<rect x="240" y="240" width="4" height="4" rx="2" fill="#333333"/>
<rect x="280" y="240" width="4" height="4" rx="2" fill="#333333"/>
<rect x="320" y="240" width="4" height="4" rx="2" fill="#333333"/>
<rect x="360" y="240" width="4" height="4" rx="2" fill="#333333"/>
<rect x="400" y="240" width="4" height="4" rx="2" fill="#333333"/>
<rect x="440" y="240" width="4" height="4" rx="2" fill="#333333"/>
<rect x="480" y="240" width="4" height="4" rx="2" fill="#333333"/>
<rect x="520" y="240" width="4" height="4" rx="2" fill="#333333"/>
<rect x="560" y="240" width="4" height="4" rx="2" fill="#333333"/>
<rect x="600" y="240" width="4" height="4" rx="2" fill="#333333"/>
<rect x="640" y="240" width="4" height="4" rx="2" fill="#333333"/>
<rect x="680" y="240" width="4" height="4" rx="2" fill="#333333"/>
<rect x="720" y="240" width="4" height="4" rx="2" fill="#333333"/>
<rect x="760" y="240" width="4" height="4" rx="2" fill="#333333"/>
<rect x="800" y="240" width="4" height="4" rx="2" fill="#333333"/>
<rect x="840" y="240" width="4" height="4" rx="2" fill="#333333"/>
<rect x="880" y="240" width="4" height="4" rx="2" fill="#333333"/>
<rect x="920" y="240" width="4" height="4" rx="2" fill="#333333"/>
<rect x="960" y="240" width="4" height="4" rx="2" fill="#333333"/>
<rect x="1000" y="240" width="4" height="4" rx="2" fill="#333333"/>
<rect x="1040" y="240" width="4" height="4" rx="2" fill="#333333"/>
<rect x="1080" y="240" width="4" height="4" rx="2" fill="#333333"/>
<rect x="1120" y="240" width="4" height="4" rx="2" fill="#333333"/>
<rect x="1160" y="240" width="4" height="4" rx="2" fill="#333333"/>
<rect x="1200" y="240" width="4" height="4" rx="2" fill="#333333"/>
<rect x="1240" y="240" width="4" height="4" rx="2" fill="#333333"/>
<rect x="1280" y="240" width="4" height="4" rx="2" fill="#333333"/>
<rect x="1320" y="240" width="4" height="4" rx="2" fill="#333333"/>
<rect x="1360" y="240" width="4" height="4" rx="2" fill="#333333"/>
<rect x="1400" y="240" width="4" height="4" rx="2" fill="#333333"/>
<rect y="280" width="4" height="4" rx="2" fill="#333333"/>
<rect x="40" y="280" width="4" height="4" rx="2" fill="#333333"/>
<rect x="80" y="280" width="4" height="4" rx="2" fill="#333333"/>
<rect x="120" y="280" width="4" height="4" rx="2" fill="#333333"/>
<rect x="160" y="280" width="4" height="4" rx="2" fill="#333333"/>
<rect x="200" y="280" width="4" height="4" rx="2" fill="#333333"/>
<rect x="240" y="280" width="4" height="4" rx="2" fill="#333333"/>
<rect x="280" y="280" width="4" height="4" rx="2" fill="#333333"/>
<rect x="320" y="280" width="4" height="4" rx="2" fill="#333333"/>
<rect x="360" y="280" width="4" height="4" rx="2" fill="#333333"/>
<rect x="400" y="280" width="4" height="4" rx="2" fill="#333333"/>
<rect x="440" y="280" width="4" height="4" rx="2" fill="#333333"/>
<rect x="480" y="280" width="4" height="4" rx="2" fill="#333333"/>
<rect x="520" y="280" width="4" height="4" rx="2" fill="#333333"/>
<rect x="560" y="280" width="4" height="4" rx="2" fill="#333333"/>
<rect x="600" y="280" width="4" height="4" rx="2" fill="#333333"/>
<rect x="640" y="280" width="4" height="4" rx="2" fill="#333333"/>
<rect x="680" y="280" width="4" height="4" rx="2" fill="#333333"/>
<rect x="720" y="280" width="4" height="4" rx="2" fill="#333333"/>
<rect x="760" y="280" width="4" height="4" rx="2" fill="#333333"/>
<rect x="800" y="280" width="4" height="4" rx="2" fill="#333333"/>
<rect x="840" y="280" width="4" height="4" rx="2" fill="#333333"/>
<rect x="880" y="280" width="4" height="4" rx="2" fill="#333333"/>
<rect x="920" y="280" width="4" height="4" rx="2" fill="#333333"/>
<rect x="960" y="280" width="4" height="4" rx="2" fill="#333333"/>
<rect x="1000" y="280" width="4" height="4" rx="2" fill="#333333"/>
<rect x="1040" y="280" width="4" height="4" rx="2" fill="#333333"/>
<rect x="1080" y="280" width="4" height="4" rx="2" fill="#333333"/>
<rect x="1120" y="280" width="4" height="4" rx="2" fill="#333333"/>
<rect x="1160" y="280" width="4" height="4" rx="2" fill="#333333"/>
<rect x="1200" y="280" width="4" height="4" rx="2" fill="#333333"/>
<rect x="1240" y="280" width="4" height="4" rx="2" fill="#333333"/>
<rect x="1280" y="280" width="4" height="4" rx="2" fill="#333333"/>
<rect x="1320" y="280" width="4" height="4" rx="2" fill="#333333"/>
<rect x="1360" y="280" width="4" height="4" rx="2" fill="#333333"/>
<rect x="1400" y="280" width="4" height="4" rx="2" fill="#333333"/>
<rect y="320" width="4" height="4" rx="2" fill="#333333"/>
<rect x="40" y="320" width="4" height="4" rx="2" fill="#333333"/>
<rect x="80" y="320" width="4" height="4" rx="2" fill="#333333"/>
<rect x="120" y="320" width="4" height="4" rx="2" fill="#333333"/>
<rect x="160" y="320" width="4" height="4" rx="2" fill="#333333"/>
<rect x="200" y="320" width="4" height="4" rx="2" fill="#333333"/>
<rect x="240" y="320" width="4" height="4" rx="2" fill="#333333"/>
<rect x="280" y="320" width="4" height="4" rx="2" fill="#333333"/>
<rect x="320" y="320" width="4" height="4" rx="2" fill="#333333"/>
<rect x="360" y="320" width="4" height="4" rx="2" fill="#333333"/>
<rect x="400" y="320" width="4" height="4" rx="2" fill="#333333"/>
<rect x="440" y="320" width="4" height="4" rx="2" fill="#333333"/>
<rect x="480" y="320" width="4" height="4" rx="2" fill="#333333"/>
<rect x="520" y="320" width="4" height="4" rx="2" fill="#333333"/>
<rect x="560" y="320" width="4" height="4" rx="2" fill="#333333"/>
<rect x="600" y="320" width="4" height="4" rx="2" fill="#333333"/>
<rect x="640" y="320" width="4" height="4" rx="2" fill="#333333"/>
<rect x="680" y="320" width="4" height="4" rx="2" fill="#333333"/>
<rect x="720" y="320" width="4" height="4" rx="2" fill="#333333"/>
<rect x="760" y="320" width="4" height="4" rx="2" fill="#333333"/>
<rect x="800" y="320" width="4" height="4" rx="2" fill="#333333"/>
<rect x="840" y="320" width="4" height="4" rx="2" fill="#333333"/>
<rect x="880" y="320" width="4" height="4" rx="2" fill="#333333"/>
<rect x="920" y="320" width="4" height="4" rx="2" fill="#333333"/>
<rect x="960" y="320" width="4" height="4" rx="2" fill="#333333"/>
<rect x="1000" y="320" width="4" height="4" rx="2" fill="#333333"/>
<rect x="1040" y="320" width="4" height="4" rx="2" fill="#333333"/>
<rect x="1080" y="320" width="4" height="4" rx="2" fill="#333333"/>
<rect x="1120" y="320" width="4" height="4" rx="2" fill="#333333"/>
<rect x="1160" y="320" width="4" height="4" rx="2" fill="#333333"/>
<rect x="1200" y="320" width="4" height="4" rx="2" fill="#333333"/>
<rect x="1240" y="320" width="4" height="4" rx="2" fill="#333333"/>
<rect x="1280" y="320" width="4" height="4" rx="2" fill="#333333"/>
<rect x="1320" y="320" width="4" height="4" rx="2" fill="#333333"/>
<rect x="1360" y="320" width="4" height="4" rx="2" fill="#333333"/>
<rect x="1400" y="320" width="4" height="4" rx="2" fill="#333333"/>
<rect y="360" width="4" height="4" rx="2" fill="#333333"/>
<rect x="40" y="360" width="4" height="4" rx="2" fill="#333333"/>
<rect x="80" y="360" width="4" height="4" rx="2" fill="#333333"/>
<rect x="120" y="360" width="4" height="4" rx="2" fill="#333333"/>
<rect x="160" y="360" width="4" height="4" rx="2" fill="#333333"/>
<rect x="200" y="360" width="4" height="4" rx="2" fill="#333333"/>
<rect x="240" y="360" width="4" height="4" rx="2" fill="#333333"/>
<rect x="280" y="360" width="4" height="4" rx="2" fill="#333333"/>
<rect x="320" y="360" width="4" height="4" rx="2" fill="#333333"/>
<rect x="360" y="360" width="4" height="4" rx="2" fill="#333333"/>
<rect x="400" y="360" width="4" height="4" rx="2" fill="#333333"/>
<rect x="440" y="360" width="4" height="4" rx="2" fill="#333333"/>
<rect x="480" y="360" width="4" height="4" rx="2" fill="#333333"/>
<rect x="520" y="360" width="4" height="4" rx="2" fill="#333333"/>
<rect x="560" y="360" width="4" height="4" rx="2" fill="#333333"/>
<rect x="600" y="360" width="4" height="4" rx="2" fill="#333333"/>
<rect x="640" y="360" width="4" height="4" rx="2" fill="#333333"/>
<rect x="680" y="360" width="4" height="4" rx="2" fill="#333333"/>
<rect x="720" y="360" width="4" height="4" rx="2" fill="#333333"/>
<rect x="760" y="360" width="4" height="4" rx="2" fill="#333333"/>
<rect x="800" y="360" width="4" height="4" rx="2" fill="#333333"/>
<rect x="840" y="360" width="4" height="4" rx="2" fill="#333333"/>
<rect x="880" y="360" width="4" height="4" rx="2" fill="#333333"/>
<rect x="920" y="360" width="4" height="4" rx="2" fill="#333333"/>
<rect x="960" y="360" width="4" height="4" rx="2" fill="#333333"/>
<rect x="1000" y="360" width="4" height="4" rx="2" fill="#333333"/>
<rect x="1040" y="360" width="4" height="4" rx="2" fill="#333333"/>
<rect x="1080" y="360" width="4" height="4" rx="2" fill="#333333"/>
<rect x="1120" y="360" width="4" height="4" rx="2" fill="#333333"/>
<rect x="1160" y="360" width="4" height="4" rx="2" fill="#333333"/>
<rect x="1200" y="360" width="4" height="4" rx="2" fill="#333333"/>
<rect x="1240" y="360" width="4" height="4" rx="2" fill="#333333"/>
<rect x="1280" y="360" width="4" height="4" rx="2" fill="#333333"/>
<rect x="1320" y="360" width="4" height="4" rx="2" fill="#333333"/>
<rect x="1360" y="360" width="4" height="4" rx="2" fill="#333333"/>
<rect x="1400" y="360" width="4" height="4" rx="2" fill="#333333"/>
<rect y="400" width="4" height="4" rx="2" fill="#333333"/>
<rect x="40" y="400" width="4" height="4" rx="2" fill="#333333"/>
<rect x="80" y="400" width="4" height="4" rx="2" fill="#333333"/>
<rect x="120" y="400" width="4" height="4" rx="2" fill="#333333"/>
<rect x="160" y="400" width="4" height="4" rx="2" fill="#333333"/>
<rect x="200" y="400" width="4" height="4" rx="2" fill="#333333"/>
<rect x="240" y="400" width="4" height="4" rx="2" fill="#333333"/>
<rect x="280" y="400" width="4" height="4" rx="2" fill="#333333"/>
<rect x="320" y="400" width="4" height="4" rx="2" fill="#333333"/>
<rect x="360" y="400" width="4" height="4" rx="2" fill="#333333"/>
<rect x="400" y="400" width="4" height="4" rx="2" fill="#333333"/>
<rect x="440" y="400" width="4" height="4" rx="2" fill="#333333"/>
<rect x="480" y="400" width="4" height="4" rx="2" fill="#333333"/>
<rect x="520" y="400" width="4" height="4" rx="2" fill="#333333"/>
<rect x="560" y="400" width="4" height="4" rx="2" fill="#333333"/>
<rect x="600" y="400" width="4" height="4" rx="2" fill="#333333"/>
<rect x="640" y="400" width="4" height="4" rx="2" fill="#333333"/>
<rect x="680" y="400" width="4" height="4" rx="2" fill="#333333"/>
<rect x="720" y="400" width="4" height="4" rx="2" fill="#333333"/>
<rect x="760" y="400" width="4" height="4" rx="2" fill="#333333"/>
<rect x="800" y="400" width="4" height="4" rx="2" fill="#333333"/>
<rect x="840" y="400" width="4" height="4" rx="2" fill="#333333"/>
<rect x="880" y="400" width="4" height="4" rx="2" fill="#333333"/>
<rect x="920" y="400" width="4" height="4" rx="2" fill="#333333"/>
<rect x="960" y="400" width="4" height="4" rx="2" fill="#333333"/>
<rect x="1000" y="400" width="4" height="4" rx="2" fill="#333333"/>
<rect x="1040" y="400" width="4" height="4" rx="2" fill="#333333"/>
<rect x="1080" y="400" width="4" height="4" rx="2" fill="#333333"/>
<rect x="1120" y="400" width="4" height="4" rx="2" fill="#333333"/>
<rect x="1160" y="400" width="4" height="4" rx="2" fill="#333333"/>
<rect x="1200" y="400" width="4" height="4" rx="2" fill="#333333"/>
<rect x="1240" y="400" width="4" height="4" rx="2" fill="#333333"/>
<rect x="1280" y="400" width="4" height="4" rx="2" fill="#333333"/>
<rect x="1320" y="400" width="4" height="4" rx="2" fill="#333333"/>
<rect x="1360" y="400" width="4" height="4" rx="2" fill="#333333"/>
<rect x="1400" y="400" width="4" height="4" rx="2" fill="#333333"/>
<rect y="440" width="4" height="4" rx="2" fill="#333333"/>
<rect x="40" y="440" width="4" height="4" rx="2" fill="#333333"/>
<rect x="80" y="440" width="4" height="4" rx="2" fill="#333333"/>
<rect x="120" y="440" width="4" height="4" rx="2" fill="#333333"/>
<rect x="160" y="440" width="4" height="4" rx="2" fill="#333333"/>
<rect x="200" y="440" width="4" height="4" rx="2" fill="#333333"/>
<rect x="240" y="440" width="4" height="4" rx="2" fill="#333333"/>
<rect x="280" y="440" width="4" height="4" rx="2" fill="#333333"/>
<rect x="320" y="440" width="4" height="4" rx="2" fill="#333333"/>
<rect x="360" y="440" width="4" height="4" rx="2" fill="#333333"/>
<rect x="400" y="440" width="4" height="4" rx="2" fill="#333333"/>
<rect x="440" y="440" width="4" height="4" rx="2" fill="#333333"/>
<rect x="480" y="440" width="4" height="4" rx="2" fill="#333333"/>
<rect x="520" y="440" width="4" height="4" rx="2" fill="#333333"/>
<rect x="560" y="440" width="4" height="4" rx="2" fill="#333333"/>
<rect x="600" y="440" width="4" height="4" rx="2" fill="#333333"/>
<rect x="640" y="440" width="4" height="4" rx="2" fill="#333333"/>
<rect x="680" y="440" width="4" height="4" rx="2" fill="#333333"/>
<rect x="720" y="440" width="4" height="4" rx="2" fill="#333333"/>
<rect x="760" y="440" width="4" height="4" rx="2" fill="#333333"/>
<rect x="800" y="440" width="4" height="4" rx="2" fill="#333333"/>
<rect x="840" y="440" width="4" height="4" rx="2" fill="#333333"/>
<rect x="880" y="440" width="4" height="4" rx="2" fill="#333333"/>
<rect x="920" y="440" width="4" height="4" rx="2" fill="#333333"/>
<rect x="960" y="440" width="4" height="4" rx="2" fill="#333333"/>
<rect x="1000" y="440" width="4" height="4" rx="2" fill="#333333"/>
<rect x="1040" y="440" width="4" height="4" rx="2" fill="#333333"/>
<rect x="1080" y="440" width="4" height="4" rx="2" fill="#333333"/>
<rect x="1120" y="440" width="4" height="4" rx="2" fill="#333333"/>
<rect x="1160" y="440" width="4" height="4" rx="2" fill="#333333"/>
<rect x="1200" y="440" width="4" height="4" rx="2" fill="#333333"/>
<rect x="1240" y="440" width="4" height="4" rx="2" fill="#333333"/>
<rect x="1280" y="440" width="4" height="4" rx="2" fill="#333333"/>
<rect x="1320" y="440" width="4" height="4" rx="2" fill="#333333"/>
<rect x="1360" y="440" width="4" height="4" rx="2" fill="#333333"/>
<rect x="1400" y="440" width="4" height="4" rx="2" fill="#333333"/>
</svg>
